<svg xmlns="http://www.w3.org/2000/svg"><symbol id="toggle" viewBox="0 0 216 432"><rect width="159" height="33" x="29" y="32" fill="#ee7236" stroke="#000" stroke-miterlimit="10" stroke-width="6" rx="6.4" ry="6.4"/><rect width="159" height="33" x="29" y="84" fill="#4aa26c" stroke="#000" stroke-miterlimit="10" stroke-width="6" rx="6.4" ry="6.4"/><rect width="159" height="33" x="29" y="136" fill="#2461cc" stroke="#000" stroke-miterlimit="10" stroke-width="6" rx="6.4" ry="6.4"/><rect width="159" height="33" x="-24" y="309" fill="#fff" stroke="#db4448" stroke-miterlimit="10" stroke-width="6" rx="6.4" ry="6.4" transform="rotate(-90 55.5 325.5)"/><rect width="159" height="33" x="28" y="309" fill="#fff" stroke="#fae053" stroke-miterlimit="10" stroke-width="6" rx="6.4" ry="6.4" transform="rotate(-90 107.5 325.5)"/><rect width="159" height="33" x="80" y="309" fill="#fff" stroke="#e2e2e2" stroke-miterlimit="10" stroke-width="6" rx="6.4" ry="6.4" transform="rotate(-90 159.5 325.5)"/></symbol><symbol id="shopping-cart" viewBox="0 0 216 432"><path fill="#fff" stroke="#000" stroke-miterlimit="10" stroke-width="12" d="M34 51.8h23l19.8 71.5H159V68.6H61.5"/><circle cx="154" cy="149" r="8"/><circle cx="78" cy="149" r="8"/><path fill="#fff" stroke="#000" stroke-miterlimit="10" stroke-width="10.8" d="M67.4 93.6h90.8"/><path fill="#fff" stroke="#4aa26c" stroke-miterlimit="10" stroke-width="12" d="M34.3 281.3l23 .1L76.7 353l82.3.3.2-54.7-97.4-.4"/><circle cx="153.8" cy="379.2" r="8" fill="#4aa26c"/><circle cx="77.8" cy="378.9" r="8" fill="#4aa26c"/><path fill="#fff" stroke="#4aa26c" stroke-miterlimit="10" stroke-width="9.97" d="M67.4 323.3h90.8"/><path fill="#fff" stroke="#4aa26c" stroke-miterlimit="10" stroke-width="7" d="M159.5 261.5h22v22h-22z"/></symbol></svg>