<svg id="Layer_1" data-name="Layer 1" xmlns="http://www.w3.org/2000/svg" viewBox="0 0 16 16"><defs><style>.cls-1{fill:#231f20;}.cls-2{fill:none;}.cls-3{fill:#fff;}</style></defs><title>16 x 16px</title><path class="cls-1" d="M3.81,9.09S3.8,9,3.8,9L2.52,5.62a.73.73,0,0,0,0-.12.28.28,0,0,0-.05-.08.18.18,0,0,0-.07,0h-.5a.26.26,0,0,0-.15.07.85.85,0,0,0-.09.19L.45,9.13l0,.08a.35.35,0,0,1,0,.06c0,.05,0,.07.09.07H.86a.1.1,0,0,0,.05,0l0,0s0-.05,0-.08l0-.08.08-.34.29-1.08.31,1.08.1.34,0,.1,0,.05.05,0a.2.2,0,0,0,.08,0,.23.23,0,0,0,.12,0H3.63a.17.17,0,0,0,.13-.05.17.17,0,0,0,.06-.14A.13.13,0,0,0,3.81,9.09Zm-.26,0-.07,0H3.35L2,5.59h.09l.11,0a.14.14,0,0,1,.06.07L3.54,9S3.56,9.07,3.55,9.09Z"/><path class="cls-1" d="M5.23,8.22v.84a.31.31,0,0,1,0,.1.08.08,0,0,1,0,.07l-.08,0h-1l-.08,0a.19.19,0,0,1,0-.08.31.31,0,0,1,0-.1V7.82a.31.31,0,0,1,0-.1.15.15,0,0,1,0-.07l.08-.05h1a.18.18,0,0,1,.07.05.09.09,0,0,1,0,.07.37.37,0,0,1,0,.11V8m-.14-.11V7.78l0,0H5V9.15h.11l0,0V7.84Z"/><path class="cls-1" d="M7,8.5a.79.79,0,0,0,0,.28A.51.51,0,0,0,7.13,9a.27.27,0,0,0,.12.09.23.23,0,0,0,.11,0h.08L7.5,9l0,0h0V9l.06.09s0,0,0,0v0h0l-.14.08-.18.08-.24.06-.28,0-.25,0a1,1,0,0,1-.24-.07.7.7,0,0,1-.21-.11A.69.69,0,0,1,6,9a.9.9,0,0,1-.12-.24,1,1,0,0,1,0-.3.91.91,0,0,1,0-.3A.9.9,0,0,1,6,8a.55.55,0,0,1,.17-.17.72.72,0,0,1,.21-.12.94.94,0,0,1,.24-.06l.25,0,.26,0,.23,0,.2.08.14.08h0v0a0,0,0,0,1,0,0L7.6,8a0,0,0,0,0,0,0h0l0,0-.06,0H7.36L7.25,8A.27.27,0,0,0,7.13,8,.44.44,0,0,0,7,8.22.75.75,0,0,0,7,8.5Zm.22.64a.34.34,0,0,1-.11-.05A.25.25,0,0,1,7,9a.53.53,0,0,1-.09-.2.75.75,0,0,1,0-.28.85.85,0,0,1,0-.29A.48.48,0,0,1,7,8a.34.34,0,0,1,.12-.12l.11-.05a.58.58,0,0,0-.18,0A.42.42,0,0,0,6.88,8a.55.55,0,0,0-.11.2.85.85,0,0,0,0,.3.9.9,0,0,0,0,.3A.5.5,0,0,0,6.88,9,.42.42,0,0,0,7,9.1.39.39,0,0,0,7.22,9.14Z"/><path class="cls-1" d="M9.09,7.67a.19.19,0,0,1,.09,0l.11,0a.31.31,0,0,1,.25.11A.52.52,0,0,1,9.63,8V9.26a.07.07,0,0,1,0,.05l0,0H9.44s0,0,0,0a.14.14,0,0,1,0-.06V8a.33.33,0,0,0,0-.15.13.13,0,0,0-.11,0,.13.13,0,0,0-.08,0l-.06,0V9.11a.31.31,0,0,1,0,.1.09.09,0,0,1,0,.07A.18.18,0,0,1,9,9.33H8a.13.13,0,0,1-.07-.05.16.16,0,0,1,0-.07s0-.06,0-.1V6.85s0-.08,0-.1a.2.2,0,0,1,0-.08l.08,0,.13,0h.73l.12,0s.06,0,.07,0a.16.16,0,0,1,0,.07.37.37,0,0,1,0,.11ZM9,6.86a.13.13,0,0,0,0-.06l0,0h-.1V9.2h.1a.05.05,0,0,0,0,0s0,0,0-.06Z"/><path class="cls-1" d="M5.55,8a0,0,0,0,1,0,0,.34.34,0,0,0,0-.12.13.13,0,0,0-.11,0,.11.11,0,0,0-.07,0l-.07,0,0-.2.13-.07.11,0a.31.31,0,0,1,.25.11A.42.42,0,0,1,5.77,8s0,0,0,0Z"/><path class="cls-1" d="M12.08,7.87s0-.07,0-.1a.2.2,0,0,1,0-.08l.08,0h1a.2.2,0,0,1,.08,0,.21.21,0,0,1,0,.07.37.37,0,0,1,0,.11V9.11a.31.31,0,0,1,0,.1.15.15,0,0,1,0,.07l-.08.05h-1l-.08-.05a.16.16,0,0,1,0-.07s0-.06,0-.1Zm1.09,0a.13.13,0,0,0,0-.06s0,0,0,0H13V9.2h.1a.05.05,0,0,0,0,0s0,0,0-.06Z"/><path class="cls-1" d="M14.76,8.5a.79.79,0,0,0,0,.28.51.51,0,0,0,.09.18.31.31,0,0,0,.11.09.3.3,0,0,0,.12,0h.08l.06,0,.05,0h0V9l.06.09s0,0,0,0v0h0l-.14.08-.18.08-.24.06-.28,0-.25,0a.84.84,0,0,1-.24-.07.7.7,0,0,1-.21-.11A.69.69,0,0,1,13.71,9a.9.9,0,0,1-.12-.24,1,1,0,0,1,0-.3.91.91,0,0,1,0-.3A.9.9,0,0,1,13.71,8a.55.55,0,0,1,.17-.17.72.72,0,0,1,.21-.12.84.84,0,0,1,.24-.06l.25,0,.26,0,.23,0,.2.08.14.08h0v0a0,0,0,0,1,0,0L15.36,8a0,0,0,0,0,0,0h0l0,0-.06,0h-.08L15,8a.31.31,0,0,0-.11.09.44.44,0,0,0-.09.18A.75.75,0,0,0,14.76,8.5Zm.22.64a.34.34,0,0,1-.11-.05A.25.25,0,0,1,14.75,9a.53.53,0,0,1-.09-.2.75.75,0,0,1,0-.28.85.85,0,0,1,0-.29A.48.48,0,0,1,14.75,8a.34.34,0,0,1,.12-.12L15,7.85a.58.58,0,0,0-.18,0,.42.42,0,0,0-.16.11.55.55,0,0,0-.11.2.85.85,0,0,0,0,.3.9.9,0,0,0,0,.3.5.5,0,0,0,.11.19.42.42,0,0,0,.16.11A.39.39,0,0,0,15,9.14Z"/><path class="cls-2" d="M11,7.77l0,0h-.12l.79,1.5h.12v0Z"/><polygon class="cls-2" points="10.42 8.62 10.25 9.08 10.61 9.08 10.42 8.62"/><path d="M11.9,9.23s0,0,0,0l-.77-1.45,0-.06,0,0,0,0h-.3a.12.12,0,0,0-.09,0,.18.18,0,0,0-.06.08l-.69,1.5s0,0,0,0v0s0,0,.05,0h.22l0,0,0,0a0,0,0,0,0,0,0v0l.06-.15.17-.46.19.46.05.15,0,0v0l0,0,0,0h1l.08,0a.06.06,0,0,0,0-.06Zm-.16,0h-.12l-.79-1.5H11l0,0,.75,1.43Z"/><circle cx="12.71" cy="6.86" r="0.6"/><circle class="cls-3" cx="12.71" cy="6.86" r="0.22"/><circle cx="12.71" cy="6.86" r="0.08"/><path class="cls-3" d="M12.48,6.5l0,0s0,0,0,0l.18-.05h.07v0a1.34,1.34,0,0,0,0,.19.42.42,0,0,0-.14,0s-.06,0-.06,0Z"/><path class="cls-3" d="M12.35,6.49a.05.05,0,0,1,.06,0l.09.12s0,0,0,0,0,0,0,0l-.1-.09A.08.08,0,0,1,12.35,6.49Z"/><path class="cls-3" d="M13,7.23l0,0s0,0,0,0l-.17,0h-.08a0,0,0,0,1,0,0V7.17a.42.42,0,0,0,.14,0s.07,0,.07,0Z"/><path class="cls-3" d="M13.08,7.24a0,0,0,0,1-.05,0l-.1-.12s0,0,0,0H13l.1.09A.06.06,0,0,1,13.08,7.24Z"/><path class="cls-1" d="M11.38,9.57h.17a.42.42,0,0,1,.17,0,.17.17,0,0,1,.12.17.24.24,0,0,1,0,.09c0,.08-.11.11-.24.11l.27.34h-.09L11.49,10h0v.34h-.07Zm.07.07v.25h.12a.28.28,0,0,0,.15,0,.15.15,0,0,0,0-.1c0-.07,0-.12-.16-.12Z"/><path class="cls-1" d="M12,10a.21.21,0,0,0,.21.21.21.21,0,0,0,.2-.13l.06,0a.26.26,0,0,1-.26.16A.27.27,0,0,1,12,10a.28.28,0,0,1,.28-.29.28.28,0,0,1,.28.3Zm.41-.07a.2.2,0,0,0-.2-.16A.19.19,0,0,0,12,10Z"/><path class="cls-1" d="M13.18,10.19a.31.31,0,0,1-.26.12.28.28,0,0,1-.3-.27.3.3,0,0,1,.31-.3.3.3,0,0,1,.25.13l-.06,0a.22.22,0,0,0-.2-.1.22.22,0,0,0-.22.22.22.22,0,0,0,.23.22.25.25,0,0,0,.19-.09Z"/><path class="cls-1" d="M13.85,10a.28.28,0,0,1-.28.29.29.29,0,0,1-.29-.29.3.3,0,0,1,.29-.29A.29.29,0,0,1,13.85,10Zm-.49,0a.21.21,0,1,0,.42,0,.22.22,0,0,0-.21-.22A.21.21,0,0,0,13.36,10Z"/><path class="cls-1" d="M14,9.84c0-.06.08-.1.14-.1l.06,0,0,.06h0c-.06,0-.1,0-.12.12a.76.76,0,0,0,0,.17v.2H14V9.76H14Z"/><path class="cls-1" d="M14.76,10.21a.28.28,0,0,1-.22.1.29.29,0,0,1,0-.57.26.26,0,0,1,.22.12V9.55h.06v.75h-.06ZM14.33,10a.21.21,0,0,0,.21.22.21.21,0,0,0,.22-.22.22.22,0,1,0-.43,0Z"/><path class="cls-1" d="M15,10.19a.14.14,0,0,0,.11.06.1.1,0,0,0,.1-.09.1.1,0,0,0,0-.08C15,10,15,10,15,9.89a.14.14,0,0,1,.15-.15.22.22,0,0,1,.15.08l0,0a.14.14,0,0,0-.11,0,.08.08,0,0,0-.08.07.12.12,0,0,0,0,.08c.13.07.2.1.2.2a.17.17,0,0,1-.17.16.21.21,0,0,1-.16-.08Z"/><path class="cls-1" d="M15.44,10.25a.07.07,0,0,1-.07.07.07.07,0,0,1-.06-.07.06.06,0,0,1,.06-.06A.07.07,0,0,1,15.44,10.25Z"/></svg>