<svg id="Layer_1" data-name="Layer 1" xmlns="http://www.w3.org/2000/svg" viewBox="0 0 32 32"><defs><style>.cls-1,.cls-4{fill:#231f20;}.cls-2{fill:none;}.cls-3{fill:#fff;}.cls-4{font-size:2.09px;font-family:CenturyGothicPro, Century Gothic Pro;}.cls-5{letter-spacing:-0.01em;}.cls-6{letter-spacing:-0.08em;}</style></defs><title>32px x 32px</title><path class="cls-1" d="M7.44,18.22a.43.43,0,0,0,0-.14L4.8,11.13a2.16,2.16,0,0,0-.1-.25,1.11,1.11,0,0,0-.12-.16.3.3,0,0,0-.13-.09.47.47,0,0,0-.17,0H3.43a.36.36,0,0,0-.3.14,1.08,1.08,0,0,0-.2.39L.57,18.31a.88.88,0,0,0-.06.17.74.74,0,0,0,0,.12c0,.09.06.14.18.14h.59l.15,0a.39.39,0,0,0,.1-.08.37.37,0,0,0,.05-.11.54.54,0,0,0,0-.15l0-.17.18-.7.59-2.21L3,17.51l.19.7.07.2a.26.26,0,0,0,0,.1l.11.11a.54.54,0,0,0,.17.08.55.55,0,0,0,.24,0H7.08a.4.4,0,0,0,.25-.09.38.38,0,0,0,.12-.3A.53.53,0,0,0,7.44,18.22Zm-.54,0a.18.18,0,0,1-.14.05H6.49L3.81,11.08H4a.63.63,0,0,1,.23,0,.27.27,0,0,1,.11.15l2.55,6.81A.16.16,0,0,1,6.9,18.22Z"/><path class="cls-1" d="M10.34,16.44v1.72a1.34,1.34,0,0,1,0,.21.28.28,0,0,1-.08.15.35.35,0,0,1-.16.09,1.26,1.26,0,0,1-.3,0H8.36a1,1,0,0,1-.27,0,.6.6,0,0,1-.16-.08.35.35,0,0,1-.07-.15.68.68,0,0,1,0-.21V15.63a.65.65,0,0,1,0-.2.35.35,0,0,1,.07-.15.42.42,0,0,1,.16-.09,1,1,0,0,1,.27,0H9.85a.85.85,0,0,1,.25,0,.27.27,0,0,1,.15.09.26.26,0,0,1,.07.16.68.68,0,0,1,0,.21v.25m-.29-.24a.41.41,0,0,0,0-.12.08.08,0,0,0,0-.06.1.1,0,0,0-.08,0H9.79v2.91h.13a.15.15,0,0,0,.08,0,.1.1,0,0,0,0-.07.41.41,0,0,0,0-.12Z"/><path class="cls-1" d="M14,17a1.85,1.85,0,0,0,.07.57,1,1,0,0,0,.19.36.66.66,0,0,0,.48.25l.16,0,.12-.06.09-.05.06,0h0l0,0,.12.18,0,0s0,0,0,0l0,0-.28.17a2.31,2.31,0,0,1-.38.15,2.8,2.8,0,0,1-.48.12,2.67,2.67,0,0,1-.58.05,2.92,2.92,0,0,1-.51,0,2.72,2.72,0,0,1-.49-.13,1.82,1.82,0,0,1-.43-.24,1.66,1.66,0,0,1-.35-.35,1.78,1.78,0,0,1-.23-.48,2.18,2.18,0,0,1,0-1.24,1.78,1.78,0,0,1,.23-.48,1.66,1.66,0,0,1,.35-.35,1.82,1.82,0,0,1,.43-.24,2.72,2.72,0,0,1,.49-.13,2.92,2.92,0,0,1,.51,0,3.12,3.12,0,0,1,.54,0l.48.11a2.87,2.87,0,0,1,.39.16,1.88,1.88,0,0,1,.29.16l0,0s0,0,0,0,0,0,0,.05l-.12.18,0,0h0a.06.06,0,0,1,0,0l-.09,0a.33.33,0,0,0-.12-.05.34.34,0,0,0-.15,0,.52.52,0,0,0-.24.05.61.61,0,0,0-.24.19,1.07,1.07,0,0,0-.19.37A1.85,1.85,0,0,0,14,17Zm.45,1.31a.77.77,0,0,1-.24-.1.86.86,0,0,1-.24-.23,1.66,1.66,0,0,1-.19-.4,2,2,0,0,1-.07-.58,2.08,2.08,0,0,1,.07-.59,1.42,1.42,0,0,1,.19-.39.91.91,0,0,1,.24-.24,1.12,1.12,0,0,1,.24-.1,1,1,0,0,0-.37.08.71.71,0,0,0-.32.23,1.12,1.12,0,0,0-.24.4,2.11,2.11,0,0,0,0,1.22,1.12,1.12,0,0,0,.24.4.9.9,0,0,0,.32.23A1,1,0,0,0,14.41,18.33Z"/><path class="cls-1" d="M18.23,15.32a.51.51,0,0,1,.18-.09.59.59,0,0,1,.23,0,.61.61,0,0,1,.51.22,1,1,0,0,1,.18.66v2.51s0,.07,0,.09l0,0a.11.11,0,0,1-.06,0H19a.14.14,0,0,1-.12,0,.2.2,0,0,1,0-.11V16a.6.6,0,0,0-.07-.3.28.28,0,0,0-.23-.1.42.42,0,0,0-.15,0,.48.48,0,0,0-.13.09v2.5a1.23,1.23,0,0,1,0,.2.25.25,0,0,1-.06.15.27.27,0,0,1-.15.09.88.88,0,0,1-.26,0H16.17a.69.69,0,0,1-.22,0,.34.34,0,0,1-.14-.09.31.31,0,0,1-.07-.14,1.25,1.25,0,0,1,0-.21V13.64a1.12,1.12,0,0,1,0-.2.28.28,0,0,1,.08-.15A.35.35,0,0,1,16,13.2a1,1,0,0,1,.26,0h1.49a.81.81,0,0,1,.25,0,.27.27,0,0,1,.16.08.35.35,0,0,1,.07.15,1.25,1.25,0,0,1,0,.21Zm-.29-1.65a.41.41,0,0,0,0-.12.09.09,0,0,0,0-.06.11.11,0,0,0-.08,0h-.14v5h.14a.11.11,0,0,0,.08,0,.09.09,0,0,0,0-.06.41.41,0,0,0,0-.12Z"/><path class="cls-1" d="M11,16a.06.06,0,0,1-.06-.06.52.52,0,0,0-.07-.24.26.26,0,0,0-.22-.1.47.47,0,0,0-.16,0l-.13.09-.09-.41a1.13,1.13,0,0,1,.27-.13.7.7,0,0,1,.74.18,1,1,0,0,1,.18.59s0,.07-.07.07Z"/><path class="cls-1" d="M24.35,15.73a.68.68,0,0,1,0-.21.26.26,0,0,1,.07-.14.42.42,0,0,1,.16-.09,1,1,0,0,1,.27,0h1.49a.85.85,0,0,1,.25,0,.26.26,0,0,1,.23.23,1.34,1.34,0,0,1,0,.21v2.55a1.27,1.27,0,0,1,0,.2.31.31,0,0,1-.07.14.35.35,0,0,1-.16.09.85.85,0,0,1-.25,0H24.87a1,1,0,0,1-.27,0,.42.42,0,0,1-.16-.09.31.31,0,0,1-.07-.14.68.68,0,0,1,0-.21Zm2.21,0a.41.41,0,0,0,0-.12.07.07,0,0,0,0-.06.1.1,0,0,0-.08,0H26.3v2.92h.13a.1.1,0,0,0,.08,0,.07.07,0,0,0,0-.06.41.41,0,0,0,0-.12Z"/><path class="cls-1" d="M29.82,17a2.21,2.21,0,0,0,.07.57,1,1,0,0,0,.19.36.54.54,0,0,0,.24.19.6.6,0,0,0,.24.06l.16,0,.13-.06.09-.05,0,0H31l0,0,.12.18a.11.11,0,0,1,0,0s0,0,0,0l0,0-.27.17a2.74,2.74,0,0,1-.38.15,3.19,3.19,0,0,1-.49.12,2.52,2.52,0,0,1-.57.05,2.92,2.92,0,0,1-.51,0,2.52,2.52,0,0,1-.49-.13,1.88,1.88,0,0,1-.44-.24,1.41,1.41,0,0,1-.34-.35,1.8,1.8,0,0,1-.24-.48,2.44,2.44,0,0,1,0-1.24,1.8,1.8,0,0,1,.24-.48,1.41,1.41,0,0,1,.34-.35,1.88,1.88,0,0,1,.44-.24,2.52,2.52,0,0,1,.49-.13,2.92,2.92,0,0,1,.51,0,3.08,3.08,0,0,1,.53,0,4.32,4.32,0,0,1,.48.11,3,3,0,0,1,.4.16,1.74,1.74,0,0,1,.28.16l0,0s0,0,0,0a.06.06,0,0,1,0,.05l-.11.18s0,0,0,0H31a.06.06,0,0,1,0,0l-.09,0-.11-.05a.41.41,0,0,0-.16,0,.57.57,0,0,0-.24.05.61.61,0,0,0-.24.19,1.07,1.07,0,0,0-.19.37A2.21,2.21,0,0,0,29.82,17Zm.45,1.31a.64.64,0,0,1-.23-.1.89.89,0,0,1-.25-.23,1.66,1.66,0,0,1-.18-.4,1.93,1.93,0,0,1-.08-.58,2.05,2.05,0,0,1,.08-.59,1.42,1.42,0,0,1,.18-.39A.94.94,0,0,1,30,15.8a.89.89,0,0,1,.23-.1.94.94,0,0,0-.36.08.79.79,0,0,0-.33.23,1.12,1.12,0,0,0-.24.4,2.11,2.11,0,0,0,0,1.22,1.12,1.12,0,0,0,.24.4,1,1,0,0,0,.33.23A.92.92,0,0,0,30.27,18.33Z"/><path class="cls-2" d="M22.1,15.54a.11.11,0,0,0-.06-.07h-.25l1.6,3.08h.17a.13.13,0,0,0,.08,0s0,0,0-.07Z"/><polygon class="cls-2" points="20.95 17.27 20.59 18.21 21.33 18.21 20.95 17.27"/><path d="M24,18.52a.14.14,0,0,0,0-.06l-1.57-3-.06-.1a.16.16,0,0,0-.07-.07.2.2,0,0,0-.08,0h-.61a.24.24,0,0,0-.18.06.46.46,0,0,0-.12.17l-1.42,3.07a.21.21,0,0,0,0,.07l0,.05s0,.06.11.06h.45l0,0a.1.1,0,0,0,0-.05s0,0,0-.06l0-.08.1-.29.36-.95.38.95.11.29,0,.09a.05.05,0,0,0,0,0s0,0,.06.05l.1,0h2.08a.28.28,0,0,0,.15,0,.14.14,0,0,0,.08-.13S24,18.54,24,18.52Zm-.33,0a.13.13,0,0,1-.08,0h-.17l-1.6-3.08H22a.11.11,0,0,1,.06.07l1.54,2.91S23.66,18.51,23.64,18.52Z"/><circle cx="25.62" cy="13.66" r="1.23"/><circle class="cls-3" cx="25.62" cy="13.66" r="0.45"/><circle cx="25.62" cy="13.66" r="0.16"/><path class="cls-3" d="M25.16,12.94l-.06-.11s0-.08,0-.1a1.35,1.35,0,0,1,.36-.1c.13,0,.16,0,.16,0s0,0,0,0,0,.37,0,.37a.91.91,0,0,0-.28,0c-.06.05-.13,0-.13,0Z"/><path class="cls-3" d="M24.89,12.91a.09.09,0,0,1,.12,0s.19.25.19.25,0,.06,0,.07-.09,0-.09,0L24.9,13A.17.17,0,0,1,24.89,12.91Z"/><path class="cls-3" d="M26.12,14.42l.07.11s0,.08-.05.1a1.37,1.37,0,0,1-.35.1c-.14,0-.16,0-.16,0a.06.06,0,0,1,0,0s0-.37,0-.37a.91.91,0,0,0,.28-.05c.06,0,.13,0,.13,0Z"/><path class="cls-3" d="M26.39,14.45s-.06.06-.11,0a1.82,1.82,0,0,1-.19-.25s0-.05,0-.07.08,0,.08,0l.21.19A.13.13,0,0,1,26.39,14.45Z"/><text class="cls-4" transform="translate(22.72 20.71)">Reco<tspan class="cls-5" x="5.35" y="0">r</tspan><tspan x="5.97" y="0">d</tspan><tspan class="cls-6" x="7.4" y="0">s</tspan><tspan x="8.04" y="0">.</tspan></text></svg>