<svg xmlns="http://www.w3.org/2000/svg" width="207.6" height="400" viewBox="0 0 207.6 400"><rect width="39.5" height="8.49" x="47" y="36.1" fill="#000001" rx="4.2" ry="4.2" transform="rotate(-28.2 66.658 40.445)"/><path fill="#e2e3e3" stroke="#000001" stroke-miterlimit="10" stroke-width="3" d="M175.1 71.8c20.8 32.9 6.9 56.5-6.8 64.8a10.2 10.2 0 0 1-12.5-1c-5.3-5.1 1.3-10.2 6.3-12.8.8-.5 18.8-12.1-1.3-42.9-5.7-8.8-32.7-26.2-47.1-29-2.2-.5-4.3-1.2-5.2.8l-1.3 3.4a9.6 9.6 0 0 1-12.1 6.3l-26-15.6c-5-1.6 15.2-5.8 16.8-10.9l-16.6-8.1c1.6-4.8 7.9-12.2 16.8-15.9a3.5 3.5 0 0 1 3.3.2l20 5.9a9.7 9.7 0 0 1 6.3 12.1 4.7 4.7 0 0 0 3.5 6c16.7 3.6 46 21 55.9 36.7z"/><ellipse cx="82.6" cy="31.4" fill="#000001" rx="15.3" ry="16.4" transform="rotate(-1.5 83.629 31.656)"/><path fill="#000001" stroke="#000001" stroke-miterlimit="10" stroke-width="3.88" d="M79.5 313.4h13.4a19.4 19.4 0 0 1 19.4 19.4v9.2a12.6 12.6 0 0 1-12.6 12.6h-27A12.6 12.6 0 0 1 60.2 342v-9.2a19.4 19.4 0 0 1 19.3-19.4zm69.3-2.2h13.3a19.4 19.4 0 0 1 19.4 19.4v9.2a12.6 12.6 0 0 1-12.6 12.6H142a12.6 12.6 0 0 1-12.6-12.6v-9.2a19.4 19.4 0 0 1 19.4-19.4z"/><rect width="20.7" height="76.79" x="85.6" y="250.3" fill="#e2e3e3" stroke="#000001" stroke-miterlimit="10" stroke-width="3" rx="9.7" ry="9.7"/><rect width="20.7" height="76.79" x="153.5" y="250.3" fill="#e2e3e3" stroke="#000001" stroke-miterlimit="10" stroke-width="3" rx="9.7" ry="9.7"/><path fill="#000001" d="M202.1 144.2v96.3a20.6 20.6 0 0 1-20.6 20.6H85.2c-10 0-15-3.8-26.3-15l-13.7-13.7c-9-9.1-15-14.8-15-26.2v-97.8a19.2 19.2 0 0 1 19.1-19.2h97.9c11.3 0 14.8 5.5 24.3 15l13.7 13.7c10.6 10.6 16.9 14.9 16.9 26.3z"/><rect width="105.5" height="100.76" x="83.2" y="144.4" fill="#44a36d" rx="5.5" ry="5.5"/><path fill="#dd4548" d="M171.5 128.9L84 130.7a7.4 7.4 0 0 1-5.1-2l-24.5-22a3 3 0 0 1 2.1-5.2h92a6.7 6.7 0 0 1 4.4 1.8l20.6 20.4a3 3 0 0 1-2 5.2z"/><path fill="#f9e24f" d="M65.1 234.4L44.4 214a6.9 6.9 0 0 1-2.3-5.1l-.6-87.1c0-1.5 2.3-2.2 3.5-1l18.8 14.7a8.1 8.1 0 0 1 2.5 5.7l.7 92.7c0 .8-1.3 1.2-1.9.5z"/><path fill="#3965af" stroke="#000001" stroke-miterlimit="10" stroke-width="3.77" d="M150.4 167.3l-.4.2c-4.8 3-11.4 2.4-14.7-1.3l-68.8-78c-3.3-3.8-2.2-9.3 2.6-12.3l.4-.2c4.8-3 11.3-2.4 14.7 1.4L153 155c3.3 3.8 2.1 9.3-2.6 12.3z"/><path fill="#fff" stroke="#000001" stroke-miterlimit="10" stroke-width="4" d="M187.8 166.4L169 206a6 6 0 0 1-3.3 3l-23 8.7a6 6 0 0 1-7.5-2.9l-10.7-20.7a6 6 0 0 1-.3-4.9l14.8-40a6.3 6.3 0 0 1 3.7-3.6l25.6-8.9a6.2 6.2 0 0 1 7.3 2.8l12 21.4a6.3 6.3 0 0 1 .2 5.5z"/><path fill="#e2e3e3" d="M154.7 148.6l14.9-5.7a2.1 2.1 0 0 1 2.7 1l6.6 13a2 2 0 0 1-1.2 2.8l-13.5 5.8a2.1 2.1 0 0 1-2.7-1.1l-8-13.1a2 2 0 0 1 1.2-2.7z"/><path fill="#e2e3e3" stroke="#000001" stroke-miterlimit="10" stroke-width="3" d="M134.4 129l-17.3 17a9.7 9.7 0 0 1-13.8-.1l-20.7-22.7c-.2-.2-22.6-2.3-22.9-2.2-5 .6-24.3 0-28.9 4.4s-8.9 8.9-8.9 16c0 20.4 10.7 18.5 19.2 18.5a9.1 9.1 0 0 1 3.7.8c8.2 3.7 9.8 15.8-7.2 15.8-20.6 0-34.1-14.1-31.9-40.2 1.1-14 10.3-21.7 16-26 10.6-8.1 54.7-3.9 62.4-4.3.2 0 4.6-3.3 4.8-3.4l10.4-10.2a9.9 9.9 0 0 1 13.9 0l22.4 22.7c3.8 3.8 2.7 10-1.2 13.9z"/></svg>