<svg height="400" viewBox="0 0 207.6 400" width="207.6" xmlns="http://www.w3.org/2000/svg"><rect fill="#000001" height="9.01" rx="4.5" transform="matrix(.88130345 -.47255076 .47255076 .88130345 -16.400171 33.800183)" width="41.9" x="38.2" y="45.1"/><path d="m176.2 79.8c22.1 34.9 7.3 60-7.3 68.8a10.7 10.7 0 0 1 -13.3-1.4c-5.3-5.3 1.5-10.6 6.8-13.4.9-.4 19.9-12.7-1.4-45.4-6-9.3-34.6-27.8-49.9-30.9-2.3-.4-4.6-1.2-5.6 1l-1.3 3.6a10.1 10.1 0 0 1 -12.8 6.6l-27.6-8c-5.4-1.7-8.4-10.4-6.7-15.8l9-24.6a10.3 10.3 0 0 1 12.8-6.6l27.6 8a10.2 10.2 0 0 1 6.7 12.8 4.9 4.9 0 0 0 3.7 6.3c17.7 3.9 48.8 22.3 59.3 39z" fill="#e2e3e3" stroke="#000001" stroke-miterlimit="10" stroke-width="4"/><ellipse cx="75.9" cy="40.1" fill="#000001" rx="16.2" ry="17.4" transform="matrix(.99965732 -.02617695 .02617695 .99965732 -1 2)"/><g stroke="#000001" stroke-miterlimit="10"><path d="m74.8 336.1h14.1a20.5 20.5 0 0 1 20.5 20.5v9.8a13.3 13.3 0 0 1 -13.3 13.3h-28.5a13.3 13.3 0 0 1 -13.3-13.3v-9.8a20.5 20.5 0 0 1 20.5-20.5zm73.5-2.4h14.1a20.5 20.5 0 0 1 20.6 20.6v9.8a13.3 13.3 0 0 1 -13.3 13.3h-28.6a13.3 13.3 0 0 1 -13.3-13.3v-9.8a20.5 20.5 0 0 1 20.5-20.5z" fill="#000001" stroke-width="4.12"/><rect fill="#e2e3e3" height="85.47" rx="11" stroke-width="4.94" width="22" x="81.3" y="269.1"/><rect fill="#e2e3e3" height="85.47" rx="11" stroke-width="4.94" width="22" x="153.3" y="269.1"/></g><path d="m204.9 156.5v102.2a21.9 21.9 0 0 1 -21.9 21.9h-102.2c-10.6 0-15.9-4-27.8-15.9l-14.6-14.6c-9.6-9.6-16-15.7-16-27.8v-103.8a20.4 20.4 0 0 1 20.4-20.3h103.7c12.1 0 15.8 5.9 25.9 16l14.5 14.5c11.2 11.2 18 15.7 18 27.8z" fill="#000001"/><g stroke-miterlimit="10"><g stroke="#e2e3e3"><rect fill="#ef7136" height="106.89" rx="5.8" stroke-width="1.88" width="111.9" x="78.7" y="156.8"/><path d="m172.4 140.4-92.9 1.8a7.7 7.7 0 0 1 -5.4-2l-25.9-23.4a3.1 3.1 0 0 1 2.2-5.5h97.5a6.8 6.8 0 0 1 4.7 1.9l21.9 21.6a3.2 3.2 0 0 1 -2.1 5.6z" fill="#dd4548" stroke-width="1.87"/><path d="m59.5 252.3-22-21.7a7.7 7.7 0 0 1 -2.4-5.4l-.6-92.3c0-1.6 2.5-2.4 3.7-1.1l19.9 15.6a8.5 8.5 0 0 1 2.7 6l.7 98.3c0 .9-1.3 1.3-2 .6z" fill="#f9e24f" stroke-width="1.96"/></g><path d="m149.9 181.1-.3.2c-5.1 3.2-12.1 2.6-15.6-1.4l-73-82.7c-3.6-4-2.3-9.9 2.8-13.1l.3-.2c5.1-3.2 12.1-2.5 15.6 1.5l73.1 82.7c3.5 4 2.2 9.8-2.9 13z" fill="#44a36d" stroke="#000001" stroke-width="4"/><path d="m196 173.8-19.9 41.9a6.5 6.5 0 0 1 -3.6 3.3l-24.3 9.2a6.5 6.5 0 0 1 -8-3.1l-11.4-22a6.7 6.7 0 0 1 -.3-5.2l15.8-42.4a6.4 6.4 0 0 1 3.9-3.8l27.2-9.4a6.5 6.5 0 0 1 7.7 2.9l12.7 22.7a6.5 6.5 0 0 1 .2 5.9z" fill="#000001" stroke="#e2e3e3" stroke-width="2"/></g><path d="m156 156.9 20-7.5a2.9 2.9 0 0 1 3.7 1.2l8.8 17.5a2.8 2.8 0 0 1 -1.7 3.8l-18 7.6a2.7 2.7 0 0 1 -3.6-1.4l-10.8-17.6a2.8 2.8 0 0 1 1.6-3.6z" fill="#e2e3e3"/><path d="m133.1 140.4-18.4 18.1a10.4 10.4 0 0 1 -14.7-.1l-22-24.2c-.2-.2-23.9-2.3-24.2-2.3-5.4.7-25.8.1-30.7 4.7s-9.4 9.4-9.4 17c0 21.7 11.3 19.6 20.3 19.7a10.6 10.6 0 0 1 4 .8c8.6 3.9 10.3 16.8-7.7 16.8-21.8 0-36.1-15-33.8-42.8 1.2-14.7 10.9-22.9 16.9-27.5 11.3-8.6 58.1-4.1 66.2-4.5a60 60 0 0 0 5.1-3.7l11.1-10.8a10.3 10.3 0 0 1 14.7.1l23.8 24c4 4.1 2.8 10.7-1.2 14.7z" fill="#e2e3e3" stroke="#000001" stroke-miterlimit="10" stroke-width="4"/></svg>