<svg id="Layer_1" data-name="Layer 1" xmlns="http://www.w3.org/2000/svg" xmlns:xlink="http://www.w3.org/1999/xlink" width="207.6" height="400" viewBox="0 0 207.6 400"><defs><clipPath id="clip-path"><path d="M186.5,135l9.4,9.6h-.1l-9.3-9.5Z" fill="none"/></clipPath><clipPath id="clip-path-2"><path d="M145.4,178.9l-9.3-9.6a2.9,2.9,0,0,0,2.1.9,3.5,3.5,0,0,0,2.4-1l9.4,9.5a3.4,3.4,0,0,1-2.4,1A3.5,3.5,0,0,1,145.4,178.9Z" fill="none"/></clipPath><clipPath id="clip-path-3"><path d="M156.3,148.6l9.3,9.6a3.3,3.3,0,0,1,0,4.5l-9.4-9.6A3.3,3.3,0,0,0,156.3,148.6Z" fill="none"/></clipPath><clipPath id="clip-path-4"><path d="M156.3,148.6l9.3,9.6h0l-9.4-9.5Z" fill="none"/></clipPath><clipPath id="clip-path-5"><path d="M135.2,168.4h0l9.4,9.5h-.1Z" fill="none"/></clipPath><clipPath id="clip-path-6"><path d="M162.6,156.4l-9.4-9.5a3.5,3.5,0,0,1,2.2.8l9.3,9.6A2.9,2.9,0,0,0,162.6,156.4Z" fill="none"/></clipPath><clipPath id="clip-path-7"><path d="M144.5,178l-9.3-9.6a3.2,3.2,0,0,1,0-4.5l9.4,9.6A3.2,3.2,0,0,0,144.5,178Z" fill="none"/></clipPath><clipPath id="clip-path-8"><path d="M160.2,157.4l-9.4-9.5a3.3,3.3,0,0,1,2.4-1l9.4,9.5A3.5,3.5,0,0,0,160.2,157.4Z" fill="none"/></clipPath><clipPath id="clip-path-9"><path d="M127.5,187l-9.3-9.6c-1.1-1.1-.8-3.2.7-4.7l9.3,9.5C126.7,183.7,126.4,185.9,127.5,187Z" fill="none"/></clipPath><clipPath id="clip-path-10"><path d="M162.5,146l-9.3-9.5c-1.1-1.1-.8-3.2.6-4.7l9.4,9.6C161.8,142.8,161.5,144.9,162.5,146Z" fill="none"/></clipPath><clipPath id="clip-path-11"><path d="M173.5,130.8l-9.4-9.5a6.3,6.3,0,0,1,4.5-2.1,3.7,3.7,0,0,1,2.5.9l9.4,9.5a3.8,3.8,0,0,0-2.5-.9A6.3,6.3,0,0,0,173.5,130.8Z" fill="none"/></clipPath></defs><title>accessibility-cube</title><path d="M160.5,375.9h0a10.3,10.3,0,0,1-11.9-8.9L137,271.1a10.2,10.2,0,0,1,8.6-11.4h0a10.3,10.3,0,0,1,11.9,8.9l11.6,95.9A10.2,10.2,0,0,1,160.5,375.9Z" fill="#e2e3e3" stroke="#000001" stroke-miterlimit="10" stroke-width="4"/><path d="M102.5,374.9h0a10.2,10.2,0,0,1-11.2-9.6l-5.6-96.5A10.3,10.3,0,0,1,95,258h0a10.3,10.3,0,0,1,11.3,9.6l5.6,96.5A10.3,10.3,0,0,1,102.5,374.9Z" fill="#e2e3e3" stroke="#000001" stroke-miterlimit="10" stroke-width="4"/><rect x="38.2" y="38.2" width="41.9" height="9.01" rx="4.5" ry="4.5" transform="translate(-5.6 9) rotate(-8.3)" fill="#000001"/><path d="M179.1,70.7c22.1,35,7.3,60-7.3,68.8a10.8,10.8,0,0,1-13.3-1.3c-5.3-5.4,1.6-10.7,6.9-13.4.8-.5,19.9-12.8-1.5-45.5-6-9.3-34.6-27.8-49.9-30.8a4.8,4.8,0,0,0-5.5,2.9L106.1,57a10.2,10.2,0,0,1-12.8,6.7l-31.6-10c-5.4-1.7-8.3-10.5-6.6-15.9l10-28.5A10.2,10.2,0,0,1,77.9,2.6l31.6,10a10.2,10.2,0,0,1,6.6,12.8h0a4.9,4.9,0,0,0,3.7,6.3C137.5,35.6,168.6,54.1,179.1,70.7Z" fill="#e2e3e3" stroke="#000001" stroke-miterlimit="10" stroke-width="4"/><ellipse cx="84.9" cy="37.3" rx="17.4" ry="16.2" transform="translate(40.9 118.9) rotate(-85.4)" fill="#000001"/><path d="M205.9,151.5v99.4a21.3,21.3,0,0,1-21.3,21.3H85.2c-10.4,0-15.5-3.9-27.1-15.5L43.9,242.6c-9.3-9.4-15.5-15.4-15.5-27.1V116A21.3,21.3,0,0,1,49.7,94.7h99.5c11.7,0,15.3,5.7,25.1,15.5l14.2,14.2C199.4,135.3,205.9,139.7,205.9,151.5Z" fill="#000001"/><rect x="76.5" y="145.3" width="119.3" height="113.98" rx="7.8" ry="7.8" fill="#ef7136"/><path d="M178.1,133.3l-99.3,2a7.8,7.8,0,0,1-5.7-2.2l-27.7-25a3.3,3.3,0,0,1,2.4-5.8H151.9a7,7,0,0,1,5,2l23.4,23.1A3.4,3.4,0,0,1,178.1,133.3Z" fill="#dd4548"/><path d="M60.6,246.8,38.7,224.1a8.2,8.2,0,0,1-2.3-5.6v-96c0-1.6,2.5-2.4,3.7-1.1l19.8,16.4a9,9,0,0,1,2.7,6.3V246.2C62.6,247,61.2,247.4,60.6,246.8Z" fill="#f9e24f"/><path d="M150.1,177.2l12.8-18.9c.8-1.5,1.2-4.5-.2-5.8S86,70,86,70c-1.8-1.4-3.9-1.1-4.8.6L70.1,83.3c-.8,1.6-1.5,3.8,0,5.2s73,88,73,88C144.8,177.9,149.3,178.9,150.1,177.2Z" fill="#44a36d"/><g style="isolation:isolate"><g style="isolation:isolate"><g clip-path="url(#clip-path)"><g style="isolation:isolate"><path d="M195.8,144.5l-9.3-9.5h0l9.4,9.6h-.1" fill="#9d9d9d"/></g></g></g><polygon points="150 178.7 140.6 169.2 156.2 153.1 165.6 162.7 150 178.7" fill="#898989"/><g style="isolation:isolate"><g clip-path="url(#clip-path-2)"><g style="isolation:isolate"><path d="M145.4,178.9l-9.3-9.6v.2l9.4,9.5h-.2" fill="#9d9d9d"/><path d="M145.6,179l-9.4-9.5a5.1,5.1,0,0,0,1.5.7l9.4,9.5a3,3,0,0,1-1.5-.7" fill="#a0a1a1"/><path d="M147.1,179.7l-9.4-9.5h.7l9.3,9.5h-.6" fill="#9d9d9d"/><path d="M147.7,179.7l-9.3-9.5h.5l9.3,9.6h-.5" fill="#999"/><path d="M148.2,179.7l-9.3-9.6h.4l9.4,9.5-.5.2" fill="#959595"/><path d="M148.7,179.5l-9.4-9.5.4-.2,9.4,9.6h-.4" fill="#919292"/><path d="M149.1,179.4l-9.4-9.6.4-.2,9.4,9.5-.4.3" fill="#8d8e8e"/><path d="M149.5,179.1l-9.4-9.5.4-.3,9.4,9.5-.4.3" fill="#898a8a"/><path d="M149.9,178.8l-9.4-9.5a.1.1,0,0,1,.1-.1l9.4,9.5a.1.1,0,0,0-.1.1" fill="#858686"/></g></g></g><g style="isolation:isolate"><g clip-path="url(#clip-path-3)"><g style="isolation:isolate"><path d="M165.6,162.7l-9.4-9.6a3.3,3.3,0,0,0,.1-4.5l9.3,9.6a3.3,3.3,0,0,1,0,4.5" fill="#858686"/></g></g></g><g style="isolation:isolate"><g clip-path="url(#clip-path-4)"><g style="isolation:isolate"><path d="M165.6,158.1l-9.4-9.5h.1l9.3,9.6h0" fill="#377452"/></g></g></g><polygon points="144.6 178 135.2 168.5 136.1 169.3 145.4 178.9 144.6 178" fill="#9c9c9c"/><g style="isolation:isolate"><g clip-path="url(#clip-path-5)"><g style="isolation:isolate"><path d="M144.5,178l-9.3-9.6h0l9.4,9.5h-.1" fill="#9d9d9d"/></g></g></g><polygon points="164.7 157.3 155.4 147.7 156.2 148.6 165.6 158.1 164.7 157.3" fill="#377451"/><g style="isolation:isolate"><g clip-path="url(#clip-path-6)"><g style="isolation:isolate"><path d="M162.6,156.4l-9.4-9.5h.5l9.4,9.6h-.5" fill="#377452"/><path d="M163.1,156.5l-9.4-9.6a3,3,0,0,1,1.5.7l9.4,9.5a3.2,3.2,0,0,0-1.5-.6" fill="#387753"/><path d="M164.6,157.1l-9.4-9.5h.2l9.3,9.6c0-.1-.1-.1-.1-.2" fill="#377452"/></g></g></g><g style="isolation:isolate"><g clip-path="url(#clip-path-7)"><g style="isolation:isolate"><path d="M144.5,178l-9.3-9.6a3.2,3.2,0,0,1,0-4.5l9.4,9.6a3.2,3.2,0,0,0-.1,4.5" fill="#336549"/></g></g></g><polygon points="144.6 173.5 135.2 163.9 150.8 147.9 160.2 157.4 144.6 173.5" fill="#34674a"/><g style="isolation:isolate"><g clip-path="url(#clip-path-8)"><g style="isolation:isolate"><path d="M160.2,157.4l-9.4-9.5h.1l9.4,9.5h-.1" fill="#336549"/><path d="M160.3,157.3l-9.4-9.5.4-.3,9.4,9.5-.4.3" fill="#34674a"/><path d="M160.7,157l-9.4-9.5.4-.3,9.4,9.6-.4.2" fill="#356a4c"/><path d="M161.1,156.8l-9.4-9.6h.4l9.4,9.5-.4.2" fill="#356c4d"/><path d="M161.5,156.6l-9.4-9.5.5-.2,9.3,9.6h-.4" fill="#366f4f"/><path d="M161.9,156.5l-9.3-9.6h.4l9.4,9.5h-.5" fill="#377250"/><path d="M162.4,156.4l-9.4-9.5h.2l9.4,9.5h-.2" fill="#377452"/></g></g></g><path d="M162.6,156.4a2.9,2.9,0,0,1,2.1.9l.9.8a3.4,3.4,0,0,1,0,4.6l-15.6,16a3.4,3.4,0,0,1-2.4,1,3.5,3.5,0,0,1-2.2-.8l-.8-.9a3.1,3.1,0,0,1,0-4.5l15.6-16.1A3.5,3.5,0,0,1,162.6,156.4Z" fill="#3f9162"/><g style="isolation:isolate"><g clip-path="url(#clip-path-9)"><g style="isolation:isolate"><path d="M127.5,187l-9.3-9.6c-1.1-1.1-.8-3.2.7-4.7l9.3,9.5c-1.5,1.5-1.8,3.7-.7,4.8" fill="#858686"/></g></g></g><polygon points="180.5 129.6 171.1 120.1 186.5 135 195.8 144.5 180.5 129.6" fill="#9c9c9c"/><polygon points="128.2 182.2 118.9 172.7 153.6 136.9 163 146.4 128.2 182.2" fill="#898989"/><g style="isolation:isolate"><g clip-path="url(#clip-path-10)"><g style="isolation:isolate"><path d="M162.5,146l-9.3-9.5c-1.1-1.1-.8-3.2.6-4.7l9.4,9.6c-1.4,1.4-1.7,3.5-.7,4.6" fill="#858686"/></g></g></g><polygon points="163.2 141.4 153.8 131.8 164.1 121.3 173.5 130.8 163.2 141.4" fill="#898989"/><path d="M195.8,144.5c1.2,1.2.9,3.4-.6,5l-11.3,11.6a5,5,0,0,1-3.2,1.5,2.1,2.1,0,0,1-1.7-.7l-.3-.3-34.8,35.8a4.6,4.6,0,0,1-3.1,1.4,2.7,2.7,0,0,1-1.7-.6L127.6,187c-1.2-1.1-.9-3.2.6-4.8L163,146.4l-.4-.4c-1.1-1-.9-3.1.6-4.6l10.3-10.6a6.3,6.3,0,0,1,4.5-2.1,3.8,3.8,0,0,1,2.5.9Zm-30.2,18.2a3.4,3.4,0,0,0,0-4.6l-.9-.8a2.9,2.9,0,0,0-2.1-.9,3.5,3.5,0,0,0-2.4,1l-15.6,16.1a3.1,3.1,0,0,0,0,4.5l.8.9a3.5,3.5,0,0,0,2.2.8,3.4,3.4,0,0,0,2.4-1l15.6-16" fill="#c7c8c8"/><g style="isolation:isolate"><g clip-path="url(#clip-path-11)"><g style="isolation:isolate"><path d="M173.5,130.8l-9.4-9.5.2-.3,9.4,9.6c-.1.1-.2.1-.2.2" fill="#858686"/><path d="M173.7,130.6l-9.4-9.6,1-.7,9.3,9.5-.9.8" fill="#898a8a"/><path d="M174.6,129.8l-9.3-9.5.8-.5,9.4,9.5-.9.5" fill="#8d8e8e"/><path d="M175.5,129.3l-9.4-9.5.8-.3,9.3,9.5-.7.3" fill="#919292"/><path d="M176.2,129l-9.3-9.5.7-.2,9.4,9.5-.8.2" fill="#959595"/><path d="M177,128.8l-9.4-9.5h.8l9.3,9.5H177" fill="#999"/><path d="M177.7,128.7l-9.3-9.5h.8l9.4,9.5h-.9" fill="#9d9d9d"/><path d="M178.6,128.7l-9.4-9.5a2.9,2.9,0,0,1,1.7.7l9.4,9.6a3.8,3.8,0,0,0-1.7-.8" fill="#a0a1a1"/><path d="M180.3,129.5l-9.4-9.6.2.2,9.4,9.5h-.2" fill="#9d9d9d"/></g></g></g></g><path d="M138.7,121.4l-23.6,23.3a10.2,10.2,0,0,1-14.4-.1L79.1,120.9c-.2-.2-23.4-2.3-23.7-2.3-5.3.7-23.1.1-27.9,4.6s-9.3,9.3-9.3,16.7c0,21.2,12.2,22.6,21.1,22.6a10.1,10.1,0,0,1,3.9.8c8.5,3.8,5.2,16.8-4.2,16.5C17.6,179,2.9,165.1,2.9,137.9c0-13,7.2-19.5,15.5-27,10.3-9.4,54.4-7.4,62.3-7.8l.6-.3L101,83.3a10.1,10.1,0,0,1,14.4.1l23.4,23.5A10.4,10.4,0,0,1,138.7,121.4Z" fill="#e2e3e3" stroke="#000001" stroke-miterlimit="10" stroke-width="4"/><rect x="72.8" y="361.5" width="44.7" height="28.39" rx="9.7" ry="9.7" fill="#000001" stroke="#000001" stroke-miterlimit="10" stroke-width="2.99"/><rect x="133.5" y="361.5" width="41.4" height="29.36" rx="9.5" ry="9.5" fill="#000001" stroke="#000001" stroke-miterlimit="10" stroke-width="2.93"/></svg>