<?xml version="1.0" encoding="utf-8"?>
<!-- Generator: Adobe Illustrator 23.0.2, SVG Export Plug-In . SVG Version: 6.00 Build 0)  -->
<svg version="1.1" id="Layer_1" xmlns="http://www.w3.org/2000/svg" xmlns:xlink="http://www.w3.org/1999/xlink" x="0px" y="0px"
	 viewBox="0 0 1515.1 52" style="enable-background:new 0 0 1515.1 52;" xml:space="preserve">
<style type="text/css">
	.st0{fill:none;stroke:#000000;stroke-width:2;stroke-linecap:round;stroke-miterlimit:10;}
</style>
<line class="st0" x1="16.1" y1="10.6" x2="-0.1" y2="-5.6"/>
<line class="st0" x1="-0.1" y1="10.6" x2="16.1" y2="-5.6"/>
<line class="st0" x1="197.9" y1="16.2" x2="181.7" y2="0"/>
<line class="st0" x1="181.7" y1="16.2" x2="197.9" y2="0"/>
<line class="st0" x1="673.3" y1="60.1" x2="657.1" y2="43.9"/>
<line class="st0" x1="657.1" y1="60.1" x2="673.3" y2="43.9"/>
<line class="st0" x1="439.7" y1="8.1" x2="423.5" y2="-8.1"/>
<line class="st0" x1="423.5" y1="8.1" x2="439.7" y2="-8.1"/>
<circle class="st0" cx="4.9" cy="47.6" r="5.8"/>
<circle class="st0" cx="80.9" cy="8.1" r="5.8"/>
<circle class="st0" cx="337.6" cy="35.9" r="5.8"/>
<circle class="st0" cx="331.8" cy="-3.4" r="5.8"/>
<circle class="st0" cx="601.6" cy="8.3" r="5.8"/>
<line class="st0" x1="37.8" y1="-3.4" x2="37.8" y2="60.1"/>
<line class="st0" x1="48.6" y1="-3.4" x2="48.6" y2="60.1"/>
<line class="st0" x1="59.5" y1="-3.4" x2="59.5" y2="60.1"/>
<line class="st0" x1="222" y1="-1.6" x2="226.1" y2="61.7"/>
<line class="st0" x1="234" y1="-2.4" x2="238.1" y2="60.9"/>
<line class="st0" x1="284" y1="-5.7" x2="288.2" y2="57.7"/>
<line class="st0" x1="307.9" y1="-5.7" x2="312.1" y2="57.7"/>
<polygon class="st0" points="463.2,-3.4 467.5,14.2 518.5,45.9 563.5,-3.4 529.9,-3.4 511.5,19 480.7,-3.4 "/>
<path class="st0" d="M511.5,19l7.1,26.9L511.5,19z"/>
<polygon class="st0" points="93.6,55 93.6,27.1 102.8,4.2 167.9,29.3 189.8,55 170.2,56.8 162.2,45.2 123,35.9 115.9,39.9 
	115.9,54.1 "/>
<polyline class="st0" points="167.9,29.3 162.2,45.2 170.2,56.8 148.4,41.9 110.6,32.2 115.9,39.9 123,35.9 93.6,27.1 93.6,41.3 
	103.8,54.6 "/>
<polygon class="st0" points="353.8,-3.4 369.4,16 386.4,-6.3 378.4,-6.3 "/>
<line class="st0" x1="369.4" y1="16" x2="378.4" y2="-6.3"/>
<polygon class="st0" points="531.7,54.6 576.9,16 621.8,49.6 615.5,58.6 "/>
<line class="st0" x1="585.2" y1="22.2" x2="549.4" y2="55.4"/>
<polygon class="st0" points="630.8,26 667,18.7 644.4,-5.8 "/>
<polygon class="st0" points="684.3,-3.4 731.6,37.3 738.5,-7.6 "/>
<line class="st0" x1="695.7" y1="-4.2" x2="731.6" y2="37.3"/>
<line class="st0" x1="720.3" y1="-6.2" x2="731.6" y2="37.3"/>
<circle cx="141.7" cy="1.3" r="2.6"/>
<circle cx="199.6" cy="42" r="2.6"/>
<circle cx="328.5" cy="19.8" r="2.6"/>
<circle cx="360" cy="30.5" r="2.6"/>
<circle cx="387.7" cy="20.9" r="2.6"/>
<circle cx="403.5" cy="2.5" r="2.6"/>
<circle cx="637.9" cy="41.8" r="2.6"/>
<circle cx="691.4" cy="23.4" r="2.6"/>
<polygon class="st0" points="362.6,54.2 425.5,21.3 466.5,35.9 460.4,56.5 "/>
<line class="st0" x1="387.7" y1="54.8" x2="425.2" y2="35.9"/>
<line class="st0" x1="425.5" y1="21.3" x2="425.2" y2="35.9"/>
<line class="st0" x1="466.5" y1="35.9" x2="425.2" y2="35.9"/>
<line class="st0" x1="447" y1="56.5" x2="466.5" y2="35.9"/>
<line class="st0" x1="425.2" y1="35.9" x2="436.9" y2="55.9"/>
<line class="st0" x1="453.5" y1="49.6" x2="425.2" y2="35.9"/>
<line class="st0" x1="466.5" y1="35.9" x2="456.8" y2="56.4"/>
<line class="st0" x1="772.2" y1="10.6" x2="756" y2="-5.6"/>
<line class="st0" x1="756" y1="10.6" x2="772.2" y2="-5.6"/>
<line class="st0" x1="944" y1="16.2" x2="927.8" y2="0"/>
<line class="st0" x1="927.8" y1="16.2" x2="944" y2="0"/>
<line class="st0" x1="1419.3" y1="60.1" x2="1403.1" y2="43.9"/>
<line class="st0" x1="1403.1" y1="60.1" x2="1419.3" y2="43.9"/>
<line class="st0" x1="1185.7" y1="8.1" x2="1169.5" y2="-8.1"/>
<line class="st0" x1="1169.5" y1="8.1" x2="1185.7" y2="-8.1"/>
<circle class="st0" cx="751" cy="47.6" r="5.8"/>
<circle class="st0" cx="827" cy="8.1" r="5.8"/>
<circle class="st0" cx="1083.7" cy="35.9" r="5.8"/>
<circle class="st0" cx="1077.8" cy="-3.4" r="5.8"/>
<circle class="st0" cx="1347.6" cy="8.3" r="5.8"/>
<circle class="st0" cx="1515.1" cy="0" r="5.8"/>
<line class="st0" x1="783.8" y1="-3.4" x2="783.8" y2="60.1"/>
<line class="st0" x1="794.7" y1="-3.4" x2="794.7" y2="60.1"/>
<line class="st0" x1="805.6" y1="-3.4" x2="805.6" y2="60.1"/>
<line class="st0" x1="968" y1="-1.6" x2="972.2" y2="61.7"/>
<line class="st0" x1="980" y1="-2.4" x2="984.2" y2="60.9"/>
<line class="st0" x1="1030.1" y1="-5.7" x2="1034.2" y2="57.7"/>
<line class="st0" x1="1054" y1="-5.7" x2="1058.1" y2="57.7"/>
<polygon class="st0" points="1209.3,-3.4 1213.6,14.2 1264.6,45.9 1309.5,-3.4 1276,-3.4 1257.5,19 1226.8,-3.4 "/>
<path class="st0" d="M1257.5,19l7.1,26.9L1257.5,19z"/>
<polygon class="st0" points="839.7,55 839.7,27.1 848.9,4.2 913.9,29.3 935.9,55 916.3,56.8 908.3,45.2 869.1,35.9 861.9,39.9 
	861.9,54.1 "/>
<polyline class="st0" points="913.9,29.3 908.3,45.2 916.3,56.8 894.4,41.9 856.6,32.2 861.9,39.9 869.1,35.9 839.7,27.1 
	839.7,41.3 849.9,54.6 "/>
<polygon class="st0" points="1099.8,-3.4 1115.5,16 1132.4,-6.3 1124.4,-6.3 "/>
<line class="st0" x1="1115.5" y1="16" x2="1124.4" y2="-6.3"/>
<polygon class="st0" points="1277.8,54.6 1323,16 1367.9,49.6 1361.6,58.6 "/>
<line class="st0" x1="1331.3" y1="22.2" x2="1295.4" y2="55.4"/>
<polygon class="st0" points="1376.9,26 1413.1,18.7 1390.5,-5.8 "/>
<polygon class="st0" points="1430.4,-3.4 1477.6,37.3 1484.6,-7.6 "/>
<line class="st0" x1="1441.7" y1="-4.2" x2="1477.6" y2="37.3"/>
<line class="st0" x1="1466.3" y1="-6.2" x2="1477.6" y2="37.3"/>
<circle cx="887.8" cy="1.3" r="2.6"/>
<circle cx="945.7" cy="42" r="2.6"/>
<circle cx="1074.6" cy="19.8" r="2.6"/>
<circle cx="1106.1" cy="30.5" r="2.6"/>
<circle cx="1133.8" cy="20.9" r="2.6"/>
<circle cx="1149.5" cy="2.5" r="2.6"/>
<circle cx="1384" cy="41.8" r="2.6"/>
<circle cx="1437.5" cy="23.4" r="2.6"/>
<circle cx="1498.7" cy="23.4" r="2.6"/>
<circle cx="1490.3" cy="52" r="2.6"/>
<polygon class="st0" points="1108.7,54.2 1171.6,21.3 1212.6,35.9 1206.5,56.5 "/>
<line class="st0" x1="1133.8" y1="54.8" x2="1171.3" y2="35.9"/>
<line class="st0" x1="1171.6" y1="21.3" x2="1171.3" y2="35.9"/>
<line class="st0" x1="1212.6" y1="35.9" x2="1171.3" y2="35.9"/>
<line class="st0" x1="1193.1" y1="56.5" x2="1212.6" y2="35.9"/>
<line class="st0" x1="1171.3" y1="35.9" x2="1182.9" y2="55.9"/>
<line class="st0" x1="1199.5" y1="49.6" x2="1171.3" y2="35.9"/>
<line class="st0" x1="1212.6" y1="35.9" x2="1202.8" y2="56.4"/>
</svg>
