<svg xmlns="http://www.w3.org/2000/svg" width="4.6in" height="4in" viewBox="0 0 334.2 284.5"><path fill="#efc820" d="M115.5 105.1h26.6v24.81h-26.6z" opacity=".14"/><circle cx="129.8" cy="118.2" r="2.9" fill="#efc820"/><path fill="#efc820" d="M142.1 127a2.9 2.9 0 0 0-2.9 2.9h2.9zm-2.9-21.9a2.9 2.9 0 0 0 2.9 2.9v-2.9zm-23.7 2.9a2.9 2.9 0 0 0 2.9-2.9h-2.9zm0 19v2.9h2.9a2.9 2.9 0 0 0-2.9-2.9z"/><path fill="#efc820" d="M115.5 129.9h26.6v24.81h-26.6z" opacity=".14"/><circle cx="129.8" cy="143" r="2.9" fill="#efc820"/><path fill="#efc820" d="M142.1 151.8a2.9 2.9 0 0 0-2.9 2.9h2.9zm-2.9-21.9a2.9 2.9 0 0 0 2.9 2.9v-2.9zm-23.7 2.9a2.9 2.9 0 0 0 2.9-2.9h-2.9zm0 19v2.9h2.9a2.9 2.9 0 0 0-2.9-2.9z"/><path fill="#efc820" d="M115.5 154.7h26.6v24.81h-26.6z" opacity=".14"/><circle cx="129.8" cy="167.8" r="2.9" fill="#efc820"/><path fill="#efc820" d="M142.1 176.6a2.9 2.9 0 0 0-2.9 2.9h2.9zm-2.9-21.9a2.9 2.9 0 0 0 2.9 2.9v-2.9zm-23.7 2.9a2.9 2.9 0 0 0 2.9-2.9h-2.9zm0 19v2.9h2.9a2.9 2.9 0 0 0-2.9-2.9z"/><path fill="#efc820" d="M142.1 154.7h26.6v24.81h-26.6z" opacity=".14"/><circle cx="156.5" cy="167.8" r="2.9" fill="#efc820"/><path fill="#efc820" d="M168.7 176.6a2.9 2.9 0 0 0-2.9 2.9h2.9zm-2.9-21.9a2.9 2.9 0 0 0 2.9 2.9v-2.9zm-23.7 2.9a2.9 2.9 0 0 0 2.9-2.9h-2.9zm0 19v2.9h2.9a2.9 2.9 0 0 0-2.9-2.9z"/><path fill="#efc820" d="M142.1 129.9h26.6v24.81h-26.6z" opacity=".14"/><circle cx="156.5" cy="143" r="2.9" fill="#efc820"/><path fill="#efc820" d="M168.7 151.8a2.9 2.9 0 0 0-2.9 2.9h2.9zm-2.9-21.9a2.9 2.9 0 0 0 2.9 2.9v-2.9zm-23.7 2.9a2.9 2.9 0 0 0 2.9-2.9h-2.9zm0 19v2.9h2.9a2.9 2.9 0 0 0-2.9-2.9z"/><path fill="#efc820" d="M142.1 105.1h26.6v24.81h-26.6z" opacity=".14"/><circle cx="156.5" cy="118.2" r="2.9" fill="#efc820"/><path fill="#efc820" d="M168.7 127a2.9 2.9 0 0 0-2.9 2.9h2.9zm-2.9-21.9a2.9 2.9 0 0 0 2.9 2.9v-2.9zm-23.7 2.9a2.9 2.9 0 0 0 2.9-2.9h-2.9zm0 19v2.9h2.9a2.9 2.9 0 0 0-2.9-2.9z"/><path fill="#efc820" d="M168.7 105.1h26.6v24.81h-26.6z" opacity=".14"/><circle cx="183.1" cy="118.2" r="2.9" fill="#efc820"/><path fill="#efc820" d="M195.3 127a2.9 2.9 0 0 0-2.9 2.9h2.9zm-2.9-21.9a2.9 2.9 0 0 0 2.9 2.9v-2.9zm-23.7 2.9a2.9 2.9 0 0 0 2.9-2.9h-2.9zm0 19v2.9h2.9a2.9 2.9 0 0 0-2.9-2.9z"/><path fill="#efc820" d="M168.7 129.9h26.6v24.81h-26.6z" opacity=".14"/><circle cx="183.1" cy="143" r="2.9" fill="#efc820"/><path fill="#efc820" d="M195.3 151.8a2.9 2.9 0 0 0-2.9 2.9h2.9zm-2.9-21.9a2.9 2.9 0 0 0 2.9 2.9v-2.9zm-23.7 2.9a2.9 2.9 0 0 0 2.9-2.9h-2.9zm0 19v2.9h2.9a2.9 2.9 0 0 0-2.9-2.9z"/><path fill="#efc820" d="M168.7 154.7h26.6v24.81h-26.6z" opacity=".14"/><circle cx="183.1" cy="167.8" r="2.9" fill="#efc820"/><path fill="#efc820" d="M195.3 176.6a2.9 2.9 0 0 0-2.9 2.9h2.9zm-2.9-21.9a2.9 2.9 0 0 0 2.9 2.9v-2.9zm-23.7 2.9a2.9 2.9 0 0 0 2.9-2.9h-2.9zm0 19v2.9h2.9a2.9 2.9 0 0 0-2.9-2.9z"/></svg>