<svg xmlns="http://www.w3.org/2000/svg" id="Layer_1" viewBox="0 0 354 106" width="354" height="106"><style>.st0{fill:#94ae37}.st1{fill:#fff}</style><path d="M214.2 19.49c-19.04 0-34.46 15.43-34.46 34.46s15.43 34.47 34.46 34.47c19.04 0 34.46-15.43 34.46-34.47 0-19.03-15.43-34.46-34.46-34.46z" class="st0"/><g id="facebook_logo"><path d="M52.49 86.73C33.44 86.73 18 71.29 18 52.24c0-19.05 15.44-34.49 34.49-34.49 19.05 0 34.49 15.44 34.49 34.49 0 19.05-15.44 34.49-34.49 34.49m-8.32-35.17h3.57v17.93h6.68V51.56h5.29l.4-5.16h-5.69v-4.03c0-1.39 1.24-1.88 2.63-1.88s2.87.43 2.87.43l.89-5.28S58.92 35 54.42 35c-2.76 0-4.37 1.05-5.54 2.6-1.11 1.46-1.15 3.82-1.15 5.34v3.47h-3.57v5.15zm100.05 1.99c0 5.2-4.23 9.43-9.43 9.43-5.2 0-9.43-4.23-9.43-9.43 0-1.25.25-2.45.7-3.54h-5.15v14.12c0 1.82 1.48 3.3 3.31 3.3h21.16c1.82 0 3.31-1.48 3.31-3.3V50.01h-5.15c.43 1.09.68 2.29.68 3.54zm3.82-7.43v-5.84h-.76l-5.08.02.02 5.84z" class="st0"/><path d="M134.79 59.62c3.35 0 6.07-2.72 6.07-6.07 0-1.32-.43-2.54-1.15-3.54a6.046 6.046 0 0 0-9.84 0c-.72 1-1.15 2.22-1.15 3.54 0 3.35 2.72 6.07 6.07 6.07z" class="st0"/><path d="M134.79 19.06c-19.05 0-34.49 15.44-34.49 34.49 0 19.05 15.44 34.49 34.49 34.49 19.05 0 34.49-15.44 34.49-34.49 0-19.05-15.44-34.49-34.49-34.49zm17.24 30.95v14.12c0 3.68-2.99 6.67-6.67 6.67H124.2c-3.68 0-6.67-2.99-6.67-6.67V42.97c0-3.68 2.99-6.67 6.67-6.67h21.16c3.68 0 6.67 2.99 6.67 6.67v7.04z" class="st0"/></g><path d="M231 48.46v1.13c0 10.69-8.16 23.07-23.07 23.07-4.5 0-8.72-1.41-12.38-3.66h1.97c3.66 0 7.32-1.41 10.13-3.38-3.66 0-6.47-2.53-7.6-5.63.56 0 1.13.28 1.41.28.84 0 1.41 0 2.25-.28-3.66-.84-6.47-3.94-6.47-7.88 1.13.56 2.25.84 3.66 1.13-2.25-1.97-3.66-4.22-3.66-7.03 0-1.41.28-2.81 1.13-3.94 3.94 4.78 9.85 8.16 16.6 8.44 0-.56-.28-1.13-.28-1.97 0-4.5 3.66-8.16 8.16-8.16 2.25 0 4.5.84 5.91 2.53 1.97-.28 3.66-1.13 5.06-1.97-.56 1.97-1.97 3.38-3.66 4.5 1.69-.28 3.1-.56 4.78-1.41-1.13 1.7-2.53 3.1-3.94 4.23z" class="st1"/></svg>