<svg xmlns="http://www.w3.org/2000/svg"><symbol id="apple" viewBox="0 0 36 36"><path d="M31.61 11.85c-.59.57-1.17 1.11-1.7 1.68a7.33 7.33 0 0 0-2 4.43 8 8 0 0 0 1.84 6 6.17 6.17 0 0 0 2.9 2.1c-.19.5-.36 1-.57 1.51a21.35 21.35 0 0 1-3.37 5.51A8.24 8.24 0 0 1 27 34.63a4.14 4.14 0 0 1-3.65.62c-.95-.27-1.89-.58-2.83-.87a7 7 0 0 0-4.66.26c-.69.27-1.4.52-2.11.72a4 4 0 0 1-3.25-.55 9.74 9.74 0 0 1-2.7-2.67 24.28 24.28 0 0 1-4.07-9.08 17.13 17.13 0 0 1-.24-5.8 11.13 11.13 0 0 1 2.85-6.37 7.12 7.12 0 0 1 4.49-2.27 9.81 9.81 0 0 1 3.33.27c.94.22 1.88.46 2.81.73a5.27 5.27 0 0 0 3.19-.12c1-.3 1.94-.61 2.93-.86A7.84 7.84 0 0 1 27.9 9a8.3 8.3 0 0 1 3.1 2.17c.22.22.42.46.61.68z"/><path d="M24.6.5a3.44 3.44 0 0 1 .09 1.62A8.61 8.61 0 0 1 21.13 8a5 5 0 0 1-2.41.88l-1 .12a9.28 9.28 0 0 1 1.87-5.7A8.62 8.62 0 0 1 24.6.5z"/></symbol><symbol id="cart-invert" viewBox="0 0 36 36"><path d="M11.49 25c.16.79.56 1 1.35 1h15.68a9.63 9.63 0 0 1 1.2 0 3.6 3.6 0 1 1-3.83 2.79c.05-.26.1-.52.15-.82H15.18c.05.32.08.56.12.8a3.58 3.58 0 0 1-6.53 2.72A3.5 3.5 0 0 1 9.46 27a1.3 1.3 0 0 0 .42-1.61q-2.61-9.1-5.17-18.2C4.05 4.8 4 4.72 1.57 4.63h-.28a.86.86 0 0 1-.89-1c0-.61.35-.89 1-.9h2.41a1.7 1.7 0 0 1 1.74 1.33A12.55 12.55 0 0 1 6.1 6c.15 1 .62 1.21 1.57 1.2H34.3c.41 0 .83 0 1.3.07a7.11 7.11 0 0 1-.15.83c-1.24 4.41-2.51 8.8-3.72 13.21a1.26 1.26 0 0 1-1.48 1.1H12.16c-.4 0-.79 0-1.37.06.27.96.53 1.75.7 2.53zm.34 6.33a1.69 1.69 0 1 0 0-3.38 1.72 1.72 0 0 0-1.74 1.68 1.74 1.74 0 0 0 1.74 1.72zm17.63 0a1.69 1.69 0 0 0 1.61-1.78A1.71 1.71 0 0 0 29.38 28a1.76 1.76 0 0 0-1.68 1.74 1.73 1.73 0 0 0 1.76 1.6z"/></symbol><symbol id="github" viewBox="0 0 36 36"><path d="M22.14 35.56v-5.33c0-1.69.21-3.43-1.31-5l1.3-.35c5.58-1.34 7.9-6.56 5.22-11.63a6.52 6.52 0 0 1-.47-2.25c-.12-1.07-.16-2.15-.26-3.6-1.41.59-2.46 1.1-3.56 1.47a8.16 8.16 0 0 1-2.3.39q-2.73.07-5.46 0a8.53 8.53 0 0 1-2.3-.41c-1.1-.37-2.16-.88-3.38-1.4a7.63 7.63 0 0 0-.44 2 11.79 11.79 0 0 1-1 5.21c-1.73 4.91.78 9.11 5.87 10.28.3.07.6.17 1 .26-.32.72-.59 1.38-.9 2-.39.83-1.75.91-2.6.11a15 15 0 0 1-1.12-1.38 3.55 3.55 0 0 0-3.23-1.48c0 .94-.18 1.87 1 2.32.3.11.54.49.74.79a4.49 4.49 0 0 0 4.83 2.29v5.66C5.9 33.93-.34 25.05.45 16.57a17.61 17.61 0 0 1 35.08-.19c.89 8.78-5.11 17.26-13.39 19.18z"/></symbol><symbol id="google-" viewBox="0 0 36 36"><path d="M20.44 10.75c-.94.93-1.88 1.86-2.83 2.78C14 10.47 10.85 10 7.78 12a7.17 7.17 0 0 0-3 7.94 7.27 7.27 0 0 0 6.82 5.25 6.55 6.55 0 0 0 6.46-4.09h-5.15V17H23c1 4.31-2.58 10-7.44 11.7a11.52 11.52 0 0 1-14.18-6.11A11.4 11.4 0 0 1 5.76 8.37c5.06-2.98 11.48-1.95 14.68 2.38zm15.15 5.13V20l-3 .17-.16 2.95h-4l-.17-2.95-2.95-.17v-4l2.94-.16.15-3h4l.15 3z"/></symbol><symbol id="spotify" viewBox="0 0 72 72"><defs><style>.cls-1{font-size:6.69px;font-family:ProximaNova-Extrabld,Proxima Nova}.cls-1,.cls-3{fill:#fff}.cls-2{font-size:12.27px}</style></defs><rect width="70.73" height="22.45" x=".52" y="24.65" rx="4.63"/><text class="cls-1" transform="translate(31.47 30.74)">Listen On<tspan class="cls-2"><tspan x="-5.36" y="11.16">Spotify</tspan></tspan></text><path d="M14.35 26.68h.74a8.46 8.46 0 0 1 1.33.15 9.13 9.13 0 0 1 5.17 3 9 9 0 0 1 2.14 4.4 7.34 7.34 0 0 1 .13 1.23v.87a7.18 7.18 0 0 1-.14 1.3 9.13 9.13 0 0 1-3.84 5.86 9 9 0 0 1-5 1.61 8.79 8.79 0 0 1-1.88-.18 9.23 9.23 0 0 1-7.49-9v-.72a8.07 8.07 0 0 1 .24-1.55 9.22 9.22 0 0 1 4.93-6.08 8.83 8.83 0 0 1 3.6-.91zm-1.09 4.86c-.44 0-1 0-1.49.07a14.61 14.61 0 0 0-2 .3 7.92 7.92 0 0 0-.87.23.83.83 0 0 0-.58.83.87.87 0 0 0 .61.8 1 1 0 0 0 .51 0c.27-.07.54-.15.81-.21a14.2 14.2 0 0 1 2.52-.29h1.86a16.25 16.25 0 0 1 2 .27 10.91 10.91 0 0 1 3.53 1.27.78.78 0 0 0 .56.09.86.86 0 0 0 .27-1.6 10.41 10.41 0 0 0-1.92-.88 16.34 16.34 0 0 0-3.25-.76 22.47 22.47 0 0 0-2.56-.12zM13 34.71h-.71a12 12 0 0 0-2.15.31l-.7.19a.72.72 0 0 0-.5.65.73.73 0 0 0 .43.69.83.83 0 0 0 .54 0 10.49 10.49 0 0 1 2.89-.44 11.42 11.42 0 0 1 1.55.05 13.68 13.68 0 0 1 2 .36A9.8 9.8 0 0 1 19 37.68h.06a.7.7 0 0 0 .77-.09.65.65 0 0 0 .24-.73.67.67 0 0 0-.34-.45 11.14 11.14 0 0 0-2.13-1 14.22 14.22 0 0 0-4.6-.7zm.25 3h-1a16.82 16.82 0 0 0-1.87.26l-.6.13a.55.55 0 0 0-.42.42.57.57 0 0 0 .18.57.58.58 0 0 0 .54.11 15.07 15.07 0 0 1 2.66-.37 10.88 10.88 0 0 1 2.55.18 8.3 8.3 0 0 1 2.8 1.07h.08a.55.55 0 0 0 .6 0 .56.56 0 0 0 .22-.57.57.57 0 0 0-.29-.4 9.54 9.54 0 0 0-2.37-1 10.91 10.91 0 0 0-3.08-.4z" class="cls-3"/></symbol><symbol id="itunes" viewBox="0 0 72 72"><defs><style>.cls-1{font-size:6.7px;font-family:SFCompactDisplay-Medium,SF Compact Display;font-weight:500}.cls-1,.cls-9{fill:#fff}.cls-2{letter-spacing:-.03em}.cls-3{letter-spacing:0}.cls-4{letter-spacing:.01em}.cls-5{font-size:11.63px;font-family:SFCompactDisplay-Semibold,SF Compact Display;font-weight:600}.cls-6{letter-spacing:.01em}.cls-7,.cls-8{letter-spacing:0}</style></defs><rect width="70.73" height="22.45" x=".63" y="24.77" rx="4.63"/><text class="cls-1" transform="translate(19.72 33.5)"><tspan class="cls-2">A</tspan><tspan x="3.84" y="0" class="cls-3">v</tspan><tspan x="7.04" y="0">ailable on </tspan><tspan x="36.86" y="0" class="cls-4">t</tspan><tspan x="39.29" y="0">he </tspan><tspan class="cls-5"><tspan x="-2.39" y="10.47">App </tspan><tspan x="20.69" y="10.47" class="cls-6">S</tspan><tspan x="27.64" y="10.47" class="cls-7">t</tspan><tspan x="31.95" y="10.47">o</tspan><tspan x="38.46" y="10.47" class="cls-8">r</tspan><tspan x="42.81" y="10.47">e</tspan></tspan></text><path d="M15.63 33.32c-.25.25-.51.48-.74.73A3.21 3.21 0 0 0 14 36a3.5 3.5 0 0 0 .8 2.62 2.67 2.67 0 0 0 1.27.91c-.09.23-.16.45-.26.67a9.29 9.29 0 0 1-1.46 2.39 3.67 3.67 0 0 1-.74.68 1.84 1.84 0 0 1-1.59.27l-1.23-.38a3 3 0 0 0-2 .11 7.65 7.65 0 0 1-.92.31 1.74 1.74 0 0 1-1.42-.24 4 4 0 0 1-1.18-1.16 10.54 10.54 0 0 1-1.78-3.95 7.42 7.42 0 0 1-.1-2.53 4.82 4.82 0 0 1 1.23-2.8 3.12 3.12 0 0 1 2-1A4.43 4.43 0 0 1 8 32c.41.1.82.2 1.22.32a2.35 2.35 0 0 0 1.39-.05c.43-.13.85-.27 1.28-.38a3.44 3.44 0 0 1 2.1.14 3.49 3.49 0 0 1 1.35 1z" class="cls-9"/><path d="M12.58 28.38a1.51 1.51 0 0 1 0 .7 3.79 3.79 0 0 1-1.55 2.58A2.26 2.26 0 0 1 10 32l-.43.05a4 4 0 0 1 .81-2.48 3.72 3.72 0 0 1 2.2-1.19z" class="cls-9"/></symbol><symbol id="cart" viewBox="0 0 36 36"><path d="M25.21 22.46c-.57 0-1-.06-1.36-.06H5.76a1.27 1.27 0 0 1-1.49-1.1C3.06 16.91 1.79 12.52.55 8.11a7.11 7.11 0 0 1-.15-.83c.48 0 .89-.07 1.31-.07h26.62c1 0 1.43-.25 1.58-1.2a11.52 11.52 0 0 1 .54-2 1.7 1.7 0 0 1 1.79-1.31h2.42a.83.83 0 0 1 .94.9.86.86 0 0 1-.89 1h-.28c-2.43.12-2.43.2-3.14 2.54q-2.57 9.11-5.17 18.2a1.31 1.31 0 0 0 .42 1.66 3.48 3.48 0 0 1 .69 4.61 3.58 3.58 0 0 1-6.53-2.72c.05-.24.07-.48.12-.8H10c.06.3.1.56.15.82a3.59 3.59 0 1 1-3.83-2.79 9.72 9.72 0 0 1 1.21 0H23.2c.79 0 1.2-.24 1.36-1s.44-1.69.65-2.66zm.7 7.19A1.73 1.73 0 0 0 24.16 28a1.69 1.69 0 1 0 1.75 1.68zm-17.61 0A1.75 1.75 0 0 0 6.63 28a1.7 1.7 0 0 0-.09 3.39 1.73 1.73 0 0 0 1.76-1.7z"/></symbol><symbol id="send" viewBox="0 0 36 36"><path d="M35.61 2.51C33.29 13 31 23.12 28.72 33.49l-9.87-7.83-5.53 5.94a46.67 46.67 0 0 1-2.43-6.15 8.47 8.47 0 0 0-7.06-6.94 24.14 24.14 0 0 1-3.44-1.32zM13.27 25.92l.47.14c-.34-4.59 3.07-6.64 5.77-9.16.74-.69 1.49-1.35 2.24-2l2.86-2.63c-4.43 2.36-8.71 4.89-13 7.46-.26.16-.56.7-.47.93.68 1.75 1.42 3.5 2.13 5.26z"/></symbol><symbol id="twitter" viewBox="0 0 36 36"><path d="M8.21 25.94c-2.56-1.67-4.06-3.68-4.39-6.46 0-.33-.38-.62-.59-.93-1-1.47-1.83-3.2-1.3-4.85s0-2.81 0-4.21a9 9 0 0 1 1.72-5.64c3.24 4.14 7.22 6.94 12.59 7.7a19.14 19.14 0 0 1 .16-2.05c.92-5.24 7.28-7.9 12-4.9a2.48 2.48 0 0 0 2.6.29c1.1-.47 2.26-.8 3.65-1.28l-1.21 3.72h2.33c-.9 1.23-1.59 2.32-2.42 3.3a6.76 6.76 0 0 0-1.55 4.76c0 4.78-1.21 9.14-4.81 12.54a17.37 17.37 0 0 1-10 4.48A23.46 23.46 0 0 1 .23 28.77z"/></symbol><symbol id="youtube" viewBox="0 0 36 36"><path d="M18 4.61h11.66c3.89 0 5.84 2.08 5.85 5.86v15.08c0 3.76-2.08 5.83-5.87 5.84H6.37C2.5 31.38.46 29.33.45 25.46V10.38c0-3.67 2.09-5.75 5.8-5.77 3.93-.02 7.86 0 11.75 0zm-5.12 6.54v13.9L25.22 18z"/><path d="M15 21.47v-6.78l6 3.33z"/></symbol><symbol id="linkedin" viewBox="0 0 36 36"><path d="M35.6 18.14v11.83c0 3.52-2.13 5.62-5.67 5.63H6C2.55 35.59.41 33.47.4 30Q.37 18 .4 6C.41 2.53 2.55.41 6 .4h24.07a5.18 5.18 0 0 1 5.53 5.5c.02 4.1 0 8.16 0 12.24zm-8.48 10.09a98.84 98.84 0 0 0-.07-10c-.34-3.23-3.56-4.92-6.71-4-.37.11-.95.37-1.13.21-1.35-1.19-2.82-.16-4.19-.53v14.32h4v-8.14a2 2 0 0 1 4-.24 10 10 0 0 1 .07 1.64v6.74zm-14.4 0V14h-4v10.83c-.03 3.79-.03 3.79 4 3.38zM8.78 11.7h4V7.77h-4z"/></symbol><symbol id="insta" viewBox="0 0 36 36"><path d="M.39 18V6C.41 2.48 2.53.36 6.08.36h24c3.46 0 5.61 2.13 5.62 5.58v24.14c0 3.45-2.15 5.58-5.62 5.59Q18 35.69 6 35.67a5.19 5.19 0 0 1-5.6-5.51C.37 26.11.39 22.06.39 18zm17.75 9.2A9.29 9.29 0 1 0 8.85 18a9.34 9.34 0 0 0 9.29 9.22zm10.31-16.56a3.1 3.1 0 0 0 3.1-3 3.19 3.19 0 0 0-3.06-3.1 3.12 3.12 0 0 0-3.07 3.07 3 3 0 0 0 3.03 3.03z"/><path d="M25.33 17.94a7.22 7.22 0 1 1-7.15-7.21 7.25 7.25 0 0 1 7.15 7.21z"/><circle cx="28.56" cy="7.54" r=".95"/></symbol><symbol id="facebook" viewBox="0 0 36 36"><path d="M22.2 35.69V23.26h5.17c.35-2.11.69-4.09 1.05-6.25h-6.18v-4.23h6.12V6.53c-2.91.16-5.87-.54-8.68.56a5.53 5.53 0 0 0-3.64 5c-.12 1.55 0 3.12 0 4.84h-4.13v6.28h3.92v12.41c-3.75 0-7.48.15-11.18-.06a4.81 4.81 0 0 1-4.31-4.83Q.26 18 .34 5.3a5 5 0 0 1 5-5Q18 .25 30.73.34a5 5 0 0 1 4.93 5q.09 12.65 0 25.29a5 5 0 0 1-4.89 5c-2.35.1-4.7 0-7 0z"/></symbol><symbol id="volume-off" viewBox="0 0 36 36"><path d="M10.51 8.65l.81-.79 4-3.89a2.15 2.15 0 0 1 1-.59 1.21 1.21 0 0 1 1.51.94 3.12 3.12 0 0 1 .09.74v10.87a.28.28 0 0 0 .09.22l3.34 3.35.1.09a4.91 4.91 0 0 0 .25-.44 2.71 2.71 0 0 0-.59-3.09 2.54 2.54 0 0 0-1.06-.6 1.36 1.36 0 0 1-1-1.16 1.29 1.29 0 0 1 1.43-1.56 2.73 2.73 0 0 1 .87.26 5.38 5.38 0 0 1 2.93 3 5.29 5.29 0 0 1 .37 2.39 5.1 5.1 0 0 1-1 2.69c-.1.14-.21.26-.3.38l1.89 1.89.44-.54a7.73 7.73 0 0 0 1.56-3.73 8.09 8.09 0 0 0-4.12-8.15 1.43 1.43 0 0 1-.64-.75 2.1 2.1 0 0 1-.13-1.08.43.43 0 0 1 .07-.1 1.33 1.33 0 0 1 1.85-.48 12.66 12.66 0 0 1 1.95 1.37 10.69 10.69 0 0 1 2.37 2.94 10.46 10.46 0 0 1 1.14 3.26 10.11 10.11 0 0 1 .06 3.2 10.88 10.88 0 0 1-2.72 5.82l1.73 1.77c.32-.33.64-.64.94-1a11.73 11.73 0 0 0 2.05-3.23 12.09 12.09 0 0 0 .82-2.95 12.84 12.84 0 0 0 .08-2.7 12.22 12.22 0 0 0-1-3.93 11.76 11.76 0 0 0-5.52-5.76 1.45 1.45 0 0 1-.75-1 1.22 1.22 0 0 1 1.05-1.39 1.64 1.64 0 0 1 1 .16 14.81 14.81 0 0 1 4 2.93 14.26 14.26 0 0 1 3.7 6.84 14.94 14.94 0 0 1 .34 3.94 14.15 14.15 0 0 1-1.69 6.1 15 15 0 0 1-2.55 3.46c-.17.18-.32.36-.51.55l.09.06L35 33.1a1.36 1.36 0 1 1-1.86 2A.63.63 0 0 1 33 35L.87 2.85a2.52 2.52 0 0 1-.21-.25.83.83 0 0 1-.16-.55v-.3a1.06 1.06 0 0 1 .5-1 1 1 0 0 1 .73-.2 4 4 0 0 1 .49 0 1.08 1.08 0 0 1 .57.34l7.64 7.64zm-3.73 3.73l.71.7 3.21 3.24 5.83 5.87 1.21 1.22a.26.26 0 0 1 .07.17v7.28a2.33 2.33 0 0 1-.27 1.14 1.18 1.18 0 0 1-1.6.54 2.31 2.31 0 0 1-.73-.5l-3.14-3.09-5.6-5.52a.25.25 0 0 0-.17-.06H1.92a1.52 1.52 0 0 1-.84-.2 1.25 1.25 0 0 1-.58-1.06V14a1.37 1.37 0 0 1 .31-1 1.31 1.31 0 0 1 1.09-.44h4.26a.7.7 0 0 0 .46-.14 1.11 1.11 0 0 1 .16-.04z"/></symbol><symbol id="volume-on" viewBox="0 0 36 36"><path d="M.4 13.74a2.82 2.82 0 0 1 .19-.48 1.31 1.31 0 0 1 1.21-.69h4.48a.29.29 0 0 0 .23-.09L11 8l3.51-3.45c.32-.31.63-.62 1-.92a1.77 1.77 0 0 1 1.07-.47 1.23 1.23 0 0 1 1.33 1 5.81 5.81 0 0 1 .09.58.86.86 0 0 1 0 .16v25.95a2.75 2.75 0 0 1-.22 1.2 1.22 1.22 0 0 1-.93.76 1.44 1.44 0 0 1-1-.25 4.34 4.34 0 0 1-.58-.46L12 28.89l-4.7-4.62-.81-.79a.24.24 0 0 0-.19-.08H1.8a1.36 1.36 0 0 1-1.33-.95c0-.07 0-.15-.07-.22zm35.2 4.2a14.89 14.89 0 0 1-5.28 11.39 15.74 15.74 0 0 1-2.87 1.91 2 2 0 0 1-.7.24 1.35 1.35 0 0 1-.68-2.57 10.77 10.77 0 0 0 1.87-1.12 12 12 0 0 0 3.79-4.61 11.48 11.48 0 0 0 1-3.33 12.13 12.13 0 0 0-1.31-7.64 12 12 0 0 0-4.77-4.85L26 7a1.34 1.34 0 0 1-.63-1.39 1.31 1.31 0 0 1 1-1.07 1.33 1.33 0 0 1 .92.11 15.11 15.11 0 0 1 3.93 2.84 14.79 14.79 0 0 1 4 7.27 15.09 15.09 0 0 1 .38 3.18z"/><path d="M30.19 17.78a10.91 10.91 0 0 1-5.63 9.7 1.63 1.63 0 0 1-.88.27 1.35 1.35 0 0 1-.94-2.27 2.46 2.46 0 0 1 .66-.48 8.08 8.08 0 0 0 4.05-7.58 7.9 7.9 0 0 0-2-4.79 8 8 0 0 0-2.37-1.88 1.35 1.35 0 1 1 1.31-2.35 10.94 10.94 0 0 1 3.1 2.48 10.72 10.72 0 0 1 1.93 3.19 9.8 9.8 0 0 1 .61 2.38c.11.55.13 1.04.16 1.33z"/><path d="M24.77 17.9a5.49 5.49 0 0 1-4.05 5.33 1.36 1.36 0 1 1-.67-2.63 2.66 2.66 0 0 0 1.62-1.22 2.71 2.71 0 0 0-1.68-4 1.37 1.37 0 0 1-1-1.38A1.35 1.35 0 0 1 20 12.71a1.7 1.7 0 0 1 .89.09 5.41 5.41 0 0 1 3.67 3.83 5 5 0 0 1 .21 1.27z"/></symbol></svg>