<svg xmlns="http://www.w3.org/2000/svg"><symbol id="cart-item" viewBox="0 0 216 216"><circle cx="151.3" cy="165" r="11"/><circle cx="79.8" cy="165" r="11"/><path fill="#fff" stroke="#000" stroke-miterlimit="10" stroke-width="12" d="M28.3 67.3l23 .1L70.7 139l82.3.3.2-54.7-97.4-.4"/><path fill="#fff" stroke="#000" stroke-miterlimit="10" stroke-width="10.8" d="M61.4 109.3h90.8"/><rect width="22" height="22" x="153.5" y="47.5" fill="#fff" stroke="#db4448" stroke-miterlimit="10" stroke-width="6" rx="5.6" ry="5.6"/></symbol><symbol id="cart" viewBox="0 0 216 216"><path fill="#fff" stroke="#000" stroke-miterlimit="10" stroke-width="12" d="M36 67.8h23l19.8 71.5H161V84.6H63.5"/><circle cx="159.3" cy="165" r="11"/><circle cx="87.8" cy="165" r="11"/><path fill="#fff" stroke="#000" stroke-miterlimit="10" stroke-width="10.8" d="M69.4 109.6h90.8"/></symbol><symbol id="form-completed" viewBox="0 0 216 216"><rect width="190" height="190" x="13" y="13" fill="none" stroke="#000" stroke-linecap="round" stroke-miterlimit="10" stroke-width="17.59" rx="23.8" ry="23.8"/><path fill="none" stroke="#000" stroke-linecap="round" stroke-miterlimit="10" stroke-width="20" d="M63 108l29 36 66.5-86.5"/></symbol><symbol id="form-optional" viewBox="0 0 216 216"><rect width="190" height="190" x="13" y="13" fill="none" stroke="#000" stroke-linecap="round" stroke-miterlimit="10" stroke-width="17.59" rx="23.8" ry="23.8"/><path d="M83 129.1a3.6 3.6 0 0 1-1.6-3.1 5.6 5.6 0 0 1 .7-2.3 3.8 3.8 0 0 1 .9-1.1l11.5-9.7-14.9-.9-1.4-.4a3.1 3.1 0 0 1-2.2-1.8 4.5 4.5 0 0 1-.3-3.2l5.2-16a3 3 0 0 1 1.9-2.2 4.3 4.3 0 0 1 2.9-.3l1.5.5 12.6 7.9-3.4-14.4-.2-1.4a4 4 0 0 1 1.1-2.7 3.9 3.9 0 0 1 2.8-1.3h16.8a3.9 3.9 0 0 1 2.8 1.3 4 4 0 0 1 1.1 2.7v1.4L117 96.7l12.8-8.1 1.4-.5.9-.2a4.8 4.8 0 0 1 2.6.7 3.1 3.1 0 0 1 1.4 2l5.4 16v1.1a3.8 3.8 0 0 1-.8 2.4 3.3 3.3 0 0 1-2 1.5l-1.3.4-15.1 1.1 11.7 9.5a3.8 3.8 0 0 1 .9 1.1 7.9 7.9 0 0 1 .7 2.3 3.6 3.6 0 0 1-1.6 3.1l-13.5 10.1a6 6 0 0 1-2.4.5 3.5 3.5 0 0 1-3.2-1.6l-.7-1.1-5.8-14-5.6 14c-.3.6-.6 1-.9 1.1a3.5 3.5 0 0 1-3.2 1.6 5.6 5.6 0 0 1-2.3-.5z"/></symbol><symbol id="form-warning" viewBox="0 0 216 216"><rect width="190" height="190" x="13" y="13" fill="none" stroke="#000" stroke-linecap="round" stroke-miterlimit="10" stroke-width="17.59" rx="23.8" ry="23.8"/><path d="M93.2 168.8a4.4 4.4 0 0 1-1.3-3.2v-23.2a4.6 4.6 0 0 1 4.5-4.7h23.2a4.6 4.6 0 0 1 4.5 4.7v23.2a4.7 4.7 0 0 1-1.2 3.2 4.4 4.4 0 0 1-3.3 1.3H96.4a4.4 4.4 0 0 1-3.2-1.3zm.6-40.7a4.5 4.5 0 0 1-1.4-3.3V48.6a4.2 4.2 0 0 1 1.4-3.2 4.9 4.9 0 0 1 3.3-1.3h21.8a4.9 4.9 0 0 1 3.3 1.3 4.2 4.2 0 0 1 1.4 3.2v76.2a4.5 4.5 0 0 1-1.4 3.3 4.4 4.4 0 0 1-3.3 1.3H97.1a4.4 4.4 0 0 1-3.3-1.3z"/></symbol><symbol id="img-arrow" viewBox="0 0 216 216"><path fill="none" stroke="#000" stroke-linecap="round" stroke-miterlimit="10" stroke-width="30" d="M73.5 115l50 50m-50-50l50-50"/></symbol><symbol id="qty-arrow" viewBox="0 0 216 216"><path fill="none" stroke="#000" stroke-linecap="round" stroke-miterlimit="10" stroke-width="20" d="M108.5 132.3L143 97.8m-34.5 34.5L74 97.8"/><rect width="190" height="190" x="13" y="13" fill="none" stroke="#000" stroke-linecap="round" stroke-miterlimit="10" stroke-width="17.59" rx="23.8" ry="23.8"/></symbol><symbol id="toggle-down" viewBox="0 0 216 216"><rect width="159" height="33" x="-32" y="100" fill="#fff" stroke="#db4448" stroke-miterlimit="10" stroke-width="14" rx="6.4" ry="6.4" transform="rotate(-90 47.5 116.5)"/><rect width="159" height="33" x="28" y="100" fill="#fff" stroke="#fae053" stroke-miterlimit="10" stroke-width="14" rx="6.4" ry="6.4" transform="rotate(-90 107.5 116.5)"/><rect width="159" height="33" x="88" y="100" fill="#fff" stroke="#e2e2e2" stroke-miterlimit="10" stroke-width="14" rx="6.4" ry="6.4" transform="rotate(-90 167.5 116.5)"/></symbol><symbol id="toggle" viewBox="0 0 216 216"><rect width="159" height="33" x="29" y="40" fill="#ee7236" stroke="#000" stroke-miterlimit="10" stroke-width="8" rx="6.4" ry="6.4"/><rect width="159" height="33" x="29" y="100" fill="#4aa26c" stroke="#000" stroke-miterlimit="10" stroke-width="8" rx="6.4" ry="6.4"/><rect width="159" height="33" x="29" y="160" fill="#2461cc" stroke="#000" stroke-miterlimit="10" stroke-width="8" rx="6.4" ry="6.4"/></symbol></svg>