<svg xmlns="http://www.w3.org/2000/svg"><symbol id="artboard-2-copy-4" viewBox="0 0 36 36"><path fill="#360996" d="M22.8 31.7v-9.5c2.7.3 3.8-1 3.4-3.8l-3.1-.3c-.9-3.4-.6-3.8 3.2-4.3v-3c-5.7-1-7.3.5-7.7 7.2l-2.9.3v3.5l2.9.4c0 .8.1 1.6.1 2.3v7.2H7a3.1 3.1 0 0 1-1.5-2.1q-.3-10.3 0-20.7a2.7 2.7 0 0 1 1.9-2h21c1.4 0 2.1.8 2 2.3v20.2c0 1.5-.5 2.3-2 2.3z"/></symbol><symbol id="artboard-2-copy-5" viewBox="0 0 36 36"><path fill="#360996" d="M8.1 15.7h.8l-1.3-5.4.8-.4a14.1 14.1 0 0 0 9.4 4.6c.3-1 .4-2 .7-2.9a4.6 4.6 0 0 1 5.8-2.5c1.3.5 2.6.8 4 1.2l-.6 1.1 1.1.3c-2.5 3.8-1.8 8.9-5.8 12.2a13.6 13.6 0 0 1-11.4 3.2 25.3 25.3 0 0 1-4-1.2l5.9-2-4.3-3.2 1.4-.6-3-3.9z"/></symbol><symbol id="artboard-2-copy-6" viewBox="0 0 36 36"><path fill="#360996" d="M18.2 6.6c1.8.1 3.6.1 5.3.3 3.2.3 5.4 2.1 5.6 5.2A118.1 118.1 0 0 1 29 24a4.9 4.9 0 0 1-4.4 4.7 91.1 91.1 0 0 1-12.8 0 4.9 4.9 0 0 1-4.6-4.8 97.7 97.7 0 0 1 .1-12.1c.2-2.9 2.4-4.6 5.3-4.9zm-.1 1.9l-5.2.3c-2.2.2-3.6 1.3-3.7 3.5a106.5 106.5 0 0 0 0 11.3 3.3 3.3 0 0 0 3.2 3.3c3.8.1 7.7.2 11.5 0a3.5 3.5 0 0 0 3.3-3.5c.1-3.6.1-7.3 0-10.9a3.8 3.8 0 0 0-3.8-3.7z"/><path fill="#fff" d="M18.1 8.5l5.3.3a3.8 3.8 0 0 1 3.8 3.7c.1 3.6.1 7.3 0 10.9a3.5 3.5 0 0 1-3.3 3.5c-3.8.2-7.7.1-11.5 0a3.3 3.3 0 0 1-3.2-3.3 106.5 106.5 0 0 1 0-11.3c.1-2.2 1.5-3.3 3.7-3.5zm.1 3.7a5.8 5.8 0 0 0-5.8 5.6 5.8 5.8 0 0 0 11.5.2 5.8 5.8 0 0 0-5.7-5.8zm6-2c-.6.7-1.3 1.3-1.2 1.6s.8.9 1.3 1.3 1-.8 1.1-1.3-.7-.9-1.2-1.6z"/><path fill="#360996" d="M18.2 12.2a5.8 5.8 0 0 1 5.7 5.8 5.8 5.8 0 0 1-11.5-.2 5.8 5.8 0 0 1 5.8-5.6zm3.7 5.8a3.8 3.8 0 0 0-3.6-3.8 3.7 3.7 0 0 0-3.9 3.6 3.9 3.9 0 0 0 3.8 3.9 3.8 3.8 0 0 0 3.7-3.7zm2.3-7.8c.5.7 1.2 1.2 1.2 1.6s-.7.9-1.1 1.3-1.2-.8-1.3-1.3.6-.9 1.2-1.6z"/><path fill="none" stroke="#360996" stroke-miterlimit="10" d="M21.9 18a3.8 3.8 0 0 1-3.7 3.7 3.9 3.9 0 0 1-3.8-3.9 3.7 3.7 0 0 1 3.9-3.6 3.8 3.8 0 0 1 3.6 3.8z"/></symbol><symbol id="basket" viewBox="0 0 36 39.1"><path fill="#360996" d="M23 37.6H13A10.6 10.6 0 0 1 2.4 27.1v-8.7c0-4.8 4 .4 8.8.4h12.5c4.9 0 9.9-5.1 9.9-.3v8.7A10.6 10.6 0 0 1 23 37.6z"/><path fill="none" stroke="#360996" stroke-miterlimit="10" stroke-width="3.61" d="M4.7 18c0-7.8 6-14.1 13.4-14.1S31.6 10.2 31.6 18"/></symbol><symbol id="plus" viewBox="0 0 28.4 28"><path fill="#231f20" stroke="#e0e038" stroke-linejoin="round" stroke-width="1.86" d="M14 24.6V3.8M3.6 14.2h20.8"/><circle cx="14" cy="14.2" r="12.4" fill="none" stroke="#e0e038" stroke-linejoin="round" stroke-width=".5"/></symbol><symbol id="minus" viewBox="0 0 36 36"><path fill="#231f20" stroke="#e0e038" stroke-linejoin="round" stroke-width="1.86" d="M8.7 17h20.8"/><circle cx="19.2" cy="17" r="12.4" fill="none" stroke="#e0e038" stroke-linejoin="round" stroke-width=".5"/></symbol><symbol id="toggle" viewBox="0 0 39.5 36"><path fill="#231f20" stroke="#e0e038" stroke-linejoin="round" stroke-width="3.23" d="M1.7 11.6h36.1M1.6 18h36.1M1.8 24.4h36.1"/></symbol></svg>