<svg xmlns="http://www.w3.org/2000/svg"><symbol id="cart" viewBox="0 0 400 400"><path fill="none" stroke="#010101" stroke-linecap="round" stroke-miterlimit="10" stroke-width="20" d="M14.6 61.8h40.9a5.3 5.3 0 0 1 5.3 5.3 60.8 60.8 0 0 0 2.5 17l48.4 165a36.7 36.7 0 0 1 1.4 6.4 17.6 17.6 0 0 0 17.5 15.6h185.2a17.8 17.8 0 0 0 17.1-13.6 79.8 79.8 0 0 1 5-14.2l49.7-110.5a11.9 11.9 0 0 0-11.1-16.4H181.4"/><circle cx="130.7" cy="337.3" r="24.9" fill="none" stroke="#010101" stroke-linecap="round" stroke-miterlimit="10" stroke-width="15"/><circle cx="304.6" cy="337.3" r="24.9" fill="none" stroke="#010101" stroke-linecap="round" stroke-miterlimit="10" stroke-width="15"/></symbol><symbol id="drop-down" viewBox="0 0 400 400"><path fill="#010101" d="M8.2 122l45.5-45.5 147.4 150 147.2-150 45.5 45.5-192.7 195.5z"/></symbol><symbol id="check" viewBox="0 0 400 400"><path fill="#010101" d="M331.5 44.5L151 229.6l-84.6-80.2L7 208.9l144 139.6L391 104z"/></symbol><symbol id="heart-white" viewBox="0 0 400 400"><path fill="#ab5964" d="M104.4 52.9c51.8 0 79.6 55.9 91.6 80.5 12-24.7 39.5-80.4 91.7-80.4 32.9 0 68.4 21 68.4 67 0 55.1-75.9 125.7-160.1 208.2C111.8 245.7 35.9 175.1 35.9 120c0-42.8 31.4-67.1 68.5-67.1zm0-32C53.5 20.9 3.9 55.9 3.9 120 3.9 194.6 93 271 196 373.1 299 271 388.1 194.6 388.1 120c0-64.2-49.5-99-100.4-99-35.3 0-71.2 16.7-91.7 51.9-20.6-35.3-56.4-52-91.6-52z"/></symbol><symbol id="heart" viewBox="0 0 400 400"><path fill="#ab5964" d="M199 73.2C148.3-13.8 5.8 11.6 5.8 120.6c0 75 89.7 151.8 193.2 254.5 103.5-102.7 193.2-179.5 193.2-254.5 0-109.4-142.9-133.8-193.2-47.4z"/></symbol><symbol id="facebook" viewBox="0 0 400 400"><path fill="#010101" d="M200 12.8c-103.3 0-187 83.8-187 187s83.7 187.1 187 187.1 187-83.8 187-187.1-83.7-187-187-187zm46.8 124.7h-21.1c-8.4 0-10.1 3.4-10.1 12.1v19.1h31.2l-3.3 31.1h-27.9v109.1h-46.8V199.8h-31.1v-31.1h31.1v-36c0-27.6 14.5-42 47.2-42h30.8z"/></symbol><symbol id="insta-white" viewBox="0 0 400 400"><path fill="#fff" d="M200 44.1c50.8 0 56.8.2 76.9 1.1 51.5 2.3 75.6 26.8 77.9 78 .9 20 1.1 26 1.1 76.8s-.2 56.8-1.1 76.9c-2.3 51.1-26.3 75.6-77.9 77.9-20.1.9-26.1 1.1-76.9 1.1s-56.8-.2-76.9-1.1c-51.6-2.3-75.6-26.9-77.9-77.9-.9-20.1-1.1-26.1-1.1-76.9s.2-56.8 1.1-76.9c2.3-51.1 26.4-75.6 77.9-77.9 20.1-.9 26.1-1.1 76.9-1.1zm0-34.3c-51.7 0-58.1.2-78.4 1.2C52.5 14.1 14.1 52.4 11 121.6c-1 20.3-1.2 26.7-1.2 78.4s.2 58.1 1.2 78.4c3.1 69.1 41.4 107.5 110.6 110.6 20.3 1 26.7 1.2 78.4 1.2s58.1-.2 78.4-1.2c69-3.1 107.5-41.4 110.6-110.6 1-20.3 1.2-26.7 1.2-78.4s-.2-58.1-1.2-78.4c-3.1-69-41.4-107.5-110.6-110.6-20.3-1-26.7-1.2-78.4-1.2zm0 92.5a97.7 97.7 0 1 0 97.7 97.7 97.8 97.8 0 0 0-97.7-97.7zm0 161.1a63.4 63.4 0 1 1 63.4-63.4 63.4 63.4 0 0 1-63.4 63.4zM301.5 75.7a22.8 22.8 0 1 0 22.8 22.8 22.8 22.8 0 0 0-22.8-22.8z"/></symbol><symbol id="insta" viewBox="0 0 400 400"><path fill="#010101" d="M284.9 123.7v20.5a8.7 8.7 0 0 1-8.7 8.7h-20.5a8.6 8.6 0 0 1-8.7-8.7v-20.5a8.6 8.6 0 0 1 8.7-8.7h20.5a8.7 8.7 0 0 1 8.7 8.7zM200 243.3a43.5 43.5 0 1 0-43.5-43.5 43.5 43.5 0 0 0 43.5 43.5zm68.9-53.2a77.7 77.7 0 0 1 .7 9.7 69.6 69.6 0 1 1-139.2 0 74.8 74.8 0 0 1 .7-9.6 88.1 88.1 0 0 1 1.9-9.2h-17.9v95a8.7 8.7 0 0 0 8.7 8.7h152.4a8.7 8.7 0 0 0 8.7-8.7v-95H267a91.8 91.8 0 0 1 1.9 9.1zm125.1 9.7c0 107.2-86.9 194-194 194S6 307 6 199.8 92.9 5.9 200 5.9s194 86.8 194 193.9zm-80.8-87A26.1 26.1 0 0 0 287 86.7H113a26.1 26.1 0 0 0-26.2 26.1v174.1A26.1 26.1 0 0 0 113 313h174a26.1 26.1 0 0 0 26.2-26.1z"/></symbol><symbol id="phone" viewBox="0 0 400 400"><path fill="#010101" d="M309.5 365.4l-54.8-105.9-32.2 15.7c-34.9 17-106-121.9-71.9-140.1l32.5-16-54.4-106.3L95.9 29c-112.3 58.5 65.9 404.9 180.7 352.5z"/></symbol><symbol id="pin" viewBox="0 0 400 400"><path fill="#010101" fill-rule="evenodd" d="M200 0C92.2 0 4.7 87.4 4.7 195.3c0 82.7 51.5 153.3 124.1 181.8-1.7-15.5-3.2-39.1.7-56l22.9-97.1s-5.8-11.7-5.8-29c0-27.1 15.7-47.4 35.3-47.4 16.7 0 24.7 12.5 24.7 27.5 0 16.8-10.7 41.8-16.2 65-4.6 19.5 9.8 35.3 28.9 35.3 34.8 0 61.4-36.6 61.4-89.4 0-46.7-33.6-79.4-81.5-79.4-55.6 0-88.2 41.6-88.2 84.7 0 16.8 6.5 34.8 14.5 44.5a6 6 0 0 1 1.4 5.7l-5.4 22.1c-.9 3.6-2.9 4.3-6.6 2.6-24.4-11.3-39.6-47-39.6-75.6 0-61.6 44.7-118.2 129-118.2 67.8 0 120.4 48.3 120.4 112.8 0 67.3-42.4 121.4-101.3 121.4-19.8 0-38.4-10.2-44.8-22.4l-12.2 46.4c-4.4 17-16.3 38.3-24.2 51.2a194 194 0 0 0 57.8 8.7c107.8 0 195.3-87.4 195.3-195.2S307.8 0 200 0z"/></symbol><symbol id="mail" viewBox="0 0 400 400"><path fill="#010101" d="M180.4 232.3L28.7 116.6a4.5 4.5 0 0 1 2.7-8h339.4a4.5 4.5 0 0 1 2.7 8L221.8 232.3a34.2 34.2 0 0 1-41.4 0z"/><path fill="#010101" d="M180.3 252.4l-148-114.2a8.9 8.9 0 0 0-14.3 7.1v166.3a22.1 22.1 0 0 0 22.2 22.2H362a22.2 22.2 0 0 0 22.3-22.2V145.3a9 9 0 0 0-14.4-7.1l-148 114.2a34.2 34.2 0 0 1-41.6 0z"/></symbol><symbol id="sign-in" viewBox="0 0 400 400"><path fill="#010101" d="M168.4 168.2l47.1 41.2-47.1 41.2v-25.3H41.2v-31.8h127.2zm-31.8-70.1v63.6H9.4v95.4h127.2v63.6l127.2-111.3zM232 50.4A157.7 157.7 0 0 0 153.9 71l3.6 3.2 22.2 19.4A125.3 125.3 0 0 1 232 82.2c70.1 0 127.1 57.1 127.1 127.2s-57 127.2-127.1 127.2a126.9 126.9 0 0 1-52.3-11.4l-22.2 19.4-3.6 3.2a158.8 158.8 0 0 0 78.1 20.6c87.7 0 158.9-71.2 158.9-159s-71.2-159-158.9-159z"/></symbol><symbol id="sign-up" viewBox="0 0 400 400"><path fill="#010101" d="M200 5.9C92.8 5.9 5.9 92.8 5.9 200S92.8 394.1 200 394.1 394.1 307.2 394.1 200 307.2 5.9 200 5.9zM325.4 302c-4.2-9.5-12.7-16-30.2-20.1-37.1-8.5-71.7-16-54.9-47.6 50.8-96.1 13.4-147.5-40.3-147.5s-91.3 53.3-40.3 147.5c17.3 31.8-18.5 39.2-54.9 47.6-17.5 4.1-26 10.7-30.2 20.2A161.2 161.2 0 0 1 38.2 200c0-89.2 72.6-161.8 161.8-161.8S361.8 110.8 361.8 200a161.2 161.2 0 0 1-36.4 102z"/></symbol><symbol id="search" viewBox="0 0 400 400"><path fill="#010101" d="M377.8 331.5l-79.1-79.1a155.4 155.4 0 0 0 24.2-83.4c0-86.1-70.1-156.2-156.2-156.2S10.6 82.9 10.6 169s70 156.2 156.1 156.2a154.4 154.4 0 0 0 79.8-22l79.8 79.8c34.1 34 85.5-17.4 51.5-51.5zM59 169c0-59.4 48.3-107.8 107.7-107.8A108 108 0 0 1 274.5 169c0 59.4-48.4 107.7-107.8 107.7A107.8 107.8 0 0 1 59 169z"/></symbol><symbol id="twitter" viewBox="0 0 400 400"><path fill="#010101" d="M199.4 5.8C92.5 5.8 5.8 92.5 5.8 199.4S92.5 393 199.4 393 393 306.3 393 199.4 306.3 5.8 199.4 5.8zm97.9 155.6c2.9 65.2-45.7 137.9-131.7 137.9a130.9 130.9 0 0 1-71.1-20.9 92.9 92.9 0 0 0 68.6-19.2 46.4 46.4 0 0 1-43.3-32.1 49.2 49.2 0 0 0 21-.8c-22.3-4.5-37.7-24.6-37.2-46.1a45.5 45.5 0 0 0 21 5.8 46.3 46.3 0 0 1-14.3-61.8 131.8 131.8 0 0 0 95.5 48.4 46.3 46.3 0 0 1 78.9-42.3 93.9 93.9 0 0 0 29.5-11.2 46.4 46.4 0 0 1-20.4 25.6 91.1 91.1 0 0 0 26.6-7.3 92.5 92.5 0 0 1-23.1 24z"/></symbol><symbol id="x" viewBox="0 0 400 400"><path fill="#010101" d="M390.1 326.7l-131.7-130L388.3 65.5 329.7 6.9 199.6 138.7 68 8.7 9.9 66.8l131.8 130.5L11.7 329l58.1 58.1 130.5-131.8 131.2 130z"/></symbol><symbol id="view-white" viewBox="0 0 400 400"><path fill="#fff" d="M201.2 118.3c74.8 0 126.9 47.4 149.6 73-22.1 28.9-74.2 84.4-149.6 84.4-69.5 0-124.7-55.7-149.1-85.1 23.5-25.9 75.8-72.3 149.1-72.3zm0-31.4c-119 0-189 103-189 103s76.1 117.2 189 117.2c121.7 0 188.6-117.2 188.6-117.2s-67.5-103-188.6-103zM201 197l-52.9-34.2a63.5 63.5 0 0 0-10 34.2 62.9 62.9 0 1 0 62.9-62.9 62.1 62.1 0 0 0-32 8.7z"/></symbol><symbol id="view" viewBox="0 0 400 400"><path fill="#010101" d="M201.2 118.3c74.8 0 126.9 47.4 149.6 73-22.1 28.9-74.2 84.4-149.6 84.4-69.5 0-124.7-55.7-149.1-85.1 23.5-25.9 75.8-72.3 149.1-72.3zm0-31.4c-119 0-189 103-189 103s76.1 117.2 189 117.2c121.7 0 188.6-117.2 188.6-117.2s-67.5-103-188.6-103zM201 197l-52.9-34.2a63.5 63.5 0 0 0-10 34.2 62.9 62.9 0 1 0 62.9-62.9 62.1 62.1 0 0 0-32 8.7z"/></symbol></svg>