<svg xmlns="http://www.w3.org/2000/svg"><symbol id="artboard-1" viewBox="0 0 288 288"><path fill="#b4daa7" d="M218.3 218a4.4 4.4 0 0 0 3 1.2 4.2 4.2 0 0 0 3-7.1l-27.9-27.9a67.5 67.5 0 0 0-2.9-92.3C183 81.4 169 72.3 151.9 64.7a254.1 254.1 0 0 0-46.3-15.1 332.2 332.2 0 0 0-53.4-8 3.6 3.6 0 0 0-3.1 1.2 4.2 4.2 0 0 0-1.3 3.2 340.9 340.9 0 0 0 8.1 53.3 259.5 259.5 0 0 0 15 46.3c7.6 17.2 16.8 31.2 27.3 41.6a67.2 67.2 0 0 0 92.2 2.9zm-40.1-83.7a4.1 4.1 0 0 0-4.2 4.1v23.4l-17.4-17.4v-31.8a4.2 4.2 0 0 0-4.2-4.2 4.2 4.2 0 0 0-4.2 4.2V136l-17.4-17.5V86.8a4.2 4.2 0 0 0-4.2-4.2 4.2 4.2 0 0 0-4.2 4.2v23.4L99.9 87.7a4.2 4.2 0 0 0-6 0 4.2 4.2 0 0 0 0 5.9l22.5 22.5H93.1a4.2 4.2 0 1 0 0 8.4h31.7l17.4 17.4h-23.3a4.2 4.2 0 1 0 0 8.4h31.7l17.4 17.4h-23.3a4.2 4.2 0 0 0 0 8.4h31.7l8.1 8.1a59 59 0 0 1-80.4-2.9c-22.1-22.1-34-57.7-40-83.7a337.2 337.2 0 0 1-7.5-47.3 355.6 355.6 0 0 1 47.3 7.5c25.9 6 61.5 17.9 83.7 40a59.1 59.1 0 0 1 2.8 80.4l-8-8v-31.8a4.1 4.1 0 0 0-4.2-4.1z"/></symbol><symbol id="artboard-9" viewBox="0 0 288 288"><path fill="#b5dba8" d="M115.2 215.4a19 19 0 1 1-19 19 19 19 0 0 1 19-19zm82.7 0a19 19 0 1 1-18.9 19 19 19 0 0 1 18.9-19zm48.3-103.9h-117a9.3 9.3 0 0 0-6.9 9.2 10.4 10.4 0 0 0 6.9 9.8h104.9l-5.9 20H125.1a8.5 8.5 0 0 0-6.5 8.5 9.8 9.8 0 0 0 6.5 9.2H223l-5.6 18.6H111l-7.1-56.3-2.3-19s-2-17.5-3.2-24.8-19.3-16.3-58.5-34.8c-9.1-3.8-16.8 13 0 21.8l30.9 14.4s7.2 4.2 7.8 9.7 13.1 98.4 13.1 98.4.5 12.9 12.2 12.9h117.7c9.8 0 11.8-10.3 11.8-10.3l23.3-69.2s6.9-18.1-10.5-18.1z"/></symbol><symbol id="artboard-8" viewBox="0 0 288 288"><path fill="#b5dba8" d="M146 216.8l-25.2-22-72.1 61.8a14.7 14.7 0 0 0 10 3.9h174.6a14.7 14.7 0 0 0 10-3.9l-72.1-61.8zm102 31.9V127.6l-70.4 61.2 70.4 59.9z"/><path fill="#b5dba8" d="M248 114.9L146 27.5 44 114.9l102 87.4 102-87.4zM44 127.7v121l70.4-59.9L44 127.7z"/></symbol><symbol id="artboard-7" viewBox="0 0 288 288"><path fill="#b5dba8" d="M80.7 151.4a4.2 4.2 0 0 0-4.2 4.2v23a4.2 4.2 0 0 0 4.2 4.2h12.5l10.4 80.8a4.2 4.2 0 0 0 4.2 3.6h72.5a4.2 4.2 0 0 0 4.1-3.6l10.4-80.8h12.5a4.2 4.2 0 0 0 4.2-4.2v-23a4.2 4.2 0 0 0-4.2-4.2h-54.8a28.6 28.6 0 0 0 4-16.1 33.3 33.3 0 0 0 11.7 2.2 32.3 32.3 0 0 0 32.1-29.7 4.2 4.2 0 0 0-1.9-3.8 32.3 32.3 0 0 0-18.2-5.6 31.7 31.7 0 0 0-13.8 3.2 32.1 32.1 0 0 0-14.7 14.2c-2.2-5.6-5.1-11.2-7.9-16.7-7.8-15.6-15.8-31.5-13.2-47.5A32.7 32.7 0 0 0 159.2 69a32.4 32.4 0 0 0 20.9-7.8 4.3 4.3 0 0 0 1.4-3.9 32.3 32.3 0 0 0-20.9-24.4 30.6 30.6 0 0 0-10.7-1.9 31.3 31.3 0 0 0-10.5 1.8 64.8 64.8 0 0 1 4.4-4.9 4.2 4.2 0 1 0-5.9-5.9c-12.6 12.6-17.8 26.4-15.8 42.2a71.6 71.6 0 0 0 4.3 16.8 31.7 31.7 0 0 0-13.2-2.9 33.6 33.6 0 0 0-8.9 1.3 32.4 32.4 0 0 0-22.4 23.2 4.3 4.3 0 0 0 1.2 4 32.1 32.1 0 0 0 22.3 9 30 30 0 0 0 8.9-1.3A32.2 32.2 0 0 0 134 98.1l2.4 4.7c10.9 21.8 17.2 36 5.8 48.6zm89.3-42.3a22.7 22.7 0 0 1 10.2-2.3 23.8 23.8 0 0 1 11.4 2.8 23.8 23.8 0 0 1-13.1 17.2 24.6 24.6 0 0 1-10.3 2.3 24.2 24.2 0 0 1-11.3-2.8 23.6 23.6 0 0 1 13.1-17.2zm-20.1-69.7a23.8 23.8 0 0 1 7.9 1.3 24.3 24.3 0 0 1 14.9 15.7 24.3 24.3 0 0 1-21.5 2.9 23.9 23.9 0 0 1-14.8-15.7 23.7 23.7 0 0 1 13.5-4.2zM112 106.3a25 25 0 0 1-6.6.9 23.5 23.5 0 0 1-14.6-5 23.6 23.6 0 0 1 22.4-15.7 24.1 24.1 0 0 1 14.6 5 24.1 24.1 0 0 1-15.8 14.8zm64.6 152.6h-65.2l-9.7-76.1h84.6zm26.5-99.2v14.7H84.9v-14.7z"/></symbol><symbol id="artboard-10" viewBox="0 0 288 288"><path fill="#b5dba8" d="M233.4 228.8H59.3a28.6 28.6 0 0 1-28.5-28.5v-94.5a28.6 28.6 0 0 1 28.5-28.5h174.1a28.5 28.5 0 0 1 28.4 28.5v94.5a28.5 28.5 0 0 1-28.4 28.5zM59.3 85.1a20.7 20.7 0 0 0-20.8 20.7v94.5A20.8 20.8 0 0 0 59.3 221h174.1a20.7 20.7 0 0 0 20.7-20.7v-94.5a20.7 20.7 0 0 0-20.7-20.7z"/><path fill="#b5dba8" d="M36.9 102.8h218.9v25.57H36.9zM57.3 147h82.6v7.46H57.3zm0 21h82.6v7.46H57.3zm0 21.5h82.6v7.46H57.3z"/></symbol><symbol id="artboard-11" viewBox="0 0 288 288"><path fill="#b5dba8" d="M213.1 236.3a11.2 11.2 0 0 1-10.7 8.1H85.6a11.2 11.2 0 0 1-10.7-8.1L45.2 129.7h30.6l65.5-68.6a2.8 2.8 0 0 1 4.2.2 3.5 3.5 0 0 1-.2 4.6l-60.8 63.8h126.8l-53-84.6a3.6 3.6 0 0 1 .7-4.6 2.7 2.7 0 0 1 4.1.7l55.4 88.5h24.3z"/><path fill="#fff" d="M155.7 166.7l-2.4 49.6h14.6l6.2-49.6h-18.4zm-75.5 0l13.1 49.6h14.6l-9.3-49.6H80.2zm37.7 0l5.4 49.6h14.6l-1.5-49.6h-18.5zm75.5 0l-10.1 49.6h14.6l14-49.6h-18.5z"/></symbol></svg>