<svg xmlns="http://www.w3.org/2000/svg"><symbol id="facebook" viewBox="0 0 100 100"><path fill="#fff" d="M90 87.3a4.2 4.2 0 0 1-1.2 3 4.2 4.2 0 0 1-3.2 1.4h-20V61.1h10.2l1.6-11.8H65.6v-7.6c0-1.9.3-3.4 1-4.2a6.6 6.6 0 0 1 4.8-1.6h6.3V25.2c-2.4-.2-5.5-.3-9.1-.3s-8.3 1.3-11.1 4-4.2 6.6-4.2 11.6v8.8H43.1v11.8h10.2v30.6H15.7a4.2 4.2 0 0 1-3.2-1.4 4.2 4.2 0 0 1-1.2-3v-70a4.5 4.5 0 0 1 1.2-3.2 4.4 4.4 0 0 1 3.2-1.2h69.9a4.5 4.5 0 0 1 3.1 1.2 4.2 4.2 0 0 1 1.3 3.2z"/></symbol><symbol id="hamburger" viewBox="0 0 100 100"><rect width="73" height="7.82" x="14.8" y="17.6" fill="#fff" rx="3.9"/><rect width="73" height="7.82" x="13.5" y="45.1" fill="#fff" rx="3.9"/><rect width="73" height="7.82" x="13.5" y="71.5" fill="#fff" rx="3.9"/></symbol><symbol id="instagram" viewBox="0 0 100 100"><path fill="#fff" d="M89.8 35.9c.2 3.3.2 8.8.2 16.4s-.1 13.1-.2 16.4a34.1 34.1 0 0 1-1.5 8.7 20.7 20.7 0 0 1-4.9 7.7 20.1 20.1 0 0 1-7.6 4.8 35.7 35.7 0 0 1-8.7 1.5c-3.4.2-8.8.3-16.5.3s-13-.1-16.4-.3a28 28 0 0 1-8.7-1.7 18.5 18.5 0 0 1-7.6-4.6 20.7 20.7 0 0 1-4.9-7.7 34.1 34.1 0 0 1-1.5-8.7c-.1-3.3-.2-8.8-.2-16.4s.1-13.1.2-16.4a34.1 34.1 0 0 1 1.5-8.7 20.7 20.7 0 0 1 4.9-7.7 19 19 0 0 1 7.6-4.8 35.7 35.7 0 0 1 8.7-1.5c3.4-.2 8.8-.3 16.4-.3s13.1.1 16.5.3a35.7 35.7 0 0 1 8.7 1.5 19 19 0 0 1 7.6 4.8 20.7 20.7 0 0 1 4.9 7.7 34.1 34.1 0 0 1 1.5 8.7zm-8.4 39.6a36.1 36.1 0 0 0 1.4-9.5c.1-2.6.2-6.2.2-10.9v-5.6c0-4.8-.1-8.5-.2-10.9a34 34 0 0 0-1.4-9.5 12.8 12.8 0 0 0-7.5-7.6c-1.9-.7-5.1-1.1-9.5-1.4l-10.9-.2h-5.7l-10.9.2a40.9 40.9 0 0 0-9.5 1.4 12.8 12.8 0 0 0-7.5 7.6 34 34 0 0 0-1.4 9.5c-.1 2.6-.2 6.2-.2 10.9v5.6c0 4.7.1 8.3.2 10.9a36.1 36.1 0 0 0 1.4 9.5 13.7 13.7 0 0 0 7.5 7.6 40.9 40.9 0 0 0 9.5 1.4h27.5c4.4-.3 7.6-.7 9.5-1.4a13.6 13.6 0 0 0 7.5-7.6zM50.6 32.1a19.9 19.9 0 0 1 17.5 10.1 19.6 19.6 0 0 1 0 20.2 20.1 20.1 0 0 1-34.9 0 19.6 19.6 0 0 1 0-20.2 19.9 19.9 0 0 1 17.4-10.1zm0 33.4a12.8 12.8 0 0 0 9.4-3.9A13.3 13.3 0 0 0 60 43a13.2 13.2 0 0 0-18.7 0 13.3 13.3 0 0 0 0 18.6 12.7 12.7 0 0 0 9.3 3.9zm25.9-34.3a4.8 4.8 0 0 0-4.8-4.7 4.3 4.3 0 0 0-3.3 1.4 4.6 4.6 0 0 0 0 6.6 4.3 4.3 0 0 0 3.3 1.4 4.2 4.2 0 0 0 3.3-1.4 5.1 5.1 0 0 0 1.5-3.3z"/></symbol><symbol id="twitter" viewBox="0 0 100 100"><path fill="#fff" d="M89 87.3a4.2 4.2 0 0 1-1.2 3 4.1 4.1 0 0 1-3.1 1.4H64.6V61.1h10.2l1.6-11.8H64.6v-7.6a6.6 6.6 0 0 1 1.1-4.2c.9-1 2.5-1.6 4.7-1.6h6.3V25.2c-2.4-.2-5.5-.3-9.1-.3s-8.3 1.3-11.1 4-4.2 6.6-4.2 11.6v8.8H42.1v11.8h10.2v30.6H14.7a4.2 4.2 0 0 1-3.2-1.4 4.2 4.2 0 0 1-1.2-3v-70a4.5 4.5 0 0 1 1.2-3.2 4.4 4.4 0 0 1 3.2-1.2h70a4.4 4.4 0 0 1 3 1.2 4.2 4.2 0 0 1 1.3 3.2z"/></symbol></svg>