<?xml version="1.0" encoding="utf-8"?>
<!-- Generator: Adobe Illustrator 24.0.2, SVG Export Plug-In . SVG Version: 6.00 Build 0)  -->
<svg version="1.1" id="Layer_1" xmlns="http://www.w3.org/2000/svg" xmlns:xlink="http://www.w3.org/1999/xlink" x="0px" y="0px"
	 viewBox="0 0 190 106" style="enable-background:new 0 0 190 106;" xml:space="preserve">
<style type="text/css">
	.st0{fill:#94AE37;}
</style>
<g id="facebook_logo">
	<path class="st0" d="M52.49,86.73C33.44,86.73,18,71.29,18,52.24c0-19.05,15.44-34.49,34.49-34.49c19.05,0,34.49,15.44,34.49,34.49
		C86.98,71.29,71.54,86.73,52.49,86.73 M44.17,51.56h3.57v17.93h6.68V51.56h5.29l0.4-5.16h-5.69v-4.03c0-1.39,1.24-1.88,2.63-1.88
		c1.39,0,2.87,0.43,2.87,0.43l0.89-5.28c0,0-1.89-0.64-6.39-0.64c-2.76,0-4.37,1.05-5.54,2.6c-1.11,1.46-1.15,3.82-1.15,5.34v3.47
		h-3.57V51.56z"/>
	<g>
		<path class="st0" d="M144.22,53.55c0,5.2-4.23,9.43-9.43,9.43c-5.2,0-9.43-4.23-9.43-9.43c0-1.25,0.25-2.45,0.7-3.54h-5.15v14.12
			c0,1.82,1.48,3.3,3.31,3.3h21.16c1.82,0,3.31-1.48,3.31-3.3V50.01h-5.15C143.97,51.1,144.22,52.3,144.22,53.55z"/>
		<polygon class="st0" points="148.04,46.12 148.04,41.04 148.04,40.28 147.28,40.28 142.2,40.3 142.22,46.14 		"/>
		<path class="st0" d="M134.79,59.62c3.35,0,6.07-2.72,6.07-6.07c0-1.32-0.43-2.54-1.15-3.54c-1.1-1.53-2.9-2.53-4.92-2.53
			c-2.03,0-3.82,1-4.92,2.53c-0.72,1-1.15,2.22-1.15,3.54C128.72,56.9,131.44,59.62,134.79,59.62z"/>
		<path class="st0" d="M134.79,19.06c-19.05,0-34.49,15.44-34.49,34.49c0,19.05,15.44,34.49,34.49,34.49
			c19.05,0,34.49-15.44,34.49-34.49C169.28,34.5,153.84,19.06,134.79,19.06z M152.03,50.01v14.12c0,3.68-2.99,6.67-6.67,6.67h-21.16
			c-3.68,0-6.67-2.99-6.67-6.67V50.01v-7.04c0-3.68,2.99-6.67,6.67-6.67h21.16c3.68,0,6.67,2.99,6.67,6.67V50.01z"/>
	</g>
</g>
</svg>
