<svg xmlns="http://www.w3.org/2000/svg"><symbol id="cart-item" viewBox="0 0 216 216"><circle cx="151.3" cy="165" r="11" fill="#000001"/><circle cx="79.8" cy="165" r="11" fill="#000001"/><path fill="#fff" stroke="#000001" stroke-miterlimit="10" stroke-width="12" d="M28.3 67.3l23 .1L70.7 139l82.3.3.2-54.7-97.4-.4"/><path fill="#fff" stroke="#000001" stroke-miterlimit="10" stroke-width="10.8" d="M61.4 109.3h90.8"/><rect width="29" height="29" x="150" y="38" fill="#fff" stroke="#db4448" stroke-miterlimit="10" stroke-width="10" rx="7.4" ry="7.4"/></symbol><symbol id="facebook" viewBox="0 0 216 216"><rect width="190" height="190" x="12" y="13" fill="#fff" stroke="#000001" stroke-linecap="round" stroke-miterlimit="10" stroke-width="17.59" rx="23.8" ry="23.8"/><path fill="#000002" d="M106.3 198.7a5.2 5.2 0 0 1-1.6-4v-78.2H88.4a5.9 5.9 0 0 1-4.1-1.5 5.4 5.4 0 0 1-1.6-4V92.3a5 5 0 0 1 1.6-3.9 5.6 5.6 0 0 1 4.1-1.6h16.3v-6.5c0-14.5 4.2-25.1 12.6-31.6s20.5-9.8 36.2-9.8h17.3a5.7 5.7 0 0 1 4 1.5 5 5 0 0 1 1.6 3.9v18.8a5 5 0 0 1-1.6 3.9 5.7 5.7 0 0 1-4 1.5h-15.5c-4.7 0-8 1.1-9.9 3.2s-3 5.3-3 9.7v5.4h26.2a5.4 5.4 0 0 1 4 1.6 5 5 0 0 1 1.6 3.9V111a5.4 5.4 0 0 1-1.6 4 5.7 5.7 0 0 1-4 1.5h-26.2v78.2a5.6 5.6 0 0 1-1.5 3.9 5 5 0 0 1-3.9 1.6h-26.6a5.9 5.9 0 0 1-4.1-1.5z"/></symbol><symbol id="cart" viewBox="0 0 216 216"><path fill="#fff" stroke="#000001" stroke-miterlimit="10" stroke-width="12" d="M36 67.8h23l19.8 71.5H161V84.6H63.5"/><circle cx="159.3" cy="165" r="11" fill="#000001"/><circle cx="87.8" cy="165" r="11" fill="#000001"/><path fill="#fff" stroke="#000001" stroke-miterlimit="10" stroke-width="10.8" d="M69.4 109.6h90.8"/></symbol><symbol id="footer-logo" viewBox="0 0 216 216"><path fill="#fff" d="M198.4 57.7L115.2 16a13.4 13.4 0 0 0-12.3 0L19.6 57.7A13.7 13.7 0 0 0 12 70v80.5a13.7 13.7 0 0 0 7.6 12.3l83.3 41.7a13.1 13.1 0 0 0 6.1 1.5 13.5 13.5 0 0 0 6.2-1.5l83.2-41.7a13.5 13.5 0 0 0 7.6-12.3V70a13.5 13.5 0 0 0-7.6-12.3zM99.7 183.1l-68.8-34.5V79.5h.1l68.7 34.6zm9.2-78zm.8-6.7h-.1L40.9 63.7l68.7-34.4h.2l68.9 34.5zm78.9 50.2h-.2l-68.7 34.5h-.2v-69h.1l69-34.6z"/></symbol><symbol id="form-completed" viewBox="0 0 216 216"><rect width="190" height="190" x="13" y="13" fill="none" stroke="#000001" stroke-linecap="round" stroke-miterlimit="10" stroke-width="17.59" rx="23.8" ry="23.8"/><path fill="none" stroke="#000001" stroke-linecap="round" stroke-miterlimit="10" stroke-width="20" d="M63 108l29 36 66.5-86.5"/></symbol><symbol id="form-optional" viewBox="0 0 216 216"><rect width="190" height="190" x="13" y="13" fill="none" stroke="#000001" stroke-linecap="round" stroke-miterlimit="10" stroke-width="17.59" rx="23.8" ry="23.8"/><path fill="#000001" d="M83 129.1a3.6 3.6 0 0 1-1.6-3.1 5.6 5.6 0 0 1 .7-2.3 3.8 3.8 0 0 1 .9-1.1l11.5-9.7-14.9-.9-1.4-.4a3.1 3.1 0 0 1-2.2-1.8 4.5 4.5 0 0 1-.3-3.2l5.2-16a3 3 0 0 1 1.9-2.2 4.3 4.3 0 0 1 2.9-.3l1.5.5 12.6 7.9-3.4-14.4-.2-1.4a4 4 0 0 1 1.1-2.7 3.9 3.9 0 0 1 2.8-1.3h16.8a3.9 3.9 0 0 1 2.8 1.3 4 4 0 0 1 1.1 2.7v1.4L117 96.7l12.8-8.1 1.4-.5.9-.2a4.8 4.8 0 0 1 2.6.7 3.1 3.1 0 0 1 1.4 2l5.4 16v1.1a3.8 3.8 0 0 1-.8 2.4 3.3 3.3 0 0 1-2 1.5l-1.3.4-15.1 1.1 11.7 9.5a3.8 3.8 0 0 1 .9 1.1 7.9 7.9 0 0 1 .7 2.3 3.6 3.6 0 0 1-1.6 3.1l-13.5 10.1a6 6 0 0 1-2.4.5 3.5 3.5 0 0 1-3.2-1.6l-.7-1.1-5.8-14-5.6 14c-.3.6-.6 1-.9 1.1a3.5 3.5 0 0 1-3.2 1.6 5.6 5.6 0 0 1-2.3-.5z"/><path fill="none" stroke="#000" stroke-miterlimit="10" d="M-.5 202.5l4 2"/></symbol><symbol id="form-warning" viewBox="0 0 216 216"><rect width="190" height="190" x="13" y="13" fill="none" stroke="#000001" stroke-linecap="round" stroke-miterlimit="10" stroke-width="17.59" rx="23.8" ry="23.8"/><path fill="#000001" d="M93.2 168.8a4.4 4.4 0 0 1-1.3-3.2v-23.2a4.6 4.6 0 0 1 4.5-4.7h23.2a4.6 4.6 0 0 1 4.5 4.7v23.2a4.7 4.7 0 0 1-1.2 3.2 4.4 4.4 0 0 1-3.3 1.3H96.4a4.4 4.4 0 0 1-3.2-1.3zm.6-40.7a4.5 4.5 0 0 1-1.4-3.3V48.6a4.2 4.2 0 0 1 1.4-3.2 4.9 4.9 0 0 1 3.3-1.3h21.8a4.9 4.9 0 0 1 3.3 1.3 4.2 4.2 0 0 1 1.4 3.2v76.2a4.5 4.5 0 0 1-1.4 3.3 4.4 4.4 0 0 1-3.3 1.3H97.1a4.4 4.4 0 0 1-3.3-1.3z"/></symbol><symbol id="img-arrow-l" viewBox="0 0 216 216"><path fill="none" stroke="#000001" stroke-linecap="round" stroke-miterlimit="10" stroke-width="30" d="M73.5 111l50 50m-50-50l50-50"/></symbol><symbol id="img-arrow-r" viewBox="0 0 216 216"><path fill="none" stroke="#000001" stroke-linecap="round" stroke-miterlimit="10" stroke-width="30" d="M125.5 119l-50-50m50 50l-50 50"/></symbol><symbol id="instagram" viewBox="0 0 216 216"><rect width="190" height="190" x="13" y="13" fill="#fff" stroke="#000001" stroke-linecap="round" stroke-miterlimit="10" stroke-width="17.59" rx="23.8" ry="23.8"/><rect width="106" height="106" x="56" y="57" fill="none" stroke="#000001" stroke-miterlimit="10" stroke-width="17.67" rx="18" ry="18"/><circle cx="109" cy="110" r="22" fill="none" stroke="#000001" stroke-miterlimit="10" stroke-width="10"/><circle cx="138" cy="82" r="8" fill="#000001"/></symbol><symbol id="qty-arrow" viewBox="0 0 216 216"><path fill="none" stroke="#000001" stroke-linecap="round" stroke-miterlimit="10" stroke-width="20" d="M108.5 132.3L143 97.8m-34.5 34.5L74 97.8"/><rect width="190" height="190" x="13" y="13" fill="none" stroke="#000001" stroke-linecap="round" stroke-miterlimit="10" stroke-width="17.59" rx="23.8" ry="23.8"/></symbol><symbol id="snapchat" viewBox="0 0 216 216"><rect width="190" height="190" x="13" y="13" fill="#fff" stroke="#000001" stroke-linecap="round" stroke-miterlimit="10" stroke-width="17.59" rx="23.8" ry="23.8"/><path fill="#000001" d="M172.7 150a20.8 20.8 0 0 1-10.3 3.2 4.5 4.5 0 0 0-4.2 3.8c-.4 2.8-1.5 5.5-3.7 6-4.5 1-12.5-6-20 0-2.8 2.2-16 13-26 13s-23-14-30-14h-16c-4 0-1-4-4-7s-23.7-4-19.4-8.4 32-13.3 32.9-32.1c0-.1-20.1-10.6-17.3-13.4s7.8-1.1 13.1.3a3.6 3.6 0 0 0 4.5-3.9A101.4 101.4 0 0 1 71 83a36 36 0 0 1 36.7-36c19.7.4 35.3 16.9 35.3 36.7 0 5.3-.1 10.1-.2 14.5a3.6 3.6 0 0 0 4.5 3.6c7.1-1.9 12.5-1.9 13.2 0s-8.9 9.2-13.6 12.5a3.6 3.6 0 0 0-1.1 4.5c3.3 6.8 13.1 24.4 26.4 27.7a1.9 1.9 0 0 1 .5 3.5z"/></symbol><symbol id="search-bar" viewBox="0 0 216 216"><rect width="100" height="100" x="37.5" y="37.5" fill="none" stroke="#000001" stroke-miterlimit="10" stroke-width="20" rx="50" ry="50"/><path fill="none" stroke="#000001" stroke-linecap="round" stroke-miterlimit="10" stroke-width="20" d="M124 124l63.5 63.5"/></symbol><symbol id="toggle-down" viewBox="0 0 216 216"><rect width="159" height="33" x="-32" y="101" fill="#db4448" stroke="#000001" stroke-miterlimit="10" stroke-width="8" rx="6.4" ry="6.4" transform="rotate(-90 47.5 117.5)"/><rect width="159" height="33" x="28" y="101" fill="#fae053" stroke="#000001" stroke-miterlimit="10" stroke-width="8" rx="6.4" ry="6.4" transform="rotate(-90 107.5 117.5)"/><rect width="159" height="33" x="88" y="101" fill="#fff" stroke="#000001" stroke-miterlimit="10" stroke-width="8" rx="6.4" ry="6.4" transform="rotate(-90 167.5 117.5)"/></symbol><symbol id="toggle" viewBox="0 0 216 216"><rect width="159" height="33" x="29" y="40" fill="#ee7236" stroke="#000001" stroke-miterlimit="10" stroke-width="8" rx="6.4" ry="6.4"/><rect width="159" height="33" x="29" y="100" fill="#4aa26c" stroke="#000001" stroke-miterlimit="10" stroke-width="8" rx="6.4" ry="6.4"/><rect width="159" height="33" x="29" y="160" fill="#2461cc" stroke="#000001" stroke-miterlimit="10" stroke-width="8" rx="6.4" ry="6.4"/></symbol><symbol id="twitter" viewBox="0 0 216 216"><rect width="190" height="190" x="14" y="13" fill="#fff" stroke="#000001" stroke-linecap="round" stroke-miterlimit="10" stroke-width="17.59" rx="23.8" ry="23.8"/><path fill="#000002" d="M105.9 150.8v-40.3H88.7a5.5 5.5 0 0 1-3.8-1.6 5.3 5.3 0 0 1-1.6-3.9V86.3a5 5 0 0 1 1.6-3.9 5.1 5.1 0 0 1 3.8-1.6h17.2V44.9a5.4 5.4 0 0 1 1.7-4 5.2 5.2 0 0 1 3.8-1.5h26.8a5.3 5.3 0 0 1 3.9 1.5 5.7 5.7 0 0 1 1.5 4v35.9h27.3a5.4 5.4 0 0 1 4 1.6 5.1 5.1 0 0 1 1.7 3.9V105a5.4 5.4 0 0 1-1.7 4 5.7 5.7 0 0 1-4 1.5h-27.3v37c0 5.1 1 9 2.9 11.6s4.9 3.9 9.1 3.9h17.2a5.3 5.3 0 0 1 4 1.7 5.5 5.5 0 0 1 1.5 4v20a5.6 5.6 0 0 1-1.5 3.9 5.2 5.2 0 0 1-4 1.6h-20.7q-46.2 0-46.2-43.4z"/></symbol></svg>