<svg xmlns="http://www.w3.org/2000/svg"><symbol id="arrow" viewBox="0 0 72 72"><defs><style>.cls-1{fill:#231f20}</style></defs><path id="Path_50" d="M22.61 9v.85a7.32 7.32 0 0 0 2.55 5.55l18.06 15.43a7.29 7.29 0 0 1 0 11.08L25.15 57.44A7.29 7.29 0 0 0 22.61 63a7.3 7.3 0 0 0 12.08 5.5l30.65-26.7a7.29 7.29 0 0 0 .06-10.94L34.75 3.58A7.29 7.29 0 0 0 22.61 9z" class="cls-1"/></symbol><symbol id="facebook" viewBox="0 0 72 72"><defs><style>.cls-1{fill:#fff}</style></defs><path id="Path_54" d="M14.38 37.15v-10.8a1.73 1.73 0 0 1 2-1.28c2.15.06 4.31 0 6.46 0h1.39v-7a19.53 19.53 0 0 1 1-6.78 13.72 13.72 0 0 1 6.05-7.47 15.47 15.47 0 0 1 7.53-2.11c3-.07 5.92 0 8.87 0 1.39 0 1.85.46 1.85 1.88v8.88c0 1.38-.45 1.81-1.82 1.83-2.11 0-4.22 0-6.33.12a4.83 4.83 0 0 0-2.18.7 3.23 3.23 0 0 0-1.27 3v6.95h9.4c1.31 0 1.76.44 1.76 1.74v9.9c0 1.27-.44 1.7-1.72 1.7H38v26.38a2.08 2.08 0 0 1-.88 1.95H25.17a1.84 1.84 0 0 1-.93-1.85V38.44h-7.88c-1.36-.01-1.5-.11-1.98-1.29z" class="cls-1"/></symbol><symbol id="error" viewBox="0 0 72 72"><defs><style>.cls-1{fill:#231f20}</style></defs><path d="M35.88 1.53A34.47 34.47 0 1 0 70.36 36 34.47 34.47 0 0 0 35.88 1.53zm0 64.16A29.69 29.69 0 1 1 65.58 36a29.69 29.69 0 0 1-29.7 29.69z"/><path d="M36.72 43.26h-.56A3.22 3.22 0 0 1 33 40.43l-3.11-25.14a3.21 3.21 0 0 1 3.19-3.61h6.05a3.21 3.21 0 0 1 3.2 3.52l-2.4 25.14a3.23 3.23 0 0 1-3.21 2.92z" class="cls-1"/><circle cx="36.79" cy="52.13" r="5.56" class="cls-1"/></symbol><symbol id="hambuger" viewBox="0 0 72 72"><defs><style>.cls-1{fill:#fff}</style></defs><rect id="Rectangle_57" width="63.82" height="13.87" x="4.52" y="7.86" class="cls-1" rx="4.16"/><rect id="Rectangle_58" width="63.82" height="13.87" x="4.52" y="30.06" class="cls-1" rx="4.16"/><rect id="Rectangle_59" width="63.82" height="13.87" x="4.52" y="53.64" class="cls-1" rx="4.16"/></symbol><symbol id="insta" viewBox="0 0 72 72"><defs><style>.cls-1{fill:#fff}</style></defs><g id="Group_8"><path id="Path_51" d="M36.44 2.74h12.51A21 21 0 0 1 56.15 4a19.1 19.1 0 0 1 8.77 6.5A18.59 18.59 0 0 1 68.76 21c0 .92.09 1.84.09 2.76v24.15a19.33 19.33 0 0 1-13.92 18.84 22 22 0 0 1-6.08.81q-12.48.09-25 0a19.65 19.65 0 0 1-11.23-3.26 18.83 18.83 0 0 1-8.34-13A28 28 0 0 1 4 47V22.21A19.09 19.09 0 0 1 9.54 8.55 18.77 18.77 0 0 1 20.75 3a22.57 22.57 0 0 1 3-.21c4.25-.06 8.45-.05 12.69-.05zm0 58.43h12.82a12.92 12.92 0 0 0 13.15-12.7 3.68 3.68 0 0 0 0-.47V22.41a16.48 16.48 0 0 0-.2-2.43 12.41 12.41 0 0 0-4.74-8 12.88 12.88 0 0 0-8.3-2.77h-24.8a21 21 0 0 0-3.17.21A12.31 12.31 0 0 0 13.28 14a13.07 13.07 0 0 0-2.9 8.63v24c0 .94 0 1.88.09 2.81a12.42 12.42 0 0 0 4.72 8.9 12.76 12.76 0 0 0 8.37 2.88z" class="cls-1"/><path id="Path_52" d="M36.43 18.47a16.71 16.71 0 1 1-16.74 16.68 16.71 16.71 0 0 1 16.74-16.68zm-10.36 16.7a10.35 10.35 0 1 0 10.34-10.36 10.41 10.41 0 0 0-10.34 10.36z" class="cls-1"/><path id="Path_53" d="M57.17 18.52a3.93 3.93 0 1 1-3.89-4 3.92 3.92 0 0 1 3.87 4z" class="cls-1"/></g></symbol><symbol id="minus" viewBox="0 0 72 72"><defs><style>.cls-1{isolation:isolate}</style></defs><g id="_-" class="cls-1"><path d="M47.19 31.52v8.67H25.66v-8.67z" class="cls-1"/></g><path d="M36.43 1.38A34.48 34.48 0 1 0 70.9 35.85 34.48 34.48 0 0 0 36.43 1.38zm0 64.17a29.7 29.7 0 1 1 29.69-29.7 29.7 29.7 0 0 1-29.69 29.7z"/></symbol><symbol id="twitter" viewBox="0 0 72 72"><defs><style>.cls-1{fill:#fff}</style></defs><path id="Path_55" d="M48.48 10.16H51a.62.62 0 0 0 .19.11 13.8 13.8 0 0 1 8.32 4 .94.94 0 0 0 .73.13 26.26 26.26 0 0 0 7.37-2.72c.22-.12.46-.23.85-.42a14.16 14.16 0 0 1-5.88 7.5 31.36 31.36 0 0 0 7.56-1.94 3.66 3.66 0 0 1-.43.74 27.11 27.11 0 0 1-5.68 5.79 1.17 1.17 0 0 0-.54 1.12 35.45 35.45 0 0 1-.75 8.6 39.82 39.82 0 0 1-13.1 22.61 37.14 37.14 0 0 1-22.23 8.9 39.07 39.07 0 0 1-23.13-5.44c-.25-.15-.49-.32-.73-.48a30.56 30.56 0 0 0 10.51-1c3.44-1 8.5-3.57 9.32-4.83-6-.43-11.49-4.61-12.49-9.48.94 0 1.89.14 2.84.11s1.89-.18 2.83-.28v-.22a13.9 13.9 0 0 1-7.65-4.89 13.68 13.68 0 0 1-3-8.7A13.72 13.72 0 0 0 12 31a13.84 13.84 0 0 1-4-18.22 39.27 39.27 0 0 0 28.25 14.31v-.31a13.73 13.73 0 0 1 10.26-16.2c.65-.16 1.31-.28 1.97-.42z" class="cls-1"/></symbol><symbol id="plus" viewBox="0 0 72 72"><defs><style>.cls-1{isolation:isolate}</style></defs><g id="_" class="cls-1"><path d="M40.61 16.18V32h15.61v7.42H40.61v16.11h-7.43V39.42H17.5V32h15.68V16.18z" class="cls-1"/></g><path d="M36.86 1.38a34.48 34.48 0 1 0 34.47 34.47A34.47 34.47 0 0 0 36.86 1.38zm0 64.17a29.7 29.7 0 1 1 29.7-29.7 29.7 29.7 0 0 1-29.7 29.7z"/></symbol></svg>