<svg xmlns="http://www.w3.org/2000/svg"><symbol id="burger" viewBox="0 0 256 256"><path fill="#231f20" d="M180.5 138h-105a10 10 0 0 1 0-20h105a10 10 0 0 1 0 20zm0 39.3h-105a10 10 0 0 1 0-20h105a10 10 0 0 1 0 20zm0-79.3h-105a10 10 0 0 1 0-20h105a10 10 0 0 1 0 20z"/></symbol><symbol id="instagram" viewBox="0 0 256 256"><path d="M182.1 87.2a22.4 22.4 0 0 0-13.3-13.3c-3.3-1.2-8.9-2.1-16.7-2.5q-6.7-.3-19.2-.3h-9.8q-12.4 0-19.2.3c-7.6.4-13.2 1.3-16.7 2.5a22.4 22.4 0 0 0-13.3 13.3c-1.2 3.3-2.1 8.9-2.5 16.7q-.3 6.8-.3 19.2v9.8q0 12.4.3 19.2c.4 7.6 1.3 13.2 2.5 16.7a23.5 23.5 0 0 0 13.3 13.3c3.5 1.2 9.1 2.1 16.7 2.5q6.8.3 19.2.3h9.8q12.8 0 19.2-.3c7.8-.4 13.4-1.3 16.7-2.5a23.5 23.5 0 0 0 13.3-13.3c1.2-3.5 2.1-9.1 2.5-16.7q.3-6.7.3-19.2v-9.8q0-12.7-.3-19.2c-.4-7.8-1.3-13.4-2.5-16.7zm-23.3 58.6a36.8 36.8 0 0 1-13 13 35.4 35.4 0 0 1-35.6 0 36.8 36.8 0 0 1-13-13 35.4 35.4 0 0 1 0-35.6 36.8 36.8 0 0 1 13-13 35.4 35.4 0 0 1 35.6 0 36.8 36.8 0 0 1 13 13 35.4 35.4 0 0 1 0 35.6zm12-49a7.5 7.5 0 0 1-5.7 2.4 8.3 8.3 0 1 1 8.3-8.3 9.4 9.4 0 0 1-2.6 5.9z"/><path d="M128 104.8a23.2 23.2 0 0 0-16.4 39.6 23.2 23.2 0 1 0 32.8-32.8 22.4 22.4 0 0 0-16.4-6.8z"/><path d="M218.2 37.8a19.9 19.9 0 0 0-14.6-6H52.4a20.5 20.5 0 0 0-20.6 20.6v151.2a20.5 20.5 0 0 0 20.6 20.6h151.2a20.5 20.5 0 0 0 20.6-20.6V52.4a19.9 19.9 0 0 0-6-14.6zm-21.4 119.1a59.3 59.3 0 0 1-2.6 15.3 36 36 0 0 1-22 22 59.3 59.3 0 0 1-15.3 2.6c-5.9.3-15.5.5-28.9.5s-23-.2-28.9-.5a48.3 48.3 0 0 1-15.3-3 32.8 32.8 0 0 1-13.5-8.1 37.3 37.3 0 0 1-8.5-13.5 59.3 59.3 0 0 1-2.6-15.3c-.3-5.9-.5-15.5-.5-28.9s.2-23 .5-28.9a59.3 59.3 0 0 1 2.6-15.3 36 36 0 0 1 22-22 59.3 59.3 0 0 1 15.3-2.6c5.9-.3 15.5-.5 28.9-.5s23 .2 28.9.5a59.3 59.3 0 0 1 15.3 2.6 36 36 0 0 1 22 22 64.5 64.5 0 0 1 2.7 15.4c.2 5.8.4 15.4.4 28.8s-.2 23-.5 28.9z"/></symbol><symbol id="facebook" viewBox="0 0 256 256"><path d="M224.2 206.7a20.5 20.5 0 0 1-20.6 20.6h-36.5v-76h25.7l3.9-29.2h-29.6v-18.5c0-4.5.8-8 2.5-10.3s6.2-3.8 11.6-3.8h15.5V63.7a155.6 155.6 0 0 0-22.3-1.3c-11.5 0-20.6 3.4-27.3 10.1S137 88.6 137 100.6v21.5h-26.2v29.2H137v76H52.4a20.5 20.5 0 0 1-20.6-20.6V55.5a20.5 20.5 0 0 1 20.6-20.6h151.2a20.5 20.5 0 0 1 20.6 20.6z"/></symbol><symbol id="leaf" viewBox="0 0 256 256"><path d="M237.9 138.7l-14-4.4a2 2 0 0 1-1.4-2.5l9.7-34.3a2.1 2.1 0 0 0-2.5-2.6l-35.7 9.2a1.9 1.9 0 0 1-2.4-1.2l-4.9-12.3a2 2 0 0 0-3.5-.5l-22.9 19.4a2 2 0 0 1-3.6-1.7l11.5-49.1a2.1 2.1 0 0 0-2.8-2.3l-14.6 6a2 2 0 0 1-2.6-1l-18.4-34.1a2.1 2.1 0 0 0-3.6 0l-18.4 34.1a2 2 0 0 1-2.6 1l-14.6-6a2.1 2.1 0 0 0-2.8 2.3l11.5 49.1a2 2 0 0 1-3.6 1.7L72.8 90.1a2 2 0 0 0-3.5.5l-4.9 12.3a1.9 1.9 0 0 1-2.4 1.2l-35.7-9.2a2.1 2.1 0 0 0-2.5 2.6l9.7 34.3a2 2 0 0 1-1.4 2.5l-14 4.4a2 2 0 0 0-.5 3.6l62.5 44.2a2.1 2.1 0 0 1 .6 2.8l-6.2 9.6a2.1 2.1 0 0 0 1.7 3.2H123v22.6a5 5 0 0 0 10 0v-22.6h46.8a2.1 2.1 0 0 0 1.7-3.2l-6.2-9.6a2.1 2.1 0 0 1 .6-2.8l62.5-44.2a2 2 0 0 0-.5-3.6z"/></symbol><symbol id="close" viewBox="0 0 256 256"><path fill="none" stroke="#231f20" stroke-linecap="round" stroke-linejoin="round" stroke-width="20" d="M72.6 128L128 88l55.4 40"/></symbol><symbol id="cart" viewBox="0 0 256 256"><circle cx="91.1" cy="203.7" r="17.1"/><circle cx="212.3" cy="203.7" r="17.1"/><path d="M243.9 51.1H56.3l-2.6-10.9a6.4 6.4 0 0 0-6.2-4.9H9a6.4 6.4 0 0 0-6.4 6.4A6.4 6.4 0 0 0 9 48.1h33.4l30.2 127.6a6.4 6.4 0 0 0 6.3 4.9h150.5a6.4 6.4 0 0 0 6.4-6.4 6.4 6.4 0 0 0-6.4-6.4H83.9l-2.6-11.1 151.3-11.1a9.4 9.4 0 0 0 8.6-8l12.1-75.5a9.5 9.5 0 0 0-9.4-11zm-69.4 73.5s-7.2 3.7-24.6 3.7-24.8-3.9-24.8-3.9c-3.5-2.4-8.9-7.8-8.9-18.1.1-7.9 5.6-14 5.6-14-5.1-6.9.8-20.9.8-20.9 10.3 0 20.4 13.4 20.4 13.4h13.9s10.2-13.3 20.4-13.3c0 0 5.8 14.1.7 20.9 0 0 5.5 6.1 5.5 14.1 0 10.3-5.5 15.7-9 18.1z"/></symbol><symbol id="left-arrow" viewBox="0 0 256 256"><path d="M31.8 131.1A96.2 96.2 0 1 0 128 34.9a96.2 96.2 0 0 0-96.2 96.2zm52.4-8.9L132.4 74a14.8 14.8 0 0 1 21 21l-37.6 37.7 37.6 37.6a15 15 0 0 1 0 21.1 14.8 14.8 0 0 1-21 0l-48.2-48.2a14.8 14.8 0 0 1 0-21z"/></symbol><symbol id="pinterest" viewBox="0 0 256 256"><path d="M224.2 206.7a20.5 20.5 0 0 1-20.6 20.6H97.9c6.3-10.3 10.3-18.8 12.1-25.3l6.4-25.4c1.7 3.5 4.9 6.4 9.5 8.8a29.6 29.6 0 0 0 14.6 3.7 51.7 51.7 0 0 0 28.3-9 58 58 0 0 0 19.5-23.7 74.1 74.1 0 0 0 7.1-32.6 59.1 59.1 0 0 0-8.6-31.5 60.1 60.1 0 0 0-23.6-21.9 69.5 69.5 0 0 0-33.1-8c-14.6 0-27.3 3-38.2 9a61.5 61.5 0 0 0-23.2 23.2 64.3 64.3 0 0 0-8.1 31.8 53.3 53.3 0 0 0 6 24c4 8.1 9.2 13.6 15.5 16.8 2 .8 3.1.3 3.4-1.7l3-11.6a2.8 2.8 0 0 0-.9-3 33.3 33.3 0 0 1-5.5-11 40.5 40.5 0 0 1-2.2-13.1 45.5 45.5 0 0 1 5.8-22.5 43.5 43.5 0 0 1 16.1-16.6c7.4-4.5 16-6.8 25.8-6.8 12.9 0 23.4 4 31.7 12s12.5 18.3 12.5 30.9-3.2 25.6-9.7 34.6-14.3 13.5-23.8 13.5a15.5 15.5 0 0 1-12.4-5.6c-3.2-3.7-4.2-8.1-3.1-13.3a119.1 119.1 0 0 1 3.9-13.7c3.2-10.3 4.7-17.5 4.7-21.5s-1.5-9.4-4.7-12-6.9-3.4-11.4-2.4a19.6 19.6 0 0 0-11.3 7.5c-3.2 4.6-4.8 10.5-4.8 17.6s1 11.6 3 15.9l-6 24.5c-4.3 17.5-6.7 28.8-7.3 33.9s-.7 14 .5 24.1l1.2.4H52.4a20.5 20.5 0 0 1-20.6-20.6V55.5a20.5 20.5 0 0 1 20.6-20.6h151.2a20.5 20.5 0 0 1 20.6 20.6z"/></symbol><symbol id="profile" viewBox="0 0 256 256"><ellipse cx="72.8" cy="132.8" rx="13.4" ry="14.2"/><ellipse cx="183.7" cy="132.8" rx="13.4" ry="14.2"/><path d="M204.2 208.4c10.8-7.8 27.7-25.4 27.7-59.3 0-25.8-17.2-45.7-17.2-45.7 15.8-22.4-2.3-68.1-2.3-68.1-31.6 0-62.9 43.5-62.9 43.5h-43S75.2 35.3 43.6 35.3c0 0-18.1 45.7-2.3 68.1 0 0-17.2 19.9-17.2 45.7 0 33.5 16.6 51.1 27.4 59.1 0 0 27.2 18.8 76.5 18.8 33.7 0 65-11.6 76.2-18.6zm-26.9-104.1c14.8 0 26.9 12.7 26.9 28.5s-12.1 28.4-26.9 28.4-27-12.7-27-28.4 12.1-28.5 27-28.5zm-98.6 0c14.9 0 27 12.7 27 28.5s-12.1 28.4-27 28.4-26.9-12.7-26.9-28.4 12.1-28.5 26.9-28.5z"/></symbol><symbol id="remove" viewBox="0 0 256 256"><path d="M128 31.8a96.2 96.2 0 1 0 96.2 96.2A96.2 96.2 0 0 0 128 31.8zm45.8 126.6a12.6 12.6 0 0 1-8.9 21.4 12.1 12.1 0 0 1-8.8-3.7L128 148l-28.1 28.1a12.1 12.1 0 0 1-8.8 3.7 12.6 12.6 0 0 1-8.9-21.4l28.1-28.1-28.1-28.1a12.5 12.5 0 0 1 17.7-17.6l28.1 28.1 28.1-28.1a12.5 12.5 0 0 1 17.7 17.6l-28.1 28.1z"/></symbol><symbol id="open" viewBox="0 0 256 256"><path fill="none" stroke="#231f20" stroke-linecap="round" stroke-linejoin="round" stroke-width="20" d="M72.6 128l55.4 39.3 55.4-39.3"/></symbol><symbol id="right-arrow" viewBox="0 0 256 256"><path d="M127.8 34.9a96.2 96.2 0 1 0 96.2 96.2 96.2 96.2 0 0 0-96.2-96.2zm43.8 108.3l-48.2 48.2a15 15 0 0 1-21.1 0 15 15 0 0 1 0-21.1l37.7-37.6L102.3 95a14.9 14.9 0 1 1 21.1-21l48.2 48.2a14.8 14.8 0 0 1 0 21z"/></symbol><symbol id="return" viewBox="0 0 256 256"><path fill="#231f20" d="M123.5 85.1c9.8 0 21.1 5.3 25.3 12.1V85a26.4 26.4 0 0 0-26.4-26.4h-15.2v-3.1a1.5 1.5 0 0 0-2.5-1.2L85.8 70.7a1.5 1.5 0 0 0 0 2.3l18.9 16.4a1.5 1.5 0 0 0 2.5-1.2V85h16.3zm85.3 15.6h-58.5a1.5 1.5 0 0 0-1.5 1.5v32.9l-5.7 7.5a1.5 1.5 0 0 1-2.4 0l-4.6-5.9a1.5 1.5 0 0 0-2.4 0l-4.5 5.9a1.5 1.5 0 0 1-2.4 0l-4.5-5.9a1.5 1.5 0 0 0-2.4 0l-4.6 5.9a1.5 1.5 0 0 1-2.4 0l-5.7-7.5v-32.9a1.5 1.5 0 0 0-1.5-1.5H47.2a4 4 0 0 0-4 4v95.1a4 4 0 0 0 4 4h161.6a4 4 0 0 0 4-4v-95.1a4 4 0 0 0-4-4zm-9.3 89.7a27.2 27.2 0 0 1-12.3 3c-7.9 0-12.3-3-12.3-3-1.8-1.3-4.4-4.1-4.4-9.5a12.5 12.5 0 0 1 2.8-7.4c-2.6-3.6.3-11 .3-11 5.1 0 10.1 7 10.1 7h7s5-7 10.1-7c0 0 2.9 7.4.4 11a12.7 12.7 0 0 1 2.7 7.4 11.3 11.3 0 0 1-4.4 9.5z"/></symbol><symbol id="sale" viewBox="0 0 256 256"><path fill="#fed676" d="M0 256V0h256L0 256z"/><path fill="#d83074" d="M54.8 143a20 20 0 0 1-7.1 1.6 3.3 3.3 0 0 1-2.6-.8 2.5 2.5 0 0 1-.7-1.9 2.9 2.9 0 0 1 .7-2 2.6 2.6 0 0 1 1.7-.7 16.4 16.4 0 0 0 5.6-1.1 14.1 14.1 0 0 0 4.6-3.3 10.1 10.1 0 0 0 3.2-5.5 5 5 0 0 0-1.2-4.8 5.3 5.3 0 0 0-5.1-1.5 22.4 22.4 0 0 0-7.2 3.4 20.2 20.2 0 0 1-9.3 3.6 9.3 9.3 0 0 1-7.7-3.2 9.7 9.7 0 0 1-3-5.5 11.6 11.6 0 0 1 .7-6.3 16.5 16.5 0 0 1 4.1-6 19.3 19.3 0 0 1 5.6-4 13.2 13.2 0 0 1 5.8-1.5 3.3 3.3 0 0 1 2.7.8 2.6 2.6 0 0 1 .8 1.9 2.7 2.7 0 0 1-.8 1.9 1.8 1.8 0 0 1-1.3.6 11.3 11.3 0 0 0-4.7 1.2 13.3 13.3 0 0 0-4.3 2.8 11.2 11.2 0 0 0-3.3 5.5 5.1 5.1 0 0 0 6.1 6 18.4 18.4 0 0 0 6.6-3 40.3 40.3 0 0 1 6.8-3.5 10.7 10.7 0 0 1 5.8-.6 11.6 11.6 0 0 1 5.5 3.3 10.5 10.5 0 0 1 2.9 5.6 13.6 13.6 0 0 1-.8 6.5 16.6 16.6 0 0 1-4 6 22.3 22.3 0 0 1-6.1 4.5zm40.4-43.1a2.7 2.7 0 0 1 .8 1.9 2.5 2.5 0 0 1-.8 1.8 2.1 2.1 0 0 1-1.4.7 3.5 3.5 0 0 1-1.7-.2l-8.5-3.5-12.7 12.7 3.6 8.5a2.3 2.3 0 0 1 .2 1.6 2.3 2.3 0 0 1-.7 1.4 2.2 2.2 0 0 1-1.7.9 2.5 2.5 0 0 1-1.7-.8l-.6-.8-14.8-35.7a2.3 2.3 0 0 1-.2-1.8 2.2 2.2 0 0 1 .9-1.4 2.5 2.5 0 0 1 1.4-.8 3 3 0 0 1 1.6.2l35.4 14.6zM68.7 108l9.6-9.6L62 91.8zm45.5-30.2a2.8 2.8 0 0 1 2 .9 2.6 2.6 0 0 1 .8 1.9 3.7 3.7 0 0 1-.9 1.9l-13.9 13.8a2.5 2.5 0 0 1-1.9.9 2.7 2.7 0 0 1-2-.9L73.6 71.6a2.4 2.4 0 0 1-.8-1.9 2.9 2.9 0 0 1 .9-2.1 2.7 2.7 0 0 1 1.9-.8 2.4 2.4 0 0 1 2 .8l22.9 22.9 11.8-11.8a2.5 2.5 0 0 1 1.9-.9zm21.4-21.2a2.7 2.7 0 0 1 1.9.8 2.9 2.9 0 0 1 .8 1.9 3.7 3.7 0 0 1-.9 1.9l-14.3 14.3a2.7 2.7 0 0 1-1.9.8 2.8 2.8 0 0 1-2-.8L94.5 50.7a2.5 2.5 0 0 1-.9-1.9 2.7 2.7 0 0 1 .9-2l14.2-14.2a2.6 2.6 0 0 1 1.9-.9 2.6 2.6 0 0 1 2 .8 2.9 2.9 0 0 1 .8 1.9 3.4 3.4 0 0 1-.9 1.9l-12.2 12.2 8.4 8.3L119 46.5a3.7 3.7 0 0 1 1.9-.9 2.7 2.7 0 0 1 1.9.8 2.3 2.3 0 0 1 .8 1.9 2.8 2.8 0 0 1-.9 2l-10.3 10.3 9 9 12.2-12.1a2.7 2.7 0 0 1 2-.9z"/></symbol><symbol id="search" viewBox="0 0 256 256"><path d="M215.7 200.2l-34.9-35a80.8 80.8 0 0 0 18.5-51.7 81.6 81.6 0 1 0-39.8 70.1l36.4 36.4a14.2 14.2 0 0 0 9.9 4.1 14 14 0 0 0 9.9-23.9zM64.2 113.5a53.6 53.6 0 1 1 53.6 53.6 53.7 53.7 0 0 1-53.6-53.6z"/></symbol><symbol id="secure" viewBox="0 0 256 256"><path fill="#231f20" d="M129.2 160.6l9.5-4.2v-13.2l-9.5 3.2v14.2zm-11.9-4.4l9.5 4.1v-13.9l-9.5-3.3v13.1zm-12.3-5.3l9.8 4.2v-12.9l-9.8-3.4v12.1z"/><path fill="#231f20" d="M128 38.4C96.8 64.1 57.2 57.2 57.2 57.2v95.1a70.8 70.8 0 0 0 70.8 70.8 70.8 70.8 0 0 0 70.8-70.8V57.2s-39.6 6.9-70.8-18.8zm35.8 135.7c-6.5 6.5-28.6 18.5-35.8 18.5S97.5 179.4 92 174s-12.8-12-12.8-27.8c0-12.2 8-21.5 8-21.5-7.4-10.6 1.1-32 1.1-32 8.5 0 17 6.7 22.7 12.4a59 59 0 0 1 12.5-2.4l.7-8.2h7.6l.7 8.2a59 59 0 0 1 12.5 2.4c5.7-5.7 14.2-12.4 22.7-12.4 0 0 8.5 21.4 1.1 32 0 0 8 9.3 8 21.5 0 15.9-6.4 21.3-13 27.9z"/><path fill="#231f20" d="M94.2 146.2l8.3 3.6v-11.9l-8.3-2.9v11.2zm47 9.1l9.8-4.3v-12l-9.8 3.3v13zm12.3-5.4l8.3-3.7v-10.9l-8.3 2.8v11.8z"/></symbol><symbol id="shipping" viewBox="0 0 256 256"><circle cx="73.6" cy="171.8" r="14.6" fill="#231f20"/><path fill="#231f20" d="M209.2 90.9h-12.8a8.7 8.7 0 0 0-8.7 8.7v63.6a8.6 8.6 0 0 0 8.7 8.6h.1a17.7 17.7 0 0 1 35.3 0 8.6 8.6 0 0 0 8.4-8.6v-41.3a31 31 0 0 0-31-31zm21.6 32.1a3.8 3.8 0 0 1-3.8 3.8h-25.7a3.8 3.8 0 0 1-3.8-3.8v-17.4a3.8 3.8 0 0 1 3.8-3.9h10.4a19.1 19.1 0 0 1 19.1 19.1z"/><circle cx="113.2" cy="171.8" r="14.6" fill="#231f20"/><circle cx="214.1" cy="171.8" r="14.6" fill="#231f20"/><path fill="#231f20" d="M172.8 69.5h-151a6 6 0 1 0 0 12h55.8a6 6 0 0 1 0 12H34.8a6 6 0 1 0 0 12h11.3a6 6 0 0 1 0 12H25.6a6 6 0 1 0 0 12h18.8v32.8a9.5 9.5 0 0 0 9.6 9.5h2a17.6 17.6 0 0 1 35.2 0h4.4a17.6 17.6 0 1 1 35.2 0h42a9.5 9.5 0 0 0 9.6-9.5V79.1a9.6 9.6 0 0 0-9.6-9.6zm-28 62c-2.4 1.6-9.4 4.2-17 4.2-11 0-17-4.2-17-4.2-2.5-1.8-6.2-5.7-6.2-13.2a17 17 0 0 1 3.9-10.2c-3.6-5 .5-15.2.5-15.2 7.1 0 14 9.7 14 9.7h9.6s7-9.7 14.1-9.7c0 0 4 10.2.5 15.2a17.3 17.3 0 0 1 3.8 10.2c0 7.6-3.7 11.5-6.2 13.2z"/></symbol><symbol id="slash" viewBox="0 0 256 256"><path d="M103.6 210a12.2 12.2 0 0 1-4.8 6 12.3 12.3 0 0 1-6.5 2h-8.6l69.2-172.4a12.8 12.8 0 0 1 4.2-5.6 11.4 11.4 0 0 1 6.6-2h8.6z"/></symbol><symbol id="star" viewBox="0 0 256 256"><path d="M136.1 40.1l24.8 58.1 56.6 3.3a8.8 8.8 0 0 1 5.3 15.3l-41.6 37.5 11.2 60a8.8 8.8 0 0 1-13.5 8.9L128 188.9l-50.9 34.3a8.8 8.8 0 0 1-13.5-8.9l11.2-60-41.6-37.5a8.8 8.8 0 0 1 5.3-15.3l56.6-3.3 24.8-58.1a8.8 8.8 0 0 1 16.2 0z"/></symbol><symbol id="twitter" viewBox="0 0 256 256"><path d="M203.6 34.9a20.5 20.5 0 0 1 20.6 20.6v151.2a20.5 20.5 0 0 1-20.6 20.6H52.4a20.5 20.5 0 0 1-20.6-20.6V55.5a20.5 20.5 0 0 1 20.6-20.6zm-21.1 68.3a61.6 61.6 0 0 0 14.2-14.6 57.9 57.9 0 0 1-16.3 4.3 28.8 28.8 0 0 0 12.4-15.5 50.9 50.9 0 0 1-18 6.9 26.2 26.2 0 0 0-20.2-9 28.3 28.3 0 0 0-15.7 4.7 29 29 0 0 0-10.5 12.7 27.6 27.6 0 0 0-1.3 17.4 77.2 77.2 0 0 1-32.6-8.8 85.7 85.7 0 0 1-25.8-20.9 28.5 28.5 0 0 0-.4 27.7 27.1 27.1 0 0 0 9.5 10.1 29.3 29.3 0 0 1-12.9-3.8v.4a27 27 0 0 0 6.4 18 28.4 28.4 0 0 0 16.3 9.9 36.3 36.3 0 0 1-12.8.4 26.3 26.3 0 0 0 9.8 14 26.8 26.8 0 0 0 16.3 5.4 55.2 55.2 0 0 1-34.7 12h-6.9a79.7 79.7 0 0 0 43.4 12.4c16.3 0 30.9-4.1 43.8-12.4a78.4 78.4 0 0 0 27-30.5 82.7 82.7 0 0 0 9-37.4z"/></symbol><symbol id="warning" viewBox="0 0 256 256"><path fill="#c33333" d="M216.5 103.4c15.8-22.4-2.2-68.1-2.2-68.1-31.7 0-63 43.5-63 43.5h-43S77 35.3 45.4 35.3c0 0-18.1 45.7-2.3 68.1 0 0-17.1 19.9-17.1 45.7 0 33.5 16.5 51.1 27.4 59.1 0 0 27.2 18.8 76.4 18.8 33.7 0 65-11.6 76.2-18.6s27.7-25.4 27.7-59.3c0-25.8-17.2-45.7-17.2-45.7z"/><circle cx="129.8" cy="196.5" r="10.5" fill="#fff"/><path fill="#fff" d="M129.8 176a11.3 11.3 0 0 1-11.2-10.5l-2.9-45a14.1 14.1 0 0 1 14.1-15 14 14 0 0 1 14.1 15l-2.9 45a11.1 11.1 0 0 1-11.2 10.5z"/></symbol></svg>