<svg xmlns="http://www.w3.org/2000/svg"><symbol id="icons" viewBox="0 0 2553 246.4"><path fill="#b4daa7" d="M170.5 197.2a4.2 4.2 0 1 0 5.9-5.9l-27.9-27.9a67.5 67.5 0 0 0-2.9-92.3c-10.4-10.5-24.4-19.6-41.5-27.2a258.7 258.7 0 0 0-46.3-15.1 336.5 336.5 0 0 0-53.4-8A4.2 4.2 0 0 0 0 25.2a337 337 0 0 0 8.1 53.4 259 259 0 0 0 15.1 46.3C30.8 142 40 156 50.4 166.5a67.4 67.4 0 0 0 92.3 2.9zm-40.2-83.8a4.2 4.2 0 0 0-4.2 4.2v23.3l-17.4-17.4V91.8a4.2 4.2 0 0 0-8.4 0v23.4L82.9 97.8V66a4.2 4.2 0 1 0-8.4 0v23.3L52.1 66.9a4.2 4.2 0 1 0-5.9 5.9l22.5 22.5H45.3a4.2 4.2 0 0 0 0 8.4H77l17.4 17.4H71.1a4.2 4.2 0 0 0 0 8.4h31.7l17.4 17.4H96.9a4.2 4.2 0 1 0 0 8.4h31.7l8.1 8.1a59 59 0 0 1-80.4-2.9c-22.2-22.2-34-57.7-40-83.7a348.3 348.3 0 0 1-7.5-47.3A348.2 348.2 0 0 1 56.1 37c26 6 61.6 17.9 83.7 40a59.1 59.1 0 0 1 2.9 80.4l-8.1-8.1v-31.7a4.2 4.2 0 0 0-4.2-4.1z"/><path fill="#b5dba8" d="M504.5 130.6a4.2 4.2 0 0 0-4.2 4.2v23a4.2 4.2 0 0 0 4.2 4.2H517l10.4 80.8a4.2 4.2 0 0 0 4.1 3.6H604a4.2 4.2 0 0 0 4.1-3.6l10.4-80.8H631a4.2 4.2 0 0 0 4.2-4.2v-23a4.2 4.2 0 0 0-4.2-4.2h-54.7a29.3 29.3 0 0 0 4-16.1 32.1 32.1 0 0 0 11.7 2.2 31.9 31.9 0 0 0 13.8-3.1A32.3 32.3 0 0 0 624 87.1a4.2 4.2 0 0 0-1.8-3.9 32.1 32.1 0 0 0-46.7 11.7c-2.3-5.6-5.1-11.2-7.9-16.7-7.9-15.6-15.9-31.5-13.2-47.5A32.2 32.2 0 0 0 583 48.2a32.2 32.2 0 0 0 20.9-7.7 4.2 4.2 0 0 0 1.4-3.9 32.1 32.1 0 0 0-42-24.5 59.1 59.1 0 0 1 4.4-4.9 4.2 4.2 0 1 0-5.9-5.9C549.2 13.9 544 27.7 546 43.5a73.8 73.8 0 0 0 4.2 16.7 32.2 32.2 0 0 0-44.4 21.6 4.2 4.2 0 0 0 1.2 4 32 32 0 0 0 22.3 9 32.2 32.2 0 0 0 28.6-17.5l2.4 4.7c11 21.7 17.2 35.9 5.8 48.6zm89.3-42.3a23.8 23.8 0 0 1 21.6.5 23.9 23.9 0 0 1-13.1 17.2 23.5 23.5 0 0 1-10.2 2.3 23.8 23.8 0 0 1-11.4-2.9 23.9 23.9 0 0 1 13.1-17.1zm-20.1-69.7a23.8 23.8 0 0 1 22.8 17 23.8 23.8 0 0 1-36.3-12.8 23.9 23.9 0 0 1 13.5-4.2zm-37.9 66.9a23.7 23.7 0 0 1-21.2-4.1 23.8 23.8 0 0 1 37-10.7 23.9 23.9 0 0 1-15.8 14.8zm64.6 152.6h-65.2l-9.8-76.1h84.7zm26.5-99.1v14.7H508.7v-14.8zm414.5 57l-25.2-22-72.1 61.8a14.7 14.7 0 0 0 10.1 4h174.6a14.6 14.6 0 0 0 10-4l-72.1-61.8zm101.9 31.9V106.8l-70.4 61.3 70.4 59.8z"/><path fill="#b5dba8" d="M1143.3 94.1L1041.4 6.7l-102 87.4 102 87.4 101.9-87.4zm-203.9 12.8v121l70.4-59.8-70.4-61.2zm542.8 87.7a19 19 0 1 1-19 19 19 19 0 0 1 19-19z"/><ellipse cx="1564.9" cy="213.6" fill="#b5dba8" rx="19" ry="19"/><path fill="#b5dba8" d="M1613.2 90.7h-117a9.2 9.2 0 0 0-6.9 9.2 10.4 10.4 0 0 0 6.9 9.8h104.9l-5.9 19.9h-103.1a8.6 8.6 0 0 0-6.4 8.5 9.7 9.7 0 0 0 6.4 9.2h97.9l-5.5 18.7H1478l-7.1-56.3-2.3-19s-2.1-17.5-3.2-24.8-19.3-16.4-58.5-34.8c-9.2-3.9-16.9 13 0 21.8l30.8 14.4s7.2 4.2 7.8 9.8 13.1 98.4 13.1 98.4.5 12.9 12.2 12.9h117.7c9.9 0 11.8-10.3 11.8-10.3l23.3-69.3s7-18.1-10.4-18.1zM2072 208h-174.1a28.5 28.5 0 0 1-28.4-28.4V85a28.5 28.5 0 0 1 28.4-28.4H2072a28.5 28.5 0 0 1 28.4 28.4v94.6A28.5 28.5 0 0 1 2072 208zM1897.9 64.3a20.7 20.7 0 0 0-20.7 20.7v94.6a20.7 20.7 0 0 0 20.7 20.7H2072a20.7 20.7 0 0 0 20.7-20.7V85a20.7 20.7 0 0 0-20.7-20.7z"/><path fill="#b5dba8" d="M1875.4 82h218.9v25.57h-218.9zm20.5 44.2h82.6v7.46h-82.6zm0 21h82.6v7.46h-82.6zm0 21.5h82.6v7.46h-82.6zm627.4 46.8a11.2 11.2 0 0 1-10.7 8.1h-116.8a11.2 11.2 0 0 1-10.7-8.1l-29.7-106.6h30.6l65.5-68.7a2.7 2.7 0 0 1 4.1.3 3.6 3.6 0 0 1-.2 4.6l-60.8 63.8h126.8l-53-84.7a3.6 3.6 0 0 1 .7-4.6 2.7 2.7 0 0 1 4.1.7l55.4 88.6h24.3z"/><path fill="#fff" d="M2465.8 145.9l-2.4 49.6h14.7l6.2-49.6h-18.5zm-75.5 0l13.2 49.6h14.6l-9.3-49.6h-18.5zm37.8 0l5.4 49.6h14.6l-1.6-49.6h-18.4zm75.5 0l-10.2 49.6h14.7l13.9-49.6h-18.4z"/></symbol></svg>