<svg xmlns="http://www.w3.org/2000/svg"><symbol id="apple" viewBox="0 0 36 36"><path d="M31.61 11.85c-.59.57-1.17 1.11-1.7 1.68a7.33 7.33 0 0 0-2 4.43 8 8 0 0 0 1.84 6 6.17 6.17 0 0 0 2.9 2.1c-.19.5-.36 1-.57 1.51a21.35 21.35 0 0 1-3.37 5.51A8.24 8.24 0 0 1 27 34.63a4.14 4.14 0 0 1-3.65.62c-.95-.27-1.89-.58-2.83-.87a7 7 0 0 0-4.66.26c-.69.27-1.4.52-2.11.72a4 4 0 0 1-3.25-.55 9.74 9.74 0 0 1-2.7-2.67 24.28 24.28 0 0 1-4.07-9.08 17.13 17.13 0 0 1-.24-5.8 11.13 11.13 0 0 1 2.85-6.37 7.12 7.12 0 0 1 4.49-2.27 9.81 9.81 0 0 1 3.33.27c.94.22 1.88.46 2.81.73a5.27 5.27 0 0 0 3.19-.12c1-.3 1.94-.61 2.93-.86A7.84 7.84 0 0 1 27.9 9a8.3 8.3 0 0 1 3.1 2.17c.22.22.42.46.61.68z"/><path d="M24.6.5a3.44 3.44 0 0 1 .09 1.62A8.61 8.61 0 0 1 21.13 8a5 5 0 0 1-2.41.88l-1 .12a9.28 9.28 0 0 1 1.87-5.7A8.62 8.62 0 0 1 24.6.5z"/></symbol><symbol id="subtract" viewBox="0 0 36 36"><defs><style>.cls-1{fill:none;stroke:#000;stroke-miterlimit:10;stroke-width:2px}</style></defs><path d="M.5 18h35" class="cls-1"/></symbol><symbol id="add" viewBox="0 0 36 36"><defs><style>.cls-1{fill:none;stroke:#000;stroke-miterlimit:10;stroke-width:2px}</style></defs><path d="M18 .5v35M.5 18h35" class="cls-1"/></symbol><symbol id="warning" viewBox="0 0 36 36"><path d="M18 32.18H1.59a1.1 1.1 0 0 1-.83-1.63c.36-.65.74-1.29 1.11-1.94.66-1.15 1.32-2.3 2-3.45 1-1.77 2.05-3.53 3.06-5.29s2-3.42 2.95-5.12q1.32-2.3 2.66-4.59l2.1-3.65 2.32-4a1.1 1.1 0 0 1 2 0c.69 1.2 1.38 2.4 2.08 3.6l3.09 5.34c1 1.78 2 3.55 3.06 5.32s2.11 3.64 3.16 5.46 2 3.54 3 5.3c.57 1 1.15 2 1.73 3a1.07 1.07 0 0 1 0 1.15 1.1 1.1 0 0 1-1 .58H18zm0-8.29h.56c.16 0 .24 0 .26-.21 0-.53.11-1.05.17-1.57.11-.88.22-1.76.32-2.64s.19-1.76.29-2.65.22-2 .31-3 .14-1.75.23-2.63a1.84 1.84 0 0 0-.26-1.2 2.17 2.17 0 0 0-2.19-1 2.07 2.07 0 0 0-1.84 2.12c.1 1.09.18 2.19.3 3.28.19 1.82.38 3.64.59 5.46.15 1.29.31 2.57.46 3.85a.19.19 0 0 0 .23.19zm0 1a2.12 2.12 0 0 0-2.18 2.23A2.16 2.16 0 1 0 18 24.93z"/></symbol><symbol id="google-" viewBox="0 0 36 36"><path d="M20.44 10.75c-.94.93-1.88 1.86-2.83 2.78C14 10.47 10.85 10 7.78 12a7.17 7.17 0 0 0-3 7.94 7.27 7.27 0 0 0 6.82 5.25 6.55 6.55 0 0 0 6.46-4.09h-5.15V17H23c1 4.31-2.58 10-7.44 11.7a11.52 11.52 0 0 1-14.18-6.11A11.4 11.4 0 0 1 5.76 8.37c5.06-2.98 11.48-1.95 14.68 2.38zm15.15 5.13V20l-3 .17-.16 2.95h-4l-.17-2.95-2.95-.17v-4l2.94-.16.15-3h4l.15 3z"/></symbol><symbol id="github" viewBox="0 0 36 36"><path d="M22.14 35.56v-5.33c0-1.69.21-3.43-1.31-5l1.3-.35c5.58-1.34 7.9-6.56 5.22-11.63a6.52 6.52 0 0 1-.47-2.25c-.12-1.07-.16-2.15-.26-3.6-1.41.59-2.46 1.1-3.56 1.47a8.16 8.16 0 0 1-2.3.39q-2.73.07-5.46 0a8.53 8.53 0 0 1-2.3-.41c-1.1-.37-2.16-.88-3.38-1.4a7.63 7.63 0 0 0-.44 2 11.79 11.79 0 0 1-1 5.21c-1.73 4.91.78 9.11 5.87 10.28.3.07.6.17 1 .26-.32.72-.59 1.38-.9 2-.39.83-1.75.91-2.6.11a15 15 0 0 1-1.12-1.38 3.55 3.55 0 0 0-3.23-1.48c0 .94-.18 1.87 1 2.32.3.11.54.49.74.79a4.49 4.49 0 0 0 4.83 2.29v5.66C5.9 33.93-.34 25.05.45 16.57a17.61 17.61 0 0 1 35.08-.19c.89 8.78-5.11 17.26-13.39 19.18z"/></symbol><symbol id="linkedin" viewBox="0 0 36 36"><path d="M35.6 18.14v11.83c0 3.52-2.13 5.62-5.67 5.63H6C2.55 35.59.41 33.47.4 30Q.37 18 .4 6C.41 2.53 2.55.41 6 .4h24.07a5.18 5.18 0 0 1 5.53 5.5c.02 4.1 0 8.16 0 12.24zm-8.48 10.09a98.84 98.84 0 0 0-.07-10c-.34-3.23-3.56-4.92-6.71-4-.37.11-.95.37-1.13.21-1.35-1.19-2.82-.16-4.19-.53v14.32h4v-8.14a2 2 0 0 1 4-.24 10 10 0 0 1 .07 1.64v6.74zm-14.4 0V14h-4v10.83c-.03 3.79-.03 3.79 4 3.38zM8.78 11.7h4V7.77h-4z"/></symbol><symbol id="itunes" viewBox="0 0 36 36"><path d="M10 16.76l.77-2.23h.41l.82 2.23h-.39l-.2-.62h-.78l-.2.62zm1-1.85l-.3.95h.62l-.3-.95zm.89.09h.39l.39 1.34.45-1.34h.37l-.61 1.73h-.4zm2.29 1.78a.51.51 0 0 1-.56-.52c0-.31.21-.5.61-.5h.43v-.17a.28.28 0 0 0-.32-.3c-.19 0-.31.1-.32.25h-.34c0-.29.21-.54.67-.54s.67.2.67.58v1.18h-.34v-.22a.49.49 0 0 1-.5.24zm.48-.59V16h-.37c-.21 0-.31.1-.31.24a.28.28 0 0 0 .31.27.34.34 0 0 0 .37-.32zm1-1.79a.21.21 0 0 1 .21.21.2.2 0 0 1-.21.2.21.21 0 0 1-.22-.2.21.21 0 0 1 .22-.21zm-.18.63h.36v1.73h-.36zm.84-.62h.37v2.35h-.37zm1.31 2.37a.51.51 0 0 1-.57-.52c0-.31.22-.5.61-.5h.44v-.17a.28.28 0 0 0-.32-.3c-.2 0-.31.1-.32.25h-.34c0-.29.21-.54.67-.54s.67.2.67.58v1.18h-.35v-.22a.51.51 0 0 1-.49.24zm.48-.59V16h-.37c-.22 0-.31.1-.31.24a.28.28 0 0 0 .31.27.34.34 0 0 0 .37-.32zm1.17.3v.27h-.36v-2.35h.37v.87a.56.56 0 0 1 .5-.27c.4 0 .67.28.67.8V16c0 .51-.27.81-.67.81a.53.53 0 0 1-.51-.32zm.81-.53v-.13c0-.34-.16-.52-.39-.52s-.43.18-.43.52V16c0 .34.17.52.43.52s.39-.22.39-.52zm.77-1.55h.36v2.35h-.36zm.76 1.59v-.18a.71.71 0 0 1 .74-.79.73.73 0 0 1 .74.81V16H22c0 .29.16.48.41.48a.33.33 0 0 0 .35-.24h.35a.67.67 0 0 1-.71.53.73.73 0 0 1-.78-.77zm1.12-.25a.4.4 0 0 0-.38-.44.41.41 0 0 0-.39.44h.77zm2.86.07V16a.77.77 0 1 1-1.53 0v-.14a.77.77 0 1 1 1.53 0zm-1.17 0V16c0 .31.13.53.4.53s.41-.22.41-.53v-.13c0-.32-.14-.54-.41-.54s-.4.18-.4.5zM26 15h.35v.24a.53.53 0 0 1 .5-.27.58.58 0 0 1 .6.65v1.11h-.35v-1a.35.35 0 0 0-.37-.4.37.37 0 0 0-.38.41v1H26zm2.68-.39H29V15h.34v.29H29v.92c0 .19.07.24.27.24h.08v.28h-.17c-.42 0-.54-.15-.54-.5v-.95h-.24V15h.25zm1.09-.2h.36v.86a.56.56 0 0 1 .5-.27.59.59 0 0 1 .61.65v1.11h-.36v-1a.35.35 0 0 0-.38-.4.37.37 0 0 0-.38.41v1h-.36zM31.61 16v-.18a.72.72 0 0 1 .74-.79.73.73 0 0 1 .74.81V16H32c0 .29.15.48.4.48a.33.33 0 0 0 .35-.24h.35a.66.66 0 0 1-.71.53.73.73 0 0 1-.78-.77zm1.12-.25a.38.38 0 1 0-.76 0h.76zM8.83 22l1.3-3.86H11L12.31 22h-.81l-.31-1H9.91l-.31 1zm1.71-3.12l-.47 1.56h1l-.47-1.56zm2.97 2.66V23h-.75v-4h.73v.45a.94.94 0 0 1 .87-.49c.67 0 1.13.5 1.13 1.41v.26c0 .9-.46 1.41-1.14 1.41a.9.9 0 0 1-.84-.5zm1.22-1v-.2c0-.53-.24-.83-.62-.83s-.64.31-.64.83v.2c0 .53.25.85.65.85s.61-.27.61-.83zm2.17 1V23h-.74v-4h.73v.45a.94.94 0 0 1 .87-.49c.66 0 1.13.5 1.13 1.41v.26c0 .9-.46 1.41-1.14 1.41a.9.9 0 0 1-.85-.5zm1.22-1v-.2c0-.53-.24-.83-.62-.83s-.64.31-.64.83v.2c0 .53.25.85.65.85s.61-.27.61-.83zm3.06.33c0 .3.29.57.8.57s.72-.22.72-.54-.19-.41-.59-.5l-.59-.13a1.08 1.08 0 0 1-1-1.07c0-.75.64-1.16 1.44-1.16s1.42.45 1.43 1.14h-.72a.64.64 0 0 0-.72-.55c-.41 0-.67.2-.67.51s.18.39.53.47l.6.14c.57.12 1 .39 1 1.08S22.86 22 21.94 22c-1.12 0-1.49-.63-1.5-1.17zm3.16-2.61h.72V19h.58v.58h-.58V21c0 .29.13.38.44.38h.16V22h-.34c-.75 0-1-.25-1-.86v-1.59h-.42V19h.44zm4.53 2.09v.22a1.38 1.38 0 1 1-2.75 0v-.22a1.38 1.38 0 1 1 2.75 0zm-2 0v.23c0 .47.18.86.62.86s.61-.38.61-.86v-.23c0-.49-.18-.85-.61-.85s-.61.36-.61.85zM29.49 19h.74v.41a.72.72 0 0 1 .7-.45h.24v.64a1.19 1.19 0 0 0-.29 0c-.49 0-.66.29-.66.69V22h-.76zm2.04 1.59v-.27a1.33 1.33 0 1 1 2.65 0v.29h-1.92v.08c0 .46.26.74.63.74a.53.53 0 0 0 .57-.39h.69a1.16 1.16 0 0 1-1.26 1 1.29 1.29 0 0 1-1.36-1.45zm1.93-.43a.6.6 0 1 0-1.2 0h1.2zM7.92 16l-.43.41A1.88 1.88 0 0 0 7 17.47 2 2 0 0 0 7.46 19a1.44 1.44 0 0 0 .71.52c-.05.12-.09.25-.14.37a5.12 5.12 0 0 1-.83 1.31 2.19 2.19 0 0 1-.42.38 1 1 0 0 1-.9.15l-.7-.21a1.75 1.75 0 0 0-1.18.06 4.56 4.56 0 0 1-.52.18 1 1 0 0 1-.8-.14A2.31 2.31 0 0 1 2 21a6.05 6.05 0 0 1-1-2.24 4.11 4.11 0 0 1 0-1.47 2.66 2.66 0 0 1 .7-1.57 1.75 1.75 0 0 1 1.11-.56 2.28 2.28 0 0 1 .82.07q.35.07.69.18a1.33 1.33 0 0 0 .79 0l.72-.21a1.94 1.94 0 0 1 1.17.04 2.1 2.1 0 0 1 .77.55z"/><path d="M6.18 13.16a.78.78 0 0 1 0 .4A2.16 2.16 0 0 1 5.33 15a1.17 1.17 0 0 1-.6.21h-.25a2.31 2.31 0 0 1 .46-1.4 2.13 2.13 0 0 1 1.24-.65z"/></symbol><symbol id="send" viewBox="0 0 36 36"><path d="M35.61 2.51C33.29 13 31 23.12 28.72 33.49l-9.87-7.83-5.53 5.94a46.67 46.67 0 0 1-2.43-6.15 8.47 8.47 0 0 0-7.06-6.94 24.14 24.14 0 0 1-3.44-1.32zM13.27 25.92l.47.14c-.34-4.59 3.07-6.64 5.77-9.16.74-.69 1.49-1.35 2.24-2l2.86-2.63c-4.43 2.36-8.71 4.89-13 7.46-.26.16-.56.7-.47.93.68 1.75 1.42 3.5 2.13 5.26z"/></symbol><symbol id="cart-invert" viewBox="0 0 36 36"><path d="M11.49 25c.16.79.56 1 1.35 1h15.68a9.63 9.63 0 0 1 1.2 0 3.6 3.6 0 1 1-3.83 2.79c.05-.26.1-.52.15-.82H15.18c.05.32.08.56.12.8a3.58 3.58 0 0 1-6.53 2.72A3.5 3.5 0 0 1 9.46 27a1.3 1.3 0 0 0 .42-1.61q-2.61-9.1-5.17-18.2C4.05 4.8 4 4.72 1.57 4.63h-.28a.86.86 0 0 1-.89-1c0-.61.35-.89 1-.9h2.41a1.7 1.7 0 0 1 1.74 1.33A12.55 12.55 0 0 1 6.1 6c.15 1 .62 1.21 1.57 1.2H34.3c.41 0 .83 0 1.3.07a7.11 7.11 0 0 1-.15.83c-1.24 4.41-2.51 8.8-3.72 13.21a1.26 1.26 0 0 1-1.48 1.1H12.16c-.4 0-.79 0-1.37.06.27.96.53 1.75.7 2.53zm.34 6.33a1.69 1.69 0 1 0 0-3.38 1.72 1.72 0 0 0-1.74 1.68 1.74 1.74 0 0 0 1.74 1.72zm17.63 0a1.69 1.69 0 0 0 1.61-1.78A1.71 1.71 0 0 0 29.38 28a1.76 1.76 0 0 0-1.68 1.74 1.73 1.73 0 0 0 1.76 1.6z"/></symbol><symbol id="cart" viewBox="0 0 36 36"><path d="M25.21 22.46c-.57 0-1-.06-1.36-.06H5.76a1.27 1.27 0 0 1-1.49-1.1C3.06 16.91 1.79 12.52.55 8.11a7.11 7.11 0 0 1-.15-.83c.48 0 .89-.07 1.31-.07h26.62c1 0 1.43-.25 1.58-1.2a11.52 11.52 0 0 1 .54-2 1.7 1.7 0 0 1 1.79-1.31h2.42a.83.83 0 0 1 .94.9.86.86 0 0 1-.89 1h-.28c-2.43.12-2.43.2-3.14 2.54q-2.57 9.11-5.17 18.2a1.31 1.31 0 0 0 .42 1.66 3.48 3.48 0 0 1 .69 4.61 3.58 3.58 0 0 1-6.53-2.72c.05-.24.07-.48.12-.8H10c.06.3.1.56.15.82a3.59 3.59 0 1 1-3.83-2.79 9.72 9.72 0 0 1 1.21 0H23.2c.79 0 1.2-.24 1.36-1s.44-1.69.65-2.66zm.7 7.19A1.73 1.73 0 0 0 24.16 28a1.69 1.69 0 1 0 1.75 1.68zm-17.61 0A1.75 1.75 0 0 0 6.63 28a1.7 1.7 0 0 0-.09 3.39 1.73 1.73 0 0 0 1.76-1.7z"/></symbol><symbol id="spotify" viewBox="0 0 36 36"><path d="M16 13.23h.57V15h.89v.5H16zm1.71.12a.3.3 0 1 1 .3.29.29.29 0 0 1-.3-.29zm0 .49h.51v1.61h-.51zm1 1.05a1 1 0 0 0 .56.22c.16 0 .22 0 .22-.12s-.11-.12-.27-.14-.66-.11-.66-.52.24-.53.68-.53a1.15 1.15 0 0 1 .68.22l-.2.34a.69.69 0 0 0-.47-.18c-.12 0-.2 0-.2.11s.08.1.25.13.68.11.68.54-.27.53-.73.53a1.24 1.24 0 0 1-.75-.24zm1.64.11v-.73h-.27v-.45h.27v-.43h.5v.43h.33v.45h-.33v.59A.15.15 0 0 0 21 15a.22.22 0 0 0 .13 0l.1.38a.57.57 0 0 1-.38.11c-.33 0-.5-.16-.5-.49zm1.83-1.2a.82.82 0 0 1 .82.9v.11h-1.14a.39.39 0 0 0 .41.29.64.64 0 0 0 .39-.14l.22.32a1.07 1.07 0 0 1-.67.21.82.82 0 0 1-.88-.84.83.83 0 0 1 .85-.85zm-.33.68h.67a.32.32 0 0 0-.34-.28.32.32 0 0 0-.33.28zm2.49.04a.23.23 0 0 0-.26-.26.42.42 0 0 0-.32.15v1h-.51v-1.57h.51V14a.75.75 0 0 1 .56-.24.47.47 0 0 1 .53.51v1.14h-.51zm2.82-1.32A1.15 1.15 0 1 1 26 14.34a1.12 1.12 0 0 1 1.16-1.14zm0 .5a.6.6 0 0 0-.61.64.61.61 0 1 0 1.21 0 .6.6 0 0 0-.6-.64zm2.54.82a.23.23 0 0 0-.26-.26.41.41 0 0 0-.32.15v1h-.51v-1.57h.51V14a.75.75 0 0 1 .56-.24.47.47 0 0 1 .53.51v1.14h-.51zm-15.92 5.11a1.83 1.83 0 0 0 1.29.53c.36 0 .58-.15.58-.35s-.26-.32-.69-.41c-.67-.13-1.61-.3-1.61-1.27 0-.68.58-1.27 1.62-1.27a2.49 2.49 0 0 1 1.65.57l-.57.75a1.9 1.9 0 0 0-1.15-.42c-.34 0-.48.14-.48.31s.25.29.7.37c.67.15 1.6.34 1.6 1.26s-.61 1.36-1.7 1.36a2.49 2.49 0 0 1-1.8-.65zm3.4 2.47V18h.94v.34A1.08 1.08 0 0 1 19 18c.73 0 1.29.55 1.29 1.54s-.56 1.55-1.29 1.55a1.09 1.09 0 0 1-.87-.42v1.43zm1.5-3.3a.72.72 0 0 0-.56.27V20a.75.75 0 0 0 .56.27.65.65 0 0 0 .64-.72.65.65 0 0 0-.64-.75zm1.89.71a1.61 1.61 0 1 1 1.6 1.55 1.52 1.52 0 0 1-1.6-1.55zm2.25 0a.64.64 0 1 0-.65.72.65.65 0 0 0 .65-.72zm1.65.68v-1.33H24V18h.49v-.8h.93v.8H26v.82h-.6v1.07a.27.27 0 0 0 .26.3.43.43 0 0 0 .24-.07l.18.7a1 1 0 0 1-.69.2.8.8 0 0 1-.92-.83zm1.93-3.05a.53.53 0 0 1 .53-.54.54.54 0 1 1 0 1.07.53.53 0 0 1-.53-.53zm.06.9h.94V21h-.94zm1.82.82h-.48V18h.48v-.1a1 1 0 0 1 1.06-1 1.35 1.35 0 0 1 .66.1l-.17.63a.54.54 0 0 0-.25-.06.31.31 0 0 0-.32.35V18h.6v.82h-.6V21h-.94z"/><path d="M30.51 21.35c.21 0 .35 0 .4-.17L31 21l-1.2-3h1l.66 1.87.66-1.87h1l-1.33 3.4a1.18 1.18 0 0 1-1.24.78 2 2 0 0 1-.41-.05l.14-.84a.49.49 0 0 0 .23.06zM7.32 13.44h.37a4.62 4.62 0 0 1 .65.08A4.5 4.5 0 0 1 10.91 15 4.6 4.6 0 0 1 12 17.17a3.15 3.15 0 0 1 .06.61.13.13 0 0 1 0 .06v.37a3.61 3.61 0 0 1-.08.65 4.57 4.57 0 0 1-4.38 3.7 4.3 4.3 0 0 1-1-.08 4.42 4.42 0 0 1-2.54-1.43 4.5 4.5 0 0 1-1.17-3 2 2 0 0 1 0-.35 4.94 4.94 0 0 1 .12-.77 4.55 4.55 0 0 1 4.23-3.47zm-.54 2.41h-.74A8.31 8.31 0 0 0 5 16l-.43.11a.42.42 0 0 0-.28.42.41.41 0 0 0 .3.39.36.36 0 0 0 .25 0l.4-.1a6.66 6.66 0 0 1 1.26-.14 7.1 7.1 0 0 1 .92 0 6.58 6.58 0 0 1 1 .13 5.48 5.48 0 0 1 1.75.63.45.45 0 0 0 .28.05.44.44 0 0 0 .35-.48.41.41 0 0 0-.22-.32 5.46 5.46 0 0 0-.95-.44A8 8 0 0 0 8 15.93a10.14 10.14 0 0 0-1.22-.08zm-.13 1.57H6.3a6.43 6.43 0 0 0-1.07.16l-.35.09a.34.34 0 0 0-.24.32.35.35 0 0 0 .21.35.46.46 0 0 0 .26 0 5.4 5.4 0 0 1 1.44-.22 6.6 6.6 0 0 1 .77 0 8.54 8.54 0 0 1 1 .18 5.2 5.2 0 0 1 1.31.55.34.34 0 0 0 .38-.05.35.35 0 0 0-.05-.58 5.1 5.1 0 0 0-1.06-.49 6.83 6.83 0 0 0-2.25-.31zm.12 1.49h-.5a6.94 6.94 0 0 0-.93.13l-.3.06a.28.28 0 0 0-.21.21.29.29 0 0 0 .36.34 7.5 7.5 0 0 1 1.32-.19 5.85 5.85 0 0 1 1.26.09 4.26 4.26 0 0 1 1.39.53.27.27 0 0 0 .3 0 .29.29 0 0 0 .11-.29.29.29 0 0 0-.15-.19 4.52 4.52 0 0 0-1.17-.51 5.57 5.57 0 0 0-1.48-.18z"/></symbol><symbol id="youtube" viewBox="0 0 36 36"><path d="M18 4.61h11.66c3.89 0 5.84 2.08 5.85 5.86v15.08c0 3.76-2.08 5.83-5.87 5.84H6.37C2.5 31.38.46 29.33.45 25.46V10.38c0-3.67 2.09-5.75 5.8-5.77 3.93-.02 7.86 0 11.75 0zm-5.12 6.54v13.9L25.22 18z"/><path d="M15 21.47v-6.78l6 3.33z"/></symbol><symbol id="insta" viewBox="0 0 36 36"><path d="M.39 18V6C.41 2.48 2.53.36 6.08.36h24c3.46 0 5.61 2.13 5.62 5.58v24.14c0 3.45-2.15 5.58-5.62 5.59Q18 35.69 6 35.67a5.19 5.19 0 0 1-5.6-5.51C.37 26.11.39 22.06.39 18zm17.75 9.2A9.29 9.29 0 1 0 8.85 18a9.34 9.34 0 0 0 9.29 9.22zm10.31-16.56a3.1 3.1 0 0 0 3.1-3 3.19 3.19 0 0 0-3.06-3.1 3.12 3.12 0 0 0-3.07 3.07 3 3 0 0 0 3.03 3.03z"/><path d="M25.33 17.94a7.22 7.22 0 1 1-7.15-7.21 7.25 7.25 0 0 1 7.15 7.21z"/><circle cx="28.56" cy="7.54" r=".95"/></symbol><symbol id="twitter" viewBox="0 0 36 36"><path d="M8.21 25.94c-2.56-1.67-4.06-3.68-4.39-6.46 0-.33-.38-.62-.59-.93-1-1.47-1.83-3.2-1.3-4.85s0-2.81 0-4.21a9 9 0 0 1 1.72-5.64c3.24 4.14 7.22 6.94 12.59 7.7a19.14 19.14 0 0 1 .16-2.05c.92-5.24 7.28-7.9 12-4.9a2.48 2.48 0 0 0 2.6.29c1.1-.47 2.26-.8 3.65-1.28l-1.21 3.72h2.33c-.9 1.23-1.59 2.32-2.42 3.3a6.76 6.76 0 0 0-1.55 4.76c0 4.78-1.21 9.14-4.81 12.54a17.37 17.37 0 0 1-10 4.48A23.46 23.46 0 0 1 .23 28.77z"/></symbol><symbol id="facebook" viewBox="0 0 36 36"><path d="M22.2 35.69V23.26h5.17c.35-2.11.69-4.09 1.05-6.25h-6.18v-4.23h6.12V6.53c-2.91.16-5.87-.54-8.68.56a5.53 5.53 0 0 0-3.64 5c-.12 1.55 0 3.12 0 4.84h-4.13v6.28h3.92v12.41c-3.75 0-7.48.15-11.18-.06a4.81 4.81 0 0 1-4.31-4.83Q.26 18 .34 5.3a5 5 0 0 1 5-5Q18 .25 30.73.34a5 5 0 0 1 4.93 5q.09 12.65 0 25.29a5 5 0 0 1-4.89 5c-2.35.1-4.7 0-7 0z"/></symbol><symbol id="volume-on" viewBox="0 0 36 36"><path d="M.4 13.74a2.82 2.82 0 0 1 .19-.48 1.31 1.31 0 0 1 1.21-.69h4.48a.29.29 0 0 0 .23-.09L11 8l3.51-3.45c.32-.31.63-.62 1-.92a1.77 1.77 0 0 1 1.07-.47 1.23 1.23 0 0 1 1.33 1 5.81 5.81 0 0 1 .09.58.86.86 0 0 1 0 .16v25.95a2.75 2.75 0 0 1-.22 1.2 1.22 1.22 0 0 1-.93.76 1.44 1.44 0 0 1-1-.25 4.34 4.34 0 0 1-.58-.46L12 28.89l-4.7-4.62-.81-.79a.24.24 0 0 0-.19-.08H1.8a1.36 1.36 0 0 1-1.33-.95c0-.07 0-.15-.07-.22zm35.2 4.2a14.89 14.89 0 0 1-5.28 11.39 15.74 15.74 0 0 1-2.87 1.91 2 2 0 0 1-.7.24 1.35 1.35 0 0 1-.68-2.57 10.77 10.77 0 0 0 1.87-1.12 12 12 0 0 0 3.79-4.61 11.48 11.48 0 0 0 1-3.33 12.13 12.13 0 0 0-1.31-7.64 12 12 0 0 0-4.77-4.85L26 7a1.34 1.34 0 0 1-.63-1.39 1.31 1.31 0 0 1 1-1.07 1.33 1.33 0 0 1 .92.11 15.11 15.11 0 0 1 3.93 2.84 14.79 14.79 0 0 1 4 7.27 15.09 15.09 0 0 1 .38 3.18z"/><path d="M30.19 17.78a10.91 10.91 0 0 1-5.63 9.7 1.63 1.63 0 0 1-.88.27 1.35 1.35 0 0 1-.94-2.27 2.46 2.46 0 0 1 .66-.48 8.08 8.08 0 0 0 4.05-7.58 7.9 7.9 0 0 0-2-4.79 8 8 0 0 0-2.37-1.88 1.35 1.35 0 1 1 1.31-2.35 10.94 10.94 0 0 1 3.1 2.48 10.72 10.72 0 0 1 1.93 3.19 9.8 9.8 0 0 1 .61 2.38c.11.55.13 1.04.16 1.33z"/><path d="M24.77 17.9a5.49 5.49 0 0 1-4.05 5.33 1.36 1.36 0 1 1-.67-2.63 2.66 2.66 0 0 0 1.62-1.22 2.71 2.71 0 0 0-1.68-4 1.37 1.37 0 0 1-1-1.38A1.35 1.35 0 0 1 20 12.71a1.7 1.7 0 0 1 .89.09 5.41 5.41 0 0 1 3.67 3.83 5 5 0 0 1 .21 1.27z"/></symbol><symbol id="volume-off" viewBox="0 0 36 36"><path d="M10.51 8.65l.81-.79 4-3.89a2.15 2.15 0 0 1 1-.59 1.21 1.21 0 0 1 1.51.94 3.12 3.12 0 0 1 .09.74v10.87a.28.28 0 0 0 .09.22l3.34 3.35.1.09a4.91 4.91 0 0 0 .25-.44 2.71 2.71 0 0 0-.59-3.09 2.54 2.54 0 0 0-1.06-.6 1.36 1.36 0 0 1-1-1.16 1.29 1.29 0 0 1 1.43-1.56 2.73 2.73 0 0 1 .87.26 5.38 5.38 0 0 1 2.93 3 5.29 5.29 0 0 1 .37 2.39 5.1 5.1 0 0 1-1 2.69c-.1.14-.21.26-.3.38l1.89 1.89.44-.54a7.73 7.73 0 0 0 1.56-3.73 8.09 8.09 0 0 0-4.12-8.15 1.43 1.43 0 0 1-.64-.75 2.1 2.1 0 0 1-.13-1.08.43.43 0 0 1 .07-.1 1.33 1.33 0 0 1 1.85-.48 12.66 12.66 0 0 1 1.95 1.37 10.69 10.69 0 0 1 2.37 2.94 10.46 10.46 0 0 1 1.14 3.26 10.11 10.11 0 0 1 .06 3.2 10.88 10.88 0 0 1-2.72 5.82l1.73 1.77c.32-.33.64-.64.94-1a11.73 11.73 0 0 0 2.05-3.23 12.09 12.09 0 0 0 .82-2.95 12.84 12.84 0 0 0 .08-2.7 12.22 12.22 0 0 0-1-3.93 11.76 11.76 0 0 0-5.52-5.76 1.45 1.45 0 0 1-.75-1 1.22 1.22 0 0 1 1.05-1.39 1.64 1.64 0 0 1 1 .16 14.81 14.81 0 0 1 4 2.93 14.26 14.26 0 0 1 3.7 6.84 14.94 14.94 0 0 1 .34 3.94 14.15 14.15 0 0 1-1.69 6.1 15 15 0 0 1-2.55 3.46c-.17.18-.32.36-.51.55l.09.06L35 33.1a1.36 1.36 0 1 1-1.86 2A.63.63 0 0 1 33 35L.87 2.85a2.52 2.52 0 0 1-.21-.25.83.83 0 0 1-.16-.55v-.3a1.06 1.06 0 0 1 .5-1 1 1 0 0 1 .73-.2 4 4 0 0 1 .49 0 1.08 1.08 0 0 1 .57.34l7.64 7.64zm-3.73 3.73l.71.7 3.21 3.24 5.83 5.87 1.21 1.22a.26.26 0 0 1 .07.17v7.28a2.33 2.33 0 0 1-.27 1.14 1.18 1.18 0 0 1-1.6.54 2.31 2.31 0 0 1-.73-.5l-3.14-3.09-5.6-5.52a.25.25 0 0 0-.17-.06H1.92a1.52 1.52 0 0 1-.84-.2 1.25 1.25 0 0 1-.58-1.06V14a1.37 1.37 0 0 1 .31-1 1.31 1.31 0 0 1 1.09-.44h4.26a.7.7 0 0 0 .46-.14 1.11 1.11 0 0 1 .16-.04z"/></symbol></svg>