<svg id="Layer_1" data-name="Layer 1" xmlns="http://www.w3.org/2000/svg" width="16" height="16" viewBox="0 0 16 16"><title>logo-16</title><path d="M7.6,16,.9,12.5a1,1,0,0,1-.6-.9V4.8a1,1,0,0,1,.6-.9L7.6.4a.8.8,0,0,1,.9,0l6.7,3.5a1.1,1.1,0,0,1,.5.9v6.8a1.1,1.1,0,0,1-.5.9L8.5,16A1.4,1.4,0,0,1,7.6,16Z" fill="#231f20" stroke="#231f20" stroke-miterlimit="10" stroke-width="0.25"/><polygon points="1.7 11.4 1.7 5.6 1.7 5.6 7.3 8.5 7.3 14.3 1.7 11.4" fill="#ee3125"/><polygon points="8 7.7 8 7.7 8 7.7 8 7.7" fill="#fee600"/><polygon points="2.5 4.3 8.1 1.4 8.1 1.4 13.7 4.3 8.1 7.2 8.1 7.2 2.5 4.3" fill="#fee600"/><polygon points="8.9 14.3 8.9 8.5 8.9 8.5 14.5 5.6 14.5 5.6 14.5 11.4 14.4 11.4 8.9 14.3 8.9 14.3" fill="#1265a2"/></svg>