<svg xmlns="http://www.w3.org/2000/svg" xmlns:xlink="http://www.w3.org/1999/xlink" width="64" height="64" viewBox="0 0 64 64"><defs><clipPath id="clip-path"><circle cx="-143.5" cy="127.7" r="125.7" fill="none"/></clipPath><clipPath id="clip-path-2"><circle cx="32" cy="31.9" r="29.8" fill="none"/></clipPath></defs><title>logo</title><g id="Layer_4" data-name="Layer 4"><g clip-path="url(#clip-path)"><g opacity="0.17"><image id="VXz2AW" width="1880" height="1256" transform="translate(-480.3 -26.1) scale(0.62 0.31)" xlink:href="logo1.png"/></g></g><circle cx="32" cy="31.9" r="29.8" fill="#f6e2b0"/><g clip-path="url(#clip-path-2)"><g opacity="0.17"><image id="VXz2AW-2" data-name="VXz2AW" width="1880" height="1256" transform="translate(-48 -4.6) scale(0.15 0.07)" xlink:href="logo2.png"/></g></g><path d="M41.6,31.5s-3.8-2.9-4.4-4.1-.9-5.5-.9-5.5a6.4,6.4,0,0,0-.5-2c-.3-.3,2.3-7.2,2.3-7.2s-.3-2.7-1.2-3.5A7.5,7.5,0,0,0,34,7.4a20,20,0,0,0-2.6,1.5l-2,2.6-1.2,2.3s-3.4,0-4,.6-4.7,3.8-4.7,3.8l-2.3,3.2s-4.6,5.2-5.5,7.2a54.9,54.9,0,0,1-3.5,5.8L3.3,40.8a4.6,4.6,0,0,0,5.5,0,14.7,14.7,0,0,0,4.4-4.1c5.8-9.6,4.3-4.3,4.3-4.3s-5.2,6.9.3,10.4,10.4,7.8,12.5,7.5c0,0,0,7.6,2.6,11.6h.3a53.8,53.8,0,0,0,7-1.2c-.4-2.8-1.3-9.4-1.5-10.1s-5.8-10.4-7.9-11.9c0,0,.6-5.2,1.2-5.5a11.2,11.2,0,0,1,3.2,0l8.1,4.1s3.5,1.4,4.6-.3S41.6,31.5,41.6,31.5Z" fill="#55463c"/><path d="M17.1,42.1S15.6,51.7,14,55.7c0,0,5.6,4.2,7,3.5s4-12.5,4-12.5Z" fill="#55463c"/><polygon points="41.6 41.6 43.9 42.8 50.5 42.8 47.6 41.6 41.6 41.6" fill="#55463c"/><path d="M43.9,42.8v7.8h6a1.9,1.9,0,0,0,.6-.7V42.8Z" fill="#55463c"/><polygon points="41.6 41.6 41.6 48 43.9 50.6 43.9 42.8 41.6 41.6" fill="#55463c"/><path d="M43.8,41.9a6.1,6.1,0,0,1-.1-2.7c.4-1.1,2-2.8,2.9-1.1a6.2,6.2,0,0,1,.4,2.3,13.1,13.1,0,0,1,0,2.8c-.1.5.7.7.7.2a17,17,0,0,0-.1-4.5c-.2-1-.6-2.1-1.7-2.3s-2.1.8-2.6,1.7a5.5,5.5,0,0,0-.2,3.8c.1.5.8.3.7-.2Z" fill="#55463c"/><path d="M44.9,41.9a5,5,0,0,1,0-2.7c.3-1.1,1.9-2.8,2.8-1.1a6.4,6.4,0,0,1,.5,2.3,13.1,13.1,0,0,1,0,2.8c-.1.5.6.7.7.2a13.6,13.6,0,0,0-.2-4.5c-.1-1-.5-2.1-1.6-2.3s-2.1.8-2.6,1.7a5,5,0,0,0-.3,3.8c.1.5.9.3.7-.2Z" fill="#55463c"/></g></svg>