<svg id="Layer_1" data-name="Layer 1" xmlns="http://www.w3.org/2000/svg" width="64" height="64" viewBox="0 0 64 64"><title>logo-64</title><path d="M29.8,62.8,2.9,49.2A4.2,4.2,0,0,1,.7,45.6V19.1a4,4,0,0,1,2.2-3.5L29.8,1.9a4.5,4.5,0,0,1,3.6,0L60.3,15.6a4,4,0,0,1,2.2,3.5V45.6a4.2,4.2,0,0,1-2.2,3.6L33.4,62.8A3.8,3.8,0,0,1,29.8,62.8Z" fill="#231f20" stroke="#231f20" stroke-miterlimit="10" stroke-width="0.99"/><polygon points="6.3 44.9 6.3 22.3 6.4 22.3 28.6 33.6 28.6 56.2 6.3 44.9" fill="#ee3125"/><polygon points="31.6 30.7 31.6 30.7 31.6 30.7 31.6 30.7" fill="#fee600"/><polygon points="9.6 17.1 31.8 5.8 31.9 5.8 54.1 17.1 31.8 28.5 31.8 28.5 9.6 17.1" fill="#fee600"/><polygon points="35 56.2 35 33.6 35 33.6 57.3 22.3 57.4 22.3 57.4 44.9 57.3 45 35.1 56.3 35 56.2" fill="#1265a2"/></svg>