<svg id="Layer_1" data-name="Layer 1" xmlns="http://www.w3.org/2000/svg" width="256" height="256" viewBox="0 0 256 256"><title>Artboard 1</title><path d="M121.2,249.8,13.6,195.1a16,16,0,0,1-8.7-14.2V75.1a16,16,0,0,1,8.7-14.2L121.2,6.2a15.9,15.9,0,0,1,14.4,0L243.2,60.9a16,16,0,0,1,8.7,14.2V180.9a16,16,0,0,1-8.7,14.2L135.6,249.8A15.9,15.9,0,0,1,121.2,249.8Z" fill="#231f20" stroke="#231f20" stroke-miterlimit="10" stroke-width="3.95"/><polygon points="27.3 178.3 27.3 87.7 27.4 87.6 116.4 133 116.4 223.5 27.3 178.3" fill="#ee3125"/><polygon points="128.2 121.2 128.2 121.2 128.3 121.2 128.2 121.2" fill="#fee600"/><polygon points="40.2 67 129.2 21.8 129.4 21.8 218.5 67 129.2 112.4 129.2 112.4 40.2 67" fill="#fee600"/><polygon points="142 223.5 142 133 142 133 231.3 87.6 231.4 87.7 231.4 178.3 231.1 178.5 142.2 223.6 142 223.5" fill="#1265a2"/></svg>