<svg viewBox="0 0 122.2 136.48" xmlns="http://www.w3.org/2000/svg"><path d="m10.11 40.5.24 34.16a4.11 4.11 0 0 0 2.57 3.78l50.43 20.46-.58-35.9z" fill="#c5743e"/><path d="m99.69 70.62-36.34 28.28-.58-35.9 39.68-30.28a.32.32 0 0 1 .55.28l-1.25 33.6a5.34 5.34 0 0 1 -2.06 4.02z" fill="#c5743e"/><path d="m11 39.81 33.71-25a11.8 11.8 0 0 1 11.49-1.47l45.22 18.32a1 1 0 0 1 .23 1.66l-37.44 28.57a3.11 3.11 0 0 1 -3.11.39l-49.93-21.28a.66.66 0 0 1 -.17-1.19z" fill="#772f1d" stroke="#682b18" stroke-miterlimit="10" stroke-width="2"/><path d="m10.16 44.31 52.66 22.5.08 9.75-52.66-21.55z" fill="#9d4a23"/><path d="m10.23 59.17 52.53 22.47.08 9.75-52.5-21.48z" fill="#9d4a23"/><path d="m62.82 66.81 39.86-29.28-.31 10.74-39.47 28.29z" fill="#9d4a23"/><path d="m62.76 81.64 39.49-29.64-.35 10.86-39.06 28.53z" fill="#9d4a23"/><g fill="#eecfc5"><path d="m65.89 22.42-2.89 3.32a1.29 1.29 0 0 0 -.36.88 1.25 1.25 0 0 0 .36.88 1.28 1.28 0 0 0 .89.37 1.26 1.26 0 0 0 .88-.37l2.85-3.31a1.34 1.34 0 0 0 .38-.89 1.27 1.27 0 0 0 -.36-.88 1.28 1.28 0 0 0 -.89-.37 1.26 1.26 0 0 0 -.88.37z" opacity=".32"/><path d="m72.37 31.89-4.37 1a1.26 1.26 0 0 0 -.87 1.54 1.28 1.28 0 0 0 1.54.87l4.37-1a1.26 1.26 0 0 0 .87-1.54 1.28 1.28 0 0 0 -1.54-.87z" opacity=".32"/><path d="m72.9 43.37-4.26-1.84a1.39 1.39 0 0 0 -1-.13 1.26 1.26 0 0 0 -.88 1.54 1.25 1.25 0 0 0 .58.75l4.26 1.84a1.34 1.34 0 0 0 1 .13 1.27 1.27 0 0 0 .75-.57 1.32 1.32 0 0 0 .13-1 1.25 1.25 0 0 0 -.58-.75z" opacity=".32"/><path d="m60 48.16 1.52 4a1.37 1.37 0 0 0 .57.75 1.31 1.31 0 0 0 1 .12 1.26 1.26 0 0 0 .91-1.56l-1.52-4a1.39 1.39 0 0 0 -.58-.75 1.29 1.29 0 0 0 -1-.12 1.26 1.26 0 0 0 -.9 1.56z" opacity=".32"/><path d="m45.4 41.65-4 2.5-.21.12 1.26 2.16.44-.26a1.25 1.25 0 0 0 -1.31-2.17l-.43.26a1.25 1.25 0 0 0 1.26 2.16l2.59-1.57 1.69-1a1.25 1.25 0 0 0 -1.26-2.16z" opacity=".32"/><path d="m51.72 47.4-1.83 4a1.34 1.34 0 0 0 -.13 1 1.28 1.28 0 0 0 .58.75 1.26 1.26 0 0 0 1.71-.45l1.82-4a1.32 1.32 0 0 0 .13-1 1.25 1.25 0 0 0 -.57-.74 1.26 1.26 0 0 0 -1.71.45z" opacity=".32"/><path d="m45 33.54-4.9-1.17a1.25 1.25 0 0 0 -.66 2.41l4.91 1.22a1.25 1.25 0 0 0 .65-2.46z" opacity=".32"/><path d="m48.74 26.83-3.68-3a1.35 1.35 0 0 0 -.89-.37 1.26 1.26 0 0 0 -1.25 1.25 1.2 1.2 0 0 0 .37.88l3.68 3a1.35 1.35 0 0 0 .89.37 1.25 1.25 0 0 0 .88-2.14z" opacity=".32"/><path d="m53.41 20.45.91 4.1a1.25 1.25 0 1 0 2.41-.66l-.91-4.1a1.27 1.27 0 0 0 -1.54-.88 1.29 1.29 0 0 0 -.87 1.54z" opacity=".32"/></g><path d="m56.29 36.44c-.16-.54-.47-1.54 0-2 .29-.32 1-.42 1.47-.53.16-.05-.15-.06.1 0h.1c.17.09.6.34.86.51a2.75 2.75 0 0 1 .83.67 2.29 2.29 0 0 1 .08 1.22c-.33 3.25-4.76 5.2-7.47 3.45a5.23 5.23 0 0 1 -2.26-4.52 6.21 6.21 0 0 1 2.84-4.68 7.15 7.15 0 0 1 10.52 2.95 7.88 7.88 0 0 1 -.83 7.15 6 6 0 0 1 -5.32 3.07 1.25 1.25 0 0 0 0 2.5 8.49 8.49 0 0 0 7-3.58 10.87 10.87 0 0 0 1.83-9 9.65 9.65 0 0 0 -14.38-5.35 8.92 8.92 0 0 0 -4.12 6.7 7.77 7.77 0 0 0 3.46 6.92 7.41 7.41 0 0 0 7.27.06 6.84 6.84 0 0 0 4-5.78 4.54 4.54 0 0 0 -.31-2.1 4.17 4.17 0 0 0 -1.64-1.69 4 4 0 0 0 -3.1-1 4.9 4.9 0 0 0 -2.85 1.41 4.65 4.65 0 0 0 -.45 4.26 1.25 1.25 0 0 0 2.41-.67z" fill="#f1d1c7" opacity=".32"/><text style="stroke-miterlimit:10;font-size:28.3;fill:#742e1c;stroke:#b28247;stroke-width:.25;font-family:GiddyupStd, Giddyup Std" transform="translate(15.95 118.62)"><tspan letter-spacing="-.05em">F</tspan><tspan x="14.4" y="0">airy Ca</tspan><tspan letter-spacing="0em" x="76.4" y="0">k</tspan><tspan x="86.67" y="0">e</tspan></text></svg>