<svg id="Layer_1" data-name="Layer 1" xmlns="http://www.w3.org/2000/svg" viewBox="0 0 32 32"><defs><style>.cls-1{fill:#fff;}</style></defs><title>Artboard 1</title><path class="cls-1" d="M15.38,24.68l-.42.05a14,14,0,0,1-2.82.22,17,17,0,0,1-5-.85,7.37,7.37,0,0,1-2.27-1.19,5.79,5.79,0,0,0-2.09-1l-.32-.1-.14-.07a.45.45,0,0,1,.3-.1c.33,0,.67,0,1-.08l1.26-.14c.41-.05.83-.09,1.24-.12l2.56-.13a4.92,4.92,0,0,1,1.61.25,11.07,11.07,0,0,1,2.88,1.33c.37.22.72.47,1.07.71a.08.08,0,0,0,.08,0L14,23.28c-.91-.69-1.82-1.39-2.67-2.15A19.56,19.56,0,0,1,9,18.61c-.66-.83-1.27-1.7-1.85-2.59-.77-1.2-1.55-2.4-2.3-3.62A23.87,23.87,0,0,1,3.42,9.88a5.25,5.25,0,0,1-.17-.52s0-.09,0-.1a.14.14,0,0,1,.11,0l.5.41A13.74,13.74,0,0,0,6.43,11.4,19.19,19.19,0,0,1,9.8,13.68a10.54,10.54,0,0,1,2.26,2.72c.58,1,1.16,2,1.7,3s1,1.91,1.47,2.87c.12.24.25.47.37.7l.11.13,0,0a1.49,1.49,0,0,0,0-.21c-.13-.51-.27-1-.41-1.53a25.57,25.57,0,0,1-.66-2.85c-.1-.68-.19-1.35-.24-2s-.1-1.64-.11-2.45a17.17,17.17,0,0,1,.13-2.49,16.94,16.94,0,0,1,.63-3,26.2,26.2,0,0,0,.73-3c.11-.67.2-1.34.28-2s.16-1.35.25-2a.86.86,0,0,1,.06-.23,1.4,1.4,0,0,1,.1-.16.59.59,0,0,1,.1.16,5,5,0,0,1,.12.53c.15.93.3,1.86.46,2.79s.38,1.69.62,2.52a20.56,20.56,0,0,1,.67,3.19,25.19,25.19,0,0,1,.18,3.78,23.78,23.78,0,0,1-.17,2.39,24.81,24.81,0,0,1-.83,4.08c-.2.68-.44,1.36-.65,2l-.06.2h0a.31.31,0,0,0,.05-.1l.5-1.29A24.73,24.73,0,0,1,20,16.51a16.48,16.48,0,0,1,2.7-3.14,12.27,12.27,0,0,1,1.65-1.21c1-.64,2-1.33,2.91-2.06l1.56-1.16a1.28,1.28,0,0,1,.2-.11l0,0S29,9,29,9l-.58.7a8.61,8.61,0,0,0-1.09,1.82c-.76,1.68-1.53,3.36-2.28,5A11.36,11.36,0,0,1,22.63,20,18.85,18.85,0,0,1,18.53,23l-1.15.65-.15.11,0,0a1.39,1.39,0,0,0,.19-.06l1-.5L22,21.59a4.85,4.85,0,0,1,1.56-.47,9,9,0,0,1,1.16,0c.45,0,.89.07,1.33.07h3.14l1.36,0a1.62,1.62,0,0,1,.38,0s.07,0,.11.06-.06.07-.09.08c-.24.08-.49.17-.74.24a19.8,19.8,0,0,0-4.31,1.85,8.65,8.65,0,0,1-2.76,1,16.65,16.65,0,0,1-3.73.26c-.7,0-1.39-.08-2.08-.13h-.26v0l.19,0a9.26,9.26,0,0,1,1.48.31,8.08,8.08,0,0,1,1.77.74A4.2,4.2,0,0,1,22,27.12a9.93,9.93,0,0,0,1.08,1.43,2.49,2.49,0,0,1,.23.31.64.64,0,0,1,.05.15l-.19,0a10.34,10.34,0,0,0-1.9-.55,10.9,10.9,0,0,1-3.1-1.32,3.87,3.87,0,0,1-1.46-1.69.38.38,0,0,0-.08-.11l.05,3.79L16.57,29l-.49-.47a.31.31,0,0,1-.09-.2c0-1,0-2,0-3v0l0,0a.64.64,0,0,1,0,.07,6.62,6.62,0,0,1-2.42,2.16,11.17,11.17,0,0,1-2.42.89c-.36.09-.72.2-1.08.28s-.57.12-.86.18c0,0-.07,0-.11,0s0-.08,0-.11l.33-.37c.27-.3.53-.62.82-.91a9.76,9.76,0,0,1,2.69-2A8.18,8.18,0,0,1,15,24.77l.4-.07Z"/></svg>