<?xml version="1.0" encoding="utf-8"?>
<!-- Generator: Adobe Illustrator 23.0.1, SVG Export Plug-In . SVG Version: 6.00 Build 0)  -->
<svg version="1.1" id="Layer_1" xmlns="http://www.w3.org/2000/svg" xmlns:xlink="http://www.w3.org/1999/xlink" x="0px" y="0px"
	 viewBox="0 0 196 196" style="enable-background:new 0 0 196 196;" xml:space="preserve">
<style type="text/css">
	.st0{enable-background:new    ;}
	.st1{fill:none;stroke:#000000;stroke-width:4;stroke-miterlimit:10;}
	.st2{stroke:#000000;stroke-width:2;stroke-miterlimit:10;}
	
		.st3{fill:none;stroke:#000000;stroke-width:4.2934;stroke-linecap:round;stroke-linejoin:round;stroke-miterlimit:6;stroke-dasharray:0.2147,30.0537;}
</style>
<g class="st0">
	<path d="M31.1,87.3c-0.6,0.3-1.3,0.5-2.2,0.5c-0.8,0-1.5-0.2-2.2-0.6c-0.6-0.4-1.2-0.9-1.6-1.5s-0.8-1.4-1-2.3
		c-0.2-0.9-0.4-1.9-0.4-3s0.1-2.1,0.4-3c0.2-0.9,0.6-1.7,1.1-2.4c0.5-0.7,1-1.2,1.6-1.5c0.6-0.4,1.4-0.5,2.1-0.5
		c0.8,0,1.5,0.1,2.1,0.4c0.6,0.3,1.1,0.7,1.5,1.3l-1.4,1.7c-0.5-0.8-1.3-1.2-2.1-1.2c-0.5,0-0.9,0.1-1.3,0.4s-0.7,0.6-0.9,1.1
		c-0.2,0.5-0.4,1-0.5,1.6c-0.1,0.6-0.2,1.3-0.2,2c0,0.7,0.1,1.4,0.2,2c0.1,0.6,0.3,1.2,0.5,1.7c0.2,0.5,0.5,0.8,0.9,1.1
		c0.4,0.3,0.8,0.4,1.3,0.4c0.5,0,0.9-0.1,1.2-0.4c0.3-0.2,0.6-0.5,0.8-0.9l1.4,1.6C32.2,86.5,31.7,86.9,31.1,87.3z"/>
	<path d="M50.1,87.4l-2.2-6h-1.3v6h-2.3V73.3h4c0.6,0,1.1,0.1,1.6,0.2c0.5,0.2,0.9,0.4,1.3,0.7c0.4,0.3,0.6,0.8,0.8,1.3
		c0.2,0.5,0.3,1.1,0.3,1.8c0,0.5-0.1,1-0.2,1.5s-0.3,0.8-0.5,1.1c-0.2,0.3-0.4,0.5-0.7,0.7c-0.3,0.2-0.5,0.3-0.8,0.4l2.5,6.5H50.1z
		 M49.9,77.4c0-0.4-0.1-0.8-0.2-1.1c-0.1-0.3-0.3-0.5-0.5-0.7c-0.2-0.2-0.4-0.3-0.7-0.3c-0.2-0.1-0.5-0.1-0.7-0.1h-1.4v4.4h1.4
		c0.6,0,1.1-0.2,1.4-0.5C49.8,78.7,49.9,78.2,49.9,77.4z"/>
	<path d="M68.8,82v5.4h-2.4V82l-3.5-8.7h2.6l2.1,6.3l0.1,0l2.2-6.3h2.5L68.8,82z"/>
	<path d="M89.3,76c-0.5-0.6-1.2-0.9-2-0.9c-0.2,0-0.4,0-0.7,0.1s-0.4,0.2-0.6,0.3c-0.2,0.2-0.3,0.4-0.4,0.6
		c-0.1,0.3-0.1,0.6-0.1,0.9c0,0.6,0.2,1.1,0.5,1.4c0.4,0.3,0.8,0.6,1.4,0.9c0.3,0.2,0.7,0.4,1.1,0.6c0.4,0.2,0.7,0.5,1,0.8
		c0.3,0.3,0.5,0.7,0.7,1.1s0.3,1,0.3,1.6c0,0.7-0.1,1.3-0.3,1.8s-0.5,1-0.9,1.3C89,87,88.5,87.3,88,87.5c-0.5,0.2-1,0.3-1.6,0.3
		c-0.8,0-1.5-0.2-2.2-0.5s-1.2-0.7-1.6-1.2l1.3-1.8c0.3,0.4,0.7,0.7,1.1,0.9c0.4,0.2,0.9,0.3,1.3,0.3c0.5,0,0.9-0.2,1.3-0.5
		c0.3-0.3,0.5-0.8,0.5-1.5c0-0.6-0.2-1.1-0.6-1.5c-0.4-0.4-0.9-0.7-1.5-1c-0.4-0.2-0.8-0.4-1.1-0.6c-0.3-0.2-0.6-0.5-0.9-0.8
		c-0.3-0.3-0.5-0.7-0.6-1.1s-0.2-0.9-0.2-1.5c0-0.7,0.1-1.4,0.3-1.9c0.2-0.5,0.5-1,0.9-1.3s0.8-0.6,1.3-0.8c0.5-0.2,1-0.2,1.5-0.2
		c0.7,0,1.4,0.1,1.9,0.3c0.6,0.2,1,0.6,1.4,1L89.3,76z"/>
	<path d="M106.1,75.3v12.1h-2.4V75.3h-2.7v-2h7.7v2H106.1z"/>
	<path d="M126,87.4l-0.7-3h-3.7l-0.7,3h-2.4l3.5-14.2h3.1l3.5,14.2H126z M123.5,75.5L123.5,75.5l-1.6,7h3.1L123.5,75.5z"/>
	<path d="M140,87.4V73.3h2.4v11.9h3.9v2.2H140z"/>
	<path d="M163.4,76c-0.5-0.6-1.2-0.9-2-0.9c-0.2,0-0.4,0-0.7,0.1s-0.4,0.2-0.6,0.3c-0.2,0.2-0.3,0.4-0.4,0.6
		c-0.1,0.3-0.1,0.6-0.1,0.9c0,0.6,0.2,1.1,0.5,1.4c0.4,0.3,0.8,0.6,1.4,0.9c0.3,0.2,0.7,0.4,1.1,0.6c0.4,0.2,0.7,0.5,1,0.8
		c0.3,0.3,0.5,0.7,0.7,1.1s0.3,1,0.3,1.6c0,0.7-0.1,1.3-0.3,1.8s-0.5,1-0.9,1.3c-0.4,0.4-0.8,0.6-1.3,0.8c-0.5,0.2-1,0.3-1.6,0.3
		c-0.8,0-1.5-0.2-2.2-0.5s-1.2-0.7-1.6-1.2l1.3-1.8c0.3,0.4,0.7,0.7,1.1,0.9c0.4,0.2,0.9,0.3,1.3,0.3c0.5,0,0.9-0.2,1.3-0.5
		c0.3-0.3,0.5-0.8,0.5-1.5c0-0.6-0.2-1.1-0.6-1.5c-0.4-0.4-0.9-0.7-1.5-1c-0.4-0.2-0.8-0.4-1.1-0.6c-0.3-0.2-0.6-0.5-0.9-0.8
		c-0.3-0.3-0.5-0.7-0.6-1.1s-0.2-0.9-0.2-1.5c0-0.7,0.1-1.4,0.3-1.9c0.2-0.5,0.5-1,0.9-1.3s0.8-0.6,1.3-0.8c0.5-0.2,1-0.2,1.5-0.2
		c0.7,0,1.4,0.1,1.9,0.3c0.6,0.2,1,0.6,1.4,1L163.4,76z"/>
</g>
<g>
	<path class="st1" d="M193.6,99.2c0,52.6-42.6,95.1-95.1,95.1c-51,0-92.6-40.1-95.1-90.5l22.4-4.7l1,29.2l18.2-2.1l37.9-19.5
		l14.3-2.8l23.1,0.2l-8.9,24.8l-7.9,4.5L87,144.3l39.4-14.6l29.3,7.1l25.2-50.2L193.6,99.2z"/>
	<path class="st1" d="M25.8,99.2l19.1,27.2"/>
	<path class="st1" d="M82.9,106.8l13.4,10l24.1-12.8"/>
	<path class="st1" d="M103.5,133.5l-7.3-16.6l15.2,12.1"/>
	<path class="st1" d="M178.3,121.8l2.5-35.2"/>
</g>
<g class="st0">
	<path d="M10,54.4V27.1c0-0.6,0.3-1.1,0.9-1.5c0.6-0.3,1.3-0.5,2.1-0.5c0.8,0,1.5,0.2,2.1,0.5c0.6,0.3,0.9,0.8,0.9,1.5v27.4
		c0,2.5,0.6,4.3,1.8,5.5c1.2,1.2,2.9,1.8,5.1,1.8c4.7,0,7-2.5,7-7.4V27.1c0-0.6,0.3-1.1,0.9-1.5c0.6-0.3,1.3-0.5,2.1-0.5
		c0.8,0,1.5,0.2,2.1,0.5c0.6,0.3,0.9,0.8,0.9,1.5v27.4c0,4.4-1.2,7.6-3.6,9.6c-2.4,2.1-5.5,3.1-9.5,3.1c-3.9,0-7.1-1-9.4-3.1
		C11.2,62,10,58.8,10,54.4z"/>
	<path d="M43.4,64.8V27.1c0-1.3,1-2,3-2c1.1,0,1.9,0.2,2.6,0.7c0.6,0.5,1.3,1.4,2,2.7l12.7,24.7V27.1c0-0.6,0.3-1.1,0.9-1.5
		c0.6-0.3,1.3-0.5,2.1-0.5s1.5,0.2,2.1,0.5c0.6,0.3,0.9,0.8,0.9,1.5v37.7c0,0.6-0.3,1.1-0.9,1.5c-0.6,0.4-1.3,0.5-2.1,0.5
		c-1.6,0-2.8-0.7-3.6-2.2L49.4,38.6v26.2c0,0.6-0.3,1.1-0.9,1.5c-0.6,0.4-1.3,0.5-2.1,0.5c-0.8,0-1.5-0.2-2.1-0.5
		C43.7,65.9,43.4,65.4,43.4,64.8z"/>
	<path d="M77.2,64.8V27.1c0-0.6,0.3-1.1,0.9-1.5c0.6-0.3,1.3-0.5,2.1-0.5c0.8,0,1.5,0.2,2.1,0.5c0.6,0.3,0.9,0.8,0.9,1.5v37.7
		c0,0.6-0.3,1.1-0.9,1.5c-0.6,0.4-1.3,0.5-2.1,0.5c-0.8,0-1.5-0.2-2.1-0.5C77.5,65.9,77.2,65.4,77.2,64.8z"/>
	<path d="M90.8,64.8V27.1c0-0.6,0.3-1.1,0.8-1.5c0.5-0.4,1.2-0.5,1.9-0.5h20c0.6,0,1.1,0.3,1.5,0.8c0.3,0.5,0.5,1.1,0.5,1.9
		c0,0.8-0.2,1.4-0.5,1.9c-0.3,0.5-0.8,0.8-1.4,0.8H96.8v13.1h8.8c0.6,0,1.1,0.2,1.4,0.7c0.3,0.5,0.5,1.1,0.5,1.7
		c0,0.6-0.2,1.1-0.5,1.6c-0.3,0.5-0.8,0.7-1.5,0.7h-8.8v16.5c0,0.6-0.3,1.1-0.9,1.5c-0.6,0.3-1.3,0.5-2.1,0.5
		c-0.8,0-1.5-0.2-2.1-0.5C91.1,65.9,90.8,65.5,90.8,64.8z"/>
	<path d="M119.4,64.8V27.1c0-0.6,0.3-1.1,0.9-1.5c0.6-0.3,1.3-0.5,2.1-0.5c0.8,0,1.5,0.2,2.1,0.5c0.6,0.3,0.9,0.8,0.9,1.5v37.7
		c0,0.6-0.3,1.1-0.9,1.5c-0.6,0.4-1.3,0.5-2.1,0.5c-0.8,0-1.5-0.2-2.1-0.5C119.7,65.9,119.4,65.4,119.4,64.8z"/>
	<path d="M132.9,64.8V27.1c0-0.6,0.3-1.1,0.8-1.5c0.5-0.4,1.2-0.5,1.9-0.5h20.3c0.6,0,1.1,0.3,1.5,0.8c0.3,0.5,0.5,1.1,0.5,1.8
		c0,0.8-0.2,1.4-0.5,1.9c-0.4,0.5-0.8,0.8-1.5,0.8H139v13.1h8.8c0.6,0,1.1,0.2,1.5,0.7c0.4,0.5,0.5,1.1,0.5,1.7
		c0,0.6-0.2,1.1-0.5,1.6c-0.3,0.5-0.8,0.7-1.5,0.7H139v13.1h16.9c0.6,0,1.1,0.3,1.5,0.8c0.4,0.5,0.5,1.2,0.5,1.9
		c0,0.7-0.2,1.3-0.5,1.8s-0.8,0.8-1.5,0.8h-20.3c-0.7,0-1.3-0.2-1.9-0.5S132.9,65.4,132.9,64.8z"/>
	<path d="M162.8,64.9V27.1c0-0.5,0.3-1,0.8-1.4c0.5-0.4,1.1-0.6,1.9-0.6h10.1c3.9,0,7,1,9.3,3.1c2.3,2.1,3.5,5.3,3.5,9.6v16.2
		c0,4.4-1.2,7.6-3.5,9.6s-5.4,3.1-9.3,3.1h-10.1c-0.8,0-1.4-0.2-1.9-0.6C163,65.9,162.8,65.4,162.8,64.9z M168.8,61.4h6.7
		c4.5,0,6.8-2.5,6.8-7.4V37.8c0-4.9-2.3-7.4-6.8-7.4h-6.7V61.4z"/>
</g>
<path class="st1" d="M193.6,99.2l-15.2,22.2l-22.8,15.5c0,0-28.1,10.9-29.3,11.4c-1.2,0.4,0-18.5,0-18.5"/>
<path class="st2" d="M99.7,114.9c-1.5,1.4-3,2.6-4.6,3.8c-1.7,0.9-3.4,1.9-5.2,2.9l-10.3,5.8l-10.3,5.8l-5.2,2.9
	c-1.9,0.7-3.7,1.4-5.7,2c1.5-1.3,3-2.6,4.6-3.8l5.2-2.9l10.3-5.8l10.3-5.8c1.7-1,3.4-1.9,5.2-2.9C95.9,116.2,97.8,115.5,99.7,114.9
	L99.7,114.9z"/>
<path class="st3" d="M5,86.7c-0.6,4.2-0.9,8.5-0.9,12.8c0,2.2,0.1,4.4,0.2,6.6"/>
<path class="st3" d="M192,84.8c0-0.1,0-0.1,0-0.2"/>
<circle cx="5" cy="85.7" r="3.6"/>
<circle cx="53.9" cy="14.3" r="3.6"/>
<circle cx="82.2" cy="4.7" r="3.6"/>
<circle cx="112.4" cy="4.7" r="3.6"/>
<circle cx="141.3" cy="13.6" r="3.6"/>
<circle cx="191.9" cy="83.8" r="3.6"/>
</svg>
