<?xml version="1.0" encoding="utf-8"?>
<!-- Generator: Adobe Illustrator 23.0.1, SVG Export Plug-In . SVG Version: 6.00 Build 0)  -->
<svg version="1.1" id="Layer_1" xmlns="http://www.w3.org/2000/svg" xmlns:xlink="http://www.w3.org/1999/xlink" x="0px" y="0px"
	 viewBox="0 0 16 16" style="enable-background:new 0 0 16 16;" xml:space="preserve">
<style type="text/css">
	.st0{enable-background:new    ;}
	.st1{fill:#010101;}
</style>
<g class="st0">
	<path class="st1" d="M0.7,9.2V3.4c0-0.1,0.1-0.2,0.2-0.3C1.1,3,1.2,3,1.4,3s0.3,0,0.5,0.1C2,3.1,2,3.2,2,3.4v5.8
		c0,0.5,0.1,0.9,0.4,1.2c0.3,0.3,0.6,0.4,1.1,0.4c1,0,1.5-0.5,1.5-1.6V3.4c0-0.1,0.1-0.2,0.2-0.3C5.3,3,5.5,3,5.6,3S6,3,6.1,3.1
		c0.1,0.1,0.2,0.2,0.2,0.3v5.8c0,0.9-0.3,1.6-0.8,2c-0.5,0.4-1.2,0.7-2,0.7c-0.8,0-1.5-0.2-2-0.7C1,10.8,0.7,10.1,0.7,9.2z"/>
	<path class="st1" d="M10.2,9.2V5.7c0-0.9,0.2-1.6,0.7-2C11.4,3.2,12.1,3,12.9,3c0.8,0,1.5,0.2,2,0.6c0.5,0.4,0.8,0.9,0.8,1.6
		c0,0.3,0,0.4-0.1,0.5c-0.1,0.1-0.3,0.1-0.5,0.1c-0.4,0-0.6-0.1-0.6-0.4c0-0.9-0.5-1.3-1.4-1.3c-1,0-1.5,0.5-1.5,1.6v3.5
		c0,1,0.5,1.6,1.5,1.6c0.3,0,0.5,0,0.7-0.1c0.2-0.1,0.3-0.2,0.4-0.4c0.1-0.2,0.1-0.3,0.2-0.4s0.1-0.3,0.1-0.4c0-0.3,0.2-0.4,0.6-0.4
		c0.2,0,0.4,0,0.5,0.1c0.1,0.1,0.2,0.3,0.2,0.5c0,0.7-0.3,1.2-0.8,1.6c-0.5,0.4-1.2,0.6-2,0.6c-0.8,0-1.4-0.2-1.9-0.7
		C10.4,10.8,10.2,10.1,10.2,9.2z"/>
</g>
<circle class="st1" cx="8.2" cy="8" r="0.6"/>
</svg>
