<svg height=".9in" viewBox="0 0 64 64" width=".9in" xmlns="http://www.w3.org/2000/svg"><path d="m75.2 142.7a17.9 17.9 0 0 1 -9.9-3.2 22.7 22.7 0 0 1 -7.6-8.8 26.6 26.6 0 0 1 -2.9-12.6 24.1 24.1 0 0 1 7-16.8c4.7-5.1 11.6-10.1 20.8-15a43.8 43.8 0 0 1 -.7-6.4 30.6 30.6 0 0 1 3.1-13.7 35.6 35.6 0 0 1 7.9-11 39.2 39.2 0 0 1 10.4-6.9 26.5 26.5 0 0 1 10.5-2.4q5.9 0 9.3 2.7a8.8 8.8 0 0 1 3.6 7.2 18.9 18.9 0 0 1 -3 10.5 33.5 33.5 0 0 1 -7.7 8.3c-3.1 2.4-6.9 5-11.4 7.9s-7.3 4.6-8.3 5.3a101.6 101.6 0 0 0 7 18.6 73.1 73.1 0 0 0 10.2-7.9 60.3 60.3 0 0 0 6.2-6.5c1.7-1.9 2.9-2.9 3.4-2.9s.8.5 1.1 1.6a12.1 12.1 0 0 1 .5 3.4 22.7 22.7 0 0 1 -1.6 8.3 39.1 39.1 0 0 1 -4.5 7.8 98.7 98.7 0 0 1 -7.3 8.4l4.8 5.2 1.6-1.7 1.4-1.5a2.1 2.1 0 0 1 1.1-.4 1.3 1.3 0 0 1 1.1.6 2 2 0 0 1 .4 1.3q0 3-4.2 9.9c-2.8 4.7-5.1 7-6.9 7a4.1 4.1 0 0 1 -2.8-1.2 22.7 22.7 0 0 1 -3.4-3.8l-3.2-4.5a103.6 103.6 0 0 1 -14.7 9.8c-4.3 2.3-8.1 3.4-11.3 3.4zm9.8-46.9a68.7 68.7 0 0 0 -9.5 7.9 46 46 0 0 0 -6.6 8.3c-1.6 2.7-2.4 4.9-2.4 6.7q0 5.4 4.8 5.4t9.6-2.4a53.3 53.3 0 0 0 12.2-6.8zm9.7-21.6v2.9q10.5-5.8 16.2-12.3c3.8-4.3 5.7-7.8 5.7-10.3s-1-3.3-3.2-3.3-4.5 1.2-7.5 3.5a31.9 31.9 0 0 0 -7.9 8.8 20.2 20.2 0 0 0 -3.3 10.7z" fill="#f4ef45"/><path d="m32.7 51.2a8.1 8.1 0 0 1 -4.6-1.5 10.3 10.3 0 0 1 -3.6-4.1 12.8 12.8 0 0 1 -1.4-5.9 11 11 0 0 1 3.3-7.8 38 38 0 0 1 9.7-7 28.5 28.5 0 0 1 -.3-3 15.8 15.8 0 0 1 1.4-6.5 16.2 16.2 0 0 1 3.8-5.1 16.1 16.1 0 0 1 4.8-3.2 12.1 12.1 0 0 1 4.9-1.2 7.4 7.4 0 0 1 4.4 1.3 4.2 4.2 0 0 1 1.7 3.4 9.1 9.1 0 0 1 -1.4 4.9 21.9 21.9 0 0 1 -3.6 3.9l-5.4 3.7-3.8 2.4a46.9 46.9 0 0 0 3.2 8.8 41.1 41.1 0 0 0 4.8-3.7 26.8 26.8 0 0 0 2.9-3.1c.8-.9 1.3-1.4 1.6-1.4s.4.3.5.8a7.8 7.8 0 0 1 .2 1.6 10 10 0 0 1 -.7 3.9 16.8 16.8 0 0 1 -2.1 3.6 39.5 39.5 0 0 1 -3.4 3.9l2.2 2.5.7-.8a2.2 2.2 0 0 1 .7-.7l.5-.2a.5.5 0 0 1 .5.3.7.7 0 0 1 .2.6c0 .9-.6 2.5-1.9 4.6s-2.4 3.3-3.3 3.3a1.9 1.9 0 0 1 -1.3-.6 10.7 10.7 0 0 1 -1.6-1.8l-1.4-2a52.7 52.7 0 0 1 -6.9 4.5 11.6 11.6 0 0 1 -5.3 1.6zm4.6-21.9a27.8 27.8 0 0 0 -4.5 3.7 21.2 21.2 0 0 0 -3.1 3.9 6.8 6.8 0 0 0 -1.1 3.1c0 1.7.8 2.5 2.3 2.5a14.4 14.4 0 0 0 4.5-1.1 21.2 21.2 0 0 0 5.6-3.2c-.9-2.3-2.2-5.3-3.7-8.9zm4.5-10.1v1.4a30.7 30.7 0 0 0 7.6-5.8q2.7-3 2.7-4.8a1.4 1.4 0 0 0 -1.6-1.6 6.5 6.5 0 0 0 -3.5 1.7 14.4 14.4 0 0 0 -3.6 4.1 8.9 8.9 0 0 0 -1.6 5z" fill="#f4ef45"/><g fill="#701647"><path d="m3.5 32.4v5h3.5v2.1h-3.5v7.2h-2.4v-16.2h6.4v1.9z"/><path d="m8.7 46.7v-16.2h2.2v16.2z"/><path d="m15.8 46.9c-2.5 0-3.7-1.8-3.7-5.9s1.1-6.4 3.7-6.4 3.8 2.1 3.8 6.4-1.2 5.9-3.8 5.9zm0-10.7c-1.1 0-1.4 1.2-1.4 4.7s.3 4.4 1.4 4.4 1.5-.9 1.5-4.4-.3-4.7-1.5-4.7z"/><path d="m26.9 39.8-2 .2a10.6 10.6 0 0 0 .3-2c0-.8-.1-1.4-.8-1.4s-1.4 1.1-1.4 3v7.1h-2.2v-11.8h2.2v2c.3-1.2 1-2.2 2.1-2.2s2.1.9 2.1 2.7a9.3 9.3 0 0 1 -.3 2.4z"/><path d="m34.1 46.9c-.9 0-1.3-.5-1.5-1.4a2.4 2.4 0 0 1 -2.3 1.4c-1.8 0-2.7-.9-2.7-3.5s1-3.1 2.4-3.4l.7-.2c1.1-.4 1.7-.7 1.7-1.9s-.1-1.9-1.2-1.9-1.2.6-1.2 1.6a5.2 5.2 0 0 0 .2 1.1h-2a4.6 4.6 0 0 1 -.2-1.4c0-1.8 1-2.8 3.4-2.8s3.1.9 3.1 2.7v7.3c0 .5.2.8.9.8h.4v1a2.9 2.9 0 0 1 -1.7.6zm-2.8-5.7a2.2 2.2 0 0 0 -1.5 2.3c0 1.3.3 1.9 1.2 1.9s1.4-.8 1.4-2.2v-2.7z"/><path d="m42.8 44.8h5.4v1.9h-7.6v-2.3l5.4-12h-5v-1.9h7.3v2.3z"/><path d="m49.6 33.4v-2.5h2.2v2.5zm0 13.3v-11.8h2.2v11.8z"/><path d="m57.5 46.9c-1.1 0-1.5-.7-2-1.3v4.7h-2.2v-15.4h2.2v1.5a2.2 2.2 0 0 1 2.2-1.7c1.7 0 3.1 1.1 3.1 6.1s-1.3 6.1-3.3 6.1zm-.5-10.6c-.9 0-1.5 1.2-1.5 4.5s.5 4.5 1.5 4.5 1.5-.4 1.5-4.5-.5-4.5-1.5-4.5z"/></g></svg>