<svg id="Layer_1" data-name="Layer 1" xmlns="http://www.w3.org/2000/svg" viewBox="0 0 64 64"><defs><style>.cls-1{fill:#fff;}</style></defs><title>Artboard 1</title><path class="cls-1" d="M32.26,34.66l-.55.08A18.51,18.51,0,0,1,28,35a22.45,22.45,0,0,1-6.6-1.12,9.9,9.9,0,0,1-3-1.57,7.82,7.82,0,0,0-2.76-1.28l-.43-.13a1.22,1.22,0,0,1-.17-.08.5.5,0,0,1,.38-.14l1.34-.1c.55-.06,1.1-.14,1.66-.19s1.09-.12,1.63-.16l3.37-.17a7,7,0,0,1,2.12.32,14.7,14.7,0,0,1,3.79,1.76c.48.29.95.62,1.42.94a.14.14,0,0,0,.1,0l-.38-.3C29.29,31.92,28.09,31,27,30a27.24,27.24,0,0,1-3.12-3.32c-.87-1.09-1.68-2.24-2.44-3.41-1-1.58-2-3.17-3-4.76a28.49,28.49,0,0,1-1.85-3.33,5.44,5.44,0,0,1-.23-.68s0-.12,0-.13a.16.16,0,0,1,.15,0c.22.17.44.34.65.53a17.81,17.81,0,0,0,3.36,2.26,25.61,25.61,0,0,1,4.43,3,13.65,13.65,0,0,1,3,3.58c.77,1.32,1.52,2.64,2.25,4s1.28,2.53,1.93,3.79c.15.31.32.61.48.91a1.27,1.27,0,0,0,.14.17l.05,0a.82.82,0,0,0,0-.27c-.17-.67-.35-1.35-.54-2a32.3,32.3,0,0,1-.86-3.75c-.13-.89-.25-1.78-.32-2.67-.09-1.08-.13-2.16-.15-3.23A25.65,25.65,0,0,1,31,17.38a22.44,22.44,0,0,1,.84-4,33.91,33.91,0,0,0,1-4c.14-.88.25-1.76.37-2.65s.21-1.78.32-2.67a1,1,0,0,1,.08-.3,1,1,0,0,1,.14-.21,1,1,0,0,1,.13.22c.06.22.11.45.15.68.2,1.23.39,2.45.61,3.68a32.16,32.16,0,0,0,.82,3.32,28.76,28.76,0,0,1,.88,4.2,33.23,33.23,0,0,1,.24,5c0,1.05-.1,2.1-.23,3.14a33.88,33.88,0,0,1-1.1,5.37c-.26.9-.57,1.79-.85,2.69,0,.08-.05.17-.08.26h0l.07-.12c.22-.57.43-1.14.65-1.7a32.41,32.41,0,0,1,3.24-6.41,22.38,22.38,0,0,1,3.56-4.15A16,16,0,0,1,44,18.19c1.32-.84,2.59-1.76,3.83-2.71.68-.52,1.37-1,2.06-1.54l.26-.13,0,0a1,1,0,0,1-.1.17l-.76.93a11.55,11.55,0,0,0-1.43,2.39c-1,2.21-2,4.43-3,6.65a14.91,14.91,0,0,1-3.12,4.49,24.92,24.92,0,0,1-5.4,4l-1.51.86a1.59,1.59,0,0,0-.21.15l0,0a2.58,2.58,0,0,0,.26-.08l1.36-.66c1.54-.74,3.07-1.47,4.62-2.19A6.18,6.18,0,0,1,43,30a13,13,0,0,1,1.53,0c.58,0,1.16.09,1.75.1h4.13L52.21,30a4.19,4.19,0,0,1,.5,0s.09.06.14.08-.07.09-.12.11l-1,.32A25.49,25.49,0,0,0,46.09,33a11.27,11.27,0,0,1-3.64,1.27,21.82,21.82,0,0,1-4.91.34c-.91,0-1.83-.11-2.74-.16h-.34v0l.26.05a10.91,10.91,0,0,1,1.95.41,10.08,10.08,0,0,1,2.32,1,5.39,5.39,0,0,1,2,2,11.89,11.89,0,0,0,1.42,1.88c.11.13.21.27.31.41a1.24,1.24,0,0,1,.06.2,1.09,1.09,0,0,1-.25,0,13.52,13.52,0,0,0-2.5-.73,14.83,14.83,0,0,1-4.08-1.73A5.15,5.15,0,0,1,34,35.63a.26.26,0,0,0-.1-.14l.07,5c-.07-.06-.1-.07-.12-.1l-.65-.62a.34.34,0,0,1-.11-.25c0-1.33,0-2.66,0-4v-.07l-.05,0s0,.06,0,.08a8.61,8.61,0,0,1-3.18,2.84,14.56,14.56,0,0,1-3.19,1.18c-.47.12-.94.26-1.41.37s-.76.16-1.14.24l-.15,0s0-.11,0-.14.28-.33.42-.49c.36-.4.7-.82,1.08-1.2A13,13,0,0,1,29,35.67a11.4,11.4,0,0,1,2.8-.88l.52-.09Z"/><path class="cls-1" d="M22.08,46.46c0-1.13,0-2.2,0-2.78h0c-.23.78-1.39,3.61-2.12,5.42h-.44c-.55-1.4-1.76-4.55-2-5.43h0c0,.66.05,2,.05,3V49.1h-.44V43.36h.66c.79,2,1.79,4.54,2,5.19h0c.13-.42,1.28-3.28,2.08-5.19h.66V49.1h-.45Z"/><path class="cls-1" d="M26.7,48.32a4.1,4.1,0,0,0,.06.78h-.39a2.41,2.41,0,0,1-.08-.63,1.36,1.36,0,0,1-1.35.73A1.22,1.22,0,0,1,23.58,48c0-.9.7-1.31,1.93-1.31h.78v-.42c0-.41-.12-1-1.06-1s-.95.43-1,.77h-.41a1.28,1.28,0,0,1,1.46-1.15c.94,0,1.46.39,1.46,1.3ZM26.3,47h-.8c-.92,0-1.48.24-1.48.94a.85.85,0,0,0,.94.87c1.18,0,1.34-.78,1.34-1.66Z"/><path class="cls-1" d="M28.05,46.11V45h.4c0,.13,0,.39,0,.92a1.56,1.56,0,0,1,1.43-1v.44A1.49,1.49,0,0,0,28.46,47V49.1h-.41Z"/><path class="cls-1" d="M30.86,45c.83,2.34,1.19,3.31,1.33,3.76h0c.16-.5.49-1.46,1.29-3.76h.42l-1.54,4.34c-.43,1.21-.73,1.49-1.47,1.49a2.25,2.25,0,0,1-.38,0v-.41a2.31,2.31,0,0,0,.37,0c.59,0,.78-.29,1.09-1.14L30.41,45Z"/><path class="cls-1" d="M38.21,47.53c0,1.28-.57,1.65-1.33,1.65a1.93,1.93,0,0,1-.49,0v-.4a2.39,2.39,0,0,0,.51,0c.77,0,.87-.6.87-1.24V43.36h.44Z"/><path class="cls-1" d="M42.31,48.32a5.18,5.18,0,0,0,.06.78H42a2.41,2.41,0,0,1-.08-.63,1.35,1.35,0,0,1-1.34.73A1.23,1.23,0,0,1,39.19,48c0-.9.7-1.31,1.93-1.31h.78v-.42c0-.41-.12-1-1.06-1s-1,.43-1,.77h-.41a1.28,1.28,0,0,1,1.46-1.15c.94,0,1.46.39,1.46,1.3ZM41.91,47h-.8c-.91,0-1.48.24-1.48.94a.85.85,0,0,0,.94.87c1.18,0,1.34-.78,1.34-1.66Z"/><path class="cls-1" d="M43.67,46c0-.36,0-.7,0-1h.4c0,.13,0,.66,0,.78a1.33,1.33,0,0,1,1.36-.88c.73,0,1.38.41,1.38,1.54V49.1h-.41V46.51c0-.73-.31-1.21-1-1.21-1,0-1.31.81-1.31,1.71V49.1h-.41Z"/><path class="cls-1" d="M48.25,47.1c0,1.06.54,1.71,1.33,1.71A1.14,1.14,0,0,0,50.76,48h.42a1.57,1.57,0,0,1-1.61,1.16c-1.25,0-1.74-1.08-1.74-2.12s.59-2.18,1.78-2.18a1.69,1.69,0,0,1,1.67,1.86c0,.12,0,.23,0,.34Zm2.6-.36a1.29,1.29,0,0,0-1.25-1.46c-.85,0-1.23.6-1.32,1.46Z"/><path class="cls-1" d="M21.19,57.33A2.16,2.16,0,0,1,18.92,59c-1.71,0-2.57-1.3-2.57-2.91s.86-3,2.6-3a2.08,2.08,0,0,1,2.24,1.73h-.75a1.45,1.45,0,0,0-1.52-1.1c-1.26,0-1.78,1.15-1.78,2.3s.49,2.31,1.81,2.31a1.47,1.47,0,0,0,1.48-1.06Z"/><path class="cls-1" d="M25.23,58a7.73,7.73,0,0,0,.05.91H24.6a2,2,0,0,1-.07-.55,1.31,1.31,0,0,1-1.29.64,1.25,1.25,0,0,1-1.4-1.27c0-.93.73-1.35,2-1.35h.71v-.36c0-.36-.12-.81-.9-.81s-.81.34-.89.67H22c.05-.58.41-1.24,1.61-1.24,1,0,1.58.42,1.58,1.37Zm-.71-1.12h-.67c-.83,0-1.27.23-1.27.81a.73.73,0,0,0,.81.75c1,0,1.13-.67,1.13-1.43Z"/><path class="cls-1" d="M26.47,55.83c0-.36,0-.72,0-1h.7c0,.13,0,.56,0,.69a1.3,1.3,0,0,1,1.31-.79c.78,0,1.39.48,1.39,1.59V59h-.72V56.36c0-.63-.25-1-.88-1-.79,0-1.1.6-1.1,1.43V59h-.72Z"/><path class="cls-1" d="M31.11,55.83c0-.36,0-.72,0-1h.7c0,.13,0,.56,0,.69a1.32,1.32,0,0,1,1.31-.79c.78,0,1.39.48,1.39,1.59V59h-.72V56.36c0-.63-.24-1-.88-1s-1.1.6-1.1,1.43V59h-.72Z"/><path class="cls-1" d="M38.8,58a7.15,7.15,0,0,0,.06.91h-.69a2.62,2.62,0,0,1-.06-.55,1.31,1.31,0,0,1-1.29.64,1.25,1.25,0,0,1-1.4-1.27c0-.93.73-1.35,2-1.35h.71v-.36c0-.36-.12-.81-.9-.81s-.81.34-.89.67h-.69c.05-.58.41-1.24,1.6-1.24,1,0,1.58.42,1.58,1.37Zm-.7-1.12h-.67c-.83,0-1.28.23-1.28.81a.73.73,0,0,0,.81.75c1,0,1.14-.67,1.14-1.43Z"/><path class="cls-1" d="M40,52.92h.72v2.46a1.37,1.37,0,0,1,1.33-.7c1,0,1.7.86,1.7,2.1S43.16,59,42,59a1.21,1.21,0,0,1-1.22-.64c0,.21,0,.43,0,.55H40v-6Zm3,3.87c0-.89-.41-1.5-1.13-1.5-.88,0-1.19.6-1.19,1.59s.27,1.56,1.16,1.56C42.62,58.44,43.05,57.81,43.05,56.79Z"/><path class="cls-1" d="M44.75,52.92h.72v.9h-.72Zm0,1.86h.72V59h-.72Z"/><path class="cls-1" d="M47,57.75a1,1,0,0,0,1,.73c.62,0,.86-.27.86-.64s-.2-.57-1-.77c-1.19-.29-1.44-.65-1.44-1.21s.43-1.18,1.51-1.18a1.38,1.38,0,0,1,1.56,1.21h-.69a.83.83,0,0,0-.91-.65c-.58,0-.75.28-.75.56s.17.46.93.64c1.26.3,1.52.72,1.52,1.34S49,59,48,59s-1.61-.54-1.71-1.29Z"/></svg>