<svg id="Layer_1" data-name="Layer 1" xmlns="http://www.w3.org/2000/svg" width="3.6in" height="3.6in" viewBox="0 0 256 256"><title>256</title><path d="M140.3,205.7a29.2,29.2,0,0,1-16.4-5.2,37.6,37.6,0,0,1-12.6-14.6,44.6,44.6,0,0,1-4.8-20.8c0-10.2,3.9-19.4,11.6-27.8s19.2-16.6,34.4-24.7a78.5,78.5,0,0,1-1.2-10.7,53.4,53.4,0,0,1,5-22.7,58.7,58.7,0,0,1,13.2-18,65.5,65.5,0,0,1,17.2-11.5,42.9,42.9,0,0,1,17.4-4c6.3,0,11.5,1.5,15.4,4.6a14.4,14.4,0,0,1,5.8,11.9,31.2,31.2,0,0,1-4.9,17.3,58.5,58.5,0,0,1-12.7,13.7,222.7,222.7,0,0,1-18.9,13c-7.5,4.6-12,7.6-13.6,8.8a159.6,159.6,0,0,0,11.5,30.8,136.1,136.1,0,0,0,16.9-13.1c4-3.9,7.5-7.4,10.3-10.7s4.6-4.9,5.6-4.9,1.3.9,1.8,2.6a26.3,26.3,0,0,1,.7,5.8,35.2,35.2,0,0,1-2.7,13.7,56.8,56.8,0,0,1-7.4,12.9,126.2,126.2,0,0,1-12,13.7l7.9,8.6a23.1,23.1,0,0,0,2.6-2.7,19.9,19.9,0,0,1,2.4-2.5,2.8,2.8,0,0,1,1.8-.6,2,2,0,0,1,1.8.9,3.6,3.6,0,0,1,.7,2.2c0,3.3-2.3,8.7-6.9,16.4s-8.5,11.5-11.5,11.5a7.1,7.1,0,0,1-4.7-1.9,45.4,45.4,0,0,1-5.5-6.4c-2.1-2.9-3.9-5.3-5.2-7.3-9.2,7-17.3,12.4-24.4,16.1S145.5,205.7,140.3,205.7Zm16.1-77.5a108.4,108.4,0,0,0-15.7,13.2A78.1,78.1,0,0,0,129.8,155c-2.6,4.4-4,8.1-4,11.1,0,5.9,2.7,8.8,8,8.8s9.2-1.3,15.9-3.9a85,85,0,0,0,20.1-11.3C166.3,151.6,161.8,141.1,156.4,128.2Zm16.1-35.7v4.9C184,91,192.9,84.1,199.2,77s9.5-12.9,9.5-17.1-1.8-5.4-5.4-5.4-7.4,2-12.4,5.8A53.7,53.7,0,0,0,178,74.9,32.4,32.4,0,0,0,172.5,92.5Z" fill="#f4ef45"/><path d="M37,139.2v17.9H49.3v7.2H37v25.4H28.5V132.6H51.1v6.6Z" fill="#701647"/><path d="M55.3,189.7V132.6h7.9v57.1Z" fill="#701647"/><path d="M80.7,190.5c-9,0-13.1-6.2-13.1-21S71.4,147,80.7,147s13.1,7.5,13.1,22.5S89.6,190.5,80.7,190.5Zm0-37.8c-4.2,0-5.1,4.1-5.1,16.6s.9,15.4,5.1,15.4,5.1-3,5.1-15.4S84.8,152.7,80.7,152.7Z" fill="#701647"/><path d="M119.7,165.3l-7.1.9a35.7,35.7,0,0,0,1-7.1c0-3-.4-4.9-2.7-4.9s-4.8,3.8-4.8,10.6v24.9H98.2V147.9H106v7.3c1.1-4.3,3.4-7.9,7.3-7.9s7.6,3.3,7.6,9.6A32.8,32.8,0,0,1,119.7,165.3Z" fill="#701647"/><path d="M145.2,190.4c-3,0-4.7-1.8-5.2-4.8-1.9,3.6-4.5,4.9-8.2,4.9-6.3,0-9.5-3.3-9.5-12.5,0-7,3.6-10.7,8.4-12l2.5-.8c4.1-1.1,6.1-2.4,6.1-6.6s-.4-6.5-4.3-6.5-4.2,1.9-4.2,5.4a16.7,16.7,0,0,0,.5,3.9l-6.9.4a14.6,14.6,0,0,1-.8-4.9c0-6.4,3.8-9.9,11.9-9.9s11.3,3.2,11.3,9.5v25.8c0,1.8.6,2.9,3,2.9l1.4-.2v3.9A13.5,13.5,0,0,1,145.2,190.4Zm-9.7-20c-3.7,1.7-5.3,3.3-5.3,8.1s.8,6.8,4.2,6.6,4.6-2.8,4.7-7.6.2-9.5.2-9.5A14.5,14.5,0,0,1,135.5,170.4Z" fill="#701647"/><path d="M176,182.9h19.1v6.8H168v-8l19.3-42.5H169.7v-6.6h25.6v7.9Z" fill="#701647"/><path d="M199.9,142.9v-9h7.9v9Zm0,46.8V147.9h7.9v41.8Z" fill="#701647"/><path d="M227.9,190.4c-3.8,0-5.4-2.3-6.9-4.6v16.5h-7.7V147.9H221v5.6c1.3-4,3.8-6.2,7.8-6.2,5.8,0,10.7,4,10.7,21.6S235.2,190.4,227.9,190.4Zm-1.7-37.2c-3.2,0-5.4,4.2-5.4,15.8s1.8,15.7,5.4,15.7,5.3-1.3,5.3-15.7S229.8,153.2,226.2,153.2Z" fill="#701647"/></svg>