<svg height="256" viewBox="0 0 256 256" width="256" xmlns="http://www.w3.org/2000/svg"><path d="m121.2 249.8-107.6-54.7a16 16 0 0 1 -8.7-14.2v-105.8a16 16 0 0 1 8.7-14.2l107.6-54.7a15.9 15.9 0 0 1 14.4 0l107.6 54.7a16 16 0 0 1 8.7 14.2v105.8a16 16 0 0 1 -8.7 14.2l-107.6 54.7a15.9 15.9 0 0 1 -14.4 0z" fill="#231f20" stroke="#231f20" stroke-miterlimit="10" stroke-width="3.95"/><path d="m27.3 178.3v-90.6l.1-.1 89 45.4v90.5z" fill="#ee3125"/><path d="m128.2 121.2h.1zm-88-54.2 89-45.2h.2l89.1 45.2-89.3 45.4z" fill="#fee600"/><path d="m142 223.5v-90.5l89.3-45.4.1.1v90.6l-.3.2-88.9 45.1z" fill="#1265a2"/></svg>