<?xml version="1.0" encoding="utf-8"?>
<!-- Generator: Adobe Illustrator 23.0.1, SVG Export Plug-In . SVG Version: 6.00 Build 0)  -->
<svg version="1.1" id="Layer_1" xmlns="http://www.w3.org/2000/svg" xmlns:xlink="http://www.w3.org/1999/xlink" x="0px" y="0px"
	 viewBox="0 0 32 32" style="enable-background:new 0 0 32 32;" xml:space="preserve">
<style type="text/css">
	.st0{enable-background:new    ;}
	.st1{fill:#010101;}
</style>
<g class="st0">
	<path class="st1" d="M1.5,18.3V6.8c0-0.3,0.1-0.5,0.4-0.6C2.1,6.1,2.4,6,2.8,6c0.4,0,0.7,0.1,0.9,0.2c0.2,0.1,0.4,0.3,0.4,0.6v11.5
		c0,1,0.3,1.8,0.8,2.3c0.5,0.5,1.2,0.8,2.2,0.8c2,0,3-1,3-3.1V6.8c0-0.3,0.1-0.5,0.4-0.6C10.6,6.1,10.9,6,11.2,6
		c0.4,0,0.7,0.1,0.9,0.2c0.2,0.1,0.4,0.3,0.4,0.6v11.5c0,1.8-0.5,3.2-1.5,4.1c-1,0.9-2.3,1.3-4,1.3c-1.6,0-3-0.4-4-1.3
		C2,21.5,1.5,20.2,1.5,18.3z"/>
	<path class="st1" d="M20.2,18.3v-7c0-1.8,0.5-3.2,1.5-4.1C22.7,6.4,24,6,25.6,6c1.6,0,2.9,0.4,4,1.2S31,9.1,31,10.3
		c0,0.5-0.1,0.9-0.3,1c-0.2,0.2-0.5,0.3-1,0.3c-0.8,0-1.3-0.3-1.3-0.8c-0.1-1.7-1-2.6-2.8-2.6c-1.9,0-2.9,1-2.9,3.1v7
		c0,2.1,1,3.1,2.9,3.1c0.6,0,1.1-0.1,1.4-0.3c0.4-0.2,0.7-0.4,0.8-0.7c0.2-0.3,0.3-0.6,0.3-0.8c0.1-0.2,0.1-0.5,0.1-0.9
		c0-0.6,0.5-0.8,1.2-0.8c0.5,0,0.8,0.1,1,0.3c0.2,0.2,0.3,0.5,0.3,1c0,1.3-0.5,2.4-1.5,3.2c-1,0.8-2.3,1.2-4,1.2
		c-1.6,0-2.9-0.4-3.8-1.3C20.7,21.5,20.2,20.2,20.2,18.3z"/>
</g>
<circle class="st1" cx="16.2" cy="16" r="1.2"/>
</svg>
