<svg height="16" viewBox="0 0 16 16" width="16" xmlns="http://www.w3.org/2000/svg"><path d="m7.6 16-6.7-3.5a1 1 0 0 1 -.6-.9v-6.8a1 1 0 0 1 .6-.9l6.7-3.5a.8.8 0 0 1 .9 0l6.7 3.5a1.1 1.1 0 0 1 .5.9v6.8a1.1 1.1 0 0 1 -.5.9l-6.7 3.5a1.4 1.4 0 0 1 -.9 0z" fill="#231f20" stroke="#231f20" stroke-miterlimit="10" stroke-width=".25"/><path d="m1.7 11.4v-5.8l5.6 2.9v5.8z" fill="#ee3125"/><path d="m2.5 4.3 5.6-2.9 5.6 2.9-5.6 2.9z" fill="#fee600"/><path d="m8.9 14.3v-5.8l5.6-2.9v5.8h-.1z" fill="#1265a2"/></svg>