<?xml version="1.0" encoding="utf-8"?>
<!-- Generator: Adobe Illustrator 23.0.1, SVG Export Plug-In . SVG Version: 6.00 Build 0)  -->
<svg version="1.1" id="Layer_1" xmlns="http://www.w3.org/2000/svg" xmlns:xlink="http://www.w3.org/1999/xlink" x="0px" y="0px"
	 viewBox="0 0 196 196" style="enable-background:new 0 0 196 196;" xml:space="preserve">
<style type="text/css">
	.st0{font-family:'AvenirNextCondensed-DemiBold';}
	.st1{font-size:20px;}
	.st2{letter-spacing:10;}
	.st3{fill:none;stroke:#000000;stroke-width:4;stroke-miterlimit:10;}
	.st4{font-family:'Dosis-SemiBold';}
	.st5{font-size:57px;}
	.st6{stroke:#000000;stroke-width:2;stroke-miterlimit:10;}
	
		.st7{fill:none;stroke:#000000;stroke-width:4.2934;stroke-linecap:round;stroke-linejoin:round;stroke-miterlimit:6;stroke-dasharray:0.2147,30.0537;}
</style>
<text transform="matrix(1 0 0 1 22.8853 87.4244)" class="st0 st1 st2">CRYSTALS</text>
<g>
	<path class="st3" d="M193.6,99.2c0,52.6-42.6,95.1-95.1,95.1c-51,0-92.6-40.1-95.1-90.5l22.4-4.7l1,29.2l18.2-2.1l37.9-19.5
		l14.3-2.8l23.1,0.2l-8.9,24.8l-7.9,4.5l-16.5,10.9l39.4-14.6l29.3,7.1l25.2-50.2L193.6,99.2z"/>
	<path class="st3" d="M25.8,99.2l19.1,27.2"/>
	<path class="st3" d="M82.9,106.8l13.4,10l24.1-12.8"/>
	<path class="st3" d="M103.5,133.5l-7.3-16.6l15.2,12.1"/>
	<path class="st3" d="M178.3,121.8l2.5-35.2"/>
</g>
<text transform="matrix(1 0 0 1 6.4109 66.8019)" class="st4 st5">UNIFIED</text>
<path class="st3" d="M193.6,99.2l-15.2,22.2l-22.8,15.5c0,0-28.1,10.9-29.3,11.4c-1.2,0.4,0-18.5,0-18.5"/>
<path class="st6" d="M99.7,114.9c-1.5,1.4-3,2.6-4.6,3.8c-1.7,0.9-3.4,1.9-5.2,2.9l-10.3,5.8l-10.3,5.8l-5.2,2.9
	c-1.9,0.7-3.7,1.4-5.7,2c1.5-1.3,3-2.6,4.6-3.8l5.2-2.9l10.3-5.8l10.3-5.8c1.7-1,3.4-1.9,5.2-2.9C95.9,116.2,97.8,115.5,99.7,114.9
	L99.7,114.9z"/>
<path class="st7" d="M5,86.7c-0.6,4.2-0.9,8.5-0.9,12.8c0,2.2,0.1,4.4,0.2,6.6"/>
<path class="st7" d="M192,84.8c0-0.1,0-0.1,0-0.2"/>
<circle cx="5" cy="85.7" r="3.6"/>
<circle cx="53.9" cy="14.3" r="3.6"/>
<circle cx="82.2" cy="4.7" r="3.6"/>
<circle cx="112.4" cy="4.7" r="3.6"/>
<circle cx="141.3" cy="13.6" r="3.6"/>
<circle cx="191.9" cy="83.8" r="3.6"/>
</svg>
