<svg id="Layer_1" data-name="Layer 1" xmlns="http://www.w3.org/2000/svg" width="0.4in" height="0.4in" viewBox="0 0 32 32"><title>32</title><path d="M17.7,24.6a3.8,3.8,0,0,1-2.2-.7A6,6,0,0,1,13.9,22a6.8,6.8,0,0,1-.7-2.8,5.6,5.6,0,0,1,1.6-3.7,15.3,15.3,0,0,1,4.5-3.2,9.5,9.5,0,0,1-.1-1.4,7.3,7.3,0,0,1,.6-3,7.6,7.6,0,0,1,1.8-2.4A6.2,6.2,0,0,1,23.8,4a5.3,5.3,0,0,1,2.3-.6,3.3,3.3,0,0,1,2.1.6,2.1,2.1,0,0,1,.7,1.6,4.4,4.4,0,0,1-.6,2.3,5.8,5.8,0,0,1-1.7,1.8l-2.5,1.7-1.8,1.2a41.4,41.4,0,0,0,1.5,4.1l2.3-1.8a8.3,8.3,0,0,0,1.3-1.4c.4-.4.6-.6.8-.6s.1.1.2.3a2.2,2.2,0,0,1,.1.8,5.7,5.7,0,0,1-.3,1.8l-1,1.7-1.6,1.8,1,1.1.4-.3q.2-.3.3-.3h.5c0,.1.1.2.1.3a7.1,7.1,0,0,1-1,2.2q-.9,1.5-1.5,1.5a.9.9,0,0,1-.6-.3l-.7-.8-.7-1a28.5,28.5,0,0,1-3.2,2.1A5.9,5.9,0,0,1,17.7,24.6Zm2.1-10.3-2,1.8a11.9,11.9,0,0,0-1.5,1.8,3.9,3.9,0,0,0-.5,1.4c0,.8.4,1.2,1.1,1.2A7.6,7.6,0,0,0,19,20a10.1,10.1,0,0,0,2.6-1.5C21.1,17.4,20.6,16,19.8,14.3ZM22,9.6v.7a15.2,15.2,0,0,0,3.5-2.7,4.2,4.2,0,0,0,1.2-2.3c0-.5-.2-.7-.7-.7a3.3,3.3,0,0,0-1.6.8,6.3,6.3,0,0,0-1.7,1.9A4.1,4.1,0,0,0,22,9.6Z" fill="#f4ef45"/><path d="M4.1,15.8v2.4H5.7v.9H4.1v3.4H2.9V14.9h3v.9Z" fill="#701647"/><path d="M6.5,22.5V14.9h1v7.6Z" fill="#701647"/><path d="M9.8,22.6c-1.1,0-1.7-.9-1.7-2.8s.5-3,1.7-3,1.8,1,1.8,3S11,22.6,9.8,22.6Zm0-5c-.5,0-.6.5-.6,2.2s.1,2,.6,2,.7-.4.7-2S10.4,17.6,9.8,17.6Z" fill="#701647"/><path d="M15,19.2l-.9.2c0-.2.1-.7.1-1s-.1-.6-.4-.6-.6.5-.6,1.4v3.3h-1V16.9h1v1c.1-.6.4-1,.9-1s1,.4,1,1.2A3.7,3.7,0,0,1,15,19.2Z" fill="#701647"/><path d="M18.4,22.6a.7.7,0,0,1-.7-.7,1.2,1.2,0,0,1-1.1.7c-.8,0-1.3-.5-1.3-1.7a1.6,1.6,0,0,1,1.1-1.6h.4c.5-.1.8-.3.8-.8s-.1-.9-.6-.9-.5.2-.5.7v.5h-.9c0-.2-.1-.4-.1-.7s.5-1.3,1.6-1.3,1.5.4,1.5,1.3v3.4c0,.2,0,.4.4.4h.1v.6Zm-1.3-2.7a1,1,0,0,0-.7,1.1c0,.6.1.9.5.9s.6-.4.7-1V19.6Z" fill="#701647"/><path d="M22.4,21.6H25v.9H21.4V21.4l2.5-5.6H21.6v-.9H25V16Z" fill="#701647"/><path d="M25.6,16.3V15.1h1v1.2Zm0,6.2V16.9h1v5.6Z" fill="#701647"/><path d="M29.3,22.6c-.5,0-.7-.3-.9-.7v2.2H27.3V16.9h1.1v.8a1,1,0,0,1,1-.8c.8,0,1.4.5,1.4,2.8S30.2,22.6,29.3,22.6Zm-.2-5c-.5,0-.7.6-.7,2.1s.2,2.1.7,2.1.7-.2.7-2.1S29.5,17.6,29.1,17.6Z" fill="#701647"/></svg>