<svg id="Layer_1" data-name="Layer 1" xmlns="http://www.w3.org/2000/svg" width="32" height="32" viewBox="0 0 32 32"><title>logo-32</title><path d="M15.1,31.5,1.7,24.6A2.1,2.1,0,0,1,.6,22.8V9.2A1.9,1.9,0,0,1,1.7,7.4L15.1.4A2.1,2.1,0,0,1,17,.4l13.4,7a2.1,2.1,0,0,1,1.1,1.8V22.8a2.3,2.3,0,0,1-1.1,1.8L17,31.5A2.1,2.1,0,0,1,15.1,31.5Z" fill="#231f20" stroke="#231f20" stroke-miterlimit="10" stroke-width="0.5"/><polygon points="3.4 22.4 3.4 10.8 3.4 10.8 14.5 16.6 14.5 28.2 3.4 22.4" fill="#ee3125"/><polygon points="16 15.1 16 15.1 16 15.1 16 15.1" fill="#fee600"/><polygon points="5 8.2 16.1 2.4 16.2 2.4 27.3 8.2 16.1 14 16.1 14 5 8.2" fill="#fee600"/><polygon points="17.7 28.2 17.7 16.6 17.7 16.6 28.9 10.8 28.9 10.8 28.9 22.4 28.9 22.4 17.8 28.2 17.7 28.2" fill="#1265a2"/></svg>