<svg id="Layer_1" data-name="Layer 1" xmlns="http://www.w3.org/2000/svg" width="0.2in" height="0.2in" viewBox="0 0 16 16"><title>16</title><path d="M8.4,11.6a2.3,2.3,0,0,1-1.1-.3,3.9,3.9,0,0,1-.8-1,2.3,2.3,0,0,1-.4-1.4A2.9,2.9,0,0,1,6.9,7,12.4,12.4,0,0,1,9.2,5.3V4.6a4,4,0,0,1,.3-1.5,2.7,2.7,0,0,1,.9-1.2,3.2,3.2,0,0,1,1.2-.8A2.3,2.3,0,0,1,12.7.8a1.8,1.8,0,0,1,1.1.3,1.2,1.2,0,0,1,.4.8,2.1,2.1,0,0,1-.4,1.2A2.4,2.4,0,0,1,13,4l-1.3.9-.9.6a6,6,0,0,0,.8,2.1l1.1-.9.7-.7.4-.3h.1v.4a2.5,2.5,0,0,1-.1.9,4.7,4.7,0,0,1-.6.9,3.2,3.2,0,0,1-.8.9l.6.6V9.3h.5a2.5,2.5,0,0,1-.5,1.1c-.3.6-.5.8-.7.8H12l-.3-.4-.4-.5L9.7,11.3ZM9.5,6.4l-1.1.9-.7.9a1.6,1.6,0,0,0-.3.8.5.5,0,0,0,.6.6l1-.3a3.9,3.9,0,0,0,1.4-.8ZM10.6,4v.3a5.4,5.4,0,0,0,1.8-1.4A1.7,1.7,0,0,0,13,1.8c0-.3-.1-.4-.3-.4l-.9.4a3.9,3.9,0,0,0-.8,1A1.9,1.9,0,0,0,10.6,4Z" fill="#f4ef45"/><path d="M1.4,7.1V8.4h.9v.4H1.4v1.8H.9V6.7H2.4v.4Z" fill="#701647"/><path d="M2.7,10.6V6.7h.5v3.9Z" fill="#701647"/><path d="M4.4,10.6c-.6,0-.9-.4-.9-1.4s.3-1.5.9-1.5.9.5.9,1.5S5,10.6,4.4,10.6Zm0-2.5c-.3,0-.4.2-.4,1.1s.1,1,.4,1,.3-.2.3-1S4.7,8.1,4.4,8.1Z" fill="#701647"/><path d="M7,8.9H6.5c.1-.1.1-.4.1-.5s0-.3-.2-.3-.3.2-.3.7v1.7H5.6V7.7h.5v.5c.1-.3.2-.5.5-.5s.5.2.5.6A1.3,1.3,0,0,1,7,8.9Z" fill="#701647"/><path d="M8.7,10.6a.3.3,0,0,1-.3-.3.6.6,0,0,1-.6.3c-.4,0-.6-.2-.6-.8s.2-.8.6-.8h.1c.3-.1.4-.2.4-.4s0-.5-.2-.5-.3.1-.3.4v.2H7.3V8.3c0-.4.2-.6.8-.6s.8.2.8.6v1.8h.2v.3ZM8.1,9.3c-.3.1-.4.2-.4.5s.1.5.3.4.3-.1.3-.5V9.1Z" fill="#701647"/><path d="M10.8,10.1h1.3v.5H10.3V10l1.3-2.9H10.4V6.7h1.7v.5Z" fill="#701647"/><path d="M12.4,7.4V6.8H13v.6Zm0,3.2V7.7H13v2.9Z" fill="#701647"/><path d="M14.3,10.6c-.2,0-.3-.1-.4-.3v1.1h-.6V7.7h.6v.4c.1-.3.2-.4.5-.4s.7.3.7,1.4S14.8,10.6,14.3,10.6Zm-.1-2.5c-.2,0-.3.3-.3,1.1s.1,1,.3,1,.4-.1.4-1S14.5,8.1,14.2,8.1Z" fill="#701647"/></svg>