<svg xmlns="http://www.w3.org/2000/svg" id="Layer_1" viewBox="0 0 32 32" width="32" height="32"><style>.st0{fill:#231f20;stroke:#231f20;stroke-width:.5;stroke-miterlimit:10}.st1{fill:#ee3125}.st2{fill:#fee600}.st3{fill:#1265a2}</style><path d="M15.1 31.5L1.7 24.6c-.7-.4-1.1-1-1.1-1.8V9.2c0-.8.4-1.5 1.1-1.8l13.4-7c.6-.3 1.3-.3 1.9 0l13.4 7c.7.4 1.1 1 1.1 1.8v13.6c-.1.7-.5 1.4-1.1 1.8L17 31.5c-.6.3-1.3.3-1.9 0z" class="st0"/><path d="M3.4 22.4V10.8l11.1 5.8v11.6L3.4 22.4z" class="st1"/><path d="M5 8.2l11.1-5.8h.1l11.1 5.8L16.1 14 5 8.2z" class="st2"/><path d="M17.7 28.2V16.6l11.2-5.8v11.6l-11.1 5.8h-.1z" class="st3"/></svg>