<svg id="Layer_1" data-name="Layer 1" xmlns="http://www.w3.org/2000/svg" width="0.4in" height="0.4in" viewBox="0 0 32 32"><title>32</title><rect x="0.8" y="0.7" width="30.6" height="30.6" transform="translate(32.2 32) rotate(180)" fill="#701647"/><path d="M12.6,26.3a4.2,4.2,0,0,1-2.1-.6,4.9,4.9,0,0,1-1.6-1.9,5,5,0,0,1-.7-2.7,5.3,5.3,0,0,1,1.5-3.6,17.4,17.4,0,0,1,4.5-3.2,11.5,11.5,0,0,1-.2-1.4,5.9,5.9,0,0,1,.7-2.9,6.6,6.6,0,0,1,1.7-2.3,6.2,6.2,0,0,1,2.2-1.5,4.7,4.7,0,0,1,2.2-.5,3,3,0,0,1,2,.6,1.9,1.9,0,0,1,.8,1.5,3.4,3.4,0,0,1-.7,2.2,5.5,5.5,0,0,1-1.6,1.8l-2.4,1.7-1.8,1.1a18,18,0,0,0,1.5,4,15.4,15.4,0,0,0,2.2-1.7l1.3-1.4.7-.6.3.3c0,.3.1.5.1.8a4.7,4.7,0,0,1-.4,1.7,5.6,5.6,0,0,1-.9,1.7l-1.6,1.8,1,1.1.4-.4.3-.3h.2a.2.2,0,0,1,.2.2c.1,0,.1.1.1.2a5,5,0,0,1-.9,2.2q-.9,1.5-1.5,1.5a.9.9,0,0,1-.6-.3l-.7-.8c-.2-.4-.5-.7-.6-1A28.5,28.5,0,0,1,15,25.6,4.9,4.9,0,0,1,12.6,26.3Zm2.1-10a8.5,8.5,0,0,0-2,1.7,7.3,7.3,0,0,0-1.4,1.8,2.7,2.7,0,0,0-.6,1.4c0,.8.4,1.2,1.1,1.2a6.4,6.4,0,0,0,2-.5,13.5,13.5,0,0,0,2.6-1.5C16,19.3,15.4,18,14.7,16.3Zm2.1-4.6v.6a12.1,12.1,0,0,0,3.4-2.6,4,4,0,0,0,1.2-2.2c0-.5-.2-.7-.6-.7a3.2,3.2,0,0,0-1.7.8,6.9,6.9,0,0,0-1.6,1.8A4.1,4.1,0,0,0,16.8,11.7Z" fill="#f4ef45"/></svg>