<svg id="Layer_1" data-name="Layer 1" xmlns="http://www.w3.org/2000/svg" viewBox="0 0 32 32"><defs><style>.cls-1{fill:#fff;}</style></defs><title>32px x 32px</title><circle cx="16" cy="16" r="15.41"/><circle class="cls-1" cx="16" cy="16" r="5.6"/><circle cx="16" cy="16" r="2.04"/><path class="cls-1" d="M10.23,7,9.45,5.58s0-1,.57-1.22a16.28,16.28,0,0,1,4.43-1.25c1.69-.11,2,.08,2,.08a.55.55,0,0,1,.06.52c-.1.32-.17,4.69-.17,4.69s-2.79,0-3.52.63-1.63-.34-1.63-.34Z"/><path class="cls-1" d="M6.88,6.67s.72-.79,1.41-.16A29.35,29.35,0,0,1,10.7,9.58s.25.72,0,.93-1.06,0-1.06,0L7,8.09A1.68,1.68,0,0,1,6.88,6.67Z"/><path class="cls-1" d="M22.26,25.46,23,26.9s0,1-.56,1.21A16.32,16.32,0,0,1,18,29.37c-1.69.11-2-.08-2-.08a.56.56,0,0,1-.07-.52c.1-.32.17-4.7.17-4.7s2.79,0,3.52-.62,1.63.34,1.63.34Z"/><path class="cls-1" d="M25.61,25.81s-.72.79-1.41.16a31.54,31.54,0,0,1-2.4-3.07s-.26-.72,0-.93,1.05,0,1.05,0l2.64,2.41A1.71,1.71,0,0,1,25.61,25.81Z"/></svg>