<?xml version="1.0" encoding="utf-8"?>
<!-- Generator: Adobe Illustrator 23.0.1, SVG Export Plug-In . SVG Version: 6.00 Build 0)  -->
<svg version="1.1" id="Layer_1" xmlns="http://www.w3.org/2000/svg" xmlns:xlink="http://www.w3.org/1999/xlink" x="0px" y="0px"
	 viewBox="0 0 64 64" style="enable-background:new 0 0 64 64;" xml:space="preserve">
<style type="text/css">
	
		.st0{fill:none;stroke:#010101;stroke-width:1.4027;stroke-linecap:round;stroke-linejoin:round;stroke-miterlimit:6;stroke-dasharray:7.014076e-02,9.8022;}
	.st1{fill:none;stroke:#010101;stroke-width:0.7014;stroke-miterlimit:10;}
	.st2{fill:#010101;}
	.st3{fill:none;stroke:#010101;stroke-width:1.2941;stroke-miterlimit:10;}
	.st4{fill:#010101;stroke:#010101;stroke-width:0.647;stroke-miterlimit:10;}
	
		.st5{fill:none;stroke:#010101;stroke-width:1.389;stroke-linecap:round;stroke-linejoin:round;stroke-miterlimit:6;stroke-dasharray:6.945070e-02,9.7231;}
	.st6{font-family:'Dosis-SemiBold';}
	.st7{font-size:25px;}
</style>
<path class="st0" d="M32.3,1.1"/>
<path class="st0" d="M62.9,27.7"/>
<path class="st1" d="M63.4,31.8l-5,7.3L51,44.1c0,0-9.2,3.6-9.6,3.7c-0.4,0.1,0-6,0-6"/>
<path class="st2" d="M32.7,37c-0.5,0.4-1,0.8-1.5,1.2c-0.6,0.3-1.1,0.6-1.7,0.9L26.2,41l-3.4,1.9l-1.7,0.9c-0.6,0.2-1.2,0.4-1.9,0.6
	c0.5-0.4,1-0.8,1.5-1.2l1.7-0.9l3.4-1.9l3.4-1.9c0.6-0.3,1.1-0.6,1.7-1C31.5,37.4,32.1,37.1,32.7,37L32.7,37z"/>
<g>
	<path class="st3" d="M62.8,32.1c0,17-13.8,30.8-30.8,30.8c-16.5,0-30-13-30.8-29.3l7.3-1.5l0.3,9.5l5.9-0.7l12.3-6.3l4.6-0.9
		l7.5,0.1l-2.9,8l-2.6,1.5l-5.3,3.5L41,41.9l9.5,2.3L58.6,28L62.8,32.1z"/>
	<path class="st3" d="M8.5,32.1l6.2,8.8"/>
	<path class="st3" d="M26.9,34.6l4.3,3.3l7.8-4.1"/>
	<path class="st3" d="M33.6,43.2l-2.3-5.4l4.9,3.9"/>
	<path class="st3" d="M57.8,39.4L58.6,28"/>
</g>
<path class="st3" d="M62.8,32.1l-4.9,7.2l-7.4,5c0,0-9.1,3.5-9.5,3.7s0-6,0-6"/>
<path class="st4" d="M32.4,37.2c-0.5,0.4-1,0.8-1.5,1.2c-0.6,0.3-1.1,0.6-1.7,0.9l-3.3,1.9l-3.3,1.9L20.9,44
	c-0.6,0.2-1.2,0.4-1.8,0.6c0.5-0.4,1-0.8,1.5-1.2l1.7-0.9l3.3-1.9l3.3-1.9c0.6-0.3,1.1-0.6,1.7-0.9C31.2,37.6,31.8,37.3,32.4,37.2
	L32.4,37.2z"/>
<path class="st5" d="M1.8,28c-0.2,1.3-0.3,2.7-0.3,4.1c0,0.7,0,1.4,0.1,2.1"/>
<path class="st5" d="M62.3,27.4C62.3,27.4,62.3,27.4,62.3,27.4"/>
<circle class="st2" cx="1.8" cy="27.7" r="1.2"/>
<circle class="st2" cx="4.3" cy="18.6" r="1.2"/>
<circle class="st2" cx="9.9" cy="10.6" r="1.2"/>
<circle class="st2" cx="17.6" cy="4.6" r="1.2"/>
<circle class="st2" cx="26.7" cy="1.5" r="1.2"/>
<circle class="st2" cx="36.5" cy="1.5" r="1.2"/>
<circle class="st2" cx="45.8" cy="4.4" r="1.2"/>
<circle class="st2" cx="53.7" cy="10.1" r="1.2"/>
<circle class="st2" cx="59.4" cy="18" r="1.2"/>
<circle class="st2" cx="62.2" cy="27.1" r="1.2"/>
<text transform="matrix(1 0 0 1 15.0551 31.9996)" class="st2 st6 st7">U C</text>
<circle class="st2" cx="32" cy="29.7" r="1.2"/>
</svg>
