<svg xmlns="http://www.w3.org/2000/svg" width="256" height="256" viewBox="0 0 256 256"><circle cx="81.7" cy="110.3" r="9.5" fill="#372862" transform="rotate(-66.4 81.762 110.359)"/><circle cx="116" cy="86.5" r="9.5" fill="#372862" transform="rotate(-34.7 116.132 86.521)"/><path fill="#372862" d="M208.1 107.5A28.2 28.2 0 0 1 188 72.6a5.2 5.2 0 0 0-3.5-6.2 5.1 5.1 0 0 0-6.2 3.6c-5.5 21 6.5 41.6 27.2 47.1a28.2 28.2 0 0 1 20.1 34.9 29.4 29.4 0 0 1-8.2 13.7 121.8 121.8 0 0 0-12.5-21.7c-15.4-22.2-59.6-37-62.2-39 2-5.2 3.8-15.1-3.9-26.2-5.9-8.6-16.5-11-16.5-11 .4-11.2-16.3-21.9-16.3-21.9-11 7.6-12 29.5-12 29.5l-7.5 5.2-7.5 5.2s-20.8-6.8-31.9.9c0 0 4.2 19.4 14.8 23 0 0-1.4 10.7 4.5 19.2 7.6 11.1 17.4 12.9 23 12.9 0 0-1.6 49.9 14.1 72.5s24.6 25.7 24.6 25.7c4.5 1.9 16.2-2.9 29.9-10.5a16.2 16.2 0 0 0 19.2-11.9l2.5-1.6 3.3-2.4a15.5 15.5 0 0 0 11-2.8 15.9 15.9 0 0 0 6.9-11.2c11.4-9.7 19.5-18.7 19.4-23.4a38.7 38.7 0 0 0 15-21.6c5.5-21-6.5-41.7-27.2-47.1zm-98.6-30.3a11.4 11.4 0 1 1-2.9 15.9 11.5 11.5 0 0 1 2.9-15.9zM75.2 101a11.4 11.4 0 1 1-2.9 15.9 11.5 11.5 0 0 1 2.9-15.9z"/><path fill="#fff" d="M166.2 102.3s-2.3-29.7-19.7-54.9C124 15 83 9.5 52.1 31s-40.2 61.7-17.8 94.1c17.5 25.2 43.3 38.7 43.3 38.7l-1.2.8c-5 3.4.3 14.1 7.7 11.1s25.8-13.9 46.8-28.4 37.6-28 43-33.9-2.8-14.5-7.7-11.1zm-9.2-11c-.6 6.8-18.4 22.7-37.9 36.4s-40.8 24.5-47.4 22.6c-13.1-3.7-40.1-41.9-39-56.2.6-7.2 18.5-22.9 38-36.3S111.1 33 118 35c13.8 4 40 42.7 39 56.3z"/><path fill="none" stroke="#0b9cdf" stroke-miterlimit="10" stroke-width="2.5" d="M119.1 127.7c19.5-13.7 37.3-29.6 37.9-36.4 1-13.6-25.2-52.3-39-56.3-6.9-2-27.9 9.3-47.3 22.8s-37.4 29.1-38 36.3c-1.1 14.3 25.9 52.5 39 56.2 6.6 1.9 27.8-9.2 47.4-22.6"/><path fill="#0b9cdf" d="M168.4 99.1c-1.1-8.4-5.3-32.1-19.9-53.1-22.6-32.7-64.7-40.1-97.8-17.1S9.6 93.8 32.3 126.5c14.1 20.5 33.4 33.2 41 37.7-1.7 2.4-1.8 6-.1 9.2 2.9 5.3 8.1 6.1 11.8 4.6 8.4-3.4 27.9-15.2 47.3-28.6h.1c19.3-13.4 37.2-27.5 43.3-34.2a9.8 9.8 0 0 0-7.3-16zm-132 24.6C15.4 93.3 22.7 54.4 53.5 33s69.9-14.5 90.9 15.8c15.7 22.7 18.9 49.5 19.3 53.3a39.6 39.6 0 0 1-6.5 6.2c-8.2 6.6-20.7 16.6-35 26.5s-28 18.1-37.1 23.5a25.3 25.3 0 0 1-6.7 3c-3.3-1.8-26.3-15-42-37.6zm135.7-11.9c-5.1 5.4-21.3 18.7-42.6 33.5S90 170.6 83.1 173.4c-3.3 1.3-5.1-1.7-5.5-2.3s-1-3.6.2-4.4l1.2-.8 3.6-2.3c1.3-.7 2.7-1.5 4.2-2.5 9.2-5.4 22.9-13.5 37.3-23.5s26.9-20 35.2-26.7q3.3-2.6 5.4-4.5l2.9-2c1.3-.8 3.1.1 4.2 1.4s2.7 3.3.3 6z"/></svg>