<?xml version="1.0" encoding="utf-8"?>
<!-- Generator: Adobe Illustrator 23.0.1, SVG Export Plug-In . SVG Version: 6.00 Build 0)  -->
<svg version="1.1" id="Layer_1" xmlns="http://www.w3.org/2000/svg" xmlns:xlink="http://www.w3.org/1999/xlink" x="0px" y="0px"
	 viewBox="0 0 16 16" style="enable-background:new 0 0 16 16;" xml:space="preserve">
<style type="text/css">
	
		.st0{fill:none;stroke:#010101;stroke-width:0.3447;stroke-linecap:round;stroke-linejoin:round;stroke-miterlimit:6;stroke-dasharray:1.723444e-02,2.4085;}
	.st1{fill:none;stroke:#010101;stroke-width:0.1723;stroke-miterlimit:10;}
	.st2{fill:#010101;}
	.st3{fill:none;stroke:#010101;stroke-width:0.318;stroke-miterlimit:10;}
	.st4{fill:#010101;stroke:#010101;stroke-width:0.159;stroke-miterlimit:10;}
	
		.st5{fill:none;stroke:#010101;stroke-width:0.3413;stroke-linecap:round;stroke-linejoin:round;stroke-miterlimit:6;stroke-dasharray:1.706488e-02,2.3891;}
	.st6{font-family:'Dosis-SemiBold';}
	.st7{font-size:6.1428px;}
</style>
<path class="st0" d="M8.1,0.5"/>
<path class="st0" d="M15.6,7"/>
<path class="st1" d="M15.7,8.1l-1.2,1.8l-1.8,1.2c0,0-2.3,0.9-2.4,0.9c-0.1,0,0-1.5,0-1.5"/>
<path class="st2" d="M8.2,9.3C8.1,9.4,7.9,9.5,7.8,9.6C7.7,9.7,7.5,9.8,7.4,9.9l-0.8,0.5l-0.8,0.5L5.3,11c-0.2,0.1-0.3,0.1-0.5,0.2
	C5,11.1,5.1,11,5.3,10.9l0.4-0.2l0.8-0.5l0.8-0.5c0.1-0.1,0.3-0.2,0.4-0.2C7.9,9.4,8,9.4,8.2,9.3L8.2,9.3z"/>
<g>
	<path class="st3" d="M15.6,8.1c0,4.2-3.4,7.6-7.6,7.6c-4.1,0-7.4-3.2-7.6-7.2l1.8-0.4l0.1,2.3l1.4-0.2l3-1.5l1.1-0.2l1.8,0l-0.7,2
		l-0.6,0.4l-1.3,0.9l3.1-1.2l2.3,0.6l2-4L15.6,8.1z"/>
	<path class="st3" d="M2.2,8.1l1.5,2.2"/>
	<path class="st3" d="M6.8,8.7l1.1,0.8l1.9-1"/>
	<path class="st3" d="M8.4,10.8L7.8,9.5l1.2,1"/>
	<path class="st3" d="M14.3,9.9l0.2-2.8"/>
</g>
<path class="st3" d="M15.6,8.1l-1.2,1.8l-1.8,1.2c0,0-2.2,0.9-2.3,0.9s0-1.5,0-1.5"/>
<path class="st4" d="M8.1,9.4C8,9.5,7.9,9.6,7.7,9.7C7.6,9.7,7.5,9.8,7.3,9.9l-0.8,0.5l-0.8,0.5l-0.4,0.2c-0.2,0.1-0.3,0.1-0.5,0.2
	C5,11.1,5.1,11,5.2,10.9l0.4-0.2l0.8-0.5l0.8-0.5c0.1-0.1,0.3-0.2,0.4-0.2C7.8,9.5,7.9,9.4,8.1,9.4L8.1,9.4z"/>
<path class="st5" d="M0.6,7.1c0,0.3-0.1,0.7-0.1,1c0,0.2,0,0.3,0,0.5"/>
<path class="st5" d="M15.4,7C15.4,7,15.4,7,15.4,7"/>
<circle class="st2" cx="0.6" cy="7" r="0.3"/>
<circle class="st2" cx="1.2" cy="4.8" r="0.3"/>
<circle class="st2" cx="2.6" cy="2.8" r="0.3"/>
<circle class="st2" cx="4.5" cy="1.4" r="0.3"/>
<circle class="st2" cx="6.7" cy="0.6" r="0.3"/>
<circle class="st2" cx="9.1" cy="0.6" r="0.3"/>
<circle class="st2" cx="11.4" cy="1.3" r="0.3"/>
<circle class="st2" cx="13.3" cy="2.7" r="0.3"/>
<circle class="st2" cx="14.7" cy="4.7" r="0.3"/>
<circle class="st2" cx="15.4" cy="6.9" r="0.3"/>
<text transform="matrix(1 0 0 1 3.8361 8.1018)" class="st2 st6 st7">U C</text>
<circle class="st2" cx="8" cy="7.5" r="0.3"/>
</svg>
