<svg xmlns="http://www.w3.org/2000/svg" width="16" height="16" viewBox="0 0 16 16"><path fill="#fff" d="M14.4 8.5a11.5 11.5 0 0 0-1.9-5.2 6.2 6.2 0 0 0-8.9-1.6 6.3 6.3 0 0 0-1.7 9A11.5 11.5 0 0 0 6 14.3h-.1c-.5.3 0 1.4.7 1.1a31.6 31.6 0 0 0 4.5-2.7 48 48 0 0 0 4-3.2.7.7 0 0 0-.7-1zm-3.3 4.3H11h.1z"/><circle cx="6.4" cy="9.3" r=".5" fill="#372862"/><circle cx="9.6" cy="7" r=".5" fill="#372862"/><path fill="#372862" d="M14.8 9.9l-2.6-1.2a2.5 2.5 0 0 0-.4-2.4 2.8 2.8 0 0 0-1.6-1.1c.1-1.1-1.5-2.1-1.5-2.1L7.5 5.9l-.7.5-.7.5s-2-.6-3 .1.4 1.9 1.4 2.2a3.2 3.2 0 0 0 .4 1.8 2.3 2.3 0 0 0 2.2 1.2s0 1.4.1 3a50.7 50.7 0 0 0 7.6-5.3zM9 6.1a1.1 1.1 0 0 1 1.5.3 1 1 0 0 1-.2 1.5 1.2 1.2 0 0 1-1.6-.3A1.1 1.1 0 0 1 9 6.1zM5.8 8.4a1 1 0 0 1 1.5.2 1.2 1.2 0 0 1-.3 1.6 1.1 1.1 0 0 1-1.5-.3 1 1 0 0 1 .3-1.5z"/><path fill="#fff" d="M14.4 8.5a11.5 11.5 0 0 0-1.9-5.2 6.2 6.2 0 0 0-8.9-1.6 6.3 6.3 0 0 0-1.7 9A11.5 11.5 0 0 0 6 14.3h-.1c-.5.3 0 1.4.7 1.1a31.6 31.6 0 0 0 4.5-2.7 48 48 0 0 0 4-3.2.7.7 0 0 0-.7-1zm-.9-1.1c0 .7-1.7 2.2-3.6 3.5s-3.8 2.3-4.5 2.2-3.8-4-3.7-5.4 1.8-2.2 3.6-3.4 3.9-2.4 4.5-2.2 3.8 4.1 3.7 5.3zm-2.4 5.4H11h.1z"/><path fill="none" stroke="#0b9cdf" stroke-miterlimit="10" stroke-width=".24" d="M9.9 10.9c1.9-1.3 3.6-2.8 3.6-3.5s-2.4-4.9-3.7-5.3-2.6.9-4.5 2.2S1.8 7 1.7 7.7s2.5 5 3.7 5.4 2.7-.9 4.5-2.2"/><path fill="#0b9cdf" d="M14.6 8.2a11.9 11.9 0 0 0-1.9-5.1 6.5 6.5 0 0 0-9.3-1.6 6.6 6.6 0 0 0-1.7 9.3 13.1 13.1 0 0 0 3.9 3.6.7.7 0 0 0 0 .9c.2.5.7.5 1.1.4a30.2 30.2 0 0 0 4.5-2.7 31.3 31.3 0 0 0 4.1-3.3.8.8 0 0 0 0-1.2.9.9 0 0 0-.7-.3zM2.1 10.5a6.1 6.1 0 0 1 1.6-8.6 6 6 0 0 1 8.6 1.5 13.3 13.3 0 0 1 1.9 5.1l-.6.6-3.4 2.5-3.5 2.2-.6.3a11.9 11.9 0 0 1-4-3.6zM15 9.4a39.6 39.6 0 0 1-4.1 3.2 32.5 32.5 0 0 1-4.4 2.7.4.4 0 0 1-.5-.3.3.3 0 0 1 0-.4h.1l.4-.2.4-.2 3.5-2.3c1.4-.9 2.6-1.9 3.4-2.5l.5-.4.3-.2c.1-.1.2 0 .3.1a.4.4 0 0 1 .1.5z"/></svg>