<svg xmlns="http://www.w3.org/2000/svg" xmlns:xlink="http://www.w3.org/1999/xlink" width="256" height="256" viewBox="0 0 256 256"><defs><clipPath id="clip-path"><circle cx="128" cy="127.7" r="125.7" fill="none"/></clipPath><clipPath id="clip-path-2"><circle cx="303.5" cy="31.9" r="29.8" fill="none"/></clipPath><clipPath id="clip-path-3"><circle cx="288" cy="90.5" r="14.2" fill="none"/></clipPath></defs><title>logo</title><g id="Layer_4" data-name="Layer 4"><circle cx="128" cy="127.7" r="125.7" fill="#f6e2b0"/><g clip-path="url(#clip-path)"><g opacity="0.17"><image id="VXz2AW" width="1880" height="1256" transform="translate(-208.8 -26.1) scale(0.62 0.31)" xlink:href="logo1.png"/></g></g><path d="M168.3,125.9s-15.9-12.2-18.3-17.1-3.7-23.2-3.7-23.2-1.2-7.3-2.4-8.5,9.7-30.6,9.7-30.6-1.2-10.9-4.9-14.6-10.9-7.3-12.2-7.3-10.9,6.1-10.9,6.1l-8.6,11-4.9,9.7s-14.6,0-17,2.5S75.5,69.7,75.5,69.7L65.8,83.2s-19.6,21.9-23.2,30.5-14.7,24.4-14.7,24.4L7.2,164.9s9.7,8.6,23.2,0,18.3-17.1,18.3-17.1C73.1,107.6,67,129.5,67,129.5s-22,29.3,1.2,44,43.9,32.9,52.5,31.7c0,0,0,31.7,11,48.8h1.4c9.9-1.3,19.9-2.6,29.6-5.2-1.7-11.8-5.7-39.5-6.6-42.4s-24.4-43.9-33-50c0,0,2.5-22,4.9-23.2s13.4,0,13.4,0l34.2,17.1s14.6,6.1,19.5-1.2S168.3,125.9,168.3,125.9Z" fill="#55463c"/><path d="M65.2,170.4s-6.5,40.7-13,57.5c0,0,23.4,17.7,29.5,14.8s17-52.7,17-52.7Z" fill="#55463c"/><polygon points="168.3 168.6 178 173.5 206.1 173.5 193.9 168.6 168.3 168.6" fill="#55463c"/><path d="M178,173.5v32.9h25.6a11.1,11.1,0,0,0,2.5-3.2V173.5Z" fill="#55463c"/><polygon points="168.3 168.6 168.3 195.4 178 206.4 178 173.5 168.3 168.6" fill="#55463c"/><path d="M177.6,169.9c-1-4.2-1.5-8.6.2-12.6s7-10,11.2-4.8c1.9,2.4,1.9,7.3,2.2,10.1a48.3,48.3,0,0,1,.1,12.6c-.3,1.9,2.6,2.7,2.9.8a60.7,60.7,0,0,0-.7-19c-.7-4.2-2.5-9.3-7.4-9.5s-8.1,3.2-10.1,6.6c-3,5.1-2.6,11-1.3,16.6.4,1.8,3.3,1.1,2.9-.8Z" fill="#55463c"/><path d="M182.5,169.9c-1-4.2-1.5-8.6.2-12.6s7-10,11.2-4.8c1.9,2.4,1.9,7.3,2.2,10.1a48.3,48.3,0,0,1,.1,12.6c-.3,1.9,2.6,2.7,2.9.8a63.8,63.8,0,0,0-.7-19c-.7-4.2-2.5-9.3-7.5-9.5s-8,3.2-10,6.6c-3,5.1-2.7,11-1.3,16.6.4,1.8,3.3,1.1,2.9-.8Z" fill="#55463c"/><g clip-path="url(#clip-path-2)"><g opacity="0.17"><image id="VXz2AW-2" data-name="VXz2AW" width="1880" height="1256" transform="translate(223.5 -4.6) scale(0.15 0.07)" xlink:href="logo2.png"/></g></g><g clip-path="url(#clip-path-3)"><g opacity="0.17"><image id="VXz2AW-3" data-name="VXz2AW" width="1880" height="1256" transform="translate(250 73.1) scale(0.07 0.04)" xlink:href="logo3.png"/></g></g></g></svg>