<svg id="Layer_1" data-name="Layer 1" xmlns="http://www.w3.org/2000/svg" viewBox="0 0 182.72 100.04"><defs><style>.cls-1{fill:#fff;}</style></defs><title>Artboard 2</title><path class="cls-1" d="M42.52,73.89c-.42.06-.85.1-1.27.17a43.47,43.47,0,0,1-8.52.67,52.11,52.11,0,0,1-15.16-2.57,22.83,22.83,0,0,1-6.83-3.6,17.69,17.69,0,0,0-6.34-3c-.33-.09-.65-.18-1-.29a3,3,0,0,1-.4-.2,1.21,1.21,0,0,1,.88-.31c1-.09,2.05-.13,3.07-.24,1.27-.12,2.53-.3,3.8-.44s2.5-.27,3.76-.35c2.57-.15,5.15-.28,7.72-.4a15.77,15.77,0,0,1,4.87.75,33.77,33.77,0,0,1,8.71,4c1.11.68,2.17,1.44,3.25,2.16a.32.32,0,0,0,.23.06l-.87-.68c-2.76-2.1-5.51-4.21-8.1-6.52a62,62,0,0,1-7.16-7.6c-2-2.52-3.85-5.15-5.6-7.84q-3.52-5.44-7-10.93a67,67,0,0,1-4.23-7.65,13.51,13.51,0,0,1-.54-1.55c0-.09,0-.29.06-.31a.4.4,0,0,1,.35.05c.51.39,1,.79,1.5,1.21a40,40,0,0,0,7.7,5.2,56.72,56.72,0,0,1,10.18,6.92,31.08,31.08,0,0,1,6.85,8.21c1.75,3,3.49,6.06,5.15,9.14,1.54,2.86,3,5.8,4.43,8.7.36.7.74,1.4,1.12,2.09a2.37,2.37,0,0,0,.32.39l.12,0a4.34,4.34,0,0,0-.05-.63c-.41-1.55-.82-3.1-1.25-4.65a72.83,72.83,0,0,1-2-8.6c-.3-2-.58-4.09-.73-6.14-.19-2.46-.3-4.94-.34-7.41a57.48,57.48,0,0,1,.39-7.53,52.62,52.62,0,0,1,1.92-9.1A74.91,74.91,0,0,0,43.79,16c.33-2,.59-4.06.85-6.09s.49-4.08.74-6.13a2.77,2.77,0,0,1,.18-.7,3.63,3.63,0,0,1,.33-.47,2.08,2.08,0,0,1,.3.49c.13.52.25,1,.34,1.57.47,2.81.9,5.63,1.41,8.44a71.79,71.79,0,0,0,1.88,7.62,63.74,63.74,0,0,1,2,9.66,73.94,73.94,0,0,1,.55,11.43q-.09,3.62-.51,7.2a78.76,78.76,0,0,1-2.53,12.34c-.61,2.06-1.31,4.1-2,6.15-.06.2-.12.4-.17.6l.08,0a1.64,1.64,0,0,0,.16-.29c.5-1.3,1-2.6,1.5-3.9a74.38,74.38,0,0,1,7.43-14.71,50.21,50.21,0,0,1,8.18-9.52,37.16,37.16,0,0,1,5-3.64c3-1.93,5.95-4,8.8-6.21,1.56-1.2,3.14-2.36,4.72-3.53a5.7,5.7,0,0,1,.6-.32l.08.09a2.32,2.32,0,0,1-.21.38c-.58.72-1.17,1.42-1.75,2.14a26,26,0,0,0-3.29,5.47c-2.31,5.09-4.63,10.17-6.89,15.28a34.43,34.43,0,0,1-7.15,10.31A57.13,57.13,0,0,1,52,68.88c-1.15.65-2.32,1.3-3.47,2a5.09,5.09,0,0,0-.47.34l.06.12a5.08,5.08,0,0,0,.59-.18l3.14-1.52c3.53-1.68,7-3.37,10.59-5a14.79,14.79,0,0,1,4.71-1.44,27.39,27.39,0,0,1,3.51-.07c1.34,0,2.68.21,4,.22,3.16,0,6.32,0,9.48,0,1.37,0,2.75-.08,4.12-.1a8.71,8.71,0,0,1,1.14.06,1.4,1.4,0,0,1,.33.19c-.09.08-.16.2-.27.24-.74.25-1.48.51-2.22.73a59.46,59.46,0,0,0-13,5.6,26.11,26.11,0,0,1-8.36,2.93,50.58,50.58,0,0,1-11.26.78c-2.1-.07-4.2-.25-6.3-.38a6.62,6.62,0,0,0-.77,0l0,.11c.2,0,.39.09.58.11a27.56,27.56,0,0,1,4.49.94A22.9,22.9,0,0,1,58,76.75a12.58,12.58,0,0,1,4.52,4.53,27.88,27.88,0,0,0,3.26,4.31,10.41,10.41,0,0,1,.7.94,2.36,2.36,0,0,1,.16.46,2.73,2.73,0,0,1-.59-.12c-1.81-.92-3.82-1.13-5.73-1.67a33.35,33.35,0,0,1-9.38-4,11.73,11.73,0,0,1-4.42-5.11.8.8,0,0,0-.24-.33l.16,11.45c-.15-.12-.22-.16-.27-.21l-1.49-1.44a.72.72,0,0,1-.25-.57q-.06-4.58-.13-9.14v-.15l-.1-.08a1.46,1.46,0,0,1-.07.19,19.94,19.94,0,0,1-7.3,6.53,33,33,0,0,1-7.32,2.7c-1.09.28-2.16.59-3.25.85-.86.21-1.73.37-2.6.54a.91.91,0,0,1-.35-.07.84.84,0,0,1,.08-.32c.31-.38.64-.75,1-1.12.83-.92,1.61-1.88,2.49-2.75a29.34,29.34,0,0,1,8.13-6,25.2,25.2,0,0,1,6.41-2l1.2-.22Z"/><path class="cls-1" d="M105.73,47.28c0-2.58,0-5.05.07-6.36h0c-.53,1.77-3.2,8.26-4.88,12.42h-1c-1.26-3.22-4-10.45-4.63-12.44h0c.1,1.5.14,4.57.14,6.83v5.61h-1V40.16h1.52c1.81,4.52,4.09,10.43,4.58,11.92h0c.3-1,2.93-7.53,4.78-11.92h1.51V53.34h-1Z"/><path class="cls-1" d="M116.33,51.55a10.14,10.14,0,0,0,.14,1.79h-.91a6.59,6.59,0,0,1-.17-1.45,3.1,3.1,0,0,1-3.09,1.68,2.8,2.8,0,0,1-3.12-2.83c0-2.07,1.6-3,4.42-3h1.79v-1c0-.94-.28-2.2-2.43-2.2-1.9,0-2.18,1-2.39,1.77h-.94c.11-1,.75-2.64,3.35-2.64,2.15,0,3.35.91,3.35,3Zm-.92-3h-1.84c-2.09,0-3.39.55-3.39,2.17a2,2,0,0,0,2.16,2c2.69,0,3.07-1.79,3.07-3.82Z"/><path class="cls-1" d="M119.44,46.49c0-1.58,0-2.26,0-2.56h.93c0,.3,0,.9,0,2.11a3.58,3.58,0,0,1,3.28-2.34v1a3.4,3.4,0,0,0-3.28,3.73v4.89h-.94Z"/><path class="cls-1" d="M125.88,43.93c1.91,5.38,2.73,7.61,3.05,8.62h0c.38-1.15,1.13-3.33,3-8.62h1l-3.54,10c-1,2.79-1.68,3.41-3.37,3.41a5.94,5.94,0,0,1-.87-.06V56.3a5.87,5.87,0,0,0,.85.06c1.35,0,1.79-.66,2.48-2.6l-3.59-9.83Z"/><path class="cls-1" d="M142.76,49.75c0,2.93-1.3,3.78-3,3.78a5.67,5.67,0,0,1-1.13-.11V52.5a7.13,7.13,0,0,0,1.17.09c1.77,0,2-1.38,2-2.86V40.16h1Z"/><path class="cls-1" d="M152.17,51.55a10.14,10.14,0,0,0,.14,1.79h-.91a6.59,6.59,0,0,1-.17-1.45,3.09,3.09,0,0,1-3.08,1.68A2.8,2.8,0,0,1,145,50.74c0-2.07,1.6-3,4.42-3h1.79v-1c0-.94-.28-2.2-2.43-2.2-1.9,0-2.18,1-2.39,1.77h-.94c.11-1,.75-2.64,3.35-2.64,2.15,0,3.35.91,3.35,3Zm-.92-3h-1.84c-2.09,0-3.39.55-3.39,2.17a2,2,0,0,0,2.16,2c2.69,0,3.07-1.79,3.07-3.82Z"/><path class="cls-1" d="M155.28,46.3c0-.83,0-1.62,0-2.37h.92c0,.3.05,1.52,0,1.79a3.07,3.07,0,0,1,3.12-2c1.68,0,3.16.94,3.16,3.54v6.1h-.94v-6c0-1.67-.69-2.77-2.33-2.77-2.24,0-3,1.87-3,3.92v4.8h-.95Z"/><path class="cls-1" d="M165.81,48.75c0,2.43,1.24,3.93,3.05,3.93a2.64,2.64,0,0,0,2.71-1.77h1a3.6,3.6,0,0,1-3.71,2.66c-2.86,0-4-2.47-4-4.86,0-2.69,1.34-5,4.09-5,2.9,0,3.82,2.51,3.82,4.28,0,.26,0,.52,0,.77Zm6-.83c0-1.86-1-3.33-2.88-3.33s-2.83,1.35-3,3.33Z"/><path class="cls-1" d="M103.68,72.23a5,5,0,0,1-5.21,3.88c-3.92,0-5.9-3-5.9-6.68s2-6.77,6-6.77c3.09,0,4.77,1.76,5.15,4H102a3.32,3.32,0,0,0-3.49-2.51c-2.89,0-4.07,2.63-4.07,5.28s1.12,5.28,4.15,5.28a3.38,3.38,0,0,0,3.4-2.43Z"/><path class="cls-1" d="M112.94,73.86a13.82,13.82,0,0,0,.14,2.08H111.5a5.17,5.17,0,0,1-.16-1.25,3,3,0,0,1-2.94,1.48,2.9,2.9,0,0,1-3.22-2.92c0-2.13,1.68-3.1,4.51-3.1h1.63v-.82c0-.84-.27-1.87-2-1.87-1.6,0-1.87.79-2,1.54h-1.59c.12-1.32.93-2.84,3.68-2.83,2.33,0,3.62,1,3.62,3.13Zm-1.6-2.57h-1.55c-1.9,0-2.92.52-2.92,1.87a1.68,1.68,0,0,0,1.86,1.72c2.3,0,2.61-1.55,2.61-3.29Z"/><path class="cls-1" d="M115.8,68.8c0-.83,0-1.66,0-2.4h1.61c0,.28.07,1.28.06,1.56a3,3,0,0,1,3-1.79c1.79,0,3.19,1.09,3.19,3.63v6.14H122V70c0-1.44-.56-2.41-2-2.41-1.8,0-2.53,1.37-2.53,3.29v5H115.8Z"/><path class="cls-1" d="M126.46,68.8c0-.83,0-1.66,0-2.4h1.61c0,.28.07,1.28.06,1.56a3,3,0,0,1,3-1.79c1.79,0,3.19,1.09,3.19,3.63v6.14h-1.65V70c0-1.44-.56-2.41-2-2.41-1.8,0-2.53,1.37-2.53,3.29v5h-1.65Z"/><path class="cls-1" d="M144.12,73.86a14.22,14.22,0,0,0,.13,2.08h-1.58a5.74,5.74,0,0,1-.16-1.25,3,3,0,0,1-2.94,1.48,2.89,2.89,0,0,1-3.22-2.92c0-2.13,1.68-3.1,4.52-3.1h1.62v-.82c0-.84-.26-1.87-2.05-1.87-1.6,0-1.87.79-2,1.54h-1.59c.12-1.32.94-2.84,3.68-2.83,2.33,0,3.63,1,3.63,3.13Zm-1.61-2.57H141c-1.9,0-2.92.52-2.92,1.87a1.68,1.68,0,0,0,1.86,1.72c2.3,0,2.61-1.55,2.61-3.29Z"/><path class="cls-1" d="M147,62.12h1.64v5.64a3.15,3.15,0,0,1,3-1.59c2.4,0,3.91,2,3.91,4.81s-1.46,5.19-4.16,5.19a2.79,2.79,0,0,1-2.81-1.49,12.57,12.57,0,0,1-.06,1.26H147c0-1.06,0-2.14,0-3.2Zm6.9,8.89c0-2.06-.94-3.44-2.6-3.44-2,0-2.74,1.36-2.74,3.63,0,2,.64,3.58,2.66,3.58C152.88,74.78,153.87,73.34,153.87,71Z"/><path class="cls-1" d="M157.78,62.12h1.65v2.06h-1.65Zm0,4.28h1.65v9.54h-1.65Z"/><path class="cls-1" d="M163,73.21a2.16,2.16,0,0,0,2.34,1.66c1.4,0,2-.6,2-1.47s-.44-1.31-2.26-1.75c-2.73-.67-3.3-1.5-3.3-2.8s1-2.68,3.45-2.68,3.47,1.43,3.59,2.76h-1.59a1.88,1.88,0,0,0-2.07-1.48c-1.34,0-1.74.64-1.74,1.27s.39,1.06,2.15,1.48c2.89.69,3.47,1.66,3.47,3.08,0,1.67-1.33,2.89-3.71,2.89s-3.68-1.25-3.92-3Z"/></svg>