<svg id="Layer_1" data-name="Layer 1" xmlns="http://www.w3.org/2000/svg" width="0.2in" height="0.2in" viewBox="0 0 16 16"><title>16</title><rect x="-0.1" width="16" height="16" transform="translate(15.8 16) rotate(180)" fill="#701647"/><path d="M5.7,13a1.7,1.7,0,0,1-1.1-.4,2.2,2.2,0,0,1-.9-1,2.9,2.9,0,0,1-.3-1.4,2.5,2.5,0,0,1,.8-1.8A7.2,7.2,0,0,1,6.5,6.7,3.5,3.5,0,0,0,6.4,6a4.2,4.2,0,0,1,.4-1.6,3.4,3.4,0,0,1,.9-1.2l1.1-.8L10,2.2a2,2,0,0,1,1.1.3,1.1,1.1,0,0,1,.3.8,2,2,0,0,1-.3,1.1,3.9,3.9,0,0,1-.8,1L9,6.3l-.9.5a8.6,8.6,0,0,0,.7,2.1L10,8a4.6,4.6,0,0,0,.7-.7l.4-.3v.6a1.5,1.5,0,0,1-.2.9,2,2,0,0,1-.5.9,5.7,5.7,0,0,1-.8.9l.6.6c0-.1.1-.1.1-.2l.2-.2h.2v.2a3.1,3.1,0,0,1-.5,1.1c-.3.5-.5.8-.7.8l-.4-.2L9,12l-.4-.5L7,12.6A2.4,2.4,0,0,1,5.7,13ZM6.8,7.7l-1.1.9a6.1,6.1,0,0,0-.7,1,1.3,1.3,0,0,0-.3.7.5.5,0,0,0,.6.6l1-.3a4.6,4.6,0,0,0,1.4-.7C7.5,9.3,7.2,8.6,6.8,7.7ZM7.9,5.3v.4A7,7,0,0,0,9.7,4.3a2.2,2.2,0,0,0,.6-1.2.3.3,0,0,0-.3-.3,1.4,1.4,0,0,0-.9.4,2.4,2.4,0,0,0-.8.9A1.9,1.9,0,0,0,7.9,5.3Z" fill="#f4ef45"/></svg>