<svg xmlns="http://www.w3.org/2000/svg" width="64" height="64" viewBox="0 0 64 64"><circle cx="19.3" cy="27.2" r="2.3" fill="#372862"/><circle cx="28.7" cy="20.7" r="2.3" fill="#372862" transform="rotate(-34.7 28.658 20.723)"/><path fill="#372862" d="M53.9 26.4a7.8 7.8 0 0 1-5.5-9.6 1.3 1.3 0 0 0-2.6-.7A10.4 10.4 0 0 0 53.2 29a7.8 7.8 0 0 1 5.5 9.6 8.1 8.1 0 0 1-2.2 3.7 36.2 36.2 0 0 0-3.5-5.9c-4.2-6.1-16.3-10.2-17-10.7a7.4 7.4 0 0 0-1-7.2 8.9 8.9 0 0 0-4.5-3c.1-3-4.5-6-4.5-6-3 2.1-3.3 8.1-3.3 8.1L20.6 19l-2 1.5s-5.7-1.9-8.7.2c0 0 1.1 5.3 4 6.3a8.5 8.5 0 0 0 1.2 5.3 7.6 7.6 0 0 0 6.3 3.5s-.4 13.6 3.9 19.8 6.7 7 6.7 7 4.5-.7 8.2-2.8a5 5 0 0 0 3.5-.7 5.1 5.1 0 0 0 1.8-2.6l.6-.4.9-.7a4.5 4.5 0 0 0 3.1-.8 4 4 0 0 0 1.8-3c3.2-2.7 5.4-5.1 5.4-6.4a10.3 10.3 0 0 0 4-5.9 10.4 10.4 0 0 0-7.4-12.9zm-27-8.3a3.2 3.2 0 0 1 4.4.8 3.1 3.1 0 0 1-.8 4.3 3 3 0 0 1-4.3-.8 3.1 3.1 0 0 1 .7-4.3zm-9.4 6.5a3.2 3.2 0 0 1 4.4.8 3.1 3.1 0 0 1-5.1 3.6 3.2 3.2 0 0 1 .7-4.4z"/><path fill="#fff" d="M42.5 25a34.9 34.9 0 0 0-5.4-15C30.9 1.1 19.7-.4 11.2 5.5S.2 22.3 6.4 31.2a36.4 36.4 0 0 0 11.8 10.6l-.3.2c-1.4.9.1 3.9 2.1 3a84.1 84.1 0 0 0 12.8-7.7A99.4 99.4 0 0 0 44.6 28c1.4-1.6-.8-4-2.1-3zm-2.6-3c-.1 1.8-5 6.2-10.3 9.9s-11.2 6.7-13 6.2c-3.6-1-11-11.5-10.7-15.4.2-1.9 5.1-6.2 10.4-9.9s11.1-6.8 13-6.2C33 7.7 40.2 18.2 39.9 22z"/><path fill="none" stroke="#0b9cdf" stroke-miterlimit="10" stroke-width=".68" d="M29.6 31.9c5.3-3.7 10.2-8.1 10.3-9.9.3-3.8-6.9-14.3-10.6-15.4-1.9-.6-7.7 2.5-13 6.2s-10.2 8-10.4 9.9c-.3 3.9 7.1 14.4 10.7 15.4 1.8.5 7.6-2.5 13-6.2"/><path fill="#0b9cdf" d="M43 24.1a33.8 33.8 0 0 0-5.4-14.5c-6.2-9-17.7-11-26.8-4.7s-11.2 17.8-5 26.7A38.1 38.1 0 0 0 17 41.9a2.7 2.7 0 0 0 3.2 3.8 107.6 107.6 0 0 0 13-7.8 91.7 91.7 0 0 0 11.9-9.3A2.6 2.6 0 0 0 45 25a2.7 2.7 0 0 0-2-.9zM6.9 30.8C1.2 22.5 3.2 11.9 11.6 6s19.1-4 24.9 4.3a34 34 0 0 1 5.3 14.6 10 10 0 0 1-1.8 1.7c-2.3 1.8-5.7 4.6-9.6 7.3s-7.6 4.9-10.1 6.4a6 6 0 0 1-1.9.8A36.8 36.8 0 0 1 6.9 30.8zm37.2-3.2a94.3 94.3 0 0 1-11.7 9.1c-5.8 4.1-10.8 7-12.7 7.7a1.1 1.1 0 0 1-1.5-.6c-.2-.4-.3-1 .1-1.2l.3-.2 1-.7 1.1-.6c2.5-1.5 6.3-3.7 10.2-6.5s7.4-5.5 9.7-7.3a5.8 5.8 0 0 0 1.4-1.2l.8-.6c.4-.2.9.1 1.2.4a1.4 1.4 0 0 1 .1 1.7z"/></svg>