<svg id="Layer_1" data-name="Layer 1" xmlns="http://www.w3.org/2000/svg" viewBox="0 0 256 256"><defs><style>.cls-1{fill:#fff;}.cls-2{font-size:16.73px;font-family:CenturyGothicPro, Century Gothic Pro;}.cls-3{letter-spacing:-0.01em;}.cls-4{letter-spacing:-0.08em;}</style></defs><title>256px x 256px</title><path d="M59.51,145.77a7.38,7.38,0,0,0-.32-1.13L38.38,89c-.31-.79-.59-1.45-.86-2a5.53,5.53,0,0,0-.89-1.31,2.65,2.65,0,0,0-1.06-.7,4.27,4.27,0,0,0-1.41-.21H27.4A3.28,3.28,0,0,0,25,86a9.79,9.79,0,0,0-1.54,3.18l-19,57.37c-.18.51-.32,1-.43,1.34a3.9,3.9,0,0,0-.16,1c0,.76.49,1.13,1.46,1.13H10a3.09,3.09,0,0,0,1.24-.2,1.71,1.71,0,0,0,.75-.59,4.08,4.08,0,0,0,.46-.91,8.64,8.64,0,0,0,.31-1.2l.32-1.36,1.41-5.58,4.76-17.73,5,17.73,1.54,5.58.5,1.59a2.84,2.84,0,0,0,.39.82,3.57,3.57,0,0,0,.84.86,5.42,5.42,0,0,0,1.34.7,5.57,5.57,0,0,0,2,.29H56.56a3.25,3.25,0,0,0,2.07-.77,2.86,2.86,0,0,0,1-2.4A5.72,5.72,0,0,0,59.51,145.77Zm-4.38,0a1.44,1.44,0,0,1-1.11.34H51.85L30.4,88.63H32a4.42,4.42,0,0,1,1.79.25,2.08,2.08,0,0,1,.89,1.2l20.41,54.47C55.31,145.15,55.33,145.57,55.13,145.8Z"/><path d="M82.72,131.55v13.78a9.21,9.21,0,0,1-.13,1.67,2.29,2.29,0,0,1-.6,1.2,2.85,2.85,0,0,1-1.34.72,8.75,8.75,0,0,1-2.36.25H66.85a7.35,7.35,0,0,1-2.13-.25,3.07,3.07,0,0,1-1.28-.7,2.37,2.37,0,0,1-.63-1.18,8,8,0,0,1-.16-1.66V125.06a8.07,8.07,0,0,1,.16-1.64,2.4,2.4,0,0,1,.63-1.19,3.08,3.08,0,0,1,1.28-.71,7.76,7.76,0,0,1,2.13-.24H78.78a6.89,6.89,0,0,1,2,.24,2.67,2.67,0,0,1,1.2.74,2.57,2.57,0,0,1,.58,1.22,8.81,8.81,0,0,1,.15,1.72v2m-2.31-1.91a4.66,4.66,0,0,0-.08-1,.87.87,0,0,0-.33-.53,1.22,1.22,0,0,0-.65-.22,10.29,10.29,0,0,0-1.06,0v23.31a10.29,10.29,0,0,0,1.06,0,1.32,1.32,0,0,0,.65-.22.91.91,0,0,0,.33-.52,4.56,4.56,0,0,0,.08-1Z"/><path d="M111.65,136.16a15.24,15.24,0,0,0,.58,4.58,8.74,8.74,0,0,0,1.49,2.9,5.14,5.14,0,0,0,1.93,1.51,5.05,5.05,0,0,0,1.94.44,4.15,4.15,0,0,0,1.25-.18,5.59,5.59,0,0,0,1-.41c.29-.15.53-.29.73-.41a1.12,1.12,0,0,1,.47-.17.52.52,0,0,1,.34.08,1.25,1.25,0,0,1,.23.3l.95,1.47a.74.74,0,0,1,.14.38.41.41,0,0,1-.11.3,1.86,1.86,0,0,1-.22.19,20.12,20.12,0,0,1-2.21,1.32,19.75,19.75,0,0,1-3,1.27,28,28,0,0,1-3.86,1,26.61,26.61,0,0,1-4.63.38,25.51,25.51,0,0,1-4.08-.33,18.19,18.19,0,0,1-3.91-1.06,16,16,0,0,1-3.47-1.89A12,12,0,0,1,94.4,145a13,13,0,0,1-1.87-3.84,18.5,18.5,0,0,1,0-9.94,13.2,13.2,0,0,1,1.87-3.84,12,12,0,0,1,2.79-2.8,16,16,0,0,1,3.47-1.9,18.79,18.79,0,0,1,3.91-1.06,25.51,25.51,0,0,1,4.08-.33,26.21,26.21,0,0,1,4.31.35,26.48,26.48,0,0,1,3.82.89,26.78,26.78,0,0,1,3.16,1.23,13.4,13.4,0,0,1,2.28,1.32l.22.19a.4.4,0,0,1,.1.3.62.62,0,0,1-.13.38l-1,1.47a1,1,0,0,1-.23.3.48.48,0,0,1-.34.08.88.88,0,0,1-.43-.16c-.18-.11-.41-.23-.68-.37a8.36,8.36,0,0,0-1-.38,3.87,3.87,0,0,0-1.22-.17,4.87,4.87,0,0,0-1.94.44,5.34,5.34,0,0,0-1.93,1.54,9,9,0,0,0-1.49,2.92A15.17,15.17,0,0,0,111.65,136.16Zm3.62,10.52a6.41,6.41,0,0,1-1.9-.82,6.68,6.68,0,0,1-1.94-1.87,10.81,10.81,0,0,1-1.5-3.16,15.77,15.77,0,0,1-.6-4.67,15.94,15.94,0,0,1,.6-4.68,10.75,10.75,0,0,1,1.5-3.17,6.73,6.73,0,0,1,1.94-1.88,6,6,0,0,1,1.9-.83,8.09,8.09,0,0,0-2.93.61,7.24,7.24,0,0,0-2.62,1.84,9.16,9.16,0,0,0-1.9,3.25,14.48,14.48,0,0,0-.72,4.86,14.29,14.29,0,0,0,.72,4.85,9.11,9.11,0,0,0,1.9,3.24,7.09,7.09,0,0,0,2.62,1.83A8.52,8.52,0,0,0,115.27,146.68Z"/><path d="M145.83,122.57a5.16,5.16,0,0,1,1.44-.76,5.54,5.54,0,0,1,1.86-.3,4.94,4.94,0,0,1,4.07,1.8,8.24,8.24,0,0,1,1.46,5.28v20.07a1.8,1.8,0,0,1-.13.73.84.84,0,0,1-.72.53,4,4,0,0,1-.49,0h-1.74c-.47,0-.78-.13-.91-.4a1.93,1.93,0,0,1-.21-.88V128.32a4.11,4.11,0,0,0-.56-2.37,2,2,0,0,0-1.78-.82,2.78,2.78,0,0,0-1.27.34,4.78,4.78,0,0,0-1,.72v19.94a11.33,11.33,0,0,1-.11,1.66,2.24,2.24,0,0,1-.52,1.19,2.44,2.44,0,0,1-1.17.72,7.06,7.06,0,0,1-2.07.24H129.35a5.39,5.39,0,0,1-1.75-.24,2.57,2.57,0,0,1-1.11-.71,2.67,2.67,0,0,1-.57-1.17,7.42,7.42,0,0,1-.16-1.66v-37a7.45,7.45,0,0,1,.16-1.65,2.4,2.4,0,0,1,.63-1.19,3,3,0,0,1,1.28-.7,7.28,7.28,0,0,1,2.12-.25h11.93a7.32,7.32,0,0,1,2,.22,2.63,2.63,0,0,1,1.22.69,2.51,2.51,0,0,1,.58,1.19,8.21,8.21,0,0,1,.15,1.69Zm-2.31-13.21a4,4,0,0,0-.09-1,.84.84,0,0,0-.32-.53,1.36,1.36,0,0,0-.66-.22,10.17,10.17,0,0,0-1.06,0v40c.44,0,.79,0,1.06,0a1.36,1.36,0,0,0,.66-.22.85.85,0,0,0,.32-.52,4,4,0,0,0,.09-1Z"/><path d="M87.86,128.35a.56.56,0,0,1-.52-.51A3.75,3.75,0,0,0,86.8,126a2,2,0,0,0-1.79-.82,2.71,2.71,0,0,0-1.26.34,4.62,4.62,0,0,0-1,.72l-.78-3.29a12.17,12.17,0,0,1,2.23-1.09,5.48,5.48,0,0,1,1.85-.3,4.94,4.94,0,0,1,4.07,1.8A7.76,7.76,0,0,1,91.54,128a.57.57,0,0,1-.6.58Z"/><path d="M194.8,125.84a7.41,7.41,0,0,1,.17-1.65,2.28,2.28,0,0,1,.62-1.18,3,3,0,0,1,1.28-.71,7.77,7.77,0,0,1,2.13-.25h11.93a7.09,7.09,0,0,1,2,.24,2.65,2.65,0,0,1,1.21.69,2.3,2.3,0,0,1,.57,1.17,9.14,9.14,0,0,1,.14,1.69v20.37a8.5,8.5,0,0,1-.14,1.62,2.38,2.38,0,0,1-.57,1.18,2.66,2.66,0,0,1-1.21.7,7.13,7.13,0,0,1-2,.23H199a7.81,7.81,0,0,1-2.13-.24,3,3,0,0,1-1.28-.71,2.29,2.29,0,0,1-.62-1.17,7.37,7.37,0,0,1-.17-1.66Zm17.76.25a4.84,4.84,0,0,0-.08-1,.88.88,0,0,0-.33-.53,1.32,1.32,0,0,0-.65-.22c-.27,0-.63,0-1.06,0v23.32c.43,0,.79,0,1.06,0a1.32,1.32,0,0,0,.65-.22.86.86,0,0,0,.33-.52,4.74,4.74,0,0,0,.08-1Z"/><path d="M238.63,136.16a15.24,15.24,0,0,0,.58,4.58,8.56,8.56,0,0,0,1.49,2.9,5.06,5.06,0,0,0,1.93,1.51,5,5,0,0,0,1.93.44,4.22,4.22,0,0,0,1.26-.18,5.47,5.47,0,0,0,1-.41c.29-.15.54-.29.74-.41a1.09,1.09,0,0,1,.46-.17.48.48,0,0,1,.34.08,1,1,0,0,1,.23.3l1,1.47a.72.72,0,0,1,.13.38.37.37,0,0,1-.11.3,1.8,1.8,0,0,1-.21.19,21.12,21.12,0,0,1-2.21,1.32,19.47,19.47,0,0,1-3,1.27,27.44,27.44,0,0,1-3.85,1,26.7,26.7,0,0,1-4.63.38,25.73,25.73,0,0,1-4.09-.33,18.1,18.1,0,0,1-3.9-1.06,15.81,15.81,0,0,1-3.48-1.89,12.2,12.2,0,0,1-2.79-2.81,12.94,12.94,0,0,1-1.86-3.84,18.24,18.24,0,0,1,0-9.94,13.18,13.18,0,0,1,1.86-3.84,12.16,12.16,0,0,1,2.79-2.8,15.84,15.84,0,0,1,3.48-1.9,18.7,18.7,0,0,1,3.9-1.06,25.73,25.73,0,0,1,4.09-.33,26.09,26.09,0,0,1,4.3.35,26.62,26.62,0,0,1,3.83.89,27.48,27.48,0,0,1,3.16,1.23,13.66,13.66,0,0,1,2.27,1.32l.22.19a.41.41,0,0,1,.11.3.64.64,0,0,1-.14.38l-.95,1.47a1.25,1.25,0,0,1-.23.3.5.5,0,0,1-.34.08.91.91,0,0,1-.44-.16c-.18-.11-.41-.23-.68-.37a8.15,8.15,0,0,0-1-.38,3.89,3.89,0,0,0-1.23-.17,4.83,4.83,0,0,0-1.93.44,5.26,5.26,0,0,0-1.93,1.54,8.77,8.77,0,0,0-1.49,2.92A15.17,15.17,0,0,0,238.63,136.16Zm3.62,10.52a6.46,6.46,0,0,1-1.91-.82,6.78,6.78,0,0,1-1.93-1.87,10.81,10.81,0,0,1-1.5-3.16,15.77,15.77,0,0,1-.6-4.67,15.94,15.94,0,0,1,.6-4.68,10.75,10.75,0,0,1,1.5-3.17,6.83,6.83,0,0,1,1.93-1.88,6,6,0,0,1,1.91-.83,8,8,0,0,0-2.93.61,7.28,7.28,0,0,0-2.63,1.84,9.29,9.29,0,0,0-1.89,3.25,14.48,14.48,0,0,0-.72,4.86,14.29,14.29,0,0,0,.72,4.85,9.24,9.24,0,0,0,1.89,3.24,7.13,7.13,0,0,0,2.63,1.83A8.47,8.47,0,0,0,242.25,146.68Z"/><path d="M191.79,148.16a2.85,2.85,0,0,0-.19-.49l-12.5-23.81a6.74,6.74,0,0,0-.52-.85,2.44,2.44,0,0,0-.53-.57,1.8,1.8,0,0,0-.64-.3,3.49,3.49,0,0,0-.84-.09h-4.06a2.33,2.33,0,0,0-1.47.49,3.77,3.77,0,0,0-.93,1.36l-11.38,24.57c-.11.22-.2.41-.26.57a1.06,1.06,0,0,0-.1.42q0,.48.87.48h2.81a2.6,2.6,0,0,0,.75-.08,1.08,1.08,0,0,0,.45-.25,1.36,1.36,0,0,0,.27-.39,2.84,2.84,0,0,0,.19-.52l.19-.58.85-2.39,2.86-7.59,3,7.59.92,2.39.3.68a1.22,1.22,0,0,0,.24.35,1.75,1.75,0,0,0,.5.37,4.82,4.82,0,0,0,.8.3,5,5,0,0,0,1.19.12H190a2.38,2.38,0,0,0,1.24-.33,1.1,1.1,0,0,0,.59-1A1.54,1.54,0,0,0,191.79,148.16Zm-2.63,0a1.15,1.15,0,0,1-.66.14h-1.31l-12.88-24.62h.95a3.75,3.75,0,0,1,1.07.1,1,1,0,0,1,.54.52l12.25,23.32C189.27,147.89,189.28,148.07,189.16,148.17Z"/><circle cx="205.03" cy="109.28" r="9.87"/><circle class="cls-1" cx="205.03" cy="109.28" r="3.58"/><circle cx="205.03" cy="109.28" r="1.31"/><path class="cls-1" d="M201.34,103.53l-.5-.92s0-.62.36-.78A10.16,10.16,0,0,1,204,101c1.08-.08,1.25,0,1.25,0a.35.35,0,0,1,.05.33c-.07.2-.11,3-.11,3a6.09,6.09,0,0,0-2.26.4c-.46.37-1-.22-1-.22Z"/><path class="cls-1" d="M199.19,103.3s.46-.5.9-.1a18.68,18.68,0,0,1,1.54,2s.16.46,0,.6-.67,0-.67,0l-1.69-1.55A1.08,1.08,0,0,1,199.19,103.3Z"/><path class="cls-1" d="M209,115.34l.5.92s0,.62-.36.78a10.27,10.27,0,0,1-2.84.8c-1.09.07-1.26,0-1.26,0a.36.36,0,0,1-.05-.33c.07-.21.11-3,.11-3a6.09,6.09,0,0,0,2.26-.4c.47-.37,1,.22,1,.22Z"/><path class="cls-1" d="M211.18,115.56s-.46.51-.9.11a19.79,19.79,0,0,1-1.54-2s-.16-.46,0-.6.68,0,.68,0l1.69,1.55A1.08,1.08,0,0,1,211.18,115.56Z"/><text class="cls-2" transform="translate(181.77 165.67)">Reco<tspan class="cls-3" x="42.82" y="0">r</tspan><tspan x="47.76" y="0">d</tspan><tspan class="cls-4" x="59.22" y="0">s</tspan><tspan x="64.38" y="0">.</tspan></text></svg>
