<?xml version="1.0" encoding="utf-8"?>
<!-- Generator: Adobe Illustrator 23.0.2, SVG Export Plug-In . SVG Version: 6.00 Build 0)  -->
<svg version="1.1" id="Layer_1" xmlns="http://www.w3.org/2000/svg" xmlns:xlink="http://www.w3.org/1999/xlink" x="0px" y="0px"
	 viewBox="0 0 859.4 196" style="enable-background:new 0 0 859.4 196;" xml:space="preserve">
<style type="text/css">
	
		.st0{fill:none;stroke:#010101;stroke-width:4.2529;stroke-linecap:round;stroke-linejoin:round;stroke-miterlimit:6;stroke-dasharray:0.2127,29.7198;}
	.st1{fill:none;stroke:#010101;stroke-width:2.1266;stroke-miterlimit:10;}
	.st2{fill:#010101;}
	.st3{fill:none;stroke:#010101;stroke-width:3.9236;stroke-miterlimit:10;}
	.st4{fill:#010101;stroke:#010101;stroke-width:1.9617;stroke-miterlimit:10;}
	
		.st5{fill:none;stroke:#010101;stroke-width:4.2114;stroke-linecap:round;stroke-linejoin:round;stroke-miterlimit:6;stroke-dasharray:0.2106,29.4799;}
	.st6{enable-background:new    ;}
	.st7{font-family:'Dosis-Medium';}
	.st8{font-size:100px;}
</style>
<path class="st0" d="M98.1,4.4"/>
<path class="st0" d="M190.9,85"/>
<path class="st1" d="M192.4,97.4l-15.2,22.1l-22.4,15.2c0,0-27.9,10.9-29.1,11.2c-1.2,0.3,0-18.2,0-18.2"/>
<path class="st2" d="M99.3,113.2c-1.5,1.2-3,2.4-4.5,3.6c-1.8,0.9-3.3,1.8-5.2,2.7l-10,5.8l-10.3,5.8l-5.2,2.7
	c-1.8,0.6-3.6,1.2-5.8,1.8c1.5-1.2,3-2.4,4.5-3.6l5.2-2.7l10.3-5.8l10.3-5.8c1.8-0.9,3.3-1.8,5.2-3
	C95.7,114.4,97.5,113.5,99.3,113.2L99.3,113.2z"/>
<g>
	<path class="st3" d="M190.6,98.4c0,51.5-41.8,93.4-93.4,93.4c-50,0-91-39.4-93.4-88.8L26,98.4l0.9,28.8l17.9-2.1L82,105.9l13.9-2.7
		l22.7,0.3l-8.8,24.3l-7.9,4.5L86,142.9l38.5-14.9l28.8,7l24.6-49.1L190.6,98.4z"/>
	<path class="st3" d="M26,98.4L44.8,125"/>
	<path class="st3" d="M81.7,105.9l13,10l23.6-12.4"/>
	<path class="st3" d="M102.1,132l-7-16.4l14.9,11.8"/>
	<path class="st3" d="M175.4,120.5l2.4-34.6"/>
</g>
<path class="st3" d="M190.6,98.4l-14.9,21.8l-22.4,15.2c0,0-27.6,10.6-28.8,11.2c-1.2,0.6,0-18.2,0-18.2"/>
<path class="st4" d="M98.4,113.8c-1.5,1.2-3,2.4-4.5,3.6c-1.8,0.9-3.3,1.8-5.2,2.7l-10,5.8l-10,5.8l-5.2,2.7
	c-1.8,0.6-3.6,1.2-5.5,1.8c1.5-1.2,3-2.4,4.5-3.6l5.2-2.7l10-5.8l10-5.8c1.8-0.9,3.3-1.8,5.2-2.7C94.8,115,96.6,114.1,98.4,113.8
	L98.4,113.8z"/>
<path class="st5" d="M5.6,85.9C5,89.9,4.7,94.1,4.7,98.4c0,2.1,0,4.2,0.3,6.4"/>
<path class="st5" d="M189.1,84.1L189.1,84.1"/>
<circle class="st2" cx="5.6" cy="85" r="3.6"/>
<circle class="st2" cx="13.2" cy="57.4" r="3.6"/>
<circle class="st2" cx="30.2" cy="33.2" r="3.6"/>
<circle class="st2" cx="53.5" cy="15" r="3.6"/>
<circle class="st2" cx="81.1" cy="5.6" r="3.6"/>
<circle class="st2" cx="110.8" cy="5.6" r="3.6"/>
<circle class="st2" cx="139" cy="14.4" r="3.6"/>
<circle class="st2" cx="163" cy="31.7" r="3.6"/>
<circle class="st2" cx="180.3" cy="55.6" r="3.6"/>
<circle class="st2" cx="188.8" cy="83.2" r="3.6"/>
<g class="st6">
	<path class="st2" d="M50.5,81.7V45.3c0-0.9,0.3-1.5,1.2-1.8c0.9-0.3,1.8-0.6,2.7-0.6c0.9,0,2.1,0.3,2.7,0.6
		c0.6,0.3,1.2,1.2,1.2,1.8v36.4c0,3.3,0.9,5.8,2.4,7.3c1.5,1.5,3.9,2.4,6.7,2.4c6.4,0,9.4-3.3,9.4-9.7V45.3c0-0.9,0.3-1.5,1.2-1.8
		c0.9-0.3,1.8-0.6,2.7-0.6c0.9,0,2.1,0.3,2.7,0.6c0.6,0.3,1.2,1.2,1.2,1.8v36.4c0,5.8-1.5,10-4.9,12.7c-3,2.7-7.3,4.2-12.7,4.2
		c-5.2,0-9.4-1.5-12.4-4.2C52.3,91.7,50.5,87.4,50.5,81.7z"/>
	<path class="st2" d="M109.6,81.7V59.5c0-5.8,1.5-10,4.5-12.7c3-2.7,7.3-4.2,12.1-4.2c5.2,0,9.4,1.2,12.4,3.9c3,2.4,4.9,5.8,4.9,10
		c0,1.5-0.3,2.7-0.9,3.3c-0.6,0.6-1.5,0.9-3,0.9c-2.7,0-3.9-0.9-3.9-2.7c-0.3-5.5-3.3-8.2-8.8-8.2c-6.1,0-9.1,3.3-9.1,9.7v22.1
		c0,6.4,3,9.7,9.1,9.7c1.8,0,3.3-0.3,4.5-0.9c1.2-0.6,2.1-1.2,2.7-2.4c0.6-0.9,0.9-1.8,1.2-2.7c0.3-0.9,0.3-1.8,0.6-2.7
		c0-1.8,1.5-2.7,3.9-2.7c1.5,0,2.4,0.3,3,0.9c0.6,0.6,0.9,1.8,0.9,3.3c0,4.2-1.5,7.6-4.9,10.3c-3,2.7-7.3,3.9-12.4,3.9
		c-5.2,0-9.1-1.5-12.1-4.2C111.2,91.7,109.6,87.4,109.6,81.7z"/>
</g>
<circle class="st2" cx="97.2" cy="91.1" r="3.6"/>
<text transform="matrix(1 0 0 1 235.4674 129.4247)" class="st7 st8">Unified Crystals</text>
</svg>
