<svg height="64" viewBox="0 0 64 64" width="64" xmlns="http://www.w3.org/2000/svg"><path d="m29.8 62.8-26.9-13.6a4.2 4.2 0 0 1 -2.2-3.6v-26.5a4 4 0 0 1 2.2-3.5l26.9-13.7a4.5 4.5 0 0 1 3.6 0l26.9 13.7a4 4 0 0 1 2.2 3.5v26.5a4.2 4.2 0 0 1 -2.2 3.6l-26.9 13.6a3.8 3.8 0 0 1 -3.6 0z" fill="#231f20" stroke="#231f20" stroke-miterlimit="10" stroke-width=".99"/><path d="m6.3 44.9v-22.6h.1l22.2 11.3v22.6z" fill="#ee3125"/><path d="m9.6 17.1 22.2-11.3h.1l22.2 11.3-22.3 11.4z" fill="#fee600"/><path d="m35 56.2v-22.6l22.3-11.3h.1v22.6l-.1.1-22.2 11.3z" fill="#1265a2"/></svg>