<svg xmlns="http://www.w3.org/2000/svg" id="Layer_1" width="32" height="32" viewBox="0 0 32 32"><path fill="#231f20" stroke="#231f20" stroke-miterlimit="10" stroke-width=".5" d="M15.1 31.5L1.7 24.6a2.1 2.1 0 0 1-1.1-1.8V9.2a1.9 1.9 0 0 1 1.1-1.8l13.4-7a2.1 2.1 0 0 1 1.9 0l13.4 7a2.1 2.1 0 0 1 1.1 1.8v13.6a2.3 2.3 0 0 1-1.1 1.8L17 31.5a2.1 2.1 0 0 1-1.9 0z"/><path fill="#ee3125" d="M3.4 22.4V10.8l11.1 5.8v11.6L3.4 22.4z"/><path fill="#fee600" d="M16 15.1zM5 8.2l11.1-5.8h.1l11.1 5.8L16.1 14 5 8.2z"/><path fill="#1265a2" d="M17.7 28.2V16.6l11.2-5.8v11.6l-11.1 5.8h-.1z"/></svg>