<svg xmlns="http://www.w3.org/2000/svg" width="64" height="64" viewBox="0 0 64 64"><path fill="#231f20" stroke="#231f20" stroke-miterlimit="10" stroke-width=".99" d="M29.8 62.8L2.9 49.2a4.2 4.2 0 0 1-2.2-3.6V19.1a4 4 0 0 1 2.2-3.5L29.8 1.9a4.5 4.5 0 0 1 3.6 0l26.9 13.7a4 4 0 0 1 2.2 3.5v26.5a4.2 4.2 0 0 1-2.2 3.6L33.4 62.8a3.8 3.8 0 0 1-3.6 0z"/><path fill="#ee3125" d="M6.3 44.9V22.3h.1l22.2 11.3v22.6z"/><path fill="#fee600" d="M9.6 17.1L31.8 5.8h.1l22.2 11.3-22.3 11.4z"/><path fill="#1265a2" d="M35 56.2V33.6l22.3-11.3h.1v22.6l-.1.1-22.2 11.3z"/></svg>