<svg height="32" viewBox="0 0 32 32" width="32" xmlns="http://www.w3.org/2000/svg"><path d="m15.1 31.5-13.4-6.9a2.1 2.1 0 0 1 -1.1-1.8v-13.6a1.9 1.9 0 0 1 1.1-1.8l13.4-7a2.1 2.1 0 0 1 1.9 0l13.4 7a2.1 2.1 0 0 1 1.1 1.8v13.6a2.3 2.3 0 0 1 -1.1 1.8l-13.4 6.9a2.1 2.1 0 0 1 -1.9 0z" fill="#231f20" stroke="#231f20" stroke-miterlimit="10" stroke-width=".5"/><path d="m3.4 22.4v-11.6l11.1 5.8v11.6z" fill="#ee3125"/><path d="m5 8.2 11.1-5.8h.1l11.1 5.8-11.2 5.8z" fill="#fee600"/><path d="m17.7 28.2v-11.6l11.2-5.8v11.6l-11.1 5.8z" fill="#1265a2"/></svg>