<svg id="Layer_1" data-name="Layer 1" xmlns="http://www.w3.org/2000/svg" viewBox="0 0 64 64"><defs><style>.cls-1{fill:#fff;}</style></defs><title>64px x 64px</title><circle cx="32" cy="32" r="31.48"/><circle class="cls-1" cx="32" cy="32" r="11.44"/><circle cx="32" cy="32" r="4.17"/><path class="cls-1" d="M20.22,13.64l-1.6-2.93s-.06-2,1.15-2.49,5.61-2.32,9.06-2.56,4,.17,4,.17a1.1,1.1,0,0,1,.14,1c-.21.65-.35,9.59-.35,9.59s-5.7.1-7.19,1.29-3.34-.7-3.34-.7Z"/><path class="cls-1" d="M13.36,12.93s1.48-1.61,2.89-.33a62.34,62.34,0,0,1,4.91,6.27s.52,1.48,0,1.91-2.15,0-2.15,0l-5.4-4.93A3.53,3.53,0,0,1,13.36,12.93Z"/><path class="cls-1" d="M44.79,51.34l1.59,2.93s.07,2-1.14,2.48-5.61,2.33-9.06,2.56-4-.16-4-.16a1.11,1.11,0,0,1-.14-1c.21-.66.35-9.6.35-9.6s5.7-.09,7.19-1.29,3.34.71,3.34.71Z"/><path class="cls-1" d="M51.64,52s-1.47,1.61-2.89.33a63.41,63.41,0,0,1-4.9-6.27s-.52-1.47,0-1.91,2.15,0,2.15,0l5.4,4.94A3.48,3.48,0,0,1,51.64,52Z"/></svg>