<svg xmlns="http://www.w3.org/2000/svg" xmlns:xlink="http://www.w3.org/1999/xlink" width="16" height="16" viewBox="0 0 16 16"><defs><clipPath id="clip-path"><circle cx="-143.5" cy="7.2" r="125.7" fill="none"/></clipPath><clipPath id="clip-path-2"><circle cx="8" cy="8" r="7.6" fill="none"/></clipPath></defs><title>logo</title><g id="Layer_4" data-name="Layer 4"><g clip-path="url(#clip-path)"><g opacity="0.17"><image id="VXz2AW" width="1880" height="1256" transform="translate(-480.3 -146.6) scale(0.62 0.31)" xlink:href="logo1.png"/></g></g><circle cx="8" cy="8" r="7.6" fill="#f6e2b0"/><g clip-path="url(#clip-path-2)"><g opacity="0.17"><image id="VXz2AW-2" data-name="VXz2AW" width="1880" height="1256" transform="translate(-12.3 -1.3) scale(0.04 0.02)" xlink:href="logo2.png"/></g></g><path d="M10.4,7.9A11.1,11.1,0,0,1,9.3,6.8a11.5,11.5,0,0,1-.2-1.4V4.9a12.1,12.1,0,0,1,.5-1.8s0-.7-.2-.9l-.8-.4-.6.3-.6.7L7,3.4H6a9,9,0,0,1-1.2,1l-.6.8S3.1,6.6,2.8,7.1A8.4,8.4,0,0,1,2,8.6L.7,10.2a1.2,1.2,0,0,0,1.4,0,3.5,3.5,0,0,0,1.1-1C4.7,6.8,4.3,8.1,4.3,8.1S3,9.9,4.4,10.7s2.6,2,3.2,2a7.1,7.1,0,0,0,.6,2.9h.1l1.8-.3c-.1-.7-.3-2.4-.4-2.6a19.4,19.4,0,0,0-2-3A8.9,8.9,0,0,1,8,8.3c.1-.1.8,0,.8,0l2.1,1s.9.4,1.2,0S10.4,7.9,10.4,7.9Z" fill="#55463c"/><path d="M4.2,10.6A24.1,24.1,0,0,1,3.4,14s1.4,1.1,1.8.9,1-3.2,1-3.2Z" fill="#55463c"/><polygon points="10.4 10.4 11 10.7 12.7 10.7 12 10.4 10.4 10.4" fill="#55463c"/><path d="M11,10.7v2h1.6v-2Z" fill="#55463c"/><polygon points="10.4 10.4 10.4 12.1 11 12.7 11 10.7 10.4 10.4" fill="#55463c"/><path d="M12.4,10.6c-.1-.3-.3-1.3-.7-1.2a1,1,0,0,0-.4.5,3.6,3.6,0,0,0-.2,1.1.2.2,0,1,0,.3,0,2.8,2.8,0,0,1,.1-.9c.1-.2.2-.4.4-.2a1.4,1.4,0,0,1,.2.7Z" fill="#55463c"/><path d="M10.8,10.7c0-.2,0-1.8.7-1.4s.3,1.1.3,1.5H12c.1-.5,0-1.9-.8-1.8s-.7,1.3-.6,1.7.2.1.2,0Z" fill="#55463c"/></g></svg>