<svg id="Layer_1" data-name="Layer 1" xmlns="http://www.w3.org/2000/svg" viewBox="0 0 16 16"><defs><style>.cls-1{fill:#fff;}</style></defs><title>Artboard 1</title><path class="cls-1" d="M7.71,12.57l-.22,0a7.32,7.32,0,0,1-1.41.11,8.64,8.64,0,0,1-2.51-.43,3.7,3.7,0,0,1-1.13-.59,2.73,2.73,0,0,0-1-.49l-.16,0-.07,0a.18.18,0,0,1,.15,0l.51,0L2.45,11l.62,0,1.28-.07a2.79,2.79,0,0,1,.81.12,5.9,5.9,0,0,1,1.44.67l.54.36h0L7,11.87a17.11,17.11,0,0,1-1.34-1.08A9.48,9.48,0,0,1,4.5,9.53c-.33-.41-.63-.85-.92-1.29L2.42,6.43a12,12,0,0,1-.7-1.27,2,2,0,0,1-.09-.26s0-.05,0-.05a.07.07,0,0,1,.06,0l.25.2a6.76,6.76,0,0,0,1.27.86A8.84,8.84,0,0,1,4.91,7.07,5.09,5.09,0,0,1,6,8.43c.29.5.58,1,.86,1.51s.49,1,.73,1.44l.19.35,0,.06h0a.41.41,0,0,0,0-.11l-.21-.77a11.64,11.64,0,0,1-.32-1.42c0-.34-.1-.68-.13-1s0-.82,0-1.23A10.3,10.3,0,0,1,7.23,6a9.42,9.42,0,0,1,.32-1.51A13.29,13.29,0,0,0,7.92,3c0-.34.09-.68.14-1l.12-1a.2.2,0,0,1,0-.11.22.22,0,0,1,0-.08.22.22,0,0,1,.05.08,2,2,0,0,1,.06.26c.08.47.15.93.23,1.4s.19.84.31,1.26a9.69,9.69,0,0,1,.34,1.6,13.29,13.29,0,0,1,.09,1.89q0,.6-.09,1.2a11.92,11.92,0,0,1-.42,2c-.1.34-.21.68-.32,1l0,.1h0l0,0c.08-.22.17-.44.25-.65A12.4,12.4,0,0,1,10,8.48a8.17,8.17,0,0,1,1.36-1.57,6.23,6.23,0,0,1,.82-.61c.5-.32,1-.66,1.46-1l.78-.58.1-.05h0l0,.07c-.1.11-.2.23-.29.35a4.41,4.41,0,0,0-.55.91L12.52,8.51a5.89,5.89,0,0,1-1.18,1.7,9.34,9.34,0,0,1-2.06,1.53l-.57.32-.08.06v0l.1,0,.52-.25L11,11a2.43,2.43,0,0,1,.78-.24,3.75,3.75,0,0,1,.58,0l.67,0h2.44l.06,0,0,0-.37.12a9.59,9.59,0,0,0-2.16.93,4.28,4.28,0,0,1-1.38.48,8.37,8.37,0,0,1-1.87.13c-.35,0-.69,0-1-.06H8.54v0l.09,0a4.74,4.74,0,0,1,.75.15,4.55,4.55,0,0,1,.88.37,2.07,2.07,0,0,1,.75.75,4.83,4.83,0,0,0,.54.72l.12.15a.45.45,0,0,1,0,.08l-.1,0a5.32,5.32,0,0,0-.94-.28,5.51,5.51,0,0,1-1.56-.66,2,2,0,0,1-.73-.84l0-.06,0,1.9,0,0-.25-.23a.18.18,0,0,1,0-.1c0-.5,0-1,0-1.51v0H8l0,0A3.22,3.22,0,0,1,6.75,14a5.18,5.18,0,0,1-1.21.45L5,14.56c-.14,0-.28.06-.43.09H4.51s0,0,0-.05a1.46,1.46,0,0,1,.16-.19l.41-.46a5.12,5.12,0,0,1,1.35-1,4,4,0,0,1,1.06-.33l.2,0Z"/></svg>