<svg xmlns="http://www.w3.org/2000/svg" width="32" height="32" viewBox="0 0 32 32"><circle cx="12.8" cy="18.5" r="1.3" fill="#372862"/><circle cx="19.3" cy="14" r="1.3" fill="#372862"/><path fill="#372862" d="M29.5 19.8c-2.6-1.3-4.9-2.1-5.1-2.3a5.4 5.4 0 0 0-.8-5 5.9 5.9 0 0 0-3.1-2.1c.1-2.1-3.1-4.1-3.1-4.1-2.1 1.4-2.3 5.6-2.3 5.6l-1.4 1-1.4 1s-4-1.3-6.1.1c0 0 .8 3.7 2.8 4.4a5.3 5.3 0 0 0 .9 3.6 5.2 5.2 0 0 0 4.3 2.5s0 2.7.3 5.8a86.5 86.5 0 0 0 15-10.5zm-11.4-7.6a2.2 2.2 0 1 1-.6 3 2.1 2.1 0 0 1 .6-3zm-6.6 4.5a2.2 2.2 0 0 1 3.1.6 2.2 2.2 0 0 1-.6 3 2.2 2.2 0 0 1-3-.5 2.3 2.3 0 0 1 .5-3.1z"/><path fill="#fff" d="M28.8 17a23.1 23.1 0 0 0-3.7-10.4A12.6 12.6 0 0 0 7.2 3.4C1.3 7.5-.5 15.2 3.8 21.3a26 26 0 0 0 8.2 7.4h-.2c-1 .7 0 2.7 1.4 2.1a55.1 55.1 0 0 0 8.9-5.4 58.2 58.2 0 0 0 8.2-6.4c1-1-.5-2.7-1.5-2zm-1.7-2.1c-.1 1.3-3.5 4.3-7.2 6.9s-7.8 4.7-9 4.3-7.6-8-7.4-10.7 3.5-4.3 7.2-6.9 7.7-4.7 9-4.3 7.6 8.1 7.4 10.7zm-5 10.6z"/><path fill="none" stroke="#0b9cdf" stroke-miterlimit="10" stroke-width=".48" d="M19.9 21.8c3.7-2.6 7.1-5.6 7.2-6.9S22.3 5 19.7 4.2s-5.3 1.8-9 4.3-7.1 5.6-7.2 6.9 4.9 10 7.4 10.7 5.3-1.7 9-4.3"/><path fill="#0b9cdf" d="M29.2 16.4a24.5 24.5 0 0 0-3.7-10.1A13.1 13.1 0 0 0 6.9 3a13.1 13.1 0 0 0-3.5 18.6 24.2 24.2 0 0 0 7.8 7.1 1.7 1.7 0 0 0 0 1.8 1.7 1.7 0 0 0 2.2.9 67.8 67.8 0 0 0 9-5.5 52.1 52.1 0 0 0 8.2-6.5 1.6 1.6 0 0 0 0-2.4 2 2 0 0 0-1.4-.6zm-25 4.7A12.2 12.2 0 0 1 7.4 3.8a12.3 12.3 0 0 1 17.3 3 23.9 23.9 0 0 1 3.7 10.1 5.1 5.1 0 0 1-1.3 1.2c-1.5 1.3-3.9 3.2-6.6 5.1a79 79 0 0 1-7.1 4.4 3.8 3.8 0 0 1-1.3.6 25 25 0 0 1-7.9-7.1zm25.7-2.3a64 64 0 0 1-8 6.3 52 52 0 0 1-8.9 5.4.9.9 0 0 1-1-.4.7.7 0 0 1 0-.9h.3l.7-.5.8-.4c1.7-1.1 4.3-2.6 7-4.5a75.1 75.1 0 0 0 6.7-5.1l1-.8.6-.4c.2-.2.6 0 .8.2a.9.9 0 0 1 0 1.1z"/></svg>