<?xml version="1.0" encoding="utf-8"?>
<!-- Generator: Adobe Illustrator 23.0.2, SVG Export Plug-In . SVG Version: 6.00 Build 0)  -->
<svg version="1.1" id="Layer_1" xmlns="http://www.w3.org/2000/svg" xmlns:xlink="http://www.w3.org/1999/xlink" x="0px" y="0px"
	 viewBox="0 0 256 100.8" style="enable-background:new 0 0 256 100.8;" xml:space="preserve">
<style type="text/css">
	.st0{fill:#FFFFFF;}
	.st1{font-family:'CenturyGothicPro';}
	.st2{font-size:16.73px;}
</style>
<title>256px x 256px</title>
<path d="M59.5,68.2c-0.1-0.4-0.2-0.8-0.3-1.1L38.4,11.4c-0.3-0.8-0.6-1.4-0.9-2c-0.2-0.5-0.5-0.9-0.9-1.3c-0.3-0.3-0.7-0.6-1.1-0.7
	c-0.5-0.1-0.9-0.2-1.4-0.2h-6.8c-0.9,0-1.8,0.5-2.4,1.2c-0.7,1-1.2,2-1.5,3.2L4.4,69c-0.2,0.5-0.3,1-0.4,1.3s-0.2,0.7-0.2,1
	c0,0.8,0.5,1.1,1.5,1.1H10c0.4,0,0.8,0,1.2-0.2c0.3-0.1,0.6-0.3,0.8-0.6c0.2-0.3,0.3-0.6,0.5-0.9c0.1-0.4,0.2-0.8,0.3-1.2l0.3-1.4
	l1.4-5.6l4.8-17.7l5,17.7l1.5,5.6l0.5,1.6c0.1,0.3,0.2,0.6,0.4,0.8c0.2,0.3,0.5,0.6,0.8,0.9c0.4,0.3,0.9,0.5,1.3,0.7
	c0.6,0.2,1.3,0.3,2,0.3h25.7c0.8,0,1.5-0.3,2.1-0.8c0.7-0.6,1.1-1.5,1-2.4C59.6,68.9,59.6,68.5,59.5,68.2z M55.1,68.2
	c-0.3,0.3-0.7,0.4-1.1,0.3h-2.2L30.4,11H32c0.6,0,1.2,0,1.8,0.2c0.4,0.3,0.8,0.7,0.9,1.2l20.4,54.5C55.3,67.5,55.3,68,55.1,68.2
	L55.1,68.2z"/>
<path d="M82.7,54v13.8c0,0.6,0,1.1-0.1,1.7c-0.1,0.5-0.3,0.9-0.6,1.2c-0.4,0.4-0.8,0.6-1.3,0.7c-0.8,0.2-1.6,0.3-2.4,0.2H66.8
	c-0.7,0-1.4-0.1-2.1-0.2c-0.5-0.1-0.9-0.4-1.3-0.7c-0.3-0.3-0.5-0.7-0.6-1.2s-0.2-1.1-0.2-1.7V47.5c0-0.6,0.1-1.1,0.2-1.6
	c0.1-0.4,0.3-0.9,0.6-1.2c0.4-0.3,0.8-0.6,1.3-0.7c0.7-0.2,1.4-0.3,2.1-0.2h11.9c0.7,0,1.3,0.1,2,0.2c0.5,0.1,0.9,0.4,1.2,0.7
	c0.3,0.3,0.5,0.8,0.6,1.2c0.1,0.6,0.2,1.1,0.2,1.7v2 M80.4,47.7c0-0.3,0-0.7-0.1-1c0-0.2-0.2-0.4-0.3-0.5c-0.2-0.1-0.4-0.2-0.7-0.2
	c-0.4,0-0.7,0-1.1,0v23.3c0.4,0,0.7,0,1.1,0c0.2,0,0.5-0.1,0.7-0.2s0.3-0.3,0.3-0.5c0.1-0.3,0.1-0.7,0.1-1V47.7z"/>
<path d="M111.7,58.6c0,1.5,0.2,3.1,0.6,4.6c0.3,1.1,0.8,2,1.5,2.9c0.5,0.7,1.2,1.2,1.9,1.5c0.6,0.3,1.3,0.4,1.9,0.4
	c0.4,0,0.8-0.1,1.2-0.2c0.3-0.1,0.7-0.2,1-0.4c0.3-0.1,0.5-0.3,0.7-0.4c0.1-0.1,0.3-0.1,0.5-0.2c0.1,0,0.2,0,0.3,0.1
	c0.1,0.1,0.2,0.2,0.2,0.3l0.9,1.5c0.1,0.1,0.1,0.2,0.1,0.4c0,0.1,0,0.2-0.1,0.3c-0.1,0.1-0.1,0.1-0.2,0.2c-0.7,0.5-1.4,0.9-2.2,1.3
	c-1,0.5-2,0.9-3,1.3c-1.3,0.4-2.6,0.8-3.9,1c-1.5,0.3-3.1,0.4-4.6,0.4c-1.4,0-2.7-0.1-4.1-0.3c-1.3-0.2-2.7-0.6-3.9-1.1
	c-1.2-0.5-2.4-1.1-3.5-1.9s-2-1.7-2.8-2.8c-0.8-1.2-1.5-2.5-1.9-3.8c-0.9-3.3-0.9-6.7,0-9.9c0.4-1.4,1-2.7,1.9-3.8
	c0.8-1.1,1.7-2,2.8-2.8c1.1-0.8,2.2-1.4,3.5-1.9s2.6-0.8,3.9-1.1c1.3-0.2,2.7-0.3,4.1-0.3s2.9,0.1,4.3,0.3c1.3,0.2,2.6,0.5,3.8,0.9
	c1.1,0.3,2.1,0.8,3.2,1.2c0.8,0.4,1.6,0.8,2.3,1.3l0.2,0.2c0.1,0.1,0.1,0.2,0.1,0.3c0,0.1,0,0.3-0.1,0.4l-1,1.5
	c-0.1,0.1-0.1,0.2-0.2,0.3c-0.1,0.1-0.2,0.1-0.3,0.1c-0.2,0-0.3-0.1-0.4-0.2c-0.2-0.1-0.4-0.2-0.7-0.4c-0.3-0.1-0.7-0.3-1-0.4
	c-0.4-0.1-0.8-0.2-1.2-0.2c-0.7,0-1.3,0.2-1.9,0.4c-0.8,0.4-1.4,0.9-1.9,1.5c-0.7,0.9-1.2,1.9-1.5,2.9
	C111.8,55.5,111.6,57,111.7,58.6z M115.3,69.1c-0.7-0.2-1.3-0.4-1.9-0.8c-0.8-0.5-1.4-1.1-1.9-1.9c-0.7-1-1.2-2-1.5-3.2
	c-0.4-1.5-0.6-3.1-0.6-4.7s0.2-3.2,0.6-4.7c0.3-1.1,0.8-2.2,1.5-3.2c0.5-0.8,1.2-1.4,1.9-1.9c0.6-0.4,1.2-0.7,1.9-0.8
	c-1,0-2,0.2-2.9,0.6c-1,0.4-1.9,1-2.6,1.8c-0.9,0.9-1.5,2-1.9,3.2c-0.5,1.6-0.8,3.2-0.7,4.9c0,1.6,0.2,3.3,0.7,4.9
	c0.4,1.2,1,2.3,1.9,3.2c0.7,0.8,1.6,1.4,2.6,1.8C113.3,68.9,114.3,69.1,115.3,69.1L115.3,69.1z"/>
<path d="M145.8,45c0.4-0.3,0.9-0.6,1.4-0.8c0.6-0.2,1.2-0.3,1.9-0.3c1.6-0.1,3.1,0.6,4.1,1.8c1.1,1.5,1.6,3.4,1.5,5.3v20.1
	c0,0.2,0,0.5-0.1,0.7c-0.1,0.3-0.4,0.5-0.7,0.5c-0.2,0-0.3,0-0.5,0h-1.7c-0.5,0-0.8-0.1-0.9-0.4c-0.1-0.3-0.2-0.6-0.2-0.9V50.7
	c0.1-0.8-0.1-1.7-0.6-2.4c-0.4-0.6-1.1-0.9-1.8-0.8c-0.4,0-0.9,0.1-1.3,0.3c-0.4,0.2-0.7,0.4-1,0.7v19.9c0,0.6,0,1.1-0.1,1.7
	c-0.1,0.4-0.2,0.9-0.5,1.2c-0.3,0.3-0.7,0.6-1.2,0.7c-0.7,0.2-1.4,0.3-2.1,0.2h-12.6c-0.6,0-1.2-0.1-1.8-0.2
	c-0.4-0.1-0.8-0.4-1.1-0.7c-0.3-0.3-0.5-0.7-0.6-1.2s-0.2-1.1-0.2-1.7v-37c0-0.6,0-1.1,0.2-1.7c0.1-0.4,0.3-0.9,0.6-1.2
	c0.4-0.3,0.8-0.6,1.3-0.7c0.7-0.2,1.4-0.3,2.1-0.2h11.9c0.7,0,1.3,0.1,2,0.2c0.5,0.1,0.9,0.4,1.2,0.7s0.5,0.7,0.6,1.2
	c0.1,0.6,0.2,1.1,0.1,1.7V45H145.8z M143.5,31.8c0-0.3,0-0.7-0.1-1c0-0.2-0.1-0.4-0.3-0.5s-0.4-0.2-0.7-0.2c-0.4,0-0.7,0-1.1,0v40
	c0.4,0,0.8,0,1.1,0c0.2,0,0.5-0.1,0.7-0.2s0.3-0.3,0.3-0.5c0.1-0.3,0.1-0.7,0.1-1V31.8z"/>
<path d="M87.9,50.8c-0.3,0-0.5-0.2-0.5-0.5c0-0.6-0.2-1.3-0.5-1.8c-0.4-0.6-1.1-0.9-1.8-0.8c-0.4,0-0.9,0.1-1.3,0.3
	c-0.4,0.2-0.7,0.4-1,0.7L82,45.3c0.7-0.4,1.5-0.8,2.2-1.1c0.6-0.2,1.2-0.3,1.8-0.3c1.6-0.1,3.1,0.6,4.1,1.8c1,1.4,1.5,3,1.4,4.6
	c0,0.3-0.2,0.6-0.6,0.6l0,0L87.9,50.8z"/>
<path d="M194.8,48.2c0-0.6,0.1-1.1,0.2-1.7c0.1-0.4,0.3-0.9,0.6-1.2c0.4-0.3,0.8-0.6,1.3-0.7c0.7-0.2,1.4-0.3,2.1-0.2h11.9
	c0.7,0,1.3,0.1,2,0.2c0.5,0.1,0.9,0.4,1.2,0.7c0.3,0.3,0.5,0.7,0.6,1.2c0.1,0.6,0.1,1.1,0.1,1.7v20.4c0,0.5,0,1.1-0.1,1.6
	c-0.1,0.4-0.3,0.8-0.6,1.2c-0.3,0.3-0.8,0.6-1.2,0.7c-0.7,0.2-1.3,0.2-2,0.2H199c-0.7,0-1.4-0.1-2.1-0.2c-0.5-0.1-0.9-0.4-1.3-0.7
	c-0.3-0.3-0.5-0.7-0.6-1.2s-0.2-1.1-0.2-1.7L194.8,48.2L194.8,48.2z M212.6,48.5c0-0.3,0-0.7-0.1-1c0-0.2-0.2-0.4-0.3-0.5
	c-0.2-0.1-0.4-0.2-0.6-0.2c-0.3,0-0.6,0-1.1,0v23.3c0.4,0,0.8,0,1.1,0c0.2,0,0.5-0.1,0.6-0.2c0.2-0.1,0.3-0.3,0.3-0.5
	c0.1-0.3,0.1-0.7,0.1-1V48.5z"/>
<path d="M238.6,58.6c0,1.5,0.2,3.1,0.6,4.6c0.3,1.1,0.8,2,1.5,2.9c0.5,0.7,1.2,1.2,1.9,1.5c0.6,0.3,1.3,0.4,1.9,0.4
	c0.4,0,0.9-0.1,1.3-0.2c0.3-0.1,0.7-0.2,1-0.4c0.3-0.1,0.5-0.3,0.7-0.4c0.1-0.1,0.3-0.1,0.5-0.2c0.1,0,0.2,0,0.3,0.1
	s0.2,0.2,0.2,0.3l1,1.5c0.1,0.1,0.1,0.2,0.1,0.4c0,0.1,0,0.2-0.1,0.3c-0.1,0.1-0.1,0.1-0.2,0.2c-0.7,0.5-1.4,0.9-2.2,1.3
	c-1,0.5-2,0.9-3,1.3c-1.3,0.4-2.5,0.8-3.9,1c-1.5,0.3-3.1,0.4-4.6,0.4c-1.4,0-2.7-0.1-4.1-0.3c-1.3-0.2-2.6-0.6-3.9-1.1
	c-1.2-0.5-2.4-1.1-3.5-1.9s-2-1.7-2.8-2.8c-0.8-1.2-1.5-2.5-1.9-3.8c-0.9-3.2-0.9-6.7,0-9.9c0.4-1.4,1-2.7,1.9-3.8
	c0.8-1.1,1.7-2,2.8-2.8s2.2-1.4,3.5-1.9s2.6-0.8,3.9-1.1c1.4-0.2,2.7-0.3,4.1-0.3c1.4,0,2.9,0.1,4.3,0.3c1.3,0.2,2.6,0.5,3.8,0.9
	c1.1,0.3,2.1,0.8,3.2,1.2c0.8,0.4,1.6,0.8,2.3,1.3l0.2,0.2c0.1,0.1,0.1,0.2,0.1,0.3c0,0.1-0.1,0.3-0.1,0.4l-0.9,1.5
	c-0.1,0.1-0.1,0.2-0.2,0.3c-0.1,0.1-0.2,0.1-0.3,0.1c-0.2,0-0.3-0.1-0.4-0.2c-0.2-0.1-0.4-0.2-0.7-0.4c-0.3-0.1-0.7-0.3-1-0.4
	c-0.4-0.1-0.8-0.2-1.2-0.2c-0.7,0-1.3,0.2-1.9,0.4c-0.8,0.4-1.4,0.9-1.9,1.5c-0.7,0.9-1.2,1.9-1.5,2.9
	C238.8,55.5,238.6,57,238.6,58.6z M242.2,69.1c-0.7-0.2-1.3-0.4-1.9-0.8c-0.8-0.5-1.4-1.1-1.9-1.9c-0.7-1-1.2-2-1.5-3.2
	c-0.4-1.5-0.6-3.1-0.6-4.7s0.2-3.2,0.6-4.7c0.3-1.1,0.8-2.2,1.5-3.2c0.5-0.7,1.2-1.4,1.9-1.9c0.6-0.4,1.2-0.7,1.9-0.8
	c-1,0-2,0.2-2.9,0.6c-1,0.4-1.9,1-2.6,1.8c-0.8,0.9-1.5,2-1.9,3.2c-0.5,1.6-0.8,3.2-0.7,4.9c0,1.6,0.2,3.3,0.7,4.9
	c0.4,1.2,1,2.3,1.9,3.2c0.7,0.8,1.6,1.4,2.6,1.8C240.3,68.9,241.2,69.1,242.2,69.1L242.2,69.1z"/>
<path d="M191.8,70.6c0-0.2-0.1-0.3-0.2-0.5l-12.5-23.8c-0.2-0.3-0.3-0.6-0.5-0.8c-0.1-0.2-0.3-0.4-0.5-0.6c-0.2-0.1-0.4-0.2-0.6-0.3
	c-0.3-0.1-0.6-0.1-0.8-0.1h-4.1c-0.5,0-1.1,0.2-1.5,0.5c-0.4,0.4-0.7,0.8-0.9,1.4L158.8,71c-0.1,0.2-0.2,0.4-0.3,0.6
	c-0.1,0.1-0.1,0.3-0.1,0.4c0,0.3,0.3,0.5,0.9,0.5h2.8c0.3,0,0.5,0,0.8-0.1c0.2,0,0.3-0.1,0.4-0.2c0.1-0.1,0.2-0.2,0.3-0.4
	c0.1-0.2,0.1-0.3,0.2-0.5l0.2-0.6l0.9-2.4l2.9-7.6l3,7.6l0.9,2.4l0.3,0.7c0.1,0.1,0.1,0.2,0.2,0.4c0.1,0.2,0.3,0.3,0.5,0.4
	c0.3,0.1,0.5,0.2,0.8,0.3c0.4,0.1,0.8,0.1,1.2,0.1H190c0.4,0,0.9-0.1,1.2-0.3c0.4-0.2,0.6-0.6,0.6-1
	C191.8,70.9,191.8,70.7,191.8,70.6z M189.2,70.6c-0.2,0.1-0.4,0.2-0.7,0.1h-1.3l-12.9-24.6h0.9c0.4,0,0.7,0,1.1,0.1
	c0.2,0.1,0.4,0.3,0.5,0.5L189,70C189.3,70.3,189.3,70.5,189.2,70.6L189.2,70.6z"/>
<circle cx="205" cy="31.7" r="9.9"/>
<circle class="st0" cx="205" cy="31.7" r="3.6"/>
<circle cx="205" cy="31.7" r="1.3"/>
<path class="st0" d="M201.3,25.9l-0.5-0.9c0,0,0-0.6,0.4-0.8c0.9-0.4,1.8-0.7,2.8-0.8c1.1-0.1,1.2,0,1.2,0c0.1,0.1,0.1,0.2,0.1,0.3
	c-0.1,0.2-0.1,3-0.1,3c-0.8,0-1.5,0.1-2.3,0.4c-0.5,0.4-1-0.2-1-0.2L201.3,25.9z"/>
<path class="st0" d="M199.2,25.7c0,0,0.5-0.5,0.9-0.1c0.6,0.6,1.1,1.3,1.5,2c0,0,0.2,0.5,0,0.6s-0.7,0-0.7,0l-1.7-1.6
	C199.1,26.4,199.1,26,199.2,25.7z"/>
<path class="st0" d="M209,37.7l0.5,0.9c0,0,0,0.6-0.4,0.8c-0.9,0.4-1.9,0.7-2.8,0.8c-1.1,0.1-1.3,0-1.3,0c-0.1-0.1-0.1-0.2-0.1-0.3
	c0.1-0.2,0.1-3,0.1-3c0.8,0,1.5-0.1,2.3-0.4c0.5-0.4,1,0.2,1,0.2L209,37.7z"/>
<path class="st0" d="M211.2,38c0,0-0.5,0.5-0.9,0.1c-0.6-0.6-1.1-1.3-1.5-2c0,0-0.2-0.5,0-0.6s0.7,0,0.7,0l1.7,1.6
	C211.3,37.3,211.3,37.7,211.2,38z"/>
<text transform="matrix(1 0 0 1 181.77 88.07)" class="st1 st2">Reco</text>
<text transform="matrix(1 0 0 1 224.59 88.07)" class="st1 st2">r</text>
<text transform="matrix(1 0 0 1 229.53 88.07)" class="st1 st2">d</text>
<text transform="matrix(1 0 0 1 240.99 88.07)" class="st1 st2">s</text>
<text transform="matrix(1 0 0 1 246.15 88.07)" class="st1 st2">.</text>
</svg>
