<svg xmlns="http://www.w3.org/2000/svg" id="Layer_1" width="256" height="256" viewBox="0 0 256 256"><path fill="#231f20" stroke="#231f20" stroke-miterlimit="10" stroke-width="3.95" d="M121.2 249.8L13.6 195.1a16 16 0 0 1-8.7-14.2V75.1a16 16 0 0 1 8.7-14.2L121.2 6.2a15.9 15.9 0 0 1 14.4 0l107.6 54.7a16 16 0 0 1 8.7 14.2v105.8a16 16 0 0 1-8.7 14.2l-107.6 54.7a15.9 15.9 0 0 1-14.4 0z"/><path fill="#ee3125" d="M27.3 178.3V87.7l.1-.1 89 45.4v90.5l-89.1-45.2z"/><path fill="#fee600" d="M128.2 121.2h.1-.1zM40.2 67l89-45.2h.2L218.5 67l-89.3 45.4-89-45.4z"/><path fill="#1265a2" d="M142 223.5V133l89.3-45.4.1.1v90.6l-.3.2-88.9 45.1-.2-.1z"/></svg>