<svg xmlns="http://www.w3.org/2000/svg" xmlns:xlink="http://www.w3.org/1999/xlink" width="32" height="32" viewBox="0 0 32 32"><defs><clipPath id="clip-path"><circle cx="-144" cy="53.2" r="125.7" fill="none"/></clipPath><clipPath id="clip-path-2"><circle cx="31.5" cy="-42.6" r="29.8" fill="none"/></clipPath><clipPath id="clip-path-3"><circle cx="16" cy="16" r="14.2" fill="none"/></clipPath></defs><title>logo</title><g id="Layer_4" data-name="Layer 4"><g clip-path="url(#clip-path)"><g opacity="0.17"><image id="VXz2AW" width="1880" height="1256" transform="translate(-480.8 -100.6) scale(0.62 0.31)" xlink:href="logo1.png"/></g></g><g clip-path="url(#clip-path-2)"><g opacity="0.17"><image id="VXz2AW-2" data-name="VXz2AW" width="1880" height="1256" transform="translate(-48.5 -79.1) scale(0.15 0.07)" xlink:href="logo2.png"/></g></g><circle cx="16" cy="16" r="14.2" fill="#f6e2b0"/><g clip-path="url(#clip-path-3)"><g opacity="0.17"><image id="VXz2AW-3" data-name="VXz2AW" width="1880" height="1256" transform="translate(-22 -1.4) scale(0.07 0.04)" xlink:href="logo3.png"/></g></g><path d="M20.5,15.8a12.3,12.3,0,0,1-2-2,10.3,10.3,0,0,1-.4-2.6,4.7,4.7,0,0,0-.3-.9,28.9,28.9,0,0,1,1.1-3.5s-.1-1.2-.6-1.6A3.3,3.3,0,0,0,17,4.3a7.6,7.6,0,0,0-1.3.7l-.9,1.3-.6,1.1a7.2,7.2,0,0,0-1.9.2L10.1,9.4,9,10.9a22.3,22.3,0,0,0-2.6,3.5,22.8,22.8,0,0,1-1.7,2.7L2.4,20.2a2.3,2.3,0,0,0,2.6,0,7.2,7.2,0,0,0,2.1-2c2.7-4.5,2-2,2-2s-2.5,3.3.2,4.9,4.9,3.7,5.9,3.6,0,3.6,1.2,5.5h.2a19.1,19.1,0,0,0,3.3-.6c-.2-1.3-.6-4.4-.7-4.8s-2.8-4.9-3.8-5.6.3-2.5.6-2.6,1.5,0,1.5,0l3.9,1.9s1.6.7,2.2-.1S20.5,15.8,20.5,15.8Z" fill="#55463c"/><path d="M8.9,20.8a49.3,49.3,0,0,1-1.4,6.5s2.6,2,3.3,1.6S12.7,23,12.7,23Z" fill="#55463c"/><polygon points="20.5 20.6 21.6 21.1 24.8 21.1 23.4 20.6 20.5 20.6" fill="#55463c"/><path d="M21.6,21.1v3.7h2.9l.3-.3V21.1Z" fill="#55463c"/><polygon points="20.5 20.6 20.5 23.6 21.6 24.8 21.6 21.1 20.5 20.6" fill="#55463c"/><path d="M21.8,20.7a1.7,1.7,0,0,1,0-1.2c.1-.4.6-1.1.9-.5s.2.7.2,1a2.8,2.8,0,0,1,0,1.3c0,.4.7.6.8.2a8.9,8.9,0,0,0-.1-2.3,1.4,1.4,0,0,0-1-1.2,1.5,1.5,0,0,0-1.4.9,2.7,2.7,0,0,0-.1,2c.1.4.8.2.7-.2Z" fill="#55463c"/><path d="M22.3,20.7a2.4,2.4,0,0,1,0-1.2c.1-.4.7-1.1,1-.5s.2.7.2,1v1.3c-.1.4.6.6.7.2a6,6,0,0,0-.1-2.3c-.1-.5-.3-1.1-.9-1.2a1.4,1.4,0,0,0-1.4.9,2.7,2.7,0,0,0-.2,2c.1.4.9.2.7-.2Z" fill="#55463c"/></g></svg>