<svg xmlns="http://www.w3.org/2000/svg" id="Layer_1" width="16" height="16" viewBox="0 0 16 16"><path fill="#231f20" stroke="#231f20" stroke-miterlimit="10" stroke-width=".25" d="M7.6 16L.9 12.5a1 1 0 0 1-.6-.9V4.8a1 1 0 0 1 .6-.9L7.6.4a.8.8 0 0 1 .9 0l6.7 3.5a1.1 1.1 0 0 1 .5.9v6.8a1.1 1.1 0 0 1-.5.9L8.5 16a1.4 1.4 0 0 1-.9 0z"/><path fill="#ee3125" d="M1.7 11.4V5.6l5.6 2.9v5.8l-5.6-2.9z"/><path fill="#fee600" d="M8 7.7zM2.5 4.3l5.6-2.9 5.6 2.9-5.6 2.9-5.6-2.9z"/><path fill="#1265a2" d="M8.9 14.3V8.5l5.6-2.9v5.8h-.1l-5.5 2.9z"/></svg>