<svg id="Layer_1" data-name="Layer 1" xmlns="http://www.w3.org/2000/svg" viewBox="0 0 16 16"><defs><style>.cls-1{fill:#fff;}</style></defs><title>16 x 16px</title><circle cx="8" cy="8" r="7.84"/><circle class="cls-1" cx="8" cy="8" r="2.85"/><circle cx="8" cy="8" r="1.04"/><path class="cls-1" d="M5.07,3.43l-.4-.73s0-.49.28-.62a8.29,8.29,0,0,1,2.26-.64c.86-.06,1,0,1,0a.27.27,0,0,1,0,.26c-.06.17-.09,2.39-.09,2.39a4.9,4.9,0,0,0-1.79.32c-.37.3-.83-.17-.83-.17Z"/><path class="cls-1" d="M3.36,3.25s.37-.4.72-.08A16.13,16.13,0,0,1,5.3,4.73s.13.37,0,.48-.54,0-.54,0L3.42,4A.86.86,0,0,1,3.36,3.25Z"/><path class="cls-1" d="M11.19,12.82l.39.72s0,.5-.28.62A8.29,8.29,0,0,1,9,14.8c-.86.06-1,0-1,0a.27.27,0,0,1,0-.26c.06-.16.09-2.39.09-2.39a4.69,4.69,0,0,0,1.79-.32c.38-.3.83.17.83.17Z"/><path class="cls-1" d="M12.89,13s-.36.4-.72.08A16.13,16.13,0,0,1,11,11.51s-.13-.37,0-.47.54,0,.54,0l1.34,1.22A.86.86,0,0,1,12.89,13Z"/></svg>