<?xml version="1.0" encoding="utf-8"?>
<!-- Generator: Adobe Illustrator 23.0.1, SVG Export Plug-In . SVG Version: 6.00 Build 0)  -->
<svg version="1.1" id="Layer_1" xmlns="http://www.w3.org/2000/svg" xmlns:xlink="http://www.w3.org/1999/xlink" x="0px" y="0px"
	 viewBox="0 0 32 32" style="enable-background:new 0 0 32 32;" xml:space="preserve">
<style type="text/css">
	
		.st0{fill:none;stroke:#010101;stroke-width:0.6946;stroke-linecap:round;stroke-linejoin:round;stroke-miterlimit:6;stroke-dasharray:3.473242e-02,4.8539;}
	.st1{fill:none;stroke:#010101;stroke-width:0.3473;stroke-miterlimit:10;}
	.st2{fill:#010101;}
	.st3{fill:none;stroke:#010101;stroke-width:0.6408;stroke-miterlimit:10;}
	.st4{fill:#010101;stroke:#010101;stroke-width:0.3204;stroke-miterlimit:10;}
	
		.st5{fill:none;stroke:#010101;stroke-width:0.6878;stroke-linecap:round;stroke-linejoin:round;stroke-miterlimit:6;stroke-dasharray:3.439071e-02,4.8147;}
	.st6{font-family:'Dosis-SemiBold';}
	.st7{font-size:12.3795px;}
</style>
<path class="st0" d="M16.2,0.8"/>
<path class="st0" d="M31.3,14"/>
<path class="st1" d="M31.6,16l-2.5,3.6l-3.7,2.5c0,0-4.5,1.8-4.7,1.8c-0.2,0.1,0-3,0-3"/>
<path class="st2" d="M16.4,18.6c-0.2,0.2-0.5,0.4-0.7,0.6c-0.3,0.2-0.6,0.3-0.8,0.5l-1.7,0.9l-1.7,0.9L10.7,22
	c-0.3,0.1-0.6,0.2-0.9,0.3c0.2-0.2,0.5-0.4,0.7-0.6l0.8-0.5l1.7-0.9l1.7-0.9c0.3-0.2,0.6-0.3,0.8-0.5C15.8,18.8,16.1,18.7,16.4,18.6
	L16.4,18.6z"/>
<g>
	<path class="st3" d="M31.3,16.2c0,8.4-6.8,15.2-15.2,15.2C7.9,31.4,1.2,25,0.8,16.9l3.6-0.7l0.2,4.7l2.9-0.3l6.1-3.1l2.3-0.5l3.7,0
		l-1.4,4l-1.3,0.7l-2.6,1.7l6.3-2.3l4.7,1.1l4-8L31.3,16.2z"/>
	<path class="st3" d="M4.4,16.2l3.1,4.4"/>
	<path class="st3" d="M13.5,17.4l2.1,1.6l3.9-2"/>
	<path class="st3" d="M16.8,21.7L15.7,19l2.4,1.9"/>
	<path class="st3" d="M28.8,19.8l0.4-5.6"/>
</g>
<path class="st3" d="M31.3,16.2l-2.4,3.6l-3.7,2.5c0,0-4.5,1.8-4.7,1.8c-0.2,0.1,0-3,0-3"/>
<path class="st4" d="M16.2,18.7c-0.2,0.2-0.5,0.4-0.7,0.6c-0.3,0.2-0.6,0.3-0.8,0.5L13,20.7l-1.6,0.9l-0.8,0.5
	c-0.3,0.1-0.6,0.2-0.9,0.3c0.2-0.2,0.5-0.4,0.7-0.6l0.8-0.5l1.6-0.9l1.6-0.9c0.3-0.2,0.6-0.3,0.8-0.5C15.6,18.9,15.9,18.8,16.2,18.7
	L16.2,18.7z"/>
<path class="st5" d="M1.1,14.2c-0.1,0.7-0.1,1.4-0.1,2c0,0.4,0,0.7,0,1.1"/>
<path class="st5" d="M31,13.9C31,13.8,31,13.8,31,13.9"/>
<circle class="st2" cx="1.1" cy="14" r="0.6"/>
<circle class="st2" cx="2.3" cy="9.5" r="0.6"/>
<circle class="st2" cx="5.1" cy="5.5" r="0.6"/>
<circle class="st2" cx="8.9" cy="2.6" r="0.6"/>
<circle class="st2" cx="13.4" cy="1" r="0.6"/>
<circle class="st2" cx="18.3" cy="1" r="0.6"/>
<circle class="st2" cx="22.9" cy="2.4" r="0.6"/>
<circle class="st2" cx="26.8" cy="5.3" r="0.6"/>
<circle class="st2" cx="29.6" cy="9.2" r="0.6"/>
<circle class="st2" cx="31" cy="13.7" r="0.6"/>
<text transform="matrix(1 0 0 1 7.6431 16.1274)" class="st2 st6 st7">U C</text>
<circle class="st2" cx="16" cy="15" r="0.6"/>
</svg>
