<svg id="Layer_1" data-name="Layer 1" xmlns="http://www.w3.org/2000/svg" viewBox="0 0 64 64"><defs><style>.cls-1,.cls-4{fill:#231f20;}.cls-2{fill:none;}.cls-3{fill:#fff;}.cls-4{font-size:4.21px;font-family:CenturyGothicPro, Century Gothic Pro;}.cls-5{letter-spacing:-0.01em;}.cls-6{letter-spacing:-0.08em;}</style></defs><title>64px x 64px</title><path class="cls-1" d="M14.78,36.47a1.28,1.28,0,0,0-.08-.29l-5.23-14a4.31,4.31,0,0,0-.22-.51A1.36,1.36,0,0,0,9,21.37a.65.65,0,0,0-.27-.17.89.89,0,0,0-.35-.05H6.71a.8.8,0,0,0-.61.28,2.29,2.29,0,0,0-.39.8L.94,36.65c0,.13-.08.24-.1.34a.75.75,0,0,0,0,.24c0,.19.12.29.36.29H2.33a.93.93,0,0,0,.32-.05.58.58,0,0,0,.19-.15A1.23,1.23,0,0,0,3,37.09a2.17,2.17,0,0,0,.08-.3l.08-.35L3.46,35l1.2-4.45L5.93,35l.38,1.4.13.4a.65.65,0,0,0,.1.21.86.86,0,0,0,.21.22,1.69,1.69,0,0,0,.33.17,1.46,1.46,0,0,0,.5.08H14a.83.83,0,0,0,.52-.2.73.73,0,0,0,.25-.6A1,1,0,0,0,14.78,36.47Zm-1.1,0a.35.35,0,0,1-.28.09h-.54L7.46,22.1h.4a.94.94,0,0,1,.45.07.5.5,0,0,1,.23.3l5.13,13.69C13.73,36.31,13.73,36.42,13.68,36.47Z"/><path class="cls-1" d="M20.62,32.89v3.47a1.76,1.76,0,0,1,0,.42.54.54,0,0,1-.15.3.69.69,0,0,1-.33.18,2.41,2.41,0,0,1-.6.06H16.63a2,2,0,0,1-.54-.06.77.77,0,0,1-.32-.18.59.59,0,0,1-.16-.29,2.5,2.5,0,0,1,0-.42V31.26a2.48,2.48,0,0,1,0-.41.62.62,0,0,1,.16-.3.77.77,0,0,1,.32-.18,2,2,0,0,1,.54-.06h3a1.66,1.66,0,0,1,.5.06.58.58,0,0,1,.3.19.54.54,0,0,1,.15.3,1.94,1.94,0,0,1,0,.44v.5M20,31.32a1.44,1.44,0,0,0,0-.24.21.21,0,0,0-.09-.13.25.25,0,0,0-.16-.05H19.5v5.86h.27a.34.34,0,0,0,.16-.06.21.21,0,0,0,.09-.13,1.44,1.44,0,0,0,0-.24Z"/><path class="cls-1" d="M27.89,34.05A3.73,3.73,0,0,0,28,35.2a2.16,2.16,0,0,0,.37.73,1.23,1.23,0,0,0,.49.38,1.28,1.28,0,0,0,.48.11,1.08,1.08,0,0,0,.32,0l.25-.11.19-.1a.21.21,0,0,1,.11,0s.07,0,.09,0l.06.07.24.37a.22.22,0,0,1,0,.1.08.08,0,0,1,0,.07l-.05.05a4,4,0,0,1-.56.33,4.14,4.14,0,0,1-.76.32,6.92,6.92,0,0,1-2.13.34,5.89,5.89,0,0,1-1-.09,4.56,4.56,0,0,1-1-.26,3.94,3.94,0,0,1-.88-.48,3.32,3.32,0,0,1-.7-.7,3.5,3.5,0,0,1-.47-1,4.34,4.34,0,0,1-.17-1.25,4.39,4.39,0,0,1,.17-1.25,3.44,3.44,0,0,1,.47-1,3.37,3.37,0,0,1,.7-.71,3.91,3.91,0,0,1,.88-.47,4.06,4.06,0,0,1,1-.27,5.88,5.88,0,0,1,1-.08,7.62,7.62,0,0,1,1.08.08,6.14,6.14,0,0,1,1,.23,4.82,4.82,0,0,1,.79.31,3.32,3.32,0,0,1,.58.33l.05,0a.08.08,0,0,1,0,.07.14.14,0,0,1,0,.1l-.24.37-.05.07s-.05,0-.09,0a.21.21,0,0,1-.11,0l-.17-.09-.24-.1a1,1,0,0,0-.31,0,1.28,1.28,0,0,0-.48.11,1.36,1.36,0,0,0-.49.39,2.26,2.26,0,0,0-.37.73A3.77,3.77,0,0,0,27.89,34.05Zm.91,2.64a1.59,1.59,0,0,1-.48-.2,1.77,1.77,0,0,1-.48-.47,2.53,2.53,0,0,1-.38-.79,4.72,4.72,0,0,1,0-2.36,2.42,2.42,0,0,1,.38-.79,1.82,1.82,0,0,1,.48-.48,1.59,1.59,0,0,1,.48-.2,2,2,0,0,0-.74.15,1.93,1.93,0,0,0-.66.46,2.39,2.39,0,0,0-.47.82,3.65,3.65,0,0,0-.18,1.22,3.61,3.61,0,0,0,.18,1.22,2.49,2.49,0,0,0,.47.82,1.77,1.77,0,0,0,.66.45A2,2,0,0,0,28.8,36.69Z"/><path class="cls-1" d="M36.48,30.64a1.18,1.18,0,0,1,.37-.2,1.35,1.35,0,0,1,.46-.07,1.23,1.23,0,0,1,1,.45,2,2,0,0,1,.37,1.33v5a.5.5,0,0,1,0,.19.24.24,0,0,1-.08.09.18.18,0,0,1-.1,0h-.56c-.12,0-.2,0-.23-.11a.4.4,0,0,1-.05-.22V32.08a1.11,1.11,0,0,0-.14-.6.54.54,0,0,0-.45-.2.76.76,0,0,0-.32.08,1.09,1.09,0,0,0-.26.19v5a2.58,2.58,0,0,1,0,.42.51.51,0,0,1-.13.29.56.56,0,0,1-.29.18,1.48,1.48,0,0,1-.52.07H32.34a1.1,1.1,0,0,1-.44-.07.7.7,0,0,1-.28-.17.6.6,0,0,1-.14-.3,1.76,1.76,0,0,1,0-.42V27.25a1.73,1.73,0,0,1,0-.41.61.61,0,0,1,.15-.3.75.75,0,0,1,.33-.18,1.88,1.88,0,0,1,.53-.06h3a1.75,1.75,0,0,1,.5.06.63.63,0,0,1,.31.17.6.6,0,0,1,.14.3,1.76,1.76,0,0,1,0,.42Zm-.58-3.32a1.25,1.25,0,0,0,0-.24.22.22,0,0,0-.08-.14.29.29,0,0,0-.17-.05h-.26V36.94h.26a.38.38,0,0,0,.17,0,.22.22,0,0,0,.08-.13,1.47,1.47,0,0,0,0-.25Z"/><path class="cls-1" d="M21.91,32.09a.14.14,0,0,1-.13-.13.94.94,0,0,0-.14-.48.51.51,0,0,0-.45-.2.71.71,0,0,0-.31.08.92.92,0,0,0-.26.19l-.2-.83a2.93,2.93,0,0,1,.56-.28,1.41,1.41,0,0,1,.47-.07,1.23,1.23,0,0,1,1,.45A1.94,1.94,0,0,1,22.83,32a.14.14,0,0,1-.15.15Z"/><path class="cls-1" d="M48.79,31.46a2.5,2.5,0,0,1,0-.42.55.55,0,0,1,.16-.29.77.77,0,0,1,.32-.18,2,2,0,0,1,.54-.06h3a1.82,1.82,0,0,1,.51,0,.64.64,0,0,1,.3.18.56.56,0,0,1,.14.29,1.8,1.8,0,0,1,0,.43v5.12a1.73,1.73,0,0,1,0,.41.61.61,0,0,1-.14.29.64.64,0,0,1-.3.18,1.78,1.78,0,0,1-.51.06h-3a1.65,1.65,0,0,1-.54-.07.88.88,0,0,1-.32-.17.62.62,0,0,1-.16-.3,2.5,2.5,0,0,1,0-.42Zm4.47.06a1.44,1.44,0,0,0,0-.24.25.25,0,0,0-.09-.13.34.34,0,0,0-.16-.06h-.27v5.86H53a.34.34,0,0,0,.16,0,.3.3,0,0,0,.09-.13,1.47,1.47,0,0,0,0-.25Z"/><path class="cls-1" d="M59.81,34.05A3.73,3.73,0,0,0,60,35.2a2,2,0,0,0,.37.73,1.28,1.28,0,0,0,.48.38,1.37,1.37,0,0,0,.49.11,1.12,1.12,0,0,0,.32,0l.25-.11.18-.1a.24.24,0,0,1,.12,0s.07,0,.09,0l.05.07.24.37a.16.16,0,0,1,0,.1.08.08,0,0,1,0,.07l-.05.05a4,4,0,0,1-.56.33,4.14,4.14,0,0,1-.76.32,6.92,6.92,0,0,1-2.13.34,5.89,5.89,0,0,1-1-.09,4.56,4.56,0,0,1-1-.26,3.94,3.94,0,0,1-.88-.48,3.1,3.1,0,0,1-.7-.7,3.5,3.5,0,0,1-.47-1,4.34,4.34,0,0,1-.17-1.25A4.39,4.39,0,0,1,55,32.8a3.44,3.44,0,0,1,.47-1,3.15,3.15,0,0,1,.7-.71,3.91,3.91,0,0,1,.88-.47,4.06,4.06,0,0,1,1-.27,5.88,5.88,0,0,1,1-.08,7.62,7.62,0,0,1,1.08.08,6.74,6.74,0,0,1,1,.23,4.82,4.82,0,0,1,.79.31,2.87,2.87,0,0,1,.57.33l.06,0a.08.08,0,0,1,0,.07.14.14,0,0,1,0,.1l-.24.37a.22.22,0,0,1-.06.07s0,0-.08,0a.21.21,0,0,1-.11,0l-.17-.09-.24-.1a1,1,0,0,0-.31,0,1.37,1.37,0,0,0-.49.11,1.43,1.43,0,0,0-.48.39,2.08,2.08,0,0,0-.37.73A3.77,3.77,0,0,0,59.81,34.05Zm.91,2.64a1.59,1.59,0,0,1-.48-.2,1.8,1.8,0,0,1-.49-.47,2.76,2.76,0,0,1-.37-.79,4.72,4.72,0,0,1,0-2.36,2.64,2.64,0,0,1,.37-.79,1.85,1.85,0,0,1,.49-.48,1.59,1.59,0,0,1,.48-.2,2,2,0,0,0-.74.15,1.93,1.93,0,0,0-.66.46,2.39,2.39,0,0,0-.47.82,3.63,3.63,0,0,0-.19,1.22,3.59,3.59,0,0,0,.19,1.22,2.49,2.49,0,0,0,.47.82,1.77,1.77,0,0,0,.66.45A2,2,0,0,0,60.72,36.69Z"/><path class="cls-2" d="M44.28,31.07a.24.24,0,0,0-.13-.13.91.91,0,0,0-.27,0h-.24l3.24,6.19h.33a.28.28,0,0,0,.16,0s0-.07,0-.13Z"/><polygon class="cls-2" points="41.96 34.55 41.24 36.46 42.72 36.46 41.96 34.55"/><path d="M48,37.07A.61.61,0,0,0,48,37l-3.15-6a.91.91,0,0,0-.13-.22.86.86,0,0,0-.13-.14.46.46,0,0,0-.16-.07.68.68,0,0,0-.21,0h-1a.53.53,0,0,0-.37.12.81.81,0,0,0-.23.34l-2.87,6.18a1.47,1.47,0,0,0-.06.14.26.26,0,0,0,0,.1c0,.09.08.13.22.13h.71a.5.5,0,0,0,.19,0,.2.2,0,0,0,.11-.06.36.36,0,0,0,.07-.1.89.89,0,0,0,0-.13l0-.14.22-.6L42,34.55l.76,1.91.23.6.07.17.06.09a.48.48,0,0,0,.13.09.77.77,0,0,0,.2.07.87.87,0,0,0,.3,0h3.88a.59.59,0,0,0,.31-.09.27.27,0,0,0,.15-.26S48,37.1,48,37.07Zm-.67,0a.28.28,0,0,1-.16,0h-.33l-3.24-6.19h.24a.91.91,0,0,1,.27,0,.24.24,0,0,1,.13.13l3.08,5.87C47.4,37,47.4,37.05,47.37,37.07Z"/><circle cx="51.36" cy="27.29" r="2.48"/><circle class="cls-3" cx="51.36" cy="27.29" r="0.9"/><circle cx="51.36" cy="27.29" r="0.33"/><path class="cls-3" d="M50.43,25.85l-.12-.23s0-.16.09-.2a2.6,2.6,0,0,1,.71-.2c.28,0,.32,0,.32,0a.09.09,0,0,1,0,.09c0,.05,0,.75,0,.75a1.53,1.53,0,0,0-.56.1c-.12.1-.27-.05-.27-.05Z"/><path class="cls-3" d="M49.89,25.79s.12-.12.23,0a5.33,5.33,0,0,1,.39.49s0,.12,0,.15-.17,0-.17,0L49.91,26A.32.32,0,0,1,49.89,25.79Z"/><path class="cls-3" d="M52.37,28.82l.13.23s0,.15-.09.19a2.75,2.75,0,0,1-.72.21c-.27,0-.31,0-.31,0a.09.09,0,0,1,0-.08c0-.05,0-.76,0-.76a1.41,1.41,0,0,0,.57-.1c.12-.09.26.06.26.06Z"/><path class="cls-3" d="M52.91,28.87s-.12.13-.23,0a4.85,4.85,0,0,1-.38-.49s0-.12,0-.15.17,0,.17,0l.42.38A.28.28,0,0,1,52.91,28.87Z"/><text class="cls-4" transform="translate(45.52 41.47)">Reco<tspan class="cls-5" x="10.76" y="0">r</tspan><tspan x="12.01" y="0">d</tspan><tspan class="cls-6" x="14.89" y="0">s</tspan><tspan x="16.18" y="0">.</tspan></text></svg>