<svg xmlns="http://www.w3.org/2000/svg" width="4in" height="4in" viewBox="0 0 288 288"><path fill="#b4daa7" d="M218.3 218a4.4 4.4 0 0 0 3 1.2 4.2 4.2 0 0 0 3-7.1l-27.9-27.9a67.5 67.5 0 0 0-2.9-92.3C183 81.4 169 72.3 151.9 64.7a254.1 254.1 0 0 0-46.3-15.1 332.2 332.2 0 0 0-53.4-8 3.6 3.6 0 0 0-3.1 1.2 4.2 4.2 0 0 0-1.3 3.2 340.9 340.9 0 0 0 8.1 53.3 259.5 259.5 0 0 0 15 46.3c7.6 17.2 16.8 31.2 27.3 41.6a67.2 67.2 0 0 0 92.2 2.9zm-40.1-83.7a4.1 4.1 0 0 0-4.2 4.1v23.4l-17.4-17.4v-31.8a4.2 4.2 0 0 0-4.2-4.2 4.2 4.2 0 0 0-4.2 4.2V136l-17.4-17.5V86.8a4.2 4.2 0 0 0-4.2-4.2 4.2 4.2 0 0 0-4.2 4.2v23.4L99.9 87.7a4.2 4.2 0 0 0-6 0 4.2 4.2 0 0 0 0 5.9l22.5 22.5H93.1a4.2 4.2 0 1 0 0 8.4h31.7l17.4 17.4h-23.3a4.2 4.2 0 1 0 0 8.4h31.7l17.4 17.4h-23.3a4.2 4.2 0 0 0 0 8.4h31.7l8.1 8.1a59 59 0 0 1-80.4-2.9c-22.1-22.1-34-57.7-40-83.7a337.2 337.2 0 0 1-7.5-47.3 355.6 355.6 0 0 1 47.3 7.5c25.9 6 61.5 17.9 83.7 40a59.1 59.1 0 0 1 2.8 80.4l-8-8v-31.8a4.1 4.1 0 0 0-4.2-4.1z"/></svg>