<svg xmlns="http://www.w3.org/2000/svg" width="4in" height="4in" viewBox="0 0 288 288"><path fill="#b5dba8" d="M80.7 151.4a4.2 4.2 0 0 0-4.2 4.2v23a4.2 4.2 0 0 0 4.2 4.2h12.5l10.4 80.8a4.2 4.2 0 0 0 4.2 3.6h72.5a4.2 4.2 0 0 0 4.1-3.6l10.4-80.8h12.5a4.2 4.2 0 0 0 4.2-4.2v-23a4.2 4.2 0 0 0-4.2-4.2h-54.8a28.6 28.6 0 0 0 4-16.1 33.3 33.3 0 0 0 11.7 2.2 32.3 32.3 0 0 0 32.1-29.7 4.2 4.2 0 0 0-1.9-3.8 32.3 32.3 0 0 0-18.2-5.6 31.7 31.7 0 0 0-13.8 3.2 32.1 32.1 0 0 0-14.7 14.2c-2.2-5.6-5.1-11.2-7.9-16.7-7.8-15.6-15.8-31.5-13.2-47.5A32.7 32.7 0 0 0 159.2 69a32.4 32.4 0 0 0 20.9-7.8 4.3 4.3 0 0 0 1.4-3.9 32.3 32.3 0 0 0-20.9-24.4 30.6 30.6 0 0 0-10.7-1.9 31.3 31.3 0 0 0-10.5 1.8 64.8 64.8 0 0 1 4.4-4.9 4.2 4.2 0 1 0-5.9-5.9c-12.6 12.6-17.8 26.4-15.8 42.2a71.6 71.6 0 0 0 4.3 16.8 31.7 31.7 0 0 0-13.2-2.9 33.6 33.6 0 0 0-8.9 1.3 32.4 32.4 0 0 0-22.4 23.2 4.3 4.3 0 0 0 1.2 4 32.1 32.1 0 0 0 22.3 9 30 30 0 0 0 8.9-1.3A32.2 32.2 0 0 0 134 98.1l2.4 4.7c10.9 21.8 17.2 36 5.8 48.6zm89.3-42.3a22.7 22.7 0 0 1 10.2-2.3 23.8 23.8 0 0 1 11.4 2.8 23.8 23.8 0 0 1-13.1 17.2 24.6 24.6 0 0 1-10.3 2.3 24.2 24.2 0 0 1-11.3-2.8 23.6 23.6 0 0 1 13.1-17.2zm-20.1-69.7a23.8 23.8 0 0 1 7.9 1.3 24.3 24.3 0 0 1 14.9 15.7 24.3 24.3 0 0 1-21.5 2.9 23.9 23.9 0 0 1-14.8-15.7 23.7 23.7 0 0 1 13.5-4.2zM112 106.3a25 25 0 0 1-6.6.9 23.5 23.5 0 0 1-14.6-5 23.6 23.6 0 0 1 22.4-15.7 24.1 24.1 0 0 1 14.6 5 24.1 24.1 0 0 1-15.8 14.8zm64.6 152.6h-65.2l-9.7-76.1h84.6zm26.5-99.2v14.7H84.9v-14.7z"/></svg>