<svg xmlns="http://www.w3.org/2000/svg" width="4in" height="4in" viewBox="0 0 288 288"><path fill="#b5dba8" d="M233.4 228.8H59.3a28.6 28.6 0 0 1-28.5-28.5v-94.5a28.6 28.6 0 0 1 28.5-28.5h174.1a28.5 28.5 0 0 1 28.4 28.5v94.5a28.5 28.5 0 0 1-28.4 28.5zM59.3 85.1a20.7 20.7 0 0 0-20.8 20.7v94.5A20.8 20.8 0 0 0 59.3 221h174.1a20.7 20.7 0 0 0 20.7-20.7v-94.5a20.7 20.7 0 0 0-20.7-20.7z"/><path fill="#b5dba8" d="M36.9 102.8h218.9v25.57H36.9zM57.3 147h82.6v7.46H57.3zm0 21h82.6v7.46H57.3zm0 21.5h82.6v7.46H57.3z"/></svg>