<svg xmlns="http://www.w3.org/2000/svg" width="4in" height="4in" viewBox="0 0 288 288"><path fill="#b5dba8" d="M213.1 236.3a11.2 11.2 0 0 1-10.7 8.1H85.6a11.2 11.2 0 0 1-10.7-8.1L45.2 129.7h30.6l65.5-68.6a2.8 2.8 0 0 1 4.2.2 3.5 3.5 0 0 1-.2 4.6l-60.8 63.8h126.8l-53-84.6a3.6 3.6 0 0 1 .7-4.6 2.7 2.7 0 0 1 4.1.7l55.4 88.5h24.3z"/><path fill="#fff" d="M155.7 166.7l-2.4 49.6h14.6l6.2-49.6h-18.4zm-75.5 0l13.1 49.6h14.6l-9.3-49.6H80.2zm37.7 0l5.4 49.6h14.6l-1.5-49.6h-18.5zm75.5 0l-10.1 49.6h14.6l14-49.6h-18.5z"/></svg>