<svg xmlns="http://www.w3.org/2000/svg" width="4in" height="4in" viewBox="0 0 288 288"><path fill="#b5dba8" d="M115.2 215.4a19 19 0 1 1-19 19 19 19 0 0 1 19-19zm82.7 0a19 19 0 1 1-18.9 19 19 19 0 0 1 18.9-19zm48.3-103.9h-117a9.3 9.3 0 0 0-6.9 9.2 10.4 10.4 0 0 0 6.9 9.8h104.9l-5.9 20H125.1a8.5 8.5 0 0 0-6.5 8.5 9.8 9.8 0 0 0 6.5 9.2H223l-5.6 18.6H111l-7.1-56.3-2.3-19s-2-17.5-3.2-24.8-19.3-16.3-58.5-34.8c-9.1-3.8-16.8 13 0 21.8l30.9 14.4s7.2 4.2 7.8 9.7 13.1 98.4 13.1 98.4.5 12.9 12.2 12.9h117.7c9.8 0 11.8-10.3 11.8-10.3l23.3-69.2s6.9-18.1-10.5-18.1z"/></svg>